# vtk DataFile Version 4.2
Higgs Field 2D Slice - phi
ASCII

DATASET STRUCTURED_POINTS
DIMENSIONS 48 48 1
ORIGIN 0 0 0
SPACING 2.0833333 2.0833333 2.0833333

POINT_DATA 2304

SCALARS phi double 1
LOOKUP_TABLE default
246.21999998776283 246.21999998788596 246.21999998824734 246.2199999890787 246.2199999910289 246.21999999532719 246.22000000453144 246.22000002340346 246.22000006039602 246.22000012969144 246.22000025358457 246.2200004647971 246.22000080781726 246.22000133798835 246.22000211681828 246.22000320264561 246.22000463638366 246.22000642431885 246.22000852163686 246.22001082201922 246.2200131584682 246.2200153189078 246.2200170759236 246.22001822548089 246.22001862580515 246.22001822609195 246.22001707715995 246.22001532076942 246.22001316092667 246.22001082508876 246.22000852528905 246.2200064285537 246.22000464118693 246.2200032079889 246.22000212268736 246.22000134436902 246.2200008146953 246.2200004721299 246.2200002613579 246.2200001378769 246.22000006896516 246.22000003234209 246.22000001381113 246.2200000049053 246.22000000087704 246.21999999918262 246.2199999985502 246.21999999838778 246.21999998788596 246.2199999882416 246.21999998915396 246.219999991398 246.21999999664075 246.2200000084233 246.22000003374606 246.22000008581378 246.22000018812068 246.22000037998134 246.22000072322157 246.2200013085962 246.22000225944691 246.2200037292352 246.22000588857895 246.22000889923152 246.22001287464957 246.22001783225176 246.22002364783137 246.2200300264748 246.22003650514876 246.22004249574562 246.22004736755497 246.2200505548361 246.22005166442042 246.22005055546137 246.22004736880552 246.22004249759303 246.22003650762144 246.22003002954435 246.22002365148356 246.2200178364866 246.22001287943863 246.2200089045748 246.22000589444804 246.22000373560167 246.22000226631076 246.2200013159148 246.2200007309949 246.2200003881668 246.22000019668982 246.2200000947524 246.22000004301154 246.22000001798722 246.22000000648887 246.2200000014877 246.21999999945683 246.2199999987292 246.21999998824734 246.21999998915396 246.21999999154372 246.21999999739404 246.22000001121174 246.2200000423193 246.22000010937091 246.2200002474295 246.22000051881335 246.22000102798117 246.22000193908562 246.22000349308556 246.22000601753885 246.22000991987252 246.2200156532202 246.22002364702135 246.2200342025532 246.22004736609125 246.2200628077666 246.2200797446046 246.2200969470171 246.22011285339445 246.2201257890929 246.22013425180407 246.22013719756592 246.22013425241514 246.22012579032923 246.22011285525608 246.2200969494756 246.22007974765992 246.22006281141879 246.22004737031187 246.22003420732804 246.22002365235042 246.22001565907507 246.220009926239 246.22000602438848 246.22000350038994 246.22000194684475 246.2200010361382 246.22000052736828 246.2200002563255 246.22000011860797 246.220000051869 246.22000002101723 246.22000000745533 246.22000000180395 246.21999999961315 246.2199999890787 246.219999991398 246.21999999739404 246.2200000122171 246.22000004720334 246.22000012617792 246.2200002964833 246.22000064726805 246.22000133706464 246.22000263137616 246.2200049476017 246.22000889835044 246.22001531652037 246.220025237985 246.22003981478576 246.22006013887193 246.22008697621382 246.22012044449022 246.22015970497753 246.22020276693905 246.22024650413186 246.22028694611615 246.22031983502347 246.22034135123985 246.22034884048213 246.22034135185092 246.22031983625982 246.22028694794935 246.22024650657613 246.22020276998018 246.2201597086013 246.22012044869663 246.22008698097446 246.22006014417258 246.22003982061221 246.22002524430883 246.22001532334158 246.2200089056264 246.2200049553182 246.22000263949056 246.22000134557695 246.22000065613562 246.22000030567773 246.22000013567077 246.2200000569804 246.22000002223575 246.22000000762586 246.22000000181455 246.2199999910289 246.21999999664075 246.22000001121174 246.22000004720334 246.2200001322767 246.22000032440062 246.2200007388524 246.22000159266773 246.22000327177938 246.22000642258513 246.22001206125887 246.22002167922082 246.22003730419263 246.22006145801305 246.2200969454397 246.22014642482978 246.22021176096715 246.22029324036555 246.22038882110024 246.22049365663318 246.2206001360565 246.22069859316989 246.22077866204577 246.22083104362628 246.2208492760216 246.22083104423734 246.2207786632679 246.22069859500309 246.22060013848656 246.2204936596601 246.2203888247098 246.22029324454354 246.22021176569936 246.220146430102 246.22009695123774 246.22006146430846 246.2200373109712 246.22002168645415 246.22001206891852 246.2200064306569 246.22000328023483 246.22000160147846 246.22000074798999 246.22000033383662 246.22000014199693 246.22000005716515 246.2200000213725 246.22000000698625 246.21999999532719 246.2200000084233 246.2200000423193 246.22000012617792 246.22000032440062 246.22000077212027 246.22000173811097 246.2200037283115 246.22000764232075 246.22001498703924 246.22002813128847 246.22005055176655 246.22008697536117 246.22014328081235 246.22022600638155 246.22034134905138 246.2204936558658 246.22068359477353 246.22090640574456 246.2211507908758 246.2213990081144 246.22162852428607 246.22181517500812 246.22193728301136 246.22197978472303 246.22193728362242 246.22181517623025 246.22162852610506 246.22139901053023 246.2211507938743 246.2209064093257 246.2206835989231 246.22049366055538 246.22034135428098 246.22022601212274 246.22014328705092 246.2200869820829 246.22005055894303 246.22002813889128 246.22001499505416 246.22000765071937 246.22000373705117 246.2200017471917 246.22000078149944 246.22000033403557 246.22000013605447 246.220000052409 246.22000001868355 246.22000000453144 246.22000003374606 246.22000010937091 246.2200002964833 246.2200007388524 246.22000173811097 246.22000389417707 246.22000833635232 246.22001707272616 246.22003346678798 246.22006280608971 246.22011285102124 246.22019415255866 246.22031983274974 246.22050448577244 246.22076194401572 246.22110191065934 246.22152587658437 246.22202321683696 246.2225687131981 246.22312276326156 246.2236350703029 246.22405169657085 246.22432425581977 246.22441912430136 246.22432425641662 246.22405169777878 246.22363507210767 246.22312276564898 246.22256871616815 246.22202322038967 246.2215258806771 246.2211019153063 246.22076194920268 246.22050449145678 246.22031983893146 246.22019415920934 246.22011285812667 246.22006281362147 246.22003347473185 246.22001708103952 246.22000834502094 246.22000390315833 246.22000174739065 246.2200007484021 246.22000030626037 246.22000011936115 246.22000004392103 246.22000002340346 246.22000008581378 246.2200002474295 246.22000064726805 246.22000159266773 246.2200037283115 246.22000833635232 246.22001783051803 246.22003650269028 246.22007154172516 246.22013424873452 246.22024121010313 246.22041497653657 246.2206835939635 246.22107825467043 246.22162852279394 246.22235513700275 246.22326128383435 246.2243242544413 246.22549014962436 246.22667432670127 246.22776928599214 246.22865974565988 246.22924228922327 246.22944505235628 246.22924228982012 246.22865974683938 246.2277692877685 246.22667432907448 246.225490152566 246.2243242579514 246.22326128788444 246.22235514160707 246.22162852790984 246.22107826029793 246.22068360007418 246.2204149831162 246.2202412171233 246.220134256181 246.22007154956955 246.22003651090415 246.22001783908718 246.2200083452341 246.2200037374775 246.22000160210374 246.22000065694564 246.22000025730605 246.22000009587506 246.22000006039602 246.22000018812068 246.22000051881335 246.22000133706464 246.22000327177938 246.22000764232075 246.22001707272616 246.22003650269028 246.2200747156792 246.22014642396292 246.22027475556567 246.22049365502735 246.22084927310837 246.2213990065654 246.2222066914162 246.22333283156334 246.22481986930634 246.22667432597652 246.22884972727246 246.23123576681934 246.23365922081638 246.2359000878799 246.2377224402781 246.238914633047 246.23932959363458 246.23891463364384 246.2377224414434 246.23590008964206 246.23365922314696 246.23123576971835 246.2288497307399 246.22667432998398 246.2248198738396 246.2233328366224 246.22220669697265 246.22139901260502 246.22084927960273 246.22049366196225 246.22027476291268 246.22014643170783 246.2200747237936 246.22003651114574 246.22001708149426 246.22000765137307 246.2200032810875 246.22000134661434 246.220000528562 246.22000019805407 246.22000012969144 246.22000037998134 246.22000102798117 246.22000263137616 246.22000642258513 246.22001498703924 246.22003346678798 246.22007154172516 246.22014642396292 246.22028694374293 246.22053842284956 246.22096737920904 246.22166425005275 246.22274151043703 246.22432425367393 246.22653104359915 246.22944505032413 246.23307905314022 246.23734198069138 246.2420176760679 246.24676668898357 246.2511579035979 246.25472899464438 246.257065221608 246.25787838025798 246.25706522219065 246.25472899580967 246.25115790533164 246.24676669128573 246.24201767892427 246.237341984102 246.23307905707662 246.22944505480055 246.22653104857295 246.2243242591451 246.22274151637717 246.22166425646185 246.22096738604446 246.22053843008288 246.22028695137416 246.22014643196363 246.22007155005272 246.22003347542818 246.22001499596365 246.22000643176534 246.22000264078375 246.2200010375877 246.2200003897584 246.22000025358457 246.22000072322157 246.22000193908562 246.2200049476017 246.22001206125887 246.22002813128847 246.22006280608971 246.22013424873452 246.22027475556567 246.22053842284956 246.22101029109976 246.2218151727628 246.22312276172678 246.22514410304356 246.2281139183904 246.2322546776362 246.23772243888544 246.2445411808072 246.25254001969878 246.2613133646594 246.27022428065945 246.27846383380194 246.28516452982447 246.2895481610779 246.29107394918404 246.28954816164634 246.28516453096134 246.27846383550724 246.27022428291897 246.26131336747315 246.25254002305255 246.24454118468677 246.2377224432766 246.23225468252474 246.2281139237763 246.22514410889843 246.2231227680222 246.22181517948454 246.2210102982194 246.2205384303529 246.22027476342427 246.22013425691998 246.2200628145878 246.22002814005657 246.22001207028276 246.22000495685296 246.22000194853584 246.22000073284232 246.2200004647971 246.2200013085962 246.22000349308556 246.22000889835044 246.22002167922082 246.22005055176655 246.22011285102124 246.22024121010313 246.22049365502735 246.22096737920904 246.2218151727628 246.22326128303854 246.22561059473108 246.22924228710585 246.23457807866194 246.24201767532892 246.25184146277564 246.2640925228418 246.27846383313403 246.29422667878023 246.31023669479026 246.32504049024652 246.3370794602095 246.34495541881873 246.34769676329518 246.34495541937295 246.33707946133217 246.3250404919234 246.31023669700716 246.29422668153714 246.27846383643094 246.2640925266503 246.25184146709574 246.2420176801464 246.23457808394838 246.22924229286124 246.2256106009128 246.22326128963238 246.22181517975454 246.22096738658448 246.22049366275806 246.22024121814647 246.220112859363 246.22005056037833 246.2200216880884 246.2200089074454 246.22000350236524 246.22000131803222 246.22000080781726 246.22000225944691 246.22000601753885 246.22001531652037 246.22003730419263 246.22008697536117 246.22019415255866 246.22041497653657 246.22084927310837 246.22166425005275 246.22312276172678 246.22561059473108 246.2296522610888 246.23590008644462 246.24507957919337 246.25787837828267 246.27477884853243 246.2958551062875 246.32057896193405 246.34769676207304 246.37523978470858 246.400707671378 246.42141905738725 246.43496855693053 246.4396846615232 246.43496855747054 246.4214190584957 246.40070767302646 246.37523978689705 246.3476967647731 246.3205789651599 246.29585511002495 246.27477885276727 246.25787838300067 246.24507958438033 246.23590009207211 246.22965226715684 246.22561060119702 246.22312276859063 246.22166425728608 246.22084928066855 246.2204149844236 246.22019416074411 246.22008698380242 246.22003731288967 246.22001532543058 246.2200060266338 246.2200022687124 246.22000133798835 246.2200037292352 246.22000991987252 246.220025237985 246.22006145801305 246.22014328081235 246.22031983274974 246.2206835939635 246.2213990065654 246.22274151043703 246.22514410304356 246.22924228710585 246.23590008644462 246.24619207095895 246.26131336394886 246.28239670662686 246.31023669410814 246.34495541755396 246.38568279509695 246.43035369517693 246.47572506032512 246.51767807325092 246.55179574684112 246.57411571136618 246.58188450647447 246.5741157119062 246.55179574790694 246.51767807485675 246.47572506245675 246.43035369782015 246.38568279825176 246.34495542120615 246.3102366982435 246.28239671124538 246.26131336902213 246.24619207647277 246.23590009237054 246.2292422934439 246.22514410975108 246.22274151749983 246.22139901396926 246.22068360168 246.22031984075045 246.22014328908307 246.22006146652535 246.22002524669625 246.22000992878273 246.22000373828752 246.22000211681828 246.22000588857895 246.2200156532202 246.22003981478576 246.2200969454397 246.22022600638155 246.22050448577244 246.22107825467043 246.2222066914162 246.22432425367393 246.2281139183904 246.23457807866194 246.24507957919337 246.26131336394886 246.28516452847444 246.31841977169648 246.36233242676823 246.4170950709429 246.4813353040106 246.55179574623006 246.62336104819323 246.68953450424834 246.74334909858797 246.7785548939482 246.79080879373882 246.778554894474 246.74334909963957 246.68953450581154 246.62336105026802 246.55179574881643 246.48133530709435 246.41709507450983 246.36233243080412 246.31841977620132 246.28516453343403 246.26131336933477 246.2450795849914 246.23457808484366 246.2281139249416 246.2243242605804 246.22220669864953 246.22107826220218 246.2205044935884 246.22022601445332 246.22009695375306 246.22003982329807 246.22001566191724 246.22000589743232 246.22000320264561 246.22000889923152 246.22002364702135 246.22006013887193 246.22014642482978 246.22034134905138 246.22076194401572 246.22162852279394 246.22333283156334 246.22653104359915 246.2322546776362 246.24201767532892 246.25787837828267 246.28239670662686 246.31841977169648 246.36864607358902 246.43496855567997 246.51767807262564 246.61470185088734 246.72112018091872 246.82920721077326 246.92915078851604 247.0104284398759 247.06360071394622 247.08210811330125 247.0636007144578 247.0104284408991 246.92915079003657 246.82920721280541 246.72112018344825 246.61470185390004 246.5176780761073 246.4349685596306 246.36864607799438 246.31841977652817 246.28239671188487 246.2578783839386 246.24201768136854 246.2322546840311 246.2265310503351 246.22333283861192 246.22162853014095 246.22076195164695 246.2203413569242 246.22014643292997 246.22006014717107 246.22002365549102 246.2200089078575 246.22000463638366 246.22001287464957 246.2200342025532 246.22008697621382 246.22021176096715 246.2204936558658 246.22110191065934 246.22235513700275 246.22481986930634 246.22944505032413 246.23772243888544 246.25184146277564 246.27477884853243 246.31023669410814 246.36233242676823 246.43496855567997 246.53088261220935 246.65049522373462 246.79080879258774 246.94470854731358 247.10102153757072 247.2455576536236 247.36309953389681 247.4399960603652 247.4667610378753 247.43999606086257 247.36309953489157 247.24555765511573 247.10102153956024 246.94470854978627 246.7908087955294 246.65049522713102 246.53088261604628 246.43496855995744 246.36233243147203 246.31023669920984 246.27477885403204 246.25184146865894 246.2377224451098 246.22944505688955 246.2248198761702 246.22235514416502 246.2211019180774 246.22049366353966 246.22021176885417 246.2200869842856 246.2200342107955 246.22001288304818 246.22000642431885 246.22001783225176 246.22004736609125 246.22012044449022 246.22029324036555 246.22068359477353 246.22152587658437 246.22326128383435 246.22667432597652 246.23307905314022 246.2445411808072 246.2640925228418 246.2958551062875 246.34495541755396 246.4170950709429 246.51767807262564 246.65049522373462 246.81612898877376 247.01042843930747 247.22354138358017 247.43999605981097 247.64014268968074 247.8029090061083 247.90939160044186 247.9464544480023 247.90939160092503 247.80290900708886 247.64014269113025 247.43999606174364 247.2235413859818 247.01042844214965 246.81612899208486 246.65049522747208 246.51767807678942 246.4170950755188 246.34495542251355 246.29585511163077 246.26409252855456 246.24454118686103 246.23307905950668 246.22667433265562 246.22326129078346 246.22152588378927 246.22068360223423 246.2202932480252 246.22012045234882 246.22004737412038 246.220017840423 246.22000852163686 246.22002364783137 246.2200628077666 246.22015970497753 246.22038882110024 246.22090640574456 246.22202321683696 246.2243242544413 246.22884972727246 246.23734198069138 246.25254001969878 246.27846383313403 246.32057896193405 246.38568279509695 246.4813353040106 246.61470185088734 246.79080879258774 247.01042843930747 247.2680569287069 247.55063089256515 247.83763577660056 248.10301724717374 248.31883484271222 248.4600238674006 248.50916680317374 248.46002386786955 248.31883484365014 248.1030172485806 247.8376357784764 247.55063089489573 247.26805693147801 247.01042844250492 246.79080879622572 246.61470185493744 246.4813353084444 246.38568279991443 246.320578967121 246.27846383867626 246.25254002556787 246.2373419868731 246.2288497337526 246.22432426119147 246.2220232238429 246.22090641297788 246.22038882853252 246.22015971259455 246.22006281555414 246.22002365574681 246.22001082201922 246.2200300264748 246.2200797446046 246.22020276693905 246.22049365663318 246.2211507908758 246.2225687131981 246.22549014962436 246.23123576681934 246.2420176760679 246.2613133646594 246.29422667878023 246.34769676207304 246.43035369517693 246.55179574623006 246.72112018091872 246.94470854731358 247.22354138358017 247.55063089256515 247.90939159991606 248.27377787881792 248.6107107044562 248.88471639191602 249.06397237738108 249.12636508383906 249.06397237785004 248.88471639283972 248.61071070582045 248.2737778806369 247.9093916021756 247.55063089526521 247.22354138669235 246.94470855083787 246.7211201848267 246.55179575053594 246.4303536998381 246.34769676708947 246.29422668413773 246.26131337034374 246.24201768205066 246.23123577308633 246.22549015616136 246.22256871997666 246.22115079788176 246.22049366383808 246.2202027743145 246.22007975213634 246.22003003414866 246.2200131584682 246.22003650514876 246.2200969470171 246.22024650413186 246.2206001360565 246.2213990081144 246.22312276326156 246.22667432670127 246.23365922081638 246.24676668898357 246.27022428065945 246.31023669479026 246.37523978470858 246.47572506032512 246.62336104819323 246.82920721077326 247.10102153757072 247.43999605981097 247.83763577660056 248.27377787881792 248.71675893678625 249.1263650833701 249.4594712850795 249.67739114286204 249.75324138393108 249.67739114330257 249.45947128596057 249.1263650846917 248.7167589385484 248.2737778810064 247.83763577920115 247.43999606282364 247.1010215409671 246.82920721456756 246.6233610523428 246.47572506482996 246.3752397895687 246.310236699963 246.27022428614484 246.2467666947674 246.2336592268702 246.2266743330251 246.22312276981276 246.22139901487876 246.22060014301982 246.2202465112515 246.22009695429307 246.22003651256682 246.2200153189078 246.22004249574562 246.22011285339445 246.22028694611615 246.22069859316989 246.22162852428607 246.2236350703029 246.22776928599214 246.2359000878799 246.2511579035979 246.27846383380194 246.32504049024652 246.400707671378 246.51767807325092 246.68953450424834 246.92915078851604 247.2455576536236 247.64014268968074 248.10301724717374 248.6107107044562 249.1263650833701 249.60316922501062 249.990923212352 250.24459394361273 250.33288780682057 250.24459394403905 249.99092321320464 249.6031692262896 249.1263650850612 248.61071070657363 248.10301724967485 247.64014269257976 247.2455576569063 246.9291507921682 246.6895345082558 246.51767807761365 246.40070767606758 246.32504049524874 246.27846383910259 246.25115790918278 246.23590009373478 246.2277692920886 246.22363507662672 246.22162853080886 246.22069859989162 246.2202869529942 246.22011286042883 246.22004250289368 246.2200170759236 246.22004736755497 246.2201257890929 246.22031983502347 246.22077866204577 246.22181517500812 246.22405169657085 246.22865974565988 246.2377224402781 246.25472899464438 246.28516452982447 246.3370794602095 246.42141905738725 246.55179574684112 246.74334909858797 247.0104284398759 247.36309953389681 247.8029090061083 248.31883484271222 248.88471639191602 249.4594712850795 249.990923212352 250.4231187112724 250.70586331694687 250.80427677365793 250.705863317359 250.42311871209662 249.99092321358833 249.45947128671375 248.88471639396238 248.31883484512807 247.80290900890785 247.36309953706584 247.0104284434002 246.74334910245332 246.55179575103332 246.4214190619063 246.337079465027 246.28516453492617 246.2547290000303 246.2377224459056 246.22865975152897 246.2240517026673 246.22181518130353 246.2207786685117 246.22031984165994 246.22012579585726 246.22004737444723 246.22001822548089 246.2200505548361 246.22013425180407 246.22034135123985 246.22083104362628 246.22193728301136 246.22432425581977 246.22924228922327 246.238914633047 246.257065221608 246.2895481610779 246.34495541881873 246.43496855693053 246.57411571136618 246.7785548939482 247.06360071394622 247.4399960603652 247.90939160044186 248.4600238674006 249.06397237738108 249.67739114286204 250.24459394361273 250.70586331694687 251.00762820666634 251.11266195554865 251.00762820707845 250.70586331774268 250.24459394480644 249.67739114443944 249.06397237934218 248.46002386973117 247.90939160314193 247.43999606340628 247.0636007173426 246.77855489767146 246.57411571540206 246.43496856126484 246.34495542345147 246.28954816599486 246.25706522678075 246.23891463847553 246.22924229487919 246.22432426167464 246.22193728906518 246.22083104985063 246.22034135762053 246.22013425831264 246.22005056147256 246.22001862580515 246.22005166442042 246.22013719756592 246.22034884048213 246.2208492760216 246.22197978472303 246.22441912430136 246.22944505235628 246.23932959363458 246.25787838025798 246.29107394918404 246.34769676329518 246.4396846615232 246.58188450647447 246.79080879373882 247.08210811330125 247.4667610378753 247.9464544480023 248.50916680317374 249.12636508383906 249.75324138393108 250.33288780682057 250.80427677365793 251.11266195554865 251.21999999538147 251.11266195594655 250.80427677442532 250.33288780795743 249.75324138545164 249.12636508572908 248.50916680540482 247.94645445058867 247.46676104080274 247.08210811655553 246.79080879730574 246.58188451033982 246.43968466568697 246.34769676774317 246.29107395390204 246.25787838523178 246.23932959883575 246.22944505778483 246.22441912991465 246.22197979052106 246.22084928199016 246.2203488465928 246.2201372038187 246.2200516707869 246.22001822609195 246.22005055546137 246.22013425241514 246.22034135185092 246.22083104423734 246.22193728362242 246.22432425641662 246.22924228982012 246.23891463364384 246.25706522219065 246.28954816164634 246.34495541937295 246.43496855747054 246.5741157119062 246.778554894474 247.0636007144578 247.43999606086257 247.90939160092503 248.46002386786955 249.06397237785004 249.67739114330257 250.24459394403905 250.705863317359 251.00762820707845 251.11266195594655 251.00762820744794 250.70586331809795 250.2445939451333 249.67739114475208 249.0639723796548 248.4600238700154 247.90939160341193 247.43999606366208 247.0636007175842 246.77855489789883 246.57411571561522 246.4349685614638 246.3449554236362 246.2895481661654 246.25706522695128 246.23891463861764 246.2292422950213 246.22432426180254 246.22193728919308 246.22083104996432 246.22034135772 246.22013425841212 246.22005056155783 246.22001707715995 246.22004736880552 246.22012579032923 246.22031983625982 246.2207786632679 246.22181517623025 246.22405169777878 246.22865974683938 246.2377224414434 246.25472899580967 246.28516453096134 246.33707946133217 246.4214190584957 246.55179574790694 246.74334909963957 247.0104284408991 247.36309953489157 247.80290900708886 248.31883484365014 248.88471639283972 249.45947128596057 249.99092321320464 250.42311871209662 250.70586331774268 250.80427677442532 250.70586331809795 250.42311871280717 249.99092321425624 249.45947128735324 248.88471639455923 248.3188348457107 247.80290900944786 247.36309953757743 247.01042844388337 246.74334910290807 246.55179575145965 246.4214190623042 246.33707946541068 246.28516453528144 246.25472900035714 246.23772244621824 246.22865975181318 246.22405170293732 246.2218151815451 246.2207786687391 246.2203198418731 246.2201257960562 246.22004737463197 246.22001532076942 246.22004249759303 246.22011285525608 246.22028694794935 246.22069859500309 246.22162852610506 246.22363507210767 246.2277692877685 246.23590008964206 246.25115790533164 246.27846383550724 246.3250404919234 246.40070767302646 246.51767807485675 246.68953450581154 246.92915079003657 247.24555765511573 247.64014269113025 248.1030172485806 248.61071070582045 249.1263650846917 249.6031692262896 249.99092321358833 250.24459394480644 250.33288780795743 250.2445939451333 249.99092321425624 249.60316922728435 249.1263650860133 248.6107107074689 248.1030172505417 247.64014269338975 247.2455576576737 246.92915079289295 246.68953450893792 246.51767807825314 246.40070767667865 246.32504049581718 246.2784638396426 246.25115790968016 246.23590009418953 246.22776929251492 246.22363507702462 246.22162853119255 246.22069860023268 246.22028695332105 246.22011286072726 246.22004250316368 246.22001316092667 246.22003650762144 246.2200969494756 246.22024650657613 246.22060013848656 246.22139901053023 246.22312276564898 246.22667432907448 246.23365922314696 246.24676669128573 246.27022428291897 246.31023669700716 246.37523978689705 246.47572506245675 246.62336105026802 246.82920721280541 247.10102153956024 247.43999606174364 247.8376357784764 248.2737778806369 248.7167589385484 249.1263650850612 249.45947128671375 249.67739114443944 249.75324138545164 249.67739114475208 249.45947128735324 249.1263650860133 248.71675893981316 248.2737778822001 247.83763578033802 247.43999606390366 247.1010215419903 246.8292072155197 246.6233610532523 246.4757250656826 246.3752397903787 246.3102367007162 246.27022428685538 246.2467666954353 246.23365922749548 246.22667433359354 246.22312277033856 246.22139901537614 246.22060014347457 246.22024651167783 246.22009695469097 246.2200365129363 246.22001082508876 246.22003002954435 246.22007974765992 246.22020276998018 246.2204936596601 246.2211507938743 246.22256871616815 246.225490152566 246.23123576971835 246.24201767892427 246.26131336747315 246.29422668153714 246.3476967647731 246.43035369782015 246.55179574881643 246.72112018344825 246.94470854978627 247.2235413859818 247.55063089489573 247.9093916021756 248.2737778810064 248.61071070657363 248.88471639396238 249.06397237934218 249.12636508572908 249.0639723796548 248.88471639455923 248.6107107074689 248.2737778822001 247.90939160365352 247.5506308966721 247.22354138802817 246.94470855210264 246.7211201860204 246.5517957516586 246.4303537009039 246.34769676808423 246.29422668507564 246.26131337122482 246.2420176828749 246.2312357738537 246.2254901568719 246.22256872064457 246.22115079849283 246.22049366440652 246.2202027748403 246.2200797526195 246.2200300346034 246.22000852528905 246.22002365148356 246.22006281141879 246.2201597086013 246.2203888247098 246.2209064093257 246.22202322038967 246.2243242579514 246.2288497307399 246.237341984102 246.25254002305255 246.27846383643094 246.3205789651599 246.38568279825176 246.48133530709435 246.61470185390004 246.7908087955294 247.01042844214965 247.26805693147801 247.55063089526521 247.83763577920115 248.10301724967485 248.31883484512807 248.46002386973117 248.50916680540482 248.4600238700154 248.3188348457107 248.1030172505417 247.83763578033802 247.5506308966721 247.2680569331691 247.01042844409653 246.79080879773207 246.61470185635852 246.4813353097802 246.3856828011792 246.3205789683005 246.2784638397847 246.25254002661947 246.23734198785365 246.2288497346621 246.22432426204412 246.2220232246245 246.22090641370264 246.22038882921464 246.22015971323404 246.2200628161368 246.22002365628683 246.2200064285537 246.2200178364866 246.22004737031187 246.22012044869663 246.22029324454354 246.2206835989231 246.2215258806771 246.22326128788444 246.22667432998398 246.23307905707662 246.24454118468677 246.2640925266503 246.29585511002495 246.34495542120615 246.41709507450983 246.5176780761073 246.65049522713102 246.81612899208486 247.01042844250492 247.22354138669235 247.43999606282364 247.64014269257976 247.80290900890785 247.90939160314193 247.94645445058867 247.90939160341193 247.80290900944786 247.64014269338975 247.43999606390366 247.22354138802817 247.01042844409653 246.81612899391806 246.65049522922 246.51767807843788 246.41709507706778 246.34495542397727 246.29585511300922 246.26409252983353 246.24454118806895 246.23307906064355 246.22667433370722 246.22326129177821 246.22152588471297 246.22068360307267 246.220293248821 246.22012045307358 246.2200473747883 246.22001784104827 246.22000464118693 246.22001287943863 246.22003420732804 246.22008698097446 246.22021176569936 246.22049366055538 246.2211019153063 246.22235514160707 246.2248198738396 246.22944505480055 246.2377224432766 246.25184146709574 246.27477885276727 246.3102366982435 246.36233243080412 246.4349685596306 246.53088261604628 246.65049522747208 246.79080879622572 246.94470855083787 247.1010215409671 247.2455576569063 247.36309953706584 247.43999606340628 247.46676104080274 247.43999606366208 247.36309953757743 247.2455576576737 247.1010215419903 246.94470855210264 246.79080879773207 246.65049522922 246.5308826180216 246.43496856181906 246.36233243321996 246.3102367008725 246.27477885558102 246.25184147010845 246.23772244647404 246.22944505816852 246.2248198773639 246.22235514527347 246.2211019191148 246.22049366449178 246.22021176974945 246.22008698512403 246.22003421156288 246.22001288375873 246.2200032079889 246.2200089045748 246.22002365235042 246.22006014417258 246.220146430102 246.22034135428098 246.22076194920268 246.22162852790984 246.2233328366224 246.22653104857295 246.23225468252474 246.2420176801464 246.25787838300067 246.28239671124538 246.31841977620132 246.36864607799438 246.43496855995744 246.51767807678942 246.61470185493744 246.7211201848267 246.82920721456756 246.9291507921682 247.0104284434002 247.0636007173426 247.08210811655553 247.0636007175842 247.01042844388337 246.92915079289295 246.8292072155197 246.7211201860204 246.61470185635852 246.51767807843788 246.43496856181906 246.36864608006917 246.31841977848927 246.28239671373228 246.2578783856723 246.24201768298857 246.23225468555165 246.22653105175618 246.22333283994774 246.2216285313915 246.22076195279803 246.22034135799 246.22014643392473 246.22006014809477 246.22002365634367 246.2200089086533 246.22000212268736 246.22000589444804 246.22001565907507 246.22003982061221 246.22009695123774 246.22022601212274 246.22050449145678 246.22107826029793 246.22220669697265 246.2243242591451 246.2281139237763 246.23457808394838 246.24507958438033 246.26131336902213 246.28516453343403 246.31841977652817 246.36233243147203 246.4170950755188 246.4813353084444 246.55179575053594 246.6233610523428 246.6895345082558 246.74334910245332 246.77855489767146 246.79080879730574 246.77855489789883 246.74334910290807 246.68953450893792 246.6233610532523 246.5517957516586 246.4813353097802 246.41709507706778 246.36233243321996 246.31841977848927 246.28516453559408 246.2613133713527 246.24507958689566 246.23457808663423 246.22811392661848 246.2243242621436 246.22220670011325 246.22107826356643 246.22050449485317 246.22022601563282 246.2200969548473 246.22003982430704 246.22001566284095 246.22000589828497 246.22000134436902 246.22000373560167 246.220009926239 246.22002524430883 246.22006146430846 246.22014328705092 246.22031983893146 246.22068360007418 246.22139901260502 246.22274151637717 246.22514410889843 246.22924229286124 246.23590009207211 246.24619207647277 246.26131336933477 246.28239671188487 246.31023669920984 246.34495542251355 246.38568279991443 246.4303536998381 246.47572506482996 246.51767807761365 246.55179575103332 246.57411571540206 246.58188451033982 246.57411571561522 246.55179575145965 246.51767807825314 246.4757250656826 246.4303537009039 246.3856828011792 246.34495542397727 246.3102367008725 246.28239671373228 246.2613133713527 246.24619207867545 246.23590009444533 246.22924229539078 246.22514411158429 246.22274151920513 246.22139901556088 246.22068360315794 246.2203198421289 246.22014329036205 246.22006146770485 246.2200252477905 246.2200099297917 246.22000373922543 246.2200008146953 246.22000226631076 246.22000602438848 246.22001532334158 246.2200373109712 246.2200869820829 246.22019415920934 246.2204149831162 246.22084927960273 246.22166425646185 246.2231227680222 246.2256106009128 246.22965226715684 246.23590009237054 246.2450795849914 246.2578783839386 246.27477885403204 246.29585511163077 246.320578967121 246.34769676708947 246.3752397895687 246.40070767606758 246.4214190619063 246.43496856126484 246.43968466568697 246.4349685614638 246.4214190623042 246.40070767667865 246.3752397903787 246.34769676808423 246.3205789683005 246.29585511300922 246.27477885558102 246.2578783856723 246.24507958689566 246.23590009444533 246.22965226938794 246.22561060328601 246.22312277055173 246.22166425911928 246.22084928238806 246.22041498602943 246.22019416222204 246.22008698519508 246.22003731416865 246.2200153266243 246.22000602772803 246.22000226972136 246.2200004721299 246.2200013159148 246.22000350038994 246.2200089056264 246.22002168645415 246.22005055894303 246.22011285812667 246.2202412171233 246.22049366196225 246.22096738604446 246.22181517948454 246.22326128963238 246.22561060119702 246.2292422934439 246.23457808484366 246.24201768136854 246.25184146865894 246.26409252855456 246.27846383867626 246.29422668413773 246.310236699963 246.32504049524874 246.337079465027 246.34495542345147 246.34769676774317 246.3449554236362 246.33707946541068 246.32504049581718 246.3102367007162 246.29422668507564 246.2784638397847 246.26409252983353 246.25184147010845 246.24201768298857 246.23457808663423 246.22924229539078 246.22561060328601 246.2232612918777 246.22181518185775 246.22096738854557 246.22049366457705 246.22024121985177 246.22011286095463 246.22005056185625 246.22002168945264 246.22000890869595 246.22000350353053 246.22000131911224 246.2200002613579 246.2200007309949 246.22000194684475 246.2200049553182 246.22001206891852 246.22002813889128 246.22006281362147 246.220134256181 246.22027476291268 246.22053843008288 246.2210102982194 246.22181517975454 246.22312276859063 246.22514410975108 246.2281139249416 246.2322546840311 246.2377224451098 246.24454118686103 246.25254002556787 246.26131337034374 246.27022428614484 246.27846383910259 246.28516453492617 246.28954816599486 246.29107395390204 246.2895481661654 246.28516453528144 246.2784638396426 246.27022428685538 246.26131337122482 246.25254002661947 246.24454118806895 246.23772244647404 246.23225468555165 246.22811392661848 246.22514411158429 246.22312277055173 246.22181518185775 246.2210103004363 246.22053843242767 246.22027476535695 246.22013425873897 246.2200628162789 246.22002814161976 246.22001207173227 246.22000495818878 246.2200019497864 246.2200007339934 246.2200001378769 246.2200003881668 246.2200010361382 246.22000263949056 246.2200064306569 246.22001499505416 246.22003347473185 246.22007154956955 246.22014643170783 246.22028695137416 246.2205384303529 246.22096738658448 246.22166425728608 246.22274151749983 246.2243242605804 246.2265310503351 246.22944505688955 246.23307905950668 246.2373419868731 246.24201768205066 246.2467666947674 246.25115790918278 246.2547290000303 246.25706522678075 246.25787838523178 246.25706522695128 246.25472900035714 246.25115790968016 246.2467666954353 246.2420176828749 246.23734198785365 246.23307906064355 246.22944505816852 246.22653105175618 246.2243242621436 246.22274151920513 246.22166425911928 246.22096738854557 246.22053843242767 246.22028695356263 246.22014643399578 246.22007155195698 246.22003347720454 246.2200149976121 246.2200064332859 246.22000264219062 246.2200010388951 246.22000039096633 246.22000006896516 246.22000019668982 246.22000052736828 246.22000134557695 246.22000328023483 246.22000765071937 246.22001708103952 246.22003651090415 246.2200747237936 246.22014643196363 246.22027476342427 246.22049366275806 246.22084928066855 246.22139901396926 246.22220669864953 246.22333283861192 246.2248198761702 246.22667433265562 246.2288497337526 246.23123577308633 246.2336592268702 246.23590009373478 246.2377224459056 246.23891463847553 246.23932959883575 246.23891463861764 246.23772244621824 246.23590009418953 246.23365922749548 246.2312357738537 246.2288497346621 246.22667433370722 246.2248198773639 246.22333283994774 246.22220670011325 246.22139901556088 246.22084928238806 246.22049366457705 246.22027476535695 246.22014643399578 246.22007472592523 246.22003651313526 246.22001708334167 246.2200076531068 246.2200032826933 246.22000134809227 246.22000052994045 246.22000019930462 246.22000003234209 246.2200000947524 246.2200002563255 246.22000065613562 246.22000160147846 246.22000373705117 246.22000834502094 246.22001783908718 246.22003651114574 246.22007155005272 246.22013425691998 246.22024121814647 246.2204149844236 246.22068360168 246.22107826220218 246.22162853014095 246.22235514416502 246.22326129078346 246.22432426119147 246.22549015616136 246.2266743330251 246.2277692920886 246.22865975152897 246.22924229487919 246.22944505778483 246.2292422950213 246.22865975181318 246.22776929251492 246.22667433359354 246.2254901568719 246.22432426204412 246.22326129177821 246.22235514527347 246.2216285313915 246.22107826356643 246.22068360315794 246.22041498602943 246.22024121985177 246.22013425873897 246.22007155195698 246.22003651313526 246.22001784116196 246.22000834716678 246.22000373928228 246.2200016037664 246.22000065848042 246.22000025872714 246.22000009718246 246.22000001381113 246.22000004301154 246.22000011860797 246.22000030567773 246.22000074798999 246.2200017471917 246.22000390315833 246.2200083452341 246.22001708149426 246.22003347542818 246.2200628145878 246.220112859363 246.22019416074411 246.22031984075045 246.2205044935884 246.22076195164695 246.2211019180774 246.22152588378927 246.2220232238429 246.22256871997666 246.22312276981276 246.22363507662672 246.2240517026673 246.22432426167464 246.22441912991465 246.22432426180254 246.22405170293732 246.22363507702462 246.22312277033856 246.22256872064457 246.2220232246245 246.22152588471297 246.2211019191148 246.22076195279803 246.22050449485317 246.2203198421289 246.22019416222204 246.22011286095463 246.2200628162789 246.22003347720454 246.22001708334167 246.22000834716678 246.22000390516206 246.22000174925228 246.2200007501216 246.2200003078662 246.22000012083907 246.22000004527106 246.2200000049053 246.22000001798722 246.220000051869 246.22000013567077 246.22000033383662 246.22000078149944 246.22000174739065 246.2200037374775 246.22000765137307 246.22001499596365 246.22002814005657 246.22005056037833 246.22008698380242 246.22014328908307 246.22022601445332 246.2203413569242 246.22049366353966 246.22068360223423 246.22090641297788 246.22115079788176 246.22139901487876 246.22162853080886 246.22181518130353 246.22193728906518 246.22197979052106 246.22193728919308 246.2218151815451 246.22162853119255 246.22139901537614 246.22115079849283 246.22090641370264 246.22068360307267 246.22049366449178 246.22034135799 246.22022601563282 246.22014329036205 246.22008698519508 246.22005056185625 246.22002814161976 246.2200149976121 246.2200076531068 246.22000373928228 246.22000174925228 246.2200007834179 246.22000033582614 246.22000013770293 246.22000005392957 246.22000002009042 246.22000000087704 246.22000000648887 246.22000002101723 246.2200000569804 246.22000014199693 246.22000033403557 246.2200007484021 246.22000160210374 246.2200032810875 246.22000643176534 246.22001207028276 246.2200216880884 246.22003731288967 246.22006146652535 246.22009695375306 246.22014643292997 246.22021176885417 246.2202932480252 246.22038882853252 246.22049366383808 246.22060014301982 246.22069859989162 246.2207786685117 246.22083104985063 246.22084928199016 246.22083104996432 246.2207786687391 246.22069860023268 246.22060014347457 246.22049366440652 246.22038882921464 246.220293248821 246.22021176974945 246.22014643392473 246.2200969548473 246.22006146770485 246.22003731416865 246.22002168945264 246.22001207173227 246.2200064332859 246.2200032826933 246.2200016037664 246.2200007501216 246.22000033582614 246.22000014383013 246.22000005885624 246.2200000229357 246.22000000843576 246.21999999918262 246.2200000014877 246.22000000745533 246.22000002223575 246.22000005716515 246.22000013605447 246.22000030626037 246.22000065694564 246.22000134661434 246.22000264078375 246.22000495685296 246.2200089074454 246.22001532543058 246.22002524669625 246.22003982329807 246.22006014717107 246.2200869842856 246.22012045234882 246.22015971259455 246.2202027743145 246.2202465112515 246.2202869529942 246.22031984165994 246.22034135762053 246.2203488465928 246.22034135772 246.2203198418731 246.22028695332105 246.22024651167783 246.2202027748403 246.22015971323404 246.22012045307358 246.22008698512403 246.22006014809477 246.22003982430704 246.2200252477905 246.2200153266243 246.22000890869595 246.22000495818878 246.22000264219062 246.22000134809227 246.22000065848042 246.2200003078662 246.22000013770293 246.22000005885624 246.22000002396948 246.22000000923168 246.22000000329248 246.2199999985502 246.21999999945683 246.22000000180395 246.22000000762586 246.2200000213725 246.220000052409 246.22000011936115 246.22000025730605 246.220000528562 246.2200010375877 246.22000194853584 246.22000350236524 246.2200060266338 246.22000992878273 246.22001566191724 246.22002365549102 246.2200342107955 246.22004737412038 246.22006281555414 246.22007975213634 246.22009695429307 246.22011286042883 246.22012579585726 246.22013425831264 246.2201372038187 246.22013425841212 246.2201257960562 246.22011286072726 246.22009695469097 246.2200797526195 246.2200628161368 246.2200473747883 246.22003421156288 246.22002365634367 246.22001566284095 246.2200099297917 246.22000602772803 246.22000350353053 246.2200019497864 246.2200010388951 246.22000052994045 246.22000025872714 246.22000012083907 246.22000005392957 246.2200000229357 246.22000000923168 246.2200000034524 246.2200000011337 246.21999999838778 246.2199999987292 246.21999999961315 246.22000000181455 246.22000000698625 246.22000001868355 246.22000004392103 246.22000009587506 246.22000019805407 246.2200003897584 246.22000073284232 246.22000131803222 246.2200022687124 246.22000373828752 246.22000589743232 246.2200089078575 246.22001288304818 246.220017840423 246.22002365574681 246.22003003414866 246.22003651256682 246.22004250289368 246.22004737444723 246.22005056147256 246.2200516707869 246.22005056155783 246.22004737463197 246.22004250316368 246.2200365129363 246.2200300346034 246.22002365628683 246.22001784104827 246.22001288375873 246.2200089086533 246.22000589828497 246.22000373922543 246.22000226972136 246.22000131911224 246.2200007339934 246.22000039096633 246.22000019930462 246.22000009718246 246.22000004527106 246.22000002009042 246.22000000843576 246.22000000329248 246.2200000011337 246.22000000026398

CELL_DATA 0

