# vtk DataFile Version 4.2
Higgs Field 2D Slice - phi
ASCII

DATASET STRUCTURED_POINTS
DIMENSIONS 32 32 1
ORIGIN 0 0 0
SPACING 3.125 3.125 3.125

POINT_DATA 1024

SCALARS phi double 1
LOOKUP_TABLE default
246.21999998776283 246.2199999880231 246.2199999890787 246.21999999276517 246.22000000453144 246.22000003890383 246.22000012969144 246.22000034577673 246.22000080781726 246.2200016924481 246.22000320264561 246.22000548751535 246.22000852163686 246.22001199821307 246.2200153189078 246.2200177373642 246.22001862580515 246.2200177382879 246.22001532076942 246.22001200098418 246.22000852528905 246.2200054920344 246.2200032079889 246.2200016985872 246.2200008146953 246.2200003533227 246.2200001378769 246.22000004765772 246.22000001381113 246.22000000247118 246.21999999918262 246.21999999842544 246.2199999880231 246.21999998916942 246.21999999371366 246.22000000999526 246.22000006291432 246.2200002183259 246.22000062988823 246.22000161063932 246.22000370877277 246.2200077267306 246.22001458677664 246.22002496634036 246.22003875000553 246.22005454386158 246.22006962943803 246.22008061574985 246.2200846506157 246.22008061667356 246.22006963129965 246.2200545466327 246.22003875365772 246.2200249708594 246.2200145921057 246.22000773284128 246.2200037156224 246.22000161818528 246.22000063805947 246.22000022706558 246.2200000721656 246.22000001970127 246.22000000378915 246.21999999955756 246.2199999890787 246.21999999371366 246.2200000122171 246.2200000789535 246.2200002964833 246.2200009362036 246.22000263137616 246.22000667184022 246.22001531652037 246.2200318720876 246.22006013887193 246.22010290838074 246.22015970497753 246.2202247848621 246.22028694611615 246.22033221559735 246.22034884048213 246.22033221652106 246.22028694794935 246.2202247876048 246.2201597086013 246.22010291287137 246.22006014417258 246.22003187816983 246.22001532334158 246.22000667932934 246.22000263949056 246.22000094490065 246.22000030567773 246.22000008860266 246.22000002223575 246.22000000403074 246.21999999276517 246.22000000999526 246.2200000789535 246.22000032806937 246.22000114055922 246.22000353083163 246.22000986547422 246.22002496504717 246.22005727183787 246.2201191437219 246.2202247836968 246.22038462444553 246.22059688832573 246.2208401091872 246.22107242225616 246.22124160594404 246.22130373659053 246.22124160686775 246.22107242407515 246.22084011190148 246.22059689192108 246.22038462887932 246.2202247889406 246.2201191497473 246.22005727858803 246.22002497247945 246.22000987351757 246.2200035394434 246.22000114966838 246.22000033760486 246.22000008887267 246.22000002022708 246.22000000453144 246.22000006291432 246.2200002964833 246.22000114055922 246.22000389417707 246.22001199569775 246.22003346678798 246.2200846472193 246.22019415255866 246.22040387083717 246.22076194401572 246.22130373450153 246.22202321683696 246.2228476299511 246.2236350703029 246.22420852924904 246.22441912430136 246.22420853015853 246.22363507210767 246.22284763263696 246.22202322038967 246.22130373887848 246.22076194920268 246.2204038767773 246.22019415920934 246.22008465453789 246.22003347473185 246.22001200419584 246.22000390315833 246.22000114998102 246.22000030626037 246.22000007298982 246.22000003890383 246.2200002183259 246.2200009362036 246.22000353083163 246.22001199569775 246.22003690103398 246.22010290710176 246.22026024572142 246.2205968871178 246.22124160374136 246.2223423939151 246.22400796901596 246.2262198055425 246.22875422095393 246.23117497440893 246.23293790476959 246.2335853165412 246.23293790566487 246.2311749761853 246.22875422358294 246.22621980902417 246.22400797330764 246.2223423990026 246.2212416095678 246.2205968936548 246.22026025292632 246.22010291490352 246.22003690937575 246.2200120045369 246.2200035400829 246.22000094582435 246.22000022823087 246.22000012969144 246.22000062988823 246.22000263137616 246.22000986547422 246.22003346678798 246.22010290710176 246.22028694374293 246.22072563234215 246.22166425005275 246.22346183826372 246.22653104359915 246.23117497334312 246.23734198069138 246.24440839738347 246.2511579035979 246.25607327770896 246.25787838025798 246.25607327857583 246.25115790533164 246.24440839996984 246.237341984102 246.23117497756374 246.22653104857295 246.22346184397648 246.22166425646185 246.22072563939074 246.22028695137416 246.220102915273 246.22003347542818 246.22000987452654 246.22000264078375 246.22000063958004 246.22000034577673 246.22000161063932 246.22000667184022 246.22002496504717 246.2200846472193 246.22026024572142 246.22072563234215 246.22183497600324 246.22420852706057 246.22875421983127 246.23651554417822 246.24825898976175 246.2638539534799 246.28172331961358 246.29879129092996 246.31122115769404 246.31578585239285 246.31122115853248 246.29879129262105 246.2817233221289 246.26385395680524 246.2482589938687 246.23651554903833 246.22875422540193 246.22420853329913 246.22183498286708 246.22072563978864 246.2202602536795 246.22008465564633 246.22002497388632 246.22000668100623 246.22000162010374 246.22000080781726 246.22000370877277 246.22001531652037 246.22005727183787 246.22019415255866 246.2205968871178 246.22166425005275 246.22420852706057 246.2296522610888 246.24007779753367 246.25787837828267 246.28481194572532 246.32057896193405 246.36156231533562 246.400707671378 246.429215544292 246.4396846615232 246.42921554511622 246.40070767302646 246.36156231777989 246.3205789651599 246.28481194971857 246.25787838300067 246.240077802948 246.22965226715684 246.22420853372546 246.22166425728608 246.2205968948485 246.22019416074411 246.22005728040702 246.22001532543058 246.22000371795298 246.2200016924481 246.2200077267306 246.2200318720876 246.2201191437219 246.22040387083717 246.22124160374136 246.22346183826372 246.22875421983127 246.24007779753367 246.26176408362335 246.29879128990677 246.35481613401535 246.42921554335408 246.51446551979416 246.5958922553197 246.65519183150255 246.67696877039955 246.65519183229836 246.59589225691133 246.51446552215316 246.42921554648046 246.3548161378665 246.29879129448267 246.26176408885294 246.24007780340276 246.228754226283 246.22346184524125 246.22124161121627 246.22040387875262 246.22011915202103 246.22003188069937 246.2200077356124 246.22000320264561 246.22001458677664 246.22006013887193 246.2202247836968 246.22076194401572 246.2223423939151 246.22653104359915 246.23651554417822 246.25787837828267 246.29879128990677 246.36864607358902 246.47434141931453 246.61470185088734 246.77553274447575 246.929150788516 247.04102417797228 247.08210811330125 247.04102417873966 246.92915079003657 246.7755327467495 246.61470185390004 246.47434142303777 246.36864607799438 246.29879129495163 246.2578783839386 246.23651555040257 246.2265310503351 246.22234240112002 246.22076195164695 246.2202247916833 246.22006014717107 246.22001459533158 246.22000548751535 246.22002496634036 246.22010290838074 246.22038462444553 246.22130373450153 246.22400796901596 246.23117497334312 246.24825898976175 246.28481194572532 246.35481613401535 246.47434141931453 246.65519183059305 246.89535606501445 247.1705463590138 247.43339508017687 247.62481645599956 247.6951132749463 247.62481645673853 247.4333950816548 247.17054636121648 246.89535606791347 246.65519183415998 246.47434142353515 246.35481613884704 246.28481195115387 246.2482589957303 246.23117497980905 246.22400797592243 246.22130374182012 246.2203846321194 246.22010291635303 246.22002497455424 246.22000852163686 246.22003875000553 246.22015970497753 246.22059688832573 246.22202321683696 246.2262198055425 246.23734198069138 246.2638539534799 246.32057896193405 246.42921554335408 246.61470185088734 246.89535606501445 247.2680569287069 247.6951132741505 248.10301724717374 248.400076100469 248.50916680317374 248.40007610117954 248.1030172485806 247.6951132762537 247.26805693147801 246.89535606843927 246.61470185493744 246.42921554798681 246.320578967121 246.26385395917845 246.2373419868731 246.22621981216477 246.2220232238429 246.22059689565853 246.22015971259455 246.22003875786413 246.22001199821307 246.22005454386158 246.2202247848621 246.2208401091872 246.2228476299511 246.22875422095393 246.24440839738347 246.28172331961358 246.36156231533562 246.51446551979416 246.77553274447575 247.1705463590138 247.6951132741505 248.2961841370001 248.870298526423 249.2884012502222 249.4419436186832 249.2884012508901 248.87029852777303 248.29618413900383 247.6951132767937 247.1705463622823 246.77553274831268 246.51446552419952 246.361562320281 246.28172332504212 246.24440840328097 246.22875422724934 246.222847636616 246.22084011617895 246.22022479212384 246.2200545513507 246.2200153189078 246.22006962943803 246.22028694611615 246.22107242225616 246.2236350703029 246.23117497440893 246.2511579035979 246.29879129092996 246.400707671378 246.5958922553197 246.929150788516 247.43339508017687 248.10301724717374 248.870298526423 249.60316922501062 250.13688731480448 250.33288780682057 250.13688731545818 249.6031692262896 248.87029852832725 248.10301724967485 247.43339508327483 246.9291507921682 246.5958922594977 246.40070767606758 246.2987912960885 246.25115790918278 246.2311749803917 246.22363507662672 246.22107242887841 246.2202869529942 246.22006963654346 246.2200177373642 246.22008061574985 246.22033221559735 246.22124160594404 246.22420852924904 246.23293790476959 246.25607327770896 246.31122115769404 246.429215544292 246.65519183150255 247.04102417797228 247.62481645599956 248.400076100469 249.2884012502222 250.13688731480448 250.75480308423573 250.98172399457314 250.7548030848468 250.13688731602662 249.28840125202697 248.4000761028422 247.624816458927 247.0410241814255 246.65519183545317 246.42921554872578 246.31122116255415 246.2560732829812 246.2329379104255 246.2242085352176 246.22124161221103 246.22033222210592 246.22008062245737 246.22001862580515 246.2200846506157 246.22034884048213 246.22130373659053 246.22441912430136 246.2335853165412 246.25787838025798 246.31578585239285 246.4396846615232 246.67696877039955 247.08210811330125 247.6951132749463 248.50916680317374 249.4419436186832 250.33288780682057 250.98172399457314 251.21999999538147 250.98172399514158 250.33288780795743 249.4419436203885 248.50916680540485 247.6951132777032 247.08210811655553 246.6769687741228 246.43968466568697 246.31578585698296 246.25787838523178 246.23358532184184 246.22441912991465 246.22130374247382 246.2203488465928 246.2200846569253 246.2200177382879 246.22008061667356 246.22033221652106 246.22124160686775 246.22420853015853 246.23293790566487 246.25607327857583 246.31122115853248 246.42921554511622 246.65519183229836 247.04102417873966 247.62481645673853 248.40007610117954 249.2884012508901 250.13688731545818 250.7548030848468 250.98172399514158 250.7548030853868 250.136887316524 249.28840125249593 248.40007610326853 247.6248164593249 247.041024181795 246.65519183578002 246.4292155490242 246.31122116283836 246.25607328322278 246.23293791063867 246.22420853541655 246.22124161239577 246.22033222226224 246.22008062259948 246.22001532076942 246.22006963129965 246.22028694794935 246.22107242407515 246.22363507210767 246.2311749761853 246.25115790533164 246.29879129262105 246.40070767302646 246.59589225691133 246.92915079003657 247.4333950816548 248.1030172485806 248.87029852777303 249.6031692262896 250.13688731602662 250.33288780795743 250.136887316524 249.60316922728435 248.87029852925096 248.1030172505417 247.43339508407064 246.92915079289295 246.5958922601656 246.40070767667865 246.2987912966285 246.25115790968016 246.23117498083224 246.22363507702462 246.2210724292337 246.22028695332105 246.22006963682767 246.22001200098418 246.2200545466327 246.2202247876048 246.22084011190148 246.22284763263696 246.22875422358294 246.24440839996984 246.2817233221289 246.36156231777989 246.51446552215316 246.7755327467495 247.17054636121648 247.6951132762537 248.29618413900383 248.87029852832725 249.28840125202697 249.4419436203885 249.28840125249593 248.87029852925096 248.29618414038228 247.69511327807268 247.17054636344758 246.7755327493927 246.51446552519428 246.36156232117628 246.28172332586635 246.24440840401994 246.22875422791725 246.22284763721285 246.22084011670475 246.2202247925928 246.22005455176281 246.22000852528905 246.22003875365772 246.2201597086013 246.22059689192108 246.22202322038967 246.22621980902417 246.237341984102 246.26385395680524 246.3205789651599 246.42921554648046 246.61470185390004 246.89535606791347 247.26805693147801 247.6951132767937 248.10301724967485 248.4000761028422 248.50916680540485 248.40007610326853 248.1030172505417 247.69511327807268 247.2680569331691 246.89535606998825 246.61470185635852 246.4292155492942 246.3205789683005 246.26385396025847 246.23734198785365 246.22621981303163 246.2220232246245 246.22059689636907 246.22015971323404 246.22003875841835 246.2200054920344 246.2200249708594 246.22010291287137 246.22038462887932 246.22130373887848 246.22400797330764 246.23117497756374 246.2482589938687 246.28481194971857 246.3548161378665 246.47434142303777 246.65519183415998 246.89535606843927 247.1705463622823 247.43339508327483 247.624816458927 247.6951132777032 247.6248164593249 247.43339508407064 247.17054636344758 246.89535606998825 246.65519183607844 246.4743414252973 246.35481614046708 246.2848119526176 246.24825899706613 246.23117498101698 246.22400797701667 246.22130374280067 246.22038463298625 246.22010291713462 246.22002497525057 246.2200032079889 246.2200145921057 246.22006014417258 246.2202247889406 246.22076194920268 246.2223423990026 246.22653104857295 246.23651554903833 246.25787838300067 246.29879129448267 246.36864607799438 246.47434142353515 246.61470185493744 246.77553274831268 246.9291507921682 247.0410241814255 247.08210811655553 247.041024181795 246.92915079289295 246.7755327493927 246.61470185635852 246.4743414252973 246.36864608006917 246.29879129685588 246.2578783856723 246.23651555197998 246.22653105175618 246.2223424024132 246.22076195279803 246.2202247927207 246.22006014809477 246.2200145961416 246.2200016985872 246.22000773284128 246.22003187816983 246.2201191497473 246.2204038767773 246.2212416095678 246.22346184397648 246.22875422540193 246.240077802948 246.26176408885294 246.29879129495163 246.35481613884704 246.42921554798681 246.51446552419952 246.5958922594977 246.65519183545317 246.6769687741228 246.65519183578002 246.5958922601656 246.51446552519428 246.4292155492942 246.35481614046708 246.29879129685588 246.2617640910272 246.24007780539227 246.22875422808778 246.2234618468897 246.2212416126942 246.22040388007423 246.22011915320053 246.22003188176518 246.22000773655031 246.2200008146953 246.2200037156224 246.22001532334158 246.22005727858803 246.22019415920934 246.2205968936548 246.22166425646185 246.22420853329913 246.22965226715684 246.24007780340276 246.2578783839386 246.28481195115387 246.320578967121 246.361562320281 246.40070767606758 246.42921554872578 246.43968466568697 246.4292155490242 246.40070767667865 246.36156232117628 246.3205789683005 246.2848119526176 246.2578783856723 246.24007780539227 246.22965226938794 246.2242085357576 246.22166425911928 246.22059689649697 246.22019416222204 246.22005728174284 246.2200153266243 246.22000371900458 246.2200003533227 246.22000161818528 246.22000667932934 246.22002497247945 246.22008465453789 246.22026025292632 246.22072563939074 246.22183498286708 246.22420853372546 246.228754226283 246.23651555040257 246.2482589957303 246.26385395917845 246.28172332504212 246.2987912960885 246.31122116255415 246.31578585698296 246.31122116283836 246.2987912966285 246.28172332586635 246.26385396025847 246.24825899706613 246.23651555197998 246.22875422808778 246.2242085357576 246.22183498509818 246.22072564180658 246.2202602554985 246.22008465728058 246.22002497535004 246.22000668231362 246.22000162125482 246.2200001378769 246.22000063805947 246.22000263949056 246.22000987351757 246.22003347473185 246.22010291490352 246.22028695137416 246.22072563978864 246.22166425728608 246.22346184524125 246.2265310503351 246.23117497980905 246.2373419868731 246.24440840328097 246.25115790918278 246.2560732829812 246.25787838523178 246.25607328322278 246.25115790968016 246.24440840401994 246.23734198785365 246.23117498101698 246.22653105175618 246.2234618468897 246.22166425911928 246.22072564180658 246.22028695356263 246.2201029172341 246.22003347720454 246.22000987610394 246.22000264219062 246.2200006408448 246.22000004765772 246.22000022706558 246.22000094490065 246.2200035394434 246.22001200419584 246.22003690937575 246.220102915273 246.2202602536795 246.2205968948485 246.22124161121627 246.22234240112002 246.22400797592243 246.22621981216477 246.22875422724934 246.2311749803917 246.2329379104255 246.23358532184184 246.23293791063867 246.23117498083224 246.22875422791725 246.22621981303163 246.22400797701667 246.2223424024132 246.2212416126942 246.22059689649697 246.2202602554985 246.2201029172341 246.22003691149317 246.22001200642694 246.2200035417882 246.2200009473307 246.2200002295667 246.22000001381113 246.2200000721656 246.22000030567773 246.22000114966838 246.22000390315833 246.2200120045369 246.22003347542818 246.22008465564633 246.22019416074411 246.22040387875262 246.22076195164695 246.22130374182012 246.2220232238429 246.222847636616 246.22363507662672 246.2242085352176 246.22441912991465 246.22420853541655 246.22363507702462 246.22284763721285 246.2220232246245 246.22130374280067 246.22076195279803 246.22040388007423 246.22019416222204 246.22008465728058 246.22003347720454 246.22001200642694 246.22000390516206 246.22000115177158 246.2200003078662 246.2200000744109 246.22000000247118 246.22000001970127 246.22000008860266 246.22000033760486 246.22000114998102 246.2200035400829 246.22000987452654 246.22002497388632 246.22005728040702 246.22011915202103 246.2202247916833 246.2203846321194 246.22059689565853 246.22084011617895 246.22107242887841 246.22124161221103 246.22130374247382 246.22124161239577 246.2210724292337 246.22084011670475 246.22059689636907 246.22038463298625 246.2202247927207 246.22011915320053 246.22005728174284 246.22002497535004 246.22000987610394 246.2200035417882 246.22000115177158 246.2200003394949 246.22000009054955 246.220000021705 246.21999999918262 246.22000000378915 246.22000002223575 246.22000008887267 246.22000030626037 246.22000094582435 246.22000264078375 246.22000668100623 246.22001532543058 246.22003188069937 246.22006014717107 246.22010291635303 246.22015971259455 246.22022479212384 246.2202869529942 246.22033222210592 246.2203488465928 246.22033222226224 246.22028695332105 246.2202247925928 246.22015971323404 246.22010291713462 246.22006014809477 246.22003188176518 246.2200153266243 246.22000668231362 246.22000264219062 246.2200009473307 246.2200003078662 246.22000009054955 246.22000002396948 246.22000000557972 246.21999999842544 246.21999999955756 246.22000000403074 246.22000002022708 246.22000007298982 246.22000022823087 246.22000063958004 246.22000162010374 246.22000371795298 246.2200077356124 246.22001459533158 246.22002497455424 246.22003875786413 246.2200545513507 246.22006963654346 246.22008062245737 246.2200846569253 246.22008062259948 246.22006963682767 246.22005455176281 246.22003875841835 246.22002497525057 246.2200145961416 246.22000773655031 246.22000371900458 246.22000162125482 246.2200006408448 246.2200002295667 246.2200000744109 246.220000021705 246.22000000557972 246.22000000114917

CELL_DATA 0

