# vtk DataFile Version 4.2
Higgs Field 2D Slice - phi
ASCII

DATASET STRUCTURED_POINTS
DIMENSIONS 64 64 1
ORIGIN 0 0 0
SPACING 3.125 3.125 3.125

POINT_DATA 4096

SCALARS phi double 1
LOOKUP_TABLE default
246.22002988968498 246.22005674873301 246.22009896881485 246.22016419238557 246.22026325083783 246.22041117074417 246.22062834465473 246.22094182128188 246.2213866304569 246.22200700984268 246.2228573465501 246.2240025967303 246.2255179066594 246.22748714421698 246.23000006998484 246.23314794647956 246.237017506141 246.24168337762939 246.24719929140616 246.25358863308585 246.26083515136327 246.26887482028164 246.27758995885284 246.28680668904983 246.29629664035397 246.3057834803863 246.31495438976626 246.32347604591953 246.33101411011714 246.33725469876046 246.34192594923098 246.3448176286708 246.34579681850175 246.34481804567412 246.34192678485766 246.3372559561653 246.33101579387605 246.32347816185896 246.3149569448495 246.30578648231568 246.2963000973149 246.28681060942674 246.27759435074591 246.2688796913079 246.26084050803127 246.25359448053993 246.24720563297166 246.2416902145 246.23702483689567 246.23315576679818 246.2300083724209 246.227495917885 246.2255271370927 246.22401226568215 246.22286743205052 246.22201748608478 246.22139746799576 246.22095298714834 246.22063980255425 246.2204228813411 246.2202751721841 246.22017628030912 246.22011117724645 246.22006903043578 246.22005674873301 246.22010067190294 246.22016969352407 246.2202763164924 246.22043826047695 246.22068010868728 246.22103522256384 246.2215478525961 246.22227530583407 246.2232899524591 246.22468076627862 246.22655401095815 246.22903262023183 246.23225379535776 246.23636437761812 246.24151366498904 246.24784354484166 246.25547610388378 246.26449924154312 246.27495121619216 246.28680544440633 246.29995718828823 246.31421393613886 246.32929124378356 246.3448155228495 246.36033472472639 246.37533711153603 246.38927740438328 246.4016086618843 246.4118174045995 246.41945889499024 246.42418921477278 246.4257909232754 246.42418963109398 246.41945972925268 246.41181865992957 246.40161034280104 246.38927951677 246.37533966227076 246.36033772145458 246.34481897375662 246.32929515716873 246.3142183201307 246.2999620504185 246.28681079115515 246.2749570527323 246.2645055711715 246.2554829277941 246.24785086161285 246.24152147032942 246.2363726640812 246.23226255208644 246.22904183275946 246.2265636611517 246.22469083216808 246.22330040829442 246.2222861222556 246.22155899671995 246.2210466581239 246.22069179646158 246.22045015860033 246.2202883807975 246.2201818781667 246.22011292961778 246.22009896881485 246.22016969352407 246.22028081069905 246.22045245699576 246.22071317141953 246.22110254698828 246.22167431479056 246.2224997431637 246.22367112872732 246.22530502797133 246.22754473802667 246.23056140196937 246.23455301061426 246.23974053313054 246.24636046409645 246.25465325474056 246.2648474210927 246.27713958962772 246.29167132706428 246.3085042516436 246.3275955517679 246.34877654572594 246.3717371892581 246.39601937805955 246.42102143846006 246.4460153338214 246.47017689625923 246.49262793888246 246.51248759699243 246.52892889745203 246.54123557740047 246.54885374640816 246.55143320973502 246.54885416051246 246.5412364072007 246.52893014601773 246.51248926887106 246.4926300397868 246.4701794330389 246.44601831406501 246.42102487023936 246.39602326964527 246.37174154866517 246.34878138040082 246.32760086816234 246.30851005490192 246.29167762042655 246.27714637425925 246.26485469562923 246.25466101489042 246.24636870249842 246.23974923898436 246.23456216953855 246.23057099591634 246.22755474519687 246.22531542281365 246.22368188205266 246.22251082220183 246.2216856835596 246.22111416649363 246.2207250000234 246.22046445084345 246.2202929241453 246.22018187964463 246.22016419238557 246.2202763164924 246.22045245699576 246.2207245423229 246.22113782359935 246.22175507901906 246.2226615038432 246.2239700999383 246.22582721098536 246.22841764627722 246.23196861424736 246.23675147482226 246.24308015666065 246.2513050220249 246.26180104960787 246.27494949159126 246.2911126762047 246.31060236853435 246.33364303332206 246.36033237180675 246.39060250536792 246.4241859806949 246.4605912053868 246.49909182890138 246.5387338625829 246.5783629616062 246.61667235916389 246.65226963773216 246.6837581340005 246.7098266325343 246.7293394558175 246.74141837714382 246.7455081414957 246.7414187875533 246.72934027817124 246.70982786990183 246.68375979075878 246.65227171959395 246.61667487277987 246.5783659145081 246.53873726264356 246.49909568427785 246.4605955239803 246.4241907698382 246.39060777145593 246.3603381198701 246.33364926660084 246.31060908816542 246.2911198807954 246.2749571769636 246.26180920842904 246.25131364366518 246.24308922688078 246.23676097580181 246.23197852435743 246.2284279402509 246.22583785988934 246.22398107137184 246.2226727621939 246.2217665856334 246.22114953729425 246.22073641964158 246.22046445271928 246.2202883841797 246.22026325083783 246.22043826047695 246.22071317141953 246.22113782359935 246.22178285383058 246.22274625851202 246.22416102698685 246.2262035541639 246.22910228116626 246.23314569317802 246.2386884596654 246.24615416968888 246.25603286129063 246.26887144454994 246.28525525526942 246.30577942199358 246.33100953325558 246.36143224966247 246.39739795761875 246.43905916851685 246.48630992693904 246.5387327457234 246.595560261256 246.65565865744264 246.71753877996858 246.77939872286242 246.83919865233307 246.8947650358595 246.94391771297612 246.98460990539792 247.0150688454363 247.03392364036964 247.0403075490822 247.03392404569163 247.01506965755823 246.98461112730405 246.94391934895813 246.89476709148806 246.8392011340883 246.77940163802032 246.71754213631667 246.65566246288216 246.59556452351765 246.5387374720263 246.48631512353597 246.43906484032476 246.3974041078493 246.36143887939568 246.33101664115563 246.30578700396774 246.28526330409858 246.26887994971807 246.25604180881425 246.24616354199472 246.2386982354829 246.23315584754425 246.22911278563112 246.22621437672453 246.224172132514 246.22275760894905 246.2217944084776 246.22114953965325 246.22072500428666 246.2204501643415 246.22041117074417 246.22068010868728 246.22110254698828 246.22175507901906 246.22274625851202 246.22422668523498 246.2264007352838 246.22953948998597 246.23399401406954 246.24020764687708 246.24872543842838 246.2601983528393 246.2753794715613 246.29510927583684 246.32028729849057 246.35182812176674 246.3906009312884 246.43735361806503 246.49262464980856 246.55664840421346 246.62926205309185 246.70982401307586 246.79715501848682 246.88951264770316 246.9846084030832 247.0796731572879 247.17157214086097 247.25696511881668 247.33250167038628 247.3950363534743 247.44184481894237 247.4708203099652 247.48063083814722 247.47082070892074 247.44184561830295 247.3950375560821 247.33250328039085 247.25696714156132 247.17157458262687 247.07967602515208 246.98461170449212 246.88951639035912 246.79715920992157 246.70982866025273 246.62926716209307 246.55665397987073 246.49263069519142 246.43736013428193 246.39060791703193 246.35183557300104 246.32029520819546 246.29511763369524 246.27538826387396 246.26020756238265 246.24873504428405 246.2402176246024 246.23400433569753 246.22955012411066 246.22641164740122 246.22423783794218 246.2227576118765 246.22176659094825 246.22111417368433 246.2206918051302 246.22062834465473 246.22103522256384 246.22167431479056 246.2226615038432 246.22416102698685 246.2264007352838 246.22968984118683 246.2344384790457 246.2411777944338 246.25057854013303 246.26346535242513 246.28082311058927 246.30379119251478 246.33364120779567 246.3717341083164 246.4194536148335 246.4781147651797 246.54884908422463 246.6324712494472 246.7293358645924 246.83919657996412 246.96108271232254 247.09321009076731 247.23294251661963 247.37681760432116 247.52064579870034 247.659684345397 247.7888796306442 247.90316262987457 247.997774441204 248.06859325591597 248.11243165252176 248.12727439661674 248.1124320440024 248.0685940402699 247.99777562113127 247.9031642093258 247.78888161465005 247.65968673998287 247.52064861060217 247.3768208407012 247.23294618483914 247.0932141980454 246.9610872653667 246.83920158465767 246.72934132553965 246.63247716968928 246.54885546484155 246.47812160486407 246.41946090969154 246.37174185149848 246.33364938929736 246.30379979894946 246.28083212513127 246.26347475466767 246.25058830620188 246.24118789695885 246.23444888735992 246.2297005214968 246.2264116510392 246.22417213907943 246.2226727711183 246.22168569435985 246.22104667040207 246.22094182128188 246.2215478525961 246.2224997431637 246.2239700999383 246.2262035541639 246.22953948998597 246.2344384790457 246.2415114160076 246.2515494413105 246.2655516399601 246.2847463058036 246.31060041403023 246.34481106490438 246.38927231720993 246.44601130470303 246.51708907520316 246.60446437362165 246.709822603018 246.8343772234517 246.97865641732128 247.14229324914663 247.3238418918804 247.520644832078 247.72877546439514 247.94307658181623 248.1573078611626 248.36440499141924 248.55684063771756 248.72706451073077 248.86798824734703 248.9734724317185 249.0387694135953 249.06087751006524 249.03876979669153 248.97347319918993 248.86798940169476 248.72706605570647 248.5568425779824 248.36440733262913 248.15731060959874 247.94307974427142 247.7287790478327 247.5206488432907 247.32384633729154 247.14229813435531 246.97866174673285 246.8343829999936 246.70982882771344 246.60447104524846 246.51709619000968 246.4460188560386 246.38928029538272 246.3448194569541 246.31060920364283 246.28475547311228 246.26556116174436 246.25155929096758 246.2415215636379 246.2344488917937 246.22955013221085 246.22621438778057 246.22398108478689 246.2225108374927 246.22155901346034 246.2213866304569 246.22227530583407 246.22367112872732 246.22582721098536 246.22910228116626 246.23399401406954 246.2411777944338 246.2515494413105 246.26626908690562 246.2868017940925 246.31494873842198 246.35286109856 246.4030275093253 246.46822542623414 246.55142744623868 246.65565589795045 246.7837830926729 246.93828051230554 247.12092757997019 247.33249882537316 247.57245617458085 247.83867946355664 248.12727170746828 248.43247492118553 248.74672656131366 249.06087579936255 249.36456350862719 249.64675158246493 249.8963682537665 250.10301912513154 250.25770133848485 250.35345292471405 250.38587220663157 250.35345329871532 250.25770208762427 250.10302025173968 249.8963697611687 249.6467534749813 249.36456579137362 249.06087847819393 248.7467296423975 248.4324784110304 248.12727561244063 247.83868378959662 247.5724609270033 247.33250400832767 247.12093319624208 246.93828656288957 246.7837895764038 246.6556628111902 246.5514347826777 246.4682331765501 246.40303566101264 246.35286963584466 246.31495764214773 246.28681104177778 246.26627865277194 246.2515592963677 246.24118790682118 246.23400434922627 246.2291128021157 246.22583787876135 246.2236819028005 246.2222861444814 246.22200700984268 246.2232899524591 246.22530502797133 246.22841764627722 246.23314569317802 246.24020764687708 246.25057854013303 246.2655516399601 246.2868017940925 246.31644406923022 246.35707876754014 246.4118114797247 246.48423497136943 246.57835896954973 246.69847492073367 246.84894606754042 247.03391907723577 247.25696195212666 247.52064359090195 247.82608215919888 248.1725008578367 248.55683887358205 248.97347025299553 249.4140823745448 249.86775743261506 250.32128466425348 250.75970892396157 251.1670948443575 251.5274584631637 251.82579371553265 252.04910345798095 252.18733691430242 252.2341395211891 252.187337278754 252.04910418785045 251.82579481286643 251.52745993086077 251.1670966862264 250.75971114454973 250.32128726870525 249.86776042655794 249.4140857637768 248.97347404328627 248.55684307047378 248.17250546616108 247.82608718290655 247.52064903255086 247.25696781265472 247.03392535559138 246.84895276025614 246.6984820218125 246.5783664700957 246.4842428594454 246.4118197401819 246.35708738196132 246.31645301598644 246.28681104831477 246.2655611737099 246.25058832265805 246.2402176447534 246.23315587067952 246.2284279657736 246.2253154502406 246.22330043717088 246.2228573465501 246.22468076627862 246.22754473802667 246.23196861424736 246.2386884596654 246.24872543842838 246.26346535242513 246.2847463058036 246.31494873842198 246.35707876754014 246.41483216918067 246.49262287927817 246.5955572489527 246.72933425097827 246.9000532623544 247.11391570276047 247.3768151762261 247.69382283797626 248.06858983067366 248.50270538933017 248.99506546086326 249.541319753573 250.1334721761691 250.75970811212386 251.40451023146684 252.04910225460577 252.67222863445645 253.2512406474982 253.76342050286092 254.18744028209622 254.50482731956302 254.70129658189694 254.76781641328185 254.70129693657145 254.50482802970785 254.18744134935983 253.76342192965916 253.25124243698588 252.67223079044206 252.0491047814947 251.40451313403392 250.759711395485 250.1334758454118 249.54132381358576 248.99506991605148 248.50271024324655 248.06859508570562 247.69382849497646 247.3768212342282 247.11392215858123 246.9000601103379 246.7293414827117 246.5955648530958 246.49263084142112 246.41484047173043 246.3570873897773 246.31495765652912 246.28475549297906 246.26347477908192 246.24873507242154 246.2386982666331 246.2319785579519 246.22755478069558 246.2246908691163 246.2240025967303 246.22655401095815 246.23056140196937 246.23675147482226 246.24615416968888 246.2601983528393 246.28082311058927 246.31060041403023 246.35286109856 246.4118114797247 246.49262287927817 246.60147150547158 246.7455024295279 246.9326899496083 247.17156863001247 247.4708158183972 247.83867815092842 248.2822514508043 248.80664458642343 249.4140812985273 250.1030167401238 250.86736375969744 251.69593381481144 252.5721952854122 253.4744355237391 254.37638179160356 255.24829223174743 256.05847558241624 256.7751439393383 257.36845417905045 257.8125583951961 258.087468232253 258.1805461315034 258.08746857717887 257.8125590856731 257.3684552162723 256.7751453250672 256.0584773190395 255.248294322221 254.37638423936644 253.4744383326282 252.57219845960554 251.6959373586007 250.86736767728902 250.1030210352978 249.41408597446693 248.80664964528876 248.28225689339112 247.83868397635567 247.47082202376586 247.1715752100361 246.93269689647093 246.74550973254298 246.6014791510251 246.49263085071502 246.4118197573202 246.35286965963363 246.3106092329456 246.2808321590668 246.26020760012668 246.24616358286514 246.2367610191165 246.23057104119212 246.22656370787698 246.2255179066594 246.22903262023183 246.23455301061426 246.24308015666065 246.25603286129063 246.2753794715613 246.30379119251478 246.34481106490438 246.4030275093253 246.48423497136943 246.5955572489527 246.7455024295279 246.94391326585966 247.20177481901084 247.53084394922718 247.94307420917193 248.44982582123717 249.0608736960708 249.7832555982257 250.62003486102762 251.56908336888796 252.62201571724435 253.76341903860288 254.97052006513488 256.2134083617281 257.4558917033278 258.6569989513316 259.77307354888455 260.7603258085076 261.57764509127054 262.1894244020833 262.5681286182325 262.6963487669889 262.56812895372235 262.1894250734041 261.57764609910436 260.76032715387765 259.7730752333256 258.65700097666263 257.45589407187936 256.2134110762856 254.97052312871094 253.7634224545513 252.62201948891888 251.5690874994434 250.62003935316406 249.78326045381897 249.06087891588825 248.44983140451146 247.9430801532598 247.53085024935382 247.2017814679287 246.943920253678 246.74550974348534 246.5955648733889 246.48424288769658 246.40303569597134 246.34481949756872 246.3037998443105 246.2753883131572 246.25604186130914 246.24308928193363 246.23456222658092 246.22904189125134 246.22748714421698 246.23225379535776 246.23974053313054 246.2513050220249 246.26887144454994 246.29510927583684 246.33364120779567 246.38927231720993 246.46822542623414 246.57835896954973 246.72933425097827 246.9326899496083 247.20177481901084 247.5514868126034 247.99777059870257 248.55683760014736 249.24409456451713 250.0727982376822 251.05249324493724 252.18733408335805 253.4744346010567 254.9024225037254 256.4503948438187 258.08746649045696 259.7730728783596 261.45813007170005 263.0870729663829 264.6006944913642 265.9396070230655 267.0480562670195 267.87775197637586 268.39135098666986 268.5652432293125 268.39135131329215 267.87775262962043 267.04805724688634 265.939608329782 264.60069612527144 263.0870749282198 261.458132362433 259.7730754994665 258.08746944369994 256.45039813141466 254.9024261280902 253.47443856457778 252.18733838819543 251.05249789265412 250.0728032289323 249.24409989870355 248.5568432749964 247.99777660992254 247.55149315362888 247.2017814807753 246.93269692031674 246.72934151602195 246.5783665114777 246.46823322481015 246.38928034946923 246.3336494482724 246.29511769676301 246.2688800161396 246.25131371272994 246.23974931009548 246.2322626247039 246.23000006998484 246.23636437761812 246.24636046409645 246.26180104960787 246.28525525526942 246.32028729849057 246.3717341083164 246.44601130470303 246.55142744623868 246.69847492073367 246.9000532623544 247.17156863001247 247.53084394922718 247.99777059870257 248.59363750495675 249.34008975837185 250.2576980668903 251.36416250956606 252.67222683411168 254.18743802271243 255.90594255779789 257.8125564350645 259.87937055844884 262.0651478684944 264.3157275650786 266.5655739958916 268.7404980136881 270.7614478071207 272.5491304958646 274.0291043298936 275.1368933705824 275.82263795157826 276.0548144954744 275.82263826995825 275.13689400700133 274.02910528372615 272.54913176625814 270.7614493932226 268.7404999147026 266.5655762114207 264.31573009500863 262.0651507132233 259.8793737188861 257.8125599125175 255.9059463538014 254.18744213880123 252.67223127153633 251.364167268895 250.25770314766876 249.34009515863875 248.59364322110252 247.99777662487236 247.5308502772071 247.1715752490307 246.90006015896745 246.6984820787412 246.5514348467118 246.44601892612653 246.37174192673075 246.32029528766256 246.28526338708997 246.26180929423418 246.24636879043518 246.23637275355273 246.23314794647956 246.24151366498904 246.25465325474056 246.27494949159126 246.30577942199358 246.35182812176674 246.4194536148335 246.51708907520316 246.65565589795045 246.84894606754042 247.11391570276047 247.4708158183972 247.94307420917193 248.55683760014736 249.34008975837185 250.3212826193399 251.5274558696543 252.98187582507737 254.70129382689538 256.6930012464481 258.951932731059 261.4581292842482 264.17490509180925 267.0480550622232 270.0063861671428 272.96375341698456 275.8226370177546 278.47912532389296 280.82898981057247 282.77437864345944 284.23053980012025 285.1319339855293 285.43712423873205 285.13193429651966 284.2305404214188 282.77437957353146 280.82899104748526 278.47912686542963 275.82263886147086 272.96375556077726 270.00638860924977 267.04805780145074 264.1749081275889 261.45813261663676 258.9519363606818 256.69300517421465 254.7012980536299 252.98188035129144 251.52746069497843 250.32128774235304 249.34009517594757 248.55684330731188 247.94308019862086 247.47082208052402 247.11392222523014 246.84895283551683 246.65566289384054 246.51709627902648 246.41946100413688 246.35183567199385 246.30578710665537 246.2749572826355 246.25466112283607 246.24152157986668 246.237017506141 246.24784354484166 246.2648474210927 246.2911126762047 246.33100953325558 246.3906009312884 246.4781147651797 246.60446437362165 246.7837830926729 247.03391907723577 247.3768151762261 247.83867815092842 248.44982582123717 249.24409456451713 250.2576980668903 251.5274558696543 253.08835992796983 254.97051909248714 257.1956112102119 259.77307201740916 262.69634646136296 265.93960568201555 269.4553747087898 273.17350694159717 277.0018717567285 280.8289892547575 284.52865944570436 287.9664106689311 291.0073611914452 293.5248813310872 295.4092938216598 296.57578451350963 296.9707299948932 296.575784817963 295.4092944294296 293.52488223984295 291.00736239788995 287.9664121692563 284.52866123587415 280.828991330736 277.00187411487775 273.1735095790181 269.4553776233224 265.9396088724093 262.69634992716306 259.77307575878615 257.1956152275637 254.97052338626847 253.08836449801018 251.52746071490205 250.25770318495805 249.24409995122687 248.44983147036456 247.8386840538901 247.37682132205128 247.0339254523673 246.78378968099568 246.60447115660472 246.47812172198994 246.39060803904633 246.3310167671775 246.2911200100005 246.26485482725016 246.24785099491066 246.24168337762939 246.25547610388378 246.27713958962772 246.31060236853435 246.36143224966247 246.43735361806503 246.54884908422463 246.709822603018 246.93828051230554 247.25696195212666 247.69382283797626 248.2822514508043 249.0608736960708 250.0727982376822 251.36416250956606 252.98187582507737 254.97051909248714 257.3684519833597 260.2032927918721 263.48706295854515 267.2114111301071 271.34343048556747 275.8226363437053 280.559659617792 285.43712284851256 290.3129969595513 295.0264989926479 299.4063076078661 303.28057901939724 306.487982826927 308.88878656821163 310.37493421354014 310.87810776388756 310.37493451230915 308.8887871641012 306.48798371658336 303.2805801982729 299.40630907044726 295.026500732966 290.3129989716378 285.4371251267968 280.5596621574423 275.8226391409131 271.3434335376043 267.2114144354382 263.48706651654527 260.20329660254123 257.3684560469252 254.97052340911952 252.9818803941798 251.3641673293764 250.07280330493194 249.06087900558717 248.2822569952261 247.69382860755485 247.25696793469754 246.93828669325995 246.70982896533135 246.54885560868382 246.43736028341064 246.3614390328729 246.3106092451101 246.27714653381872 246.25548308911573 246.24719929140616 246.26449924154312 246.29167132706428 246.33364303332206 246.39739795761875 246.49262464980856 246.6324712494472 246.8343772234517 247.12092757997019 247.52064359090195 248.06858983067366 248.80664458642343 249.7832555982257 251.05249324493724 252.67222683411168 254.70129382689538 257.1956112102119 260.2032927918721 263.7589796741513 267.87775012202985 272.5491291920471 277.7318424843641 283.3500252128073 289.29158343020816 295.40929281956716 301.5250090093628 307.4370649900619 312.93057566005575 317.7900006241038 321.8129862263531 324.8242686944105 326.68831540324146 327.31943638489 326.6883156969514 324.8242692796135 321.812987098729 317.790001777741 312.93057708773506 307.4370666837684 301.52501096113843 295.4092950216812 289.2915858758394 283.35002789644193 277.7318454018526 272.5491323406609 267.8777535002911 263.75898328166204 260.20329662874605 257.1956152767901 254.70129812309256 252.67223135887625 251.0524979959102 249.7832605712859 248.80664977543177 248.0685952271889 247.52064918415226 247.1209333567679 246.83438316836381 246.63247734485228 246.49263087612403 246.39740429358517 246.3336494561168 246.2916778128131 246.2645057654623 246.25358863308585 246.27495121619216 246.3085042516436 246.36033237180675 246.43905916851685 246.55664840421346 246.7293358645924 246.97865641732128 247.33249882537316 247.82608215919888 248.50270538933017 249.4140812985273 250.62003486102762 252.18733408335805 254.18743802271243 256.6930012464481 259.77307201740916 263.48706295854515 267.87775012202985 272.9637526800665 278.7321358045738 285.1319324148888 292.06946200484106 299.40630702561896 306.9606697121572 314.51257112816927 321.81298575671275 328.5965659158479 334.59715474368056 339.5648788283794 343.2833162987939 345.5851067021766 346.36443705192147 345.58510699122536 343.28331687410616 339.5648796847255 334.5971558736709 328.59656731044436 321.81298740602455 314.5125730220783 306.96067184082955 299.4063093803576 292.0694645782563 285.13193520129636 278.73213880010826 272.96375588245417 267.8777535304181 263.4870665730476 259.7730758384238 256.69300527437275 254.18744225726292 252.18733852311328 250.62003950288963 249.4140861375507 248.50271041840955 247.82608736892664 247.33250420403957 246.97866195099968 246.72934153728139 246.55665419797893 246.43906506374782 246.36033834749958 246.30851028565777 246.27495728556295 246.26083515136327 246.28680544440633 246.3275955517679 246.39060250536792 246.48630992693904 246.62926205309185 246.83919657996412 247.14229324914663 247.57245617458085 248.1725008578367 248.99506546086326 250.1030167401238 251.56908336888796 253.4744346010567 255.90594255779789 258.951932731059 262.69634646136296 267.2114111301071 272.5491291920471 278.7321358045738 285.7447062159036 293.5248802138298 301.9587712659444 310.87810642761247 320.06187582290306 329.24265307626337 338.11770015007494 346.36443630067885 353.6592970717371 359.69851364761996 364.2189839443521 367.01724939411423 367.96467411938636 367.0172496785587 364.21898451000095 359.69851448822044 353.6592981784785 346.36443766287454 338.1177017558447 329.2426549133858 320.0618778796685 310.8781086932206 301.9587737313003 293.5248828718849 285.7447090615988 278.7321388348396 272.5491324055761 267.2114145268424 262.69635004198676 258.95193649636707 255.90594650833023 253.47443873615964 251.56908768657195 250.10302123660875 248.99507013032274 248.17250569219894 247.57246116361404 247.14229838040205 246.8392018389467 246.62926742348753 246.48631539084215 246.3906080434517 246.32760114362554 246.2868110688921 246.26887482028164 246.29995718828823 246.34877654572594 246.4241859806949 246.5387327457234 246.70982401307586 246.96108271232254 247.3238418918804 247.83867946355664 248.55683887358205 249.541319753573 250.86736375969744 252.62201571724435 254.9024225037254 257.8125564350645 261.4581292842482 265.93960568201555 271.34343048556747 277.7318424843641 285.1319324148888 293.5248802138298 302.836529216756 312.9305750917921 323.6056214939033 334.597154236012 345.5851058545275 356.2071463604018 366.07719715465294 374.8080022886503 382.035998093423 387.44629260498755 390.79537780161047 391.92929669635487 390.7953780811664 387.4462931604046 382.0359989175389 374.80800337129006 366.0771984835952 356.2071479218905 345.5851076344655 334.5971562206431 323.60562367077887 312.93057745011185 302.8365317481071 293.5248829120164 285.131935276216 277.73184550695606 271.34343366936736 265.93960902787603 261.45813279347664 257.81256010874097 254.90242634210568 252.6220197193621 250.8673679228526 249.5413240731328 248.55684334283902 247.83868407358634 247.32384663171203 246.96108756899582 246.7098289718115 246.53873779020734 246.42419109327724 246.34878170770523 246.299962380224 246.27758995885284 246.31421393613886 246.3717371892581 246.4605912053868 246.595560261256 246.79715501848682 247.09321009076731 247.520644832078 248.12727170746828 248.97347025299553 250.1334721761691 251.69593381481144 253.76341903860288 256.4503948438187 259.87937055844884 264.17490509180925 269.4553747087898 275.8226363437053 283.3500252128073 292.06946200484106 301.9587712659444 312.9305750917921 324.82426772960713 337.4025462919938 350.3537368978833 363.30070791010644 375.8165302665225 387.4462922040709 397.73369470267045 406.250355070207 412.6252398982004 416.57142661774526 417.90750956557207 416.57142689173054 412.6252404420782 406.2503558759056 397.7336957589917 387.44629349731554 375.8165317812859 363.3007096305862 350.353738808618 337.4025483788294 324.82426998037914 312.9305774967803 301.9587738181002 292.06946469967386 283.350028048157 275.8226393193446 269.4553778257987 264.174908351893 259.87937396325594 256.45039839442916 253.76342273495987 251.69593765523808 250.13347615719795 248.97347436911275 248.1272759510853 247.52064919355985 247.0932145586032 246.7971595794038 246.59556490044636 246.4605959068207 246.37174193588254 246.3142187101334 246.28680668904983 246.32929124378356 246.39601937805955 246.49909182890138 246.65565865744264 246.88951264770316 247.23294251661963 247.72877546439514 248.43247492118553 249.4140823745448 250.75970811212386 252.5721952854122 254.97052006513488 258.08746649045696 262.0651478684944 267.0480550622232 273.17350694159717 280.559659617792 289.29158343020816 299.40630702561896 310.87810642761247 323.6056214939033 337.4025462919938 351.9936046563503 367.0172485598802 382.035997649817 396.55460554985154 410.04536538278126 421.97896102513147 431.85845986058484 439.25345560564074 443.83111225754567 445.38099556573286 443.8311125249371 439.25345613587615 431.858460645024 421.9789620515531 410.0453666362355 396.55460701368327 382.03599930680264 367.0172503930805 351.99360665024693 337.4025484331717 323.60562377167594 310.8781088340786 299.40630955571953 289.29158608144206 280.55966238987503 273.173509835723 267.0480580804951 262.06515101307235 258.0874697631031 254.97052346658822 252.57219881496218 250.75971176732622 249.4140861510226 248.43247881254388 247.72877946227806 247.23294661085214 246.8895168264334 246.65566290736928 246.49909613544406 246.39602372572844 246.32929561634987 246.29629664035397 246.3448155228495 246.42102143846006 246.5387338625829 246.71753877996858 246.9846084030832 247.37681760432116 247.94307658181623 248.74672656131366 249.86775743261506 251.40451023146684 253.4744355237391 256.2134083617281 259.7730728783596 264.3157275650786 270.0063861671428 277.0018717567285 285.43712284851256 295.40929281956716 306.9606697121572 320.06187582290306 334.597154236012 350.3537368978833 367.0172485598802 384.1747884146988 401.3267382172212 417.9075088527556 433.3144401512204 446.9430341256293 458.22577591481866 466.67112611473186 471.89897407943306 473.6689963516619 471.8989743388096 466.6711266286532 458.2257766741899 446.9430351174333 433.31444135965467 417.9075102601418 401.3267398051421 384.1747901653056 367.0172504565746 350.3537389262839 334.59715638457953 320.0618780831679 306.9606720785487 295.4092952894137 285.4371254214162 277.0018744339967 270.00638895116293 264.31573045846545 259.7730758835006 256.21341147998754 253.4744387552022 251.40451357462726 249.86776088411904 248.7467301158179 247.94308023221532 247.37682134163384 246.98461221676502 246.7175426580824 246.53873779202632 246.42102540519278 246.34481951217748 246.3057834803863 246.36033472472639 246.4460153338214 246.5783629616062 246.77939872286242 247.0796731572879 247.52064579870034 248.1573078611626 249.06087579936255 250.32128466425348 252.04910225460577 254.37638179160356 257.4558917033278 261.45813007170005 266.5655739958916 272.96375341698456 280.8289892547575 290.3129969595513 301.5250090093628 314.51257112816927 329.24265307626337 345.5851058545275 363.30070791010644 382.035997649817 401.3267382172212 420.6111937197993 439.25345522285716 456.5759336836838 471.8989737464443 484.5845013017123 494.0798637424059 499.9576911818517 501.9477806943448 499.95769143156485 494.07986423682996 484.5845020314681 471.89897469806 456.5759348407884 439.25345656714717 420.6111952321753 401.32673987903854 382.03599944390896 363.30070982152324 345.58510787110464 329.2426551890764 314.51257333147703 301.52501130026627 290.3129993375389 280.82899172130715 272.9637559746542 266.56557664758026 261.4581328202499 257.4558945507283 254.3763847386222 252.04910530044668 250.321287806444 249.06087903355413 248.15731118124458 247.5206491968852 247.0796766242533 246.77940224792178 246.57836653302135 246.44601893888787 246.36033835017122 246.31495438976626 246.37533711153603 246.47017689625923 246.61667235916389 246.83919865233307 247.17157214086097 247.659684345397 248.36440499141924 249.36456350862719 250.75970892396157 252.67222863445645 255.24829223174743 258.6569989513316 263.0870729663829 268.7404980136881 275.8226370177546 284.52865944570436 295.0264989926479 307.4370649900619 321.81298575671275 338.11770015007494 356.2071463604018 375.8165302665225 396.55460554985154 417.9075088527556 439.25345522285716 459.8885576342203 479.06279338699983 496.02385258146745 510.0654515618662 520.575859656504 527.0820215238356 529.2848497894304 527.0820217621232 520.575860128077 510.0654522571749 496.0238534868694 479.0627944860105 459.888558908195 439.253456652526 417.9075104191897 396.55460723554313 375.81653205629436 356.2071482418621 338.1177021141856 321.81298779744833 307.4370671044097 295.02650118015316 284.52866170784506 275.8226393571455 268.7405004335693 263.08707546988074 258.6570015407767 255.24829490850402 252.672231398354 250.75971177323794 249.36456643975808 248.3644079992319 247.65968742312708 247.17157528029458 246.83920184397735 246.61667559244597 246.47018015983886 246.37534039344766 246.32347604591953 246.38927740438328 246.49262793888246 246.65226963773216 246.8947650358595 247.25696511881668 247.7888796306442 248.55684063771756 249.64675158246493 251.1670948443575 253.2512406474982 256.05847558241624 259.77307354888455 264.6006944913642 270.7614478071207 278.47912532389296 287.9664106689311 299.4063076078661 312.93057566005575 328.5965659158479 346.36443630067885 366.07719715465294 387.4462922040709 410.04536538278126 433.3144401512204 456.5759336836838 479.06279338699983 499.95769086125483 518.4408052572355 533.7424722832783 545.1960656474942 552.2860788656528 554.6865849956889 552.2860790907528 545.1960660928055 533.7424729392513 518.4408061105689 499.95769189540715 479.06279458361064 456.57593502359686 433.31444161573427 410.04536695444494 387.44629386782094 366.0771988981543 346.36443811483656 328.59656779469344 312.9305776005764 299.40630960955025 287.96641273319983 278.4791274535885 270.7614500054831 264.60069676157667 259.77307589378927 256.0584780036048 253.2512431452833 251.16709741760224 249.64675422835555 248.5568433518487 247.788882407161 247.2569679504716 246.89476791429655 246.6522725534869 246.49263088180837 246.38928036373693 246.33101411011714 246.4016086618843 246.51248759699243 246.6837581340005 246.94391771297612 247.33250167038628 247.90316262987457 248.72706451073077 249.8963682537665 251.5274584631637 253.76342050286092 256.7751439393383 260.7603258085076 265.9396070230655 272.5491304958646 280.82898981057247 291.0073611914452 303.28057901939724 317.7900006241038 334.59715474368056 353.6592970717371 374.8080022886503 397.73369470267045 421.97896102513147 446.9430341256293 471.8989737464443 496.02385258146745 518.4408052572355 538.2702923930361 554.686584738984 566.9744966832233 574.5809705003364 577.1563376246438 574.5809707107708 566.9744970990897 554.6865853513013 538.2702931887303 518.4408062203904 496.0238536941774 471.898974990292 446.94303548225434 421.97896247776504 397.7336962365901 374.80800389191893 353.65929873537345 334.59715646200027 317.7900023939805 303.280580840433 291.00736306506116 280.8289917394402 272.549132483281 265.9396090723844 260.7603279225712 256.7751461200224 253.76342275079077 251.52746077762876 249.89637063252147 248.72706695010925 247.90316512476065 247.3325042144135 246.9439202987264 246.68376075311787 246.51249024041036 246.4016113199394 246.33725469876046 246.4118174045995 246.52892889745203 246.7098266325343 246.98460990539792 247.3950363534743 247.997774441204 248.86798824734703 250.10301912513154 251.82579371553265 254.18744028209622 257.36845417905045 261.57764509127054 267.0480562670195 274.0291043298936 282.77437864345944 293.5248813310872 306.487982826927 321.8129862263531 339.5648788283794 359.69851364761996 382.035998093423 406.250355070207 431.85845986058484 458.22577591481866 484.5845013017123 510.0654515618662 533.7424722832783 554.686584738984 572.0256450278636 585.0042665991334 593.0383040779597 595.7584338548174 593.0383042722505 585.0042669830539 572.0256455927735 554.6865854726052 533.7424731703767 510.06545258555934 484.58450244443554 458.2257771592348 431.85846119060716 406.25035647190884 382.03599955543575 359.6985151614739 339.564880388447 321.8129878298491 306.4879844733398 293.52488302183787 282.7743803811059 274.0291061176191 267.04805810806414 261.57764698853333 257.3684561345209 254.18744229657014 251.82579578861214 250.10302125505444 248.86799043093012 247.99777667409876 247.39503863005322 246.98461221912402 246.70982897596107 246.52893126250774 246.4118197827292 246.34192594923098 246.41945889499024 246.54123557740047 246.7293394558175 247.0150688454363 247.44184481894237 248.06859325591597 248.9734724317185 250.25770133848485 252.04910345798095 254.50482731956302 257.8125583951961 262.1894244020833 267.87775197637586 275.1368933705824 284.23053980012025 295.4092938216598 308.88878656821163 324.8242686944105 343.2833162987939 364.2189839443521 387.44629260498755 412.6252398982004 439.25345560564074 466.67112611473186 494.0798637424059 520.575859656504 545.1960656474942 566.9744966832233 585.0042665991334 598.4998976654539 606.853974801338 609.6824622172905 606.8539749784621 598.4998980154957 585.0042671140211 566.9744973513608 545.1960664550118 520.5758605875992 494.07986478065095 466.6711272440969 439.25345681117597 412.6252411669455 387.44629392636966 364.2189853103563 343.2833177043043 324.8242701367554 308.8887880469363 295.40929533801483 284.23054135660675 275.1368949701562 267.87775362216337 262.189426096813 257.81256014080066 254.50482911700877 252.04910530704052 250.25770323773716 248.97347437849191 248.06859524634513 247.44184684811032 247.01507090757343 246.7293415443584 246.54123768515444 246.41946101434027 246.3448176286708 246.42418921477278 246.54885374640816 246.74141837714382 247.03392364036964 247.4708203099652 248.11243165252176 249.0387694135953 250.35345292471405 252.18733691430242 254.70129658189694 258.087468232253 262.5681286182325 268.39135098666986 275.82263795157826 285.1319339855293 296.57578451350963 310.37493421354014 326.68831540324146 345.5851067021766 367.01724939411423 390.79537780161047 416.57142661774526 443.83111225754567 471.89897407943306 499.9576911818517 527.0820215238356 552.2860788656528 574.5809705003364 593.0383040779597 606.853974801338 615.4061631562536 618.3017262071934 615.4061633156425 606.8539751163643 593.0383045413472 574.5809711015124 552.2860795917707 527.0820223606844 499.9576921144817 471.89897509323544 443.831113338878 416.5714277547273 390.79537898469255 367.01725061602036 345.58510795818876 326.6883166909723 310.374935532478 296.5757858648482 285.1319353715424 275.82263937505115 268.3913524503879 262.5681301247536 258.08746978345306 254.70129817868542 252.18733855662248 250.35345461131513 249.03877114214683 248.11243341966997 247.47082211144684 247.03392547104036 246.7414202312056 246.54885561749455 246.424191096091 246.34579681850175 246.4257909232754 246.55143320973502 246.7455081414957 247.0403075490822 247.48063083814722 248.12727439661674 249.06087751006524 250.38587220663157 252.2341395211891 254.76781641328185 258.1805461315034 262.6963487669889 268.5652432293125 276.0548144954744 285.43712423873205 296.9707299948932 310.87810776388756 327.31943638489 346.36443705192147 367.96467411938636 391.92929669635487 417.90750956557207 445.38099556573286 473.6689963516619 501.9477806943448 529.2848497894304 554.6865849956889 577.1563376246438 595.7584338548174 609.6824622172905 618.3017262071934 621.2199994311111 618.3017263488472 609.6824624971875 595.7584342663638 577.1563381585172 554.6865856405207 529.2848505324876 501.94778152226917 473.6689972514364 445.3809965251929 417.90751057414485 391.92929774551385 367.9646752026514 346.36443816497246 327.3194375256806 310.8781089320198 296.9707311913903 285.4371254656404 276.0548157551814 268.56524452443296 262.6963500997397 258.1805475035898 254.7678178255566 252.2341409736237 250.38587369814604 249.06087903864162 248.12727595927075 247.48063243109877 247.04030916784066 246.74550978091673 246.55143486419115 246.42579258682647 246.34481804567412 246.42418963109398 246.54885416051246 246.7414187875533 247.03392404569163 247.47082070892074 248.1124320440024 249.03876979669153 250.35345329871532 252.187337278754 254.70129693657145 258.08746857717887 262.56812895372235 268.39135131329215 275.82263826995825 285.13193429651966 296.575784817963 310.37493451230915 326.6883156969514 345.58510699122536 367.0172496785587 390.7953780811664 416.57142689173054 443.8311125249371 471.8989743388096 499.95769143156485 527.0820217621232 552.2860790907528 574.5809707107708 593.0383042722505 606.8539749784621 615.4061633156425 618.3017263488472 615.4061634397885 606.8539752237983 593.0383046330925 574.5809711788195 552.2860796563448 527.0820224137761 499.95769215791006 471.8989751283078 443.83111336707236 416.5714277772373 390.7953790025414 367.0172506301744 345.5851079693869 326.68831669983985 310.3749355395266 296.5757858704757 285.1319353759762 275.82263937857545 268.39135245323007 262.56813012702736 258.08746978527205 254.70129818013493 252.18733855775935 250.35345461222462 249.0387711428858 248.11243342026683 247.47082211190158 247.03392547140984 246.74142023148983 246.54885561772193 246.42419109628995 246.34192678485766 246.41945972925268 246.5412364072007 246.72934027817124 247.01506965755823 247.44184561830295 248.0685940402699 248.97347319918993 250.25770208762427 252.04910418785045 254.50482802970785 257.8125590856731 262.1894250734041 267.87775262962043 275.13689400700133 284.2305404214188 295.4092944294296 308.8887871641012 324.8242692796135 343.28331687410616 364.21898451000095 387.4462931604046 412.6252404420782 439.25345613587615 466.6711266286532 494.07986423682996 520.575860128077 545.1960660928055 566.9744970990897 585.0042669830539 598.4998980154957 606.8539751163643 609.6824624971875 606.8539752237983 598.499898227749 585.0042672953516 566.9744975043833 545.1960665825684 520.5758606927595 494.0798648665982 466.67112731367325 439.25345686705305 412.6252412115676 387.44629396183996 364.2189853384938 343.2833177265869 324.8242701544337 308.88878806097665 295.40929534915614 284.2305413654743 275.1368949772048 267.8777536278477 262.18942610130364 257.81256014443863 254.5048291199362 252.0491053093711 250.25770323958457 248.97347437996984 248.06859524751042 247.44184684904823 247.0150709083124 246.72934154492683 246.5412376856092 246.41946101470975 246.3372559561653 246.41181865992957 246.52893014601773 246.70982786990183 246.98461112730405 247.3950375560821 247.99777562113127 248.86798940169476 250.10302025173968 251.82579481286643 254.18744134935983 257.3684552162723 261.57764609910436 267.04805724688634 274.02910528372615 282.77437957353146 293.52488223984295 306.48798371658336 321.812987098729 339.5648796847255 359.69851448822044 382.0359989175389 406.2503558759056 431.858460645024 458.2257766741899 484.5845020314681 510.0654522571749 533.7424729392513 554.6865853513013 572.0256455927735 585.0042671140211 593.0383045413472 595.7584342663638 593.0383046330925 585.0042672953516 572.0256458597102 554.6865856978188 533.742473358301 510.0654527407419 484.5845025712532 458.22577726195084 431.85846127331433 406.25035653801774 382.0359996081296 359.69851520331065 339.5648804216436 321.8129878561676 306.48798449425817 293.524883038493 282.77438039435043 274.029106128192 267.0480581165338 261.5776469952977 257.368456139921 254.18744230094708 251.825795792108 250.10302125783977 248.86799043317544 247.9977766758609 247.3950386314743 246.98461222023246 246.70982897684215 246.52893126318986 246.4118197832692 246.33101579387605 246.40161034280104 246.51248926887106 246.68375979075878 246.94391934895813 247.33250328039085 247.9031642093258 248.72706605570647 249.8963697611687 251.52745993086077 253.76342192965916 256.7751453250672 260.76032715387765 265.939608329782 272.54913176625814 280.82899104748526 291.00736239788995 303.2805801982729 317.790001777741 334.5971558736709 353.6592981784785 374.80800337129006 397.7336957589917 421.9789620515531 446.9430351174333 471.89897469806 496.0238534868694 518.4408061105689 538.2702931887303 554.6865854726052 566.9744973513608 574.5809711015124 577.1563381585172 574.5809711788195 566.9744975043833 554.6865856978188 538.2702934814739 518.4408064649308 496.02385389625573 471.8989751556495 446.9430356165185 421.97896258593806 397.7336963232763 374.80800396109737 353.65929879051157 334.5971565057697 317.7900024288255 303.2805808681726 291.00736308717325 280.82899175706166 272.54913249743504 265.93960908369627 260.7603279316093 256.77514612729834 253.76342275664564 251.52746078228992 249.8963706362447 248.72706695309353 247.90316512711965 247.33250421628932 246.94392030020433 246.68376075428316 246.51249024131985 246.40161132064995 246.32347816185896 246.38927951677 246.4926300397868 246.65227171959395 246.89476709148806 247.25696714156132 247.78888161465005 248.5568425779824 249.6467534749813 251.1670966862264 253.25124243698588 256.0584773190395 259.7730752333256 264.60069612527144 270.7614493932226 278.47912686542963 287.9664121692563 299.40630907044726 312.93057708773506 328.59656731044436 346.36443766287454 366.0771984835952 387.44629349731554 410.0453666362355 433.31444135965467 456.5759348407884 479.0627944860105 499.95769189540715 518.4408062203904 533.7424731703767 545.1960664550118 552.2860795917707 554.6865856405207 552.2860796563448 545.1960665825684 533.742473358301 518.4408064649308 499.95769219167505 479.06279482883315 456.57593522470887 433.3144417792728 410.04536708654905 387.4462939739476 366.0771989831352 346.36443818265076 328.59656784875153 312.9305776436637 299.4063096439405 287.96641276071205 278.4791274755869 270.76145002310454 264.6006967757307 259.77307590515795 256.0584780127566 253.2512431526161 251.1670974234571 249.64675423304513 248.55684335560036 247.78888241014528 247.25696795285901 246.89476791617238 246.65227255496484 246.49263088297366 246.38928036464642 246.3149569448495 246.37533966227076 246.4701794330389 246.61667487277987 246.8392011340883 247.17157458262687 247.65968673998287 248.36440733262913 249.36456579137362 250.75971114454973 252.67223079044206 255.248294322221 258.65700097666263 263.0870749282198 268.7404999147026 275.82263886147086 284.52866123587415 295.026500732966 307.4370666837684 321.81298740602455 338.1177017558447 356.2071479218905 375.8165317812859 396.55460701368327 417.9075102601418 439.25345656714717 459.888558908195 479.06279458361064 496.0238536941774 510.06545258555934 520.5758605875992 527.0820223606844 529.2848505324876 527.0820224137761 520.5758606927595 510.0654527407419 496.02385389625573 479.06279482883315 459.88855919246896 439.25345688615243 417.907510609672 396.55460738981617 375.81653218066776 356.207148341736 338.11770219410744 321.8129878613972 307.4370671555688 295.0265012210804 284.52866174058687 275.822639383464 268.7405004546582 263.0870754868201 258.65700155441914 255.2482949194748 252.67223140716473 250.75971178031494 249.364566445414 248.36440800375095 247.65968742673664 247.17157528313675 246.83920184622266 246.61667559423654 246.47018016125995 246.3753403945561 246.30578648231568 246.36033772145458 246.44601831406501 246.5783659145081 246.77940163802032 247.07967602515208 247.52064861060217 248.15731060959874 249.06087847819393 250.32128726870525 252.0491047814947 254.37638423936644 257.45589407187936 261.458132362433 266.5655762114207 272.96375556077726 280.828991330736 290.3129989716378 301.52501096113843 314.5125730220783 329.2426549133858 345.5851076344655 363.3007096305862 382.03599930680264 401.3267398051421 420.6111952321753 439.253456652526 456.57593502359686 471.898974990292 484.58450244443554 494.07986478065095 499.9576921144817 501.94778152226917 499.95769215791006 494.0798648665982 484.5845025712532 471.8989751556495 456.57593522470887 439.25345688615243 420.6111954950193 401.3267400939635 382.0359996185888 363.3007099627223 345.58510798490516 329.2426552805943 314.5125734049187 301.5250113592129 290.31299938488945 280.8289917593354 272.96375600523595 266.56557667219346 261.45813284008824 257.4558945667013 254.3763847514688 252.04910531079219 250.32128781474313 249.0608790402048 248.15731118655944 247.52064920112002 247.07967662760706 246.779402250565 246.57836653509614 246.44601894053633 246.3603383514502 246.2963000973149 246.34481897375662 246.42102487023936 246.53873726264356 246.71754213631667 246.98461170449212 247.3768208407012 247.94307974427142 248.7467296423975 249.86776042655794 251.40451313403392 253.4744383326282 256.2134110762856 259.7730754994665 264.31573009500863 270.00638860924977 277.00187411487775 285.4371251267968 295.4092950216812 306.96067184082955 320.0618778796685 334.5971562206431 350.353738808618 367.0172503930805 384.1747901653056 401.32673987903854 417.9075104191897 433.31444161573427 446.94303548225434 458.2257771592348 466.6711272440969 471.89897509323544 473.6689972514364 471.8989751283078 466.67112731367325 458.22577726195084 446.9430356165185 433.3144417792728 417.907510609672 401.3267400939635 384.17479040222895 367.01725064978535 350.3537390831149 334.59715651145405 320.0618781855429 306.96067216108537 295.4092953559205 285.4371254749627 277.0018744771977 270.00638898600795 264.31573048660294 259.77307590618113 256.2134114982911 253.47443876995305 251.40451358650753 249.86776089366873 248.74673012346335 247.94308023829757 247.37682134649395 246.98461222063037 246.71754266115195 246.53873779444217 246.42102540709703 246.3448195136554 246.28681060942674 246.32929515716873 246.39602326964527 246.49909568427785 246.65566246288216 246.88951639035912 247.23294618483914 247.7287790478327 248.4324784110304 249.4140857637768 250.759711395485 252.57219845960554 254.97052312871094 258.08746944369994 262.0651507132233 267.04805780145074 273.1735095790181 280.5596621574423 289.2915858758394 299.4063093803576 310.8781086932206 323.60562367077887 337.4025483788294 351.99360665024693 367.0172504565746 382.03599944390896 396.55460723554313 410.04536695444494 421.97896247776504 431.85846119060716 439.25345681117597 443.831113338878 445.3809965251929 443.83111336707236 439.25345686705305 431.85846127331433 421.97896258593806 410.04536708654905 396.55460738981617 382.0359996185888 367.01725064978535 351.99360686039705 337.4025486044978 323.60562391088547 310.87810894685595 299.40630964701006 289.29158615528166 280.55966244961746 273.1735098840399 267.0480581195465 262.06515104462045 258.0874697886258 254.97052348722238 252.5721988316173 250.75971178074127 249.41408616179442 248.43247882118408 247.72877946918453 247.23294661636595 246.88951683081035 246.65566291083672 246.49909613820097 246.3960237278885 246.32929561802675 246.27759435074591 246.3142183201307 246.37174154866517 246.4605955239803 246.59556452351765 246.79715920992157 247.0932141980454 247.5206488432907 248.12727561244063 248.97347404328627 250.1334758454118 251.6959373586007 253.7634224545513 256.45039813141466 259.8793737188861 264.1749081275889 269.4553776233224 275.8226391409131 283.35002789644193 292.0694645782563 301.9587737313003 312.93057745011185 324.82426998037914 337.4025484331717 350.3537389262839 363.30070982152324 375.81653205629436 387.44629386782094 397.7336962365901 406.25035647190884 412.6252411669455 416.5714277547273 417.90751057414485 416.5714277772373 412.6252412115676 406.25035653801774 397.7336963232763 387.4462939739476 375.81653218066776 363.3007099627223 350.3537390831149 337.4025486044978 324.82427016512025 312.93057764752905 301.95877394082515 292.06946479943406 283.35002812921573 275.8226393851693 269.45537787917465 264.1749083952077 259.8793739983852 256.45039842285087 253.76342275798146 251.69593767382588 250.1334761722046 248.97347438116356 248.1272759607771 247.52064920131897 247.09321456479913 246.79715958432075 246.59556490434014 246.46059590989026 246.37174193826996 246.31421871200922 246.2688796913079 246.2999620504185 246.34878138040082 246.4241907698382 246.5387374720263 246.70982866025273 246.9610872653667 247.32384633729154 247.83868378959662 248.55684307047378 249.54132381358576 250.86736767728902 252.62201948891888 254.9024261280902 257.8125599125175 261.45813261663676 265.9396088724093 271.3434335376043 277.7318454018526 285.13193520129636 293.5248828718849 302.8365317481071 312.9305774967803 323.60562377167594 334.59715638457953 345.58510787110464 356.2071482418621 366.0771988981543 374.80800389191893 382.03599955543575 387.44629392636966 390.79537898469255 391.92929774551385 390.7953790025414 387.44629396183996 382.0359996081296 374.80800396109737 366.0771989831352 356.207148341736 345.58510798490516 334.59715651145405 323.60562391088547 312.93057764752905 302.83653190994033 293.52488304434786 285.1319353842185 277.73184559506336 271.3434337411606 265.93960908631107 261.45813284099773 257.8125601473945 254.90242637348325 252.6220197447711 250.8673679434299 249.5413240897311 248.55684335619722 247.83868408430132 247.3238466402954 246.96108757584545 246.70982897726847 246.53873779452744 246.42419109668785 246.3487817104053 246.2999623823272 246.26084050803127 246.28681079115515 246.32760086816234 246.39060777145593 246.48631512353597 246.62926716209307 246.83920158465767 247.14229813435531 247.5724609270033 248.17250546616108 248.99506991605148 250.1030210352978 251.5690874994434 253.47443856457778 255.9059463538014 258.9519363606818 262.69634992716306 267.2114144354382 272.5491323406609 278.73213880010826 285.7447090615988 293.5248829120164 301.9587738181002 310.8781088340786 320.0618780831679 329.2426551890764 338.1177021141856 346.36443811483656 353.65929873537345 359.6985151614739 364.2189853103563 367.01725061602036 367.9646752026514 367.0172506301744 364.2189853384938 359.69851520331065 353.65929879051157 346.36443818265076 338.11770219410744 329.2426552805943 320.0618781855429 310.87810894685595 301.95877394082515 293.52488304434786 285.7447092032526 278.7321389509707 272.54913250061827 267.2114146045474 262.696350105424 258.9519365481514 255.90594655047963 253.47443877046464 251.56908771442522 250.10302125914717 248.99507014851264 248.17250570686454 247.57246117538062 247.14229838983806 246.83920184647846 246.6292674294845 246.48631539556015 246.39060804717494 246.3276011465814 246.28681107119425 246.25359448053993 246.2749570527323 246.30851005490192 246.3603381198701 246.43906484032476 246.55665397987073 246.72934132553965 246.97866174673285 247.33250400832767 247.82608718290655 248.50271024324655 249.41408597446693 250.62003935316406 252.18733838819543 254.18744213880123 256.69300517421465 259.77307575878615 263.48706651654527 267.8777535002911 272.96375588245417 278.7321388348396 285.131935276216 292.06946469967386 299.40630955571953 306.9606720785487 314.51257333147703 321.81298779744833 328.59656779469344 334.59715646200027 339.564880388447 343.2833177043043 345.58510795818876 346.36443816497246 345.5851079693869 343.2833177265869 339.5648804216436 334.5971565057697 328.59656784875153 321.8129878613972 314.5125734049187 306.96067216108537 299.40630964701006 292.06946479943406 285.1319353842185 278.7321389509707 272.96375600665704 267.877753632452 263.48706665672114 259.7730759069201 256.6930053303635 254.18744230299345 252.18733856034572 250.62003953315875 249.41408616207863 248.5027104382479 247.82608738489964 247.33250421688618 246.97866196128834 246.72934154549526 246.55665420451592 246.43906506892057 246.36033835156388 246.308510288841 246.27495728806406 246.24720563297166 246.2645055711715 246.29167762042655 246.33364926660084 246.3974041078493 246.49263069519142 246.63247716968928 246.8343829999936 247.12093319624208 247.52064903255086 248.06859508570562 248.80664964528876 249.78326045381897 251.05249789265412 252.67223127153633 254.7012980536299 257.1956152275637 260.20329660254123 263.75898328166204 267.8777535304181 272.5491324055761 277.73184550695606 283.350028048157 289.29158608144206 295.4092952894137 301.52501130026627 307.4370671044097 312.9305776005764 317.7900023939805 321.8129878298491 324.8242701367554 326.6883166909723 327.3194375256806 326.68831669983985 324.8242701544337 321.8129878561676 317.7900024288255 312.9305776436637 307.4370671555688 301.5250113592129 295.4092953559205 289.29158615528166 283.35002812921573 277.73184559506336 272.54913250061827 267.877753632452 263.75898339057403 260.2032967183881 257.1956153504023 254.701298183375 252.6722314081595 251.0524980361269 249.78326060399928 248.80664980197764 248.06859524864728 247.52064920146108 247.12093337069453 246.83438317953355 246.63247735374827 246.49263088320103 246.39740429918425 246.3336494605506 246.29167781628055 246.2645057681908 246.2416902145 246.2554829277941 246.27714637425925 246.31060908816542 246.36143887939568 246.43736013428193 246.54885546484155 246.70982882771344 246.93828656288957 247.25696781265472 247.69382849497646 248.28225689339112 249.06087891588825 250.0728032289323 251.364167268895 252.98188035129144 254.97052338626847 257.3684560469252 260.20329662874605 263.4870665730476 267.2114145268424 271.34343366936736 275.8226393193446 280.55966238987503 285.4371254214162 290.3129993375389 295.02650118015316 299.40630960955025 303.280580840433 306.4879844733398 308.8887880469363 310.374935532478 310.8781089320198 310.3749355395266 308.88878806097665 306.48798449425817 303.2805808681726 299.4063096439405 295.0265012210804 290.31299938488945 285.4371254749627 280.55966244961746 275.8226393851693 271.3434337411606 267.2114146045474 263.48706665672114 260.2032967183881 257.3684561425358 254.9705234877624 252.9818804587255 251.36416738224077 250.07280334810451 249.06087904074482 248.28225702378992 247.6938286306617 247.25696795334218 246.9382867082382 246.70982897735374 246.54885561829036 246.43736029105608 246.36143903892673 246.31060924988495 246.2771465375704 246.2554830920716 246.23702483689567 246.24785086161285 246.26485469562923 246.2911198807954 246.33101664115563 246.39060791703193 246.47812160486407 246.60447104524846 246.7837895764038 247.03392535559138 247.3768212342282 247.83868397635567 248.44983140451146 249.24409989870355 250.25770314766876 251.52746069497843 253.08836449801018 254.97052340911952 257.1956152767901 259.7730758384238 262.69635004198676 265.93960902787603 269.4553778257987 273.173509835723 277.0018744339967 280.82899172130715 284.52866170784506 287.96641273319983 291.00736306506116 293.52488302183787 295.40929533801483 296.5757858648482 296.9707311913903 296.5757858704757 295.40929534915614 293.524883038493 291.00736308717325 287.96641276071205 284.52866174058687 280.8289917593354 277.0018744771977 273.1735098840399 269.45537787917465 265.93960908631107 262.696350105424 259.7730759069201 257.1956153504023 254.9705234877624 253.0883645817121 251.52746078373943 250.25770324140356 249.24409999738373 248.44983150796648 247.83868408447185 247.3768213468066 247.03392547234776 246.78378969705395 246.60447116950817 246.4781217322786 246.39060804723178 246.33101677365764 246.2911200151164 246.26485483125762 246.24785099806547 246.23315576679818 246.24152147032942 246.25466101489042 246.2749571769636 246.30578700396774 246.35183557300104 246.41946090969154 246.51709619000968 246.6556628111902 246.84895276025614 247.11392215858123 247.47082202376586 247.9430801532598 248.5568432749964 249.34009515863875 250.32128774235304 251.52746071490205 252.9818803941798 254.70129812309256 256.69300527437275 258.95193649636707 261.45813279347664 264.174908351893 267.0480580804951 270.00638895116293 272.9637559746542 275.8226393571455 278.4791274535885 280.8289917394402 282.7743803811059 284.23054135660675 285.1319353715424 285.4371254656404 285.1319353759762 284.2305413654743 282.77438039435043 280.82899175706166 278.4791274755869 275.822639383464 272.96375600523595 270.00638898600795 267.0480581195465 264.1749083952077 261.45813284099773 258.9519365481514 256.6930053303635 254.701298183375 252.9818804587255 251.52746078373943 250.32128781542525 249.34009523591737 248.55684335639617 247.94308023869547 247.47082211306687 247.1139222516339 246.8489528568047 246.65566291097883 246.51709629275416 246.41946101507924 246.35183568071932 246.30578711356185 246.27495728809248 246.25466112712775 246.24152158322045 246.2300083724209 246.2363726640812 246.24636870249842 246.26180920842904 246.28526330409858 246.32029520819546 246.37174185149848 246.4460188560386 246.5514347826777 246.6984820218125 246.9000601103379 247.1715752100361 247.53085024935382 247.99777660992254 248.59364322110252 249.34009517594757 250.25770318495805 251.3641673293764 252.67223135887625 254.18744225726292 255.90594650833023 257.81256010874097 259.87937396325594 262.06515101307235 264.31573045846545 266.56557664758026 268.7405004335693 270.7614500054831 272.549132483281 274.0291061176191 275.1368949701562 275.82263937505115 276.0548157551814 275.82263937857545 275.1368949772048 274.029106128192 272.54913249743504 270.76145002310454 268.7405004546582 266.56557667219346 264.31573048660294 262.06515104462045 259.8793739983852 257.8125601473945 255.90594655047963 254.18744230299345 252.6722314081595 251.36416738224077 250.25770324140356 249.34009523591737 248.59364328459662 247.99777667685566 247.5308503196407 247.17157528356307 246.90006018696283 246.69848210133645 246.5514348649017 246.44601894070686 246.37174193835523 246.32029529692804 246.28526339442277 246.2618093000322 246.24636879498266 246.23637275713386 246.227495917885 246.23226255208644 246.23974923898436 246.25131364366518 246.26887994971807 246.29511763369524 246.33364938929736 246.38928029538272 246.4682331765501 246.5783664700957 246.7293414827117 246.93269689647093 247.2017814679287 247.55149315362888 247.99777662487236 248.55684330731188 249.24409995122687 250.07280330493194 251.0524979959102 252.18733852311328 253.47443873615964 254.90242634210568 256.45039839442916 258.0874697631031 259.7730758835006 261.4581328202499 263.08707546988074 264.60069676157667 265.9396090723844 267.04805810806414 267.87775362216337 268.3913524503879 268.56524452443296 268.39135245323007 267.8777536278477 267.0480581165338 265.93960908369627 264.6006967757307 263.0870754868201 261.45813284008824 259.77307590618113 258.0874697886258 256.45039842285087 254.90242637348325 253.47443877046464 252.18733856034572 251.0524980361269 250.07280334810451 249.24409999738373 248.55684335639617 247.99777667685566 247.55149320848278 247.20178152556792 246.9326969567818 246.72934154558052 246.57836653535193 246.46823324402322 246.3892803648738 246.333649460579 246.29511770654008 246.26888002389873 246.2513137188406 246.23974931492717 246.232262628484 246.2255271370927 246.22904183275946 246.23456216953855 246.24308922688078 246.25604180881425 246.27538826387396 246.30379979894946 246.3448194569541 246.40303566101264 246.4842428594454 246.5955648530958 246.74550973254298 246.943920253678 247.2017814807753 247.5308502772071 247.94308019862086 248.44983147036456 249.06087900558717 249.7832605712859 250.62003950288963 251.56908768657195 252.6220197193621 253.76342273495987 254.97052346658822 256.21341147998754 257.4558945507283 258.6570015407767 259.77307589378927 260.7603279225712 261.57764698853333 262.189426096813 262.5681301247536 262.6963500997397 262.56813012702736 262.18942610130364 261.5776469952977 260.7603279316093 259.77307590515795 258.65700155441914 257.4558945667013 256.2134114982911 254.97052348722238 253.76342275798146 252.6220197447711 251.56908771442522 250.62003953315875 249.78326060399928 249.06087904074482 248.44983150796648 247.94308023869547 247.5308503196407 247.20178152556792 246.94392030077276 246.74550978182623 246.59556490448225 246.48424291279295 246.40303571617918 246.3448195137691 246.30379985724238 246.2753883234743 246.25604186946617 246.24308928835694 246.23456223163998 246.22904189523038 246.22401226568215 246.2265636611517 246.23057099591634 246.23676097580181 246.24616354199472 246.26020756238265 246.28083212513127 246.31060920364283 246.35286963584466 246.4118197401819 246.49263084142112 246.6014791510251 246.74550974348534 246.93269692031674 247.1715752490307 247.47082208052402 247.8386840538901 248.2822569952261 248.80664977543177 249.4140861375507 250.10302123660875 250.8673679228526 251.69593765523808 252.57219881496218 253.4744387552022 254.3763847386222 255.24829490850402 256.0584780036048 256.7751461200224 257.3684561345209 257.81256014080066 258.08746978345306 258.1805475035898 258.08746978527205 257.81256014443863 257.368456139921 256.77514612729834 256.0584780127566 255.2482949194748 254.3763847514688 253.47443876995305 252.5721988316173 251.69593767382588 250.8673679434299 250.10302125914717 249.41408616207863 248.80664980197764 248.28225702378992 247.83868408447185 247.47082211306687 247.17157528356307 246.9326969567818 246.74550978182623 246.60147919115656 246.49263088325787 246.41181978361027 246.35286968077938 246.31060924991337 246.28083217259552 246.2602076108985 246.24616359139165 246.23676102588087 246.23057104650698 246.22656371202655 246.22286743205052 246.22469083216808 246.22755474519687 246.23197852435743 246.2386982354829 246.24873504428405 246.26347475466767 246.28475547311228 246.31495764214773 246.35708738196132 246.41484047173043 246.49263085071502 246.5955648733889 246.72934151602195 246.90006015896745 247.11392222523014 247.37682132205128 247.69382860755485 248.0685952271889 248.50271041840955 248.99507013032274 249.5413240731328 250.13347615719795 250.75971176732622 251.40451357462726 252.04910530044668 252.672231398354 253.2512431452833 253.76342275079077 254.18744229657014 254.50482911700877 254.70129817868542 254.7678178255566 254.70129818013493 254.5048291199362 254.18744230094708 253.76342275664564 253.2512431526161 252.67223140716473 252.04910531079219 251.40451358650753 250.75971178074127 250.1334761722046 249.5413240897311 248.99507014851264 248.5027104382479 248.06859524864728 247.6938286306617 247.3768213468066 247.1139222516339 246.90006018696283 246.72934154558052 246.59556490448225 246.49263088325787 246.41484050566595 246.35708741720424 246.31495767861279 246.28475551065736 246.2634747932075 246.2487350836481 246.2386982755575 246.23197856500047 246.22755478623782 246.2246908734364 246.22201748608478 246.22330040829442 246.22531542281365 246.2284279402509 246.23315584754425 246.2402176246024 246.25058830620188 246.26556116174436 246.28681104177778 246.31645301598644 246.3570873897773 246.4118197573202 246.48424288769658 246.5783665114777 246.6984820787412 246.84895283551683 247.0339254523673 247.25696793469754 247.52064918415226 247.82608736892664 248.17250569219894 248.55684334283902 248.97347436911275 249.4140861510226 249.86776088411904 250.321287806444 250.75971177323794 251.16709741760224 251.52746077762876 251.82579578861214 252.04910530704052 252.18733855662248 252.2341409736237 252.18733855775935 252.0491053093711 251.825795792108 251.52746078228992 251.1670974234571 250.75971178031494 250.32128781474313 249.86776089366873 249.41408616179442 248.97347438116356 248.55684335619722 248.17250570686454 247.82608738489964 247.52064920146108 247.25696795334218 247.03392547234776 246.8489528568047 246.69848210133645 246.57836653535193 246.48424291279295 246.41181978361027 246.35708741720424 246.316453044465 246.28681107122267 246.26556119209874 246.25058833732365 246.2402176564347 246.233155879945 246.22842797307797 246.2253154559818 246.2233004416615 246.22139746799576 246.2222861222556 246.22368188205266 246.22583785988934 246.22911278563112 246.23400433569753 246.24118789695885 246.25155929096758 246.26627865277194 246.28681104831477 246.31495765652912 246.35286965963363 246.40303569597134 246.46823322481015 246.5514348467118 246.65566289384054 246.78378968099568 246.93828669325995 247.1209333567679 247.33250420403957 247.57246116361404 247.83868407358634 248.1272759510853 248.43247881254388 248.7467301158179 249.06087903355413 249.36456643975808 249.64675422835555 249.89637063252147 250.10302125505444 250.25770323773716 250.35345461131513 250.38587369814604 250.35345461222462 250.25770323958457 250.10302125783977 249.8963706362447 249.64675423304513 249.364566445414 249.0608790402048 248.74673012346335 248.43247882118408 248.1272759607771 247.83868408430132 247.57246117538062 247.33250421688618 247.12093337069453 246.9382867082382 246.78378969705395 246.65566291097883 246.5514348649017 246.46823324402322 246.40303571617918 246.35286968077938 246.31495767861279 246.28681107122267 246.26627867647565 246.25155931538183 246.2411879220268 246.2340043613055 246.22911281169382 246.22583788632153 246.22368190874064 246.22228614914255 246.22095298714834 246.22155899671995 246.22251082220183 246.22398107137184 246.22621437672453 246.22955012411066 246.23444888735992 246.2415215636379 246.2515592963677 246.2655611737099 246.28475549297906 246.3106092329456 246.34481949756872 246.38928034946923 246.44601892612653 246.51709627902648 246.60447115660472 246.70982896533135 246.83438316836381 246.97866195099968 247.14229838040205 247.32384663171203 247.52064919355985 247.72877946227806 247.94308023221532 248.15731118124458 248.3644079992319 248.5568433518487 248.72706695010925 248.86799043093012 248.97347437849191 249.03877114214683 249.06087903864162 249.0387711428858 248.97347437996984 248.86799043317544 248.72706695309353 248.55684335560036 248.36440800375095 248.15731118655944 247.94308023829757 247.72877946918453 247.52064920131897 247.3238466402954 247.14229838983806 246.97866196128834 246.83438317953355 246.70982897735374 246.60447116950817 246.51709629275416 246.44601894070686 246.3892803648738 246.3448195137691 246.31060924991337 246.28475551065736 246.26556119209874 246.25155931538183 246.24152158324887 246.23444890745407 246.22955014465956 246.2262143976429 246.22398109257443 246.2225108436318 246.2215590182636 246.22063980255425 246.2210466581239 246.2216856835596 246.2226727621939 246.224172132514 246.22641164740122 246.2297005214968 246.2344488917937 246.24118790682118 246.25058832265805 246.26347477908192 246.2808321590668 246.3037998443105 246.3336494482724 246.37174192673075 246.41946100413688 246.47812172198994 246.54885560868382 246.63247734485228 246.72934153728139 246.8392018389467 246.96108756899582 247.0932145586032 247.23294661085214 247.37682134163384 247.5206491968852 247.65968742312708 247.788882407161 247.90316512476065 247.99777667409876 248.06859524634513 248.11243341966997 248.12727595927075 248.11243342026683 248.06859524751042 247.9977766758609 247.90316512711965 247.78888241014528 247.65968742673664 247.52064920112002 247.37682134649395 247.23294661636595 247.09321456479913 246.96108757584545 246.83920184647846 246.72934154549526 246.63247735374827 246.54885561829036 246.4781217322786 246.41946101507924 246.37174193835523 246.333649460579 246.30379985724238 246.28083217259552 246.2634747932075 246.25058833732365 246.2411879220268 246.23444890745407 246.22970053755506 246.22641166380055 246.22417214919756 246.22267277913323 246.22168570066947 246.22104667534745 246.2204228813411 246.22069179646158 246.22111416649363 246.2217665856334 246.22275760894905 246.22423783794218 246.2264116510392 246.22955013221085 246.23400434922627 246.2402176447534 246.24873507242154 246.26020760012668 246.2753883131572 246.29511769676301 246.32029528766256 246.35183567199385 246.39060803904633 246.43736028341064 246.49263087612403 246.55665419797893 246.62926742348753 246.7098289718115 246.7971595794038 246.8895168264334 246.98461221676502 247.0796766242533 247.17157528029458 247.2569679504716 247.3325042144135 247.39503863005322 247.44184684811032 247.47082211144684 247.48063243109877 247.47082211190158 247.44184684904823 247.3950386314743 247.33250421628932 247.25696795285901 247.17157528313675 247.07967662760706 246.98461222063037 246.88951683081035 246.79715958432075 246.70982897726847 246.6292674294845 246.55665420451592 246.49263088320103 246.43736029105608 246.39060804723178 246.35183568071932 246.32029529692804 246.29511770654008 246.2753883234743 246.2602076108985 246.2487350836481 246.2402176564347 246.2340043613055 246.22955014465956 246.22641166380055 246.22423785098775 246.2227576222504 246.2217665991337 246.22111418010763 246.22069181016084 246.2202751721841 246.22045015860033 246.2207250000234 246.22114953729425 246.2217944084776 246.2227576118765 246.22417213907943 246.22621438778057 246.2291128021157 246.23315587067952 246.2386982666331 246.24616358286514 246.25604186130914 246.2688800161396 246.28526338708997 246.30578710665537 246.3310167671775 246.3614390328729 246.39740429358517 246.43906506374782 246.48631539084215 246.53873779020734 246.59556490044636 246.65566290736928 246.7175426580824 246.77940224792178 246.83920184397735 246.89476791429655 246.9439202987264 246.98461221912402 247.01507090757343 247.03392547104036 247.04030916784066 247.03392547140984 247.0150709083124 246.98461222023246 246.94392030020433 246.89476791617238 246.83920184622266 246.779402250565 246.71754266115195 246.65566291083672 246.59556490434014 246.53873779452744 246.48631539556015 246.43906506892057 246.39740429918425 246.36143903892673 246.33101677365764 246.30578711356185 246.28526339442277 246.26888002389873 246.25604186946617 246.24616359139165 246.2386982755575 246.233155879945 246.22911281169382 246.2262143976429 246.22417214919756 246.2227576222504 246.22179441902205 246.22114954798081 246.22072501082366 246.22045016945742 246.22017628030912 246.2202883807975 246.22046445084345 246.22073641964158 246.22114953965325 246.22176659094825 246.2226727711183 246.22398108478689 246.22583787876135 246.2284279657736 246.2319785579519 246.2367610191165 246.24308928193363 246.25131371272994 246.26180929423418 246.2749572826355 246.2911200100005 246.3106092451101 246.3336494561168 246.36033834749958 246.3906080434517 246.42419109327724 246.4605959068207 246.49909613544406 246.53873779202632 246.57836653302135 246.61667559244597 246.6522725534869 246.68376075311787 246.70982897596107 246.7293415443584 246.7414202312056 246.74550978091673 246.74142023148983 246.72934154492683 246.70982897684215 246.68376075428316 246.65227255496484 246.61667559423654 246.57836653509614 246.53873779444217 246.49909613820097 246.46059590989026 246.42419109668785 246.39060804717494 246.36033835156388 246.3336494605506 246.31060924988495 246.2911200151164 246.27495728809248 246.2618093000322 246.2513137188406 246.24308928835694 246.23676102588087 246.23197856500047 246.22842797307797 246.22583788632153 246.22398109257443 246.22267277913323 246.2217665991337 246.22114954798081 246.22073642808283 246.22046445936996 246.22028838938087 246.22011117724645 246.2201818781667 246.2202929241453 246.22046445271928 246.22072500428666 246.22111417368433 246.22168569435985 246.2225108374927 246.2236819028005 246.2253154502406 246.22755478069558 246.23057104119212 246.23456222658092 246.23974931009548 246.24636879043518 246.25466112283607 246.26485482725016 246.27714653381872 246.2916778128131 246.30851028565777 246.32760114362554 246.34878170770523 246.37174193588254 246.39602372572844 246.42102540519278 246.44601893888787 246.47018015983886 246.49263088180837 246.51249024041036 246.52893126250774 246.54123768515444 246.54885561749455 246.55143486419115 246.54885561772193 246.5412376856092 246.52893126318986 246.51249024131985 246.49263088297366 246.47018016125995 246.44601894053633 246.42102540709703 246.3960237278885 246.37174193826996 246.3487817104053 246.3276011465814 246.308510288841 246.29167781628055 246.2771465375704 246.26485483125762 246.25466112712775 246.24636879498266 246.23974931492717 246.23456223163998 246.23057104650698 246.22755478623782 246.2253154559818 246.22368190874064 246.2225108436318 246.22168570066947 246.22111418010763 246.22072501082366 246.22046445936996 246.22029293085282 246.22018188490264 246.22006903043578 246.22011292961778 246.22018187964463 246.2202883841797 246.2204501643415 246.2206918051302 246.22104667040207 246.22155901346034 246.2222861444814 246.22330043717088 246.2246908691163 246.22656370787698 246.22904189125134 246.2322626247039 246.23637275355273 246.24152157986668 246.24785099491066 246.25548308911573 246.2645057654623 246.27495728556295 246.2868110688921 246.299962380224 246.3142187101334 246.32929561634987 246.34481951217748 246.36033835017122 246.37534039344766 246.38928036373693 246.4016113199394 246.4118197827292 246.41946101434027 246.424191096091 246.42579258682647 246.42419109628995 246.41946101470975 246.4118197832692 246.40161132064995 246.38928036464642 246.3753403945561 246.3603383514502 246.3448195136554 246.32929561802675 246.31421871200922 246.2999623823272 246.28681107119425 246.27495728806406 246.2645057681908 246.2554830920716 246.24785099806547 246.24152158322045 246.23637275713386 246.232262628484 246.22904189523038 246.22656371202655 246.2246908734364 246.2233004416615 246.22228614914255 246.2215590182636 246.22104667534745 246.22069181016084 246.22045016945742 246.22028838938087 246.22018188490264 246.22011293490422

CELL_DATA 0

