# vtk DataFile Version 4.2
Higgs Field 2D Slice - phi
ASCII

DATASET STRUCTURED_POINTS
DIMENSIONS 16 16 1
ORIGIN 0 0 0
SPACING 6.25 6.25 6.25

POINT_DATA 256

SCALARS phi double 1
LOOKUP_TABLE default
246.21999998776283 246.2199999890787 246.22000000453144 246.22000012969144 246.22000080781726 246.22000320264561 246.22000852163686 246.2200153189078 246.22001862580515 246.22001532076942 246.22000852528905 246.2200032079889 246.2200008146953 246.2200001378769 246.22000001381113 246.21999999918262 246.2199999890787 246.2200000122171 246.2200002964833 246.22000263137616 246.22001531652037 246.22006013887193 246.22015970497753 246.22028694611615 246.22034884048213 246.22028694794935 246.2201597086013 246.22006014417258 246.22001532334158 246.22000263949056 246.22000030567773 246.22000002223575 246.22000000453144 246.2200002964833 246.22000389417707 246.22003346678798 246.22019415255866 246.22076194401572 246.22202321683696 246.2236350703029 246.22441912430136 246.22363507210767 246.22202322038967 246.22076194920268 246.22019415920934 246.22003347473185 246.22000390315833 246.22000030626037 246.22000012969144 246.22000263137616 246.22003346678798 246.22028694374293 246.22166425005275 246.22653104359915 246.23734198069138 246.2511579035979 246.25787838025798 246.25115790533164 246.237341984102 246.22653104857295 246.22166425646185 246.22028695137416 246.22003347542818 246.22000264078375 246.22000080781726 246.22001531652037 246.22019415255866 246.22166425005275 246.2296522610888 246.25787837828267 246.32057896193405 246.400707671378 246.4396846615232 246.40070767302646 246.3205789651599 246.25787838300067 246.22965226715684 246.22166425728608 246.22019416074411 246.22001532543058 246.22000320264561 246.22006013887193 246.22076194401572 246.22653104359915 246.25787837828267 246.36864607358902 246.61470185088734 246.929150788516 247.08210811330125 246.92915079003657 246.61470185390004 246.36864607799438 246.2578783839386 246.2265310503351 246.22076195164695 246.22006014717107 246.22000852163686 246.22015970497753 246.22202321683696 246.23734198069138 246.32057896193405 246.61470185088734 247.2680569287069 248.10301724717374 248.50916680317374 248.1030172485806 247.26805693147801 246.61470185493744 246.320578967121 246.2373419868731 246.2220232238429 246.22015971259455 246.2200153189078 246.22028694611615 246.2236350703029 246.2511579035979 246.400707671378 246.929150788516 248.10301724717374 249.60316922501062 250.33288780682057 249.6031692262896 248.10301724967485 246.9291507921682 246.40070767606758 246.25115790918278 246.22363507662672 246.2202869529942 246.22001862580515 246.22034884048213 246.22441912430136 246.25787838025798 246.4396846615232 247.08210811330125 248.50916680317374 250.33288780682057 251.21999999538147 250.33288780795743 248.50916680540485 247.08210811655553 246.43968466568697 246.25787838523178 246.22441912991465 246.2203488465928 246.22001532076942 246.22028694794935 246.22363507210767 246.25115790533164 246.40070767302646 246.92915079003657 248.1030172485806 249.6031692262896 250.33288780795743 249.60316922728435 248.1030172505417 246.92915079289295 246.40070767667865 246.25115790968016 246.22363507702462 246.22028695332105 246.22000852528905 246.2201597086013 246.22202322038967 246.237341984102 246.3205789651599 246.61470185390004 247.26805693147801 248.10301724967485 248.50916680540485 248.1030172505417 247.2680569331691 246.61470185635852 246.3205789683005 246.23734198785365 246.2220232246245 246.22015971323404 246.2200032079889 246.22006014417258 246.22076194920268 246.22653104857295 246.25787838300067 246.36864607799438 246.61470185493744 246.9291507921682 247.08210811655553 246.92915079289295 246.61470185635852 246.36864608006917 246.2578783856723 246.22653105175618 246.22076195279803 246.22006014809477 246.2200008146953 246.22001532334158 246.22019415920934 246.22166425646185 246.22965226715684 246.2578783839386 246.320578967121 246.40070767606758 246.43968466568697 246.40070767667865 246.3205789683005 246.2578783856723 246.22965226938794 246.22166425911928 246.22019416222204 246.2200153266243 246.2200001378769 246.22000263949056 246.22003347473185 246.22028695137416 246.22166425728608 246.2265310503351 246.2373419868731 246.25115790918278 246.25787838523178 246.25115790968016 246.23734198785365 246.22653105175618 246.22166425911928 246.22028695356263 246.22003347720454 246.22000264219062 246.22000001381113 246.22000030567773 246.22000390315833 246.22003347542818 246.22019416074411 246.22076195164695 246.2220232238429 246.22363507662672 246.22441912991465 246.22363507702462 246.2220232246245 246.22076195279803 246.22019416222204 246.22003347720454 246.22000390516206 246.2200003078662 246.21999999918262 246.22000002223575 246.22000030626037 246.22000264078375 246.22001532543058 246.22006014717107 246.22015971259455 246.2202869529942 246.2203488465928 246.22028695332105 246.22015971323404 246.22006014809477 246.2200153266243 246.22000264219062 246.2200003078662 246.22000002396948

CELL_DATA 0

