# vtk DataFile Version 4.2
Higgs Field Simulation - phi
ASCII

DATASET STRUCTURED_POINTS
DIMENSIONS 16 16 16
ORIGIN 0 0 0
SPACING 6.25 6.25 6.25

POINT_DATA 4096

SCALARS phi double 1
LOOKUP_TABLE default
246.2199999876934 246.2199999876934 246.21999998769346 246.21999998769394 246.21999998769644 246.21999998770536 246.2199999877252 246.21999998775053 246.21999998776283 246.21999998775053 246.2199999877252 246.21999998770536 246.21999998769644 246.21999998769394 246.21999998769346 246.2199999876934 246.21999998777866 246.21999998777875 246.2199999877798 246.21999998778853 246.2199999878358 246.21999998800283 246.21999998837387 246.21999998884803 246.2199999890787 246.21999998884803 246.21999998837387 246.21999998800283 246.2199999878358 246.21999998778853 246.2199999877798 246.21999998777875 246.21999998806294 246.21999998806402 246.21999998807743 246.21999998818765 246.21999998878647 246.2199999909024 246.21999999560273 246.22000000160955 246.22000000453144 246.22000000160955 246.21999999560273 246.2199999909024 246.21999998878647 246.21999998818765 246.21999998807743 246.21999998806402 246.21999998853238 246.2199999885417 246.2199999886566 246.2199999896012 246.21999999473397 246.2200000128708 246.22000005315942 246.22000010464657 246.22000012969144 246.22000010464657 246.22000005315942 246.2200000128708 246.21999999473397 246.2199999896012 246.2199999886566 246.2199999885417 246.21999998913174 246.21999998918582 246.21999998985228 246.21999999533082 246.22000002509935 246.2200001302883 246.22000036395164 246.22000066256354 246.22000080781726 246.22000066256354 246.22000036395164 246.2200001302883 246.22000002509935 246.21999999533082 246.21999998985228 246.21999998918582 246.21999998987962 246.21999999009182 246.2199999927072 246.22000001420662 246.22000013102726 246.22000054382005 246.2200014607846 246.22000263262672 246.22000320264561 246.22000263262672 246.2200014607846 246.22000054382005 246.22000013102726 246.22000001420662 246.2199999927072 246.21999999009182 246.2199999907379 246.2199999913013 246.21999999824595 246.22000005533368 246.22000036552905 246.22000146162304 246.2200038964508 246.22000700805833 246.22000852163686 246.22000700805833 246.2200038964508 246.22000146162304 246.22000036552905 246.22000005533368 246.21999999824595 246.2199999913013 246.2199999916585 246.21999999267075 246.22000000514805 246.22000010771612 246.22000066503622 246.22000263436044 246.22000700895362 246.22001259949974 246.2200153189078 246.22001259949974 246.22000700895362 246.22000263436044 246.22000066503622 246.22000010771612 246.22000000514805 246.21999999267075 246.21999999260873 246.21999999383934 246.22000000900786 246.2200001336989 246.22000081122786 246.22000320531725 246.22000852347006 246.22001531984571 246.22001862580515 246.22001531984571 246.22000852347006 246.22000320531725 246.22000081122786 246.2200001336989 246.22000000900786 246.21999999383934 246.21999999352013 246.21999999453237 246.22000000700967 246.22000010957774 246.22000066689785 246.22000263622206 246.22000701081524 246.22001260136136 246.22001532076942 246.22001260136136 246.22000701081524 246.22000263622206 246.22000066689785 246.22000010957774 246.22000000700967 246.21999999453237 246.2199999943901 246.2199999949535 246.22000000189814 246.22000005898587 246.22000036918124 246.22000146527523 246.220003900103 246.22000701171052 246.22000852528905 246.22000701171052 246.220003900103 246.22000146527523 246.22000036918124 246.22000005898587 246.22000000189814 246.2199999949535 246.2199999952229 246.2199999954351 246.21999999805047 246.2200000195499 246.22000013637054 246.22000054916333 246.22000146612788 246.22000263797 246.2200032079889 246.22000263797 246.22000146612788 246.22000054916333 246.22000013637054 246.2200000195499 246.21999999805047 246.2199999954351 246.2199999960098 246.21999999606388 246.21999999673034 246.22000000220888 246.2200000319774 246.22000013716635 246.2200003708297 246.2200006694416 246.2200008146953 246.2200006694416 246.2200003708297 246.22000013716635 246.2200000319774 246.22000000220888 246.21999999673034 246.21999999606388 246.21999999671783 246.21999999672715 246.21999999684206 246.21999999778666 246.22000000291942 246.22000002105625 246.22000006134488 246.22000011283203 246.2200001378769 246.22000011283203 246.22000006134488 246.22000002105625 246.22000000291942 246.21999999778666 246.21999999684206 246.21999999672715 246.21999999734263 246.2199999973437 246.21999999735712 246.21999999746734 246.21999999806616 246.2200000001821 246.22000000488242 246.22000001088924 246.22000001381113 246.22000001088924 246.22000000488242 246.2200000001821 246.21999999806616 246.21999999746734 246.21999999735712 246.2199999973437 246.21999999788258 246.21999999788267 246.21999999788372 246.21999999789244 246.2199999979397 246.21999999810674 246.2199999984778 246.21999999895195 246.21999999918262 246.21999999895195 246.2199999984778 246.21999999810674 246.2199999979397 246.21999999789244 246.21999999788372 246.21999999788267 246.21999998777866 246.21999998777875 246.2199999877798 246.21999998778853 246.2199999878358 246.21999998800283 246.21999998837387 246.21999998884803 246.2199999890787 246.21999998884803 246.21999998837387 246.21999998800283 246.2199999878358 246.21999998778853 246.2199999877798 246.21999998777875 246.21999998787823 246.21999998787985 246.21999998789966 246.2199999880625 246.2199999889475 246.2199999920747 246.21999999902133 246.22000000789882 246.2200000122171 246.22000000789882 246.21999999902133 246.2199999920747 246.2199999889475 246.2199999880625 246.21999998789966 246.21999998787985 246.2199999881635 246.21999998818387 246.21999998843486 246.2199999904981 246.22000000170902 246.22000004132354 246.22000012932196 246.22000024178024 246.2200002964833 246.22000024178024 246.22000012932196 246.22000004132354 246.22000000170902 246.2199999904981 246.21999998843486 246.21999998818387 246.21999998862697 246.21999998880148 246.21999999095286 246.22000000863778 246.22000010473184 246.22000044428592 246.22000119856037 246.2200021624914 246.22000263137616 246.2200021624914 246.22000119856037 246.22000044428592 246.22000010473184 246.22000000863778 246.21999999095286 246.21999998880148 246.2199999892711 246.21999999028333 246.22000000276063 246.2200001053287 246.2200006626488 246.22000263197302 246.2200070065662 246.22001259711232 246.22001531652037 246.22001259711232 246.2200070065662 246.22000263197302 246.2200006626488 246.2200001053287 246.22000000276063 246.21999999028333 246.2199999901771 246.21999999414948 246.2200000431141 246.22000044562174 246.22000263271198 246.2200103609272 246.22002752813472 246.2200494671041 246.22006013887193 246.2200494671041 246.22002752813472 246.2200103609272 246.22000263271198 246.22000044562174 246.2200000431141 246.21999999414948 246.21999999137236 246.22000000192034 246.22000013193676 246.22000120072042 246.2200070081294 246.22002752895895 246.22007311326644 246.2201313680948 246.22015970497753 246.2201313680948 246.22007311326644 246.22002752895895 246.2200070081294 246.22000120072042 246.22000013193676 246.22000000192034 246.2199999927418 246.22000001169312 246.22000024529032 246.22000216554673 246.2200125995708 246.22004946882362 246.22013136899008 246.22023603395925 246.22028694611615 246.22023603395925 246.22013136899008 246.22004946882362 246.2200125995708 246.22000216554673 246.22000024529032 246.22000001169312 246.21999999389618 246.2200000169351 246.2200003009171 246.2200026353552 246.22001531990256 246.22006014151515 246.22015970679652 246.22028694703985 246.22034884048213 246.22028694703985 246.22015970679652 246.22006014151515 246.22001531990256 246.2200026353552 246.2200003009171 246.2200000169351 246.219999994575 246.22000001352632 246.22000024712352 246.22000216737993 246.220012601404 246.22004947065682 246.22013137082328 246.22023603579245 246.22028694794935 246.22023603579245 246.22013137082328 246.22004947065682 246.220012601404 246.22000216737993 246.22000024712352 246.22000001352632 246.21999999499613 246.2200000055441 246.22000013556053 246.2200012043442 246.22000701175315 246.22002753258272 246.2200731168902 246.22013137171857 246.2201597086013 246.22013137171857 246.2200731168902 246.22002753258272 246.22000701175315 246.2200012043442 246.22000013556053 246.2200000055441 246.21999999547774 246.21999999945012 246.22000004841476 246.22000045092238 246.22000263801263 246.22001036622785 246.22002753343537 246.22004947240475 246.22006014417258 246.22004947240475 246.22002753343537 246.22001036622785 246.22000263801263 246.22000045092238 246.22000004841476 246.21999999945012 246.2199999960923 246.21999999710454 246.22000000958184 246.2200001121499 246.22000066947 246.22000263879423 246.2200070133874 246.22001260393353 246.22001532334158 246.22001260393353 246.2200070133874 246.22000263879423 246.22000066947 246.2200001121499 246.22000000958184 246.21999999710454 246.21999999674136 246.21999999691587 246.21999999906726 246.22000001675218 246.22000011284624 246.2200004524003 246.22000120667477 246.2200021706058 246.22000263949056 246.2200021706058 246.22000120667477 246.2200004524003 246.22000011284624 246.22000001675218 246.21999999906726 246.21999999691587 246.21999999735792 246.2199999973783 246.2199999976293 246.21999999969253 246.22000001090345 246.22000005051797 246.22000013851638 246.22000025097466 246.22000030567773 246.22000025097466 246.22000013851638 246.22000005051797 246.22000001090345 246.21999999969253 246.2199999976293 246.2199999973783 246.21999999789688 246.2199999978985 246.2199999979183 246.21999999808116 246.21999999896616 246.22000000209334 246.22000000903998 246.22000001791747 246.22000002223575 246.22000001791747 246.22000000903998 246.22000000209334 246.21999999896616 246.21999999808116 246.2199999979183 246.2199999978985 246.21999998806294 246.21999998806402 246.21999998807743 246.21999998818765 246.21999998878647 246.2199999909024 246.21999999560273 246.22000000160955 246.22000000453144 246.22000000160955 246.21999999560273 246.2199999909024 246.21999998878647 246.21999998818765 246.21999998807743 246.21999998806402 246.2199999881635 246.21999998818387 246.21999998843486 246.2199999904981 246.22000000170902 246.22000004132354 246.22000012932196 246.22000024178024 246.2200002964833 246.22000024178024 246.22000012932196 246.22000004132354 246.22000000170902 246.2199999904981 246.21999998843486 246.21999998818387 246.21999998844692 246.21999998870487 246.21999999188435 246.220000018021 246.2200001600388 246.2200006618672 246.2200017766126 246.22000320121032 246.22000389417707 246.22000320121032 246.2200017766126 246.2200006618672 246.2200001600388 246.220000018021 246.21999999188435 246.21999998870487 246.21999998899767 246.21999999120865 246.22000001846155 246.22000024249078 246.22000145978984 246.22000576118938 246.2200153161793 246.2200275270547 246.22003346678798 246.2200275270547 246.2200153161793 246.22000576118938 246.22000145978984 246.22000024249078 246.22000001846155 246.21999999120865 246.21999999019334 246.22000000301642 246.2200001610762 246.2200014603867 246.2200085204005 246.22003346738484 246.2200888838095 246.22015970367013 246.22019415255866 246.22015970367013 246.2200888838095 246.22003346738484 246.2200085204005 246.2200014603867 246.2200001610762 246.22000000301642 246.21999999301983 246.22000004334149 246.22000066361514 246.22000576249678 246.22003346809538 246.22013136749794 246.2203488380663 246.2206267563089 246.22076194401572 246.2206267563089 246.2203488380663 246.22013136749794 246.22003346809538 246.22000576249678 246.22000066361514 246.22000004334149 246.21999999853017 246.22000013214992 246.22000177917056 246.22001531829673 246.22008888533006 246.2203488388763 246.2209262912813 246.2216642511754 246.22202321683696 246.2216642511754 246.2209262912813 246.2203488388763 246.22008888533006 246.22001531829673 246.22000177917056 246.22000013214992 246.22000000540385 246.22000024547506 246.22000320463513 246.22002753003898 246.22015970605756 246.22062675798577 246.22166425204227 246.22299012582417 246.2236350703029 246.22299012582417 246.22166425204227 246.22062675798577 246.22015970605756 246.22002753003898 246.22000320463513 246.22000024547506 246.22000000923524 246.22000030108762 246.22000389851138 246.22003347068176 246.22019415585558 246.2207619466021 246.22202321861332 246.22363507121239 246.22441912430136 246.22363507121239 246.22202321861332 246.2207619466021 246.22019415585558 246.22003347068176 246.22000389851138 246.22000030108762 246.22000000720863 246.22000024727984 246.2200032064399 246.22002753184375 246.22015970786234 246.22062675979055 246.22166425384705 246.22299012762895 246.22363507210767 246.22299012762895 246.22166425384705 246.22062675979055 246.22015970786234 246.22002753184375 246.2200032064399 246.22000024727984 246.22000000208288 246.22000013570263 246.22000178272327 246.22001532184944 246.22008888888277 246.22034884242902 246.22092629483402 246.22166425472813 246.22202322038967 246.22166425472813 246.22092629483402 246.22034884242902 246.22008888888277 246.22001532184944 246.22000178272327 246.22000013570263 246.2199999982068 246.22000004852845 246.2200006688021 246.22000576768374 246.22003347328234 246.2201313726849 246.22034884325325 246.22062676149585 246.22076194920268 246.22062676149585 246.22034884325325 246.2201313726849 246.22003347328234 246.22000576768374 246.2200006688021 246.22000004852845 246.21999999684402 246.2200000096671 246.22000016772688 246.22000146703738 246.2200085270512 246.22003347403552 246.22008889046018 246.22015971032081 246.22019415920934 246.22015971032081 246.22008889046018 246.22003347403552 246.2200085270512 246.22000146703738 246.22000016772688 246.2200000096671 246.21999999694154 246.21999999915252 246.22000002640542 246.22000025043465 246.2200014677337 246.22000576913325 246.22001532412318 246.22002753499856 246.22003347473185 246.22002753499856 246.22001532412318 246.22000576913325 246.2200014677337 246.22000025043465 246.22000002640542 246.21999999915252 246.21999999742818 246.21999999768613 246.2200000008656 246.22000002700227 246.22000016902007 246.22000067084846 246.22000178559387 246.22000321019158 246.22000390315833 246.22000321019158 246.22000178559387 246.22000067084846 246.22000016902007 246.22000002700227 246.2200000008656 246.21999999768613 246.21999999794056 246.21999999796094 246.21999999821193 246.22000000027518 246.2200000114861 246.2200000511006 246.22000013909903 246.2200002515573 246.22000030626037 246.2200002515573 246.22000013909903 246.2200000511006 246.2200000114861 246.22000000027518 246.21999999821193 246.21999999796094 246.21999998853238 246.2199999885417 246.2199999886566 246.2199999896012 246.21999999473397 246.2200000128708 246.22000005315942 246.22000010464657 246.22000012969144 246.22000010464657 246.22000005315942 246.2200000128708 246.21999999473397 246.2199999896012 246.2199999886566 246.2199999885417 246.21999998862697 246.21999998880148 246.21999999095286 246.22000000863778 246.22000010473184 246.22000044428592 246.22000119856037 246.2200021624914 246.22000263137616 246.2200021624914 246.22000119856037 246.22000044428592 246.22000010473184 246.22000000863778 246.21999999095286 246.21999998880148 246.21999998899767 246.21999999120865 246.22000001846155 246.22000024249078 246.22000145978984 246.22000576118938 246.2200153161793 246.2200275270547 246.22003346678798 246.2200275270547 246.2200153161793 246.22000576118938 246.22000145978984 246.22000024249078 246.22000001846155 246.21999999120865 246.2199999903686 246.2200000093199 246.2200002429171 246.22000216317352 246.22001259719758 246.2200494664504 246.22013136661687 246.22023603158604 246.22028694374293 246.22023603158604 246.22013136661687 246.2200494664504 246.22001259719758 246.22000216317352 246.2200002429171 246.2200000093199 246.2199999960698 246.2200001059824 246.2200014607846 246.22001259776602 246.22007311235694 246.22028694431137 246.22076194370308 246.2213689729539 246.22166425005275 246.2213689729539 246.22076194370308 246.22028694431137 246.22007311235694 246.22001259776602 246.2200014607846 246.2200001059824 246.22000001490295 246.2200004462328 246.22000576288048 246.22004946771517 246.2202869450077 246.22112608533405 246.22299012453098 246.22537228824956 246.22653104359915 246.22537228824956 246.22299012453098 246.22112608533405 246.2202869450077 246.22004946771517 246.22000576288048 246.2200004462328 246.22000005595896 246.22000120127464 246.2200153186378 246.22013136864902 246.2207619451668 246.22299012529837 246.2279397326199 246.23426512266627 246.23734198069138 246.23426512266627 246.2279397326199 246.22299012529837 246.2207619451668 246.22013136864902 246.2200153186378 246.22000120127464 246.22000010828455 246.2200021660441 246.22002753035162 246.22023603445663 246.22136897525607 246.2253722898554 246.2342651235047 246.24562979100176 246.2511579035979 246.24562979100176 246.2342651235047 246.2253722898554 246.22136897525607 246.22023603445663 246.22002753035162 246.2200021660441 246.22000013419628 246.22000263579574 246.22003347095176 246.2202869474804 246.22166425322177 246.22653104607184 246.23734198239669 246.25115790446478 246.25787838025798 246.25115790446478 246.23734198239669 246.22653104607184 246.22166425322177 246.2202869474804 246.22003347095176 246.22000263579574 246.22000011001828 246.22000216777784 246.22002753208534 246.22023603619036 246.2213689769898 246.2253722915891 246.23426512523844 246.24562979273549 246.25115790533164 246.24562979273549 246.23426512523844 246.2253722915891 246.2213689769898 246.22023603619036 246.22002753208534 246.22000216777784 246.22000005936957 246.22000120468525 246.2200153220484 246.22013137205963 246.2207619485774 246.22299012870897 246.2279397360305 246.23426512607688 246.237341984102 246.23426512607688 246.2279397360305 246.22299012870897 246.2207619485774 246.22013137205963 246.2200153220484 246.22000120468525 246.22000001987675 246.2200004512066 246.22000576785427 246.22004947268897 246.2202869499815 246.22112609030785 246.22299012950478 246.22537229322336 246.22653104857295 246.22537229322336 246.22299012950478 246.22112609030785 246.2202869499815 246.22004947268897 246.22000576785427 246.2200004512066 246.22000000247888 246.2200001123915 246.2200014671937 246.2200126041751 246.22007311876604 246.22028695072046 246.22076195011218 246.221368979363 246.22166425646185 246.221368979363 246.22076195011218 246.22028695072046 246.22007311876604 246.2200126041751 246.2200014671937 246.2200001123915 246.21999999799982 246.22000001695113 246.22000025054834 246.22000217080475 246.2200126048288 246.22004947408163 246.2201313742481 246.22023603921727 246.22028695137416 246.22023603921727 246.2201313742481 246.22004947408163 246.2200126048288 246.22000217080475 246.22000025054834 246.22000001695113 246.21999999763787 246.21999999984885 246.22000002710175 246.22000025113098 246.22000146843004 246.22000576982958 246.2200153248195 246.2200275356949 246.22003347542818 246.2200275356949 246.2200153248195 246.22000576982958 246.22000146843004 246.22000025113098 246.22000002710175 246.21999999984885 246.21999999803455 246.21999999820906 246.22000000036044 246.22000001804537 246.22000011413942 246.2200004536935 246.22000120796795 246.22000217189898 246.22000264078375 246.22000217189898 246.22000120796795 246.2200004536935 246.22000011413942 246.22000001804537 246.22000000036044 246.21999999820906 246.21999998913174 246.21999998918582 246.21999998985228 246.21999999533082 246.22000002509935 246.2200001302883 246.22000036395164 246.22000066256354 246.22000080781726 246.22000066256354 246.22000036395164 246.2200001302883 246.22000002509935 246.21999999533082 246.21999998985228 246.21999998918582 246.2199999892711 246.21999999028333 246.22000000276063 246.2200001053287 246.2200006626488 246.22000263197302 246.2200070065662 246.22001259711232 246.22001531652037 246.22001259711232 246.2200070065662 246.22000263197302 246.2200006626488 246.2200001053287 246.22000000276063 246.21999999028333 246.21999999019334 246.22000000301642 246.2200001610762 246.2200014603867 246.2200085204005 246.22003346738484 246.2200888838095 246.22015970367013 246.22019415255866 246.22015970367013 246.2200888838095 246.22003346738484 246.2200085204005 246.2200014603867 246.2200001610762 246.22000000301642 246.2199999960698 246.2200001059824 246.2200014607846 246.22001259776602 246.22007311235694 246.22028694431137 246.22076194370308 246.2213689729539 246.22166425005275 246.2213689729539 246.22076194370308 246.22028694431137 246.22007311235694 246.22001259776602 246.2200014607846 246.2200001059824 246.22000002637833 246.2200006638425 246.22000852133843 246.22007311289696 246.2204240815839 246.22166425059277 246.22441912194236 246.22793973169618 246.2296522610888 246.22793973169618 246.22441912194236 246.22166425059277 246.2204240815839 246.22007311289696 246.22000852133843 246.2200006638425 246.22000013222097 246.22000263382043 246.22003346897645 246.22028694550508 246.22166425124647 246.22653104409653 246.23734198042138 246.25115790248947 246.25787837828267 246.25115790248947 246.23734198042138 246.22653104409653 246.22166425124647 246.22028694550508 246.22003346897645 246.22000263382043 246.22000036662328 246.22000700915257 246.22008888614008 246.22076194563576 246.22441912333503 246.23734198116034 246.26604839982016 246.30273399588148 246.32057896193405 246.30273399588148 246.26604839982016 246.23734198116034 246.22441912333503 246.22076194563576 246.22008888614008 246.22000700915257 246.22000066603098 246.2200126004945 246.22015970679652 246.2213689756824 246.22793973388465 246.25115790402424 246.30273399666308 246.36864607451272 246.400707671378 246.36864607451272 246.30273399666308 246.25115790402424 246.22793973388465 246.2213689756824 246.22015970679652 246.2200126004945 246.22000081209472 246.22001532071258 246.22019415649507 246.22166425359126 246.2296522640873 246.25787838062746 246.32057896353987 246.40070767220223 246.4396846615232 246.40070767220223 246.32057896353987 246.25787838062746 246.2296522640873 246.22166425359126 246.22019415649507 246.22001532071258 246.22000066766523 246.22001260212875 246.22015970843077 246.22136897731664 246.2279397355189 246.2511579056585 246.30273399831154 246.36864607616118 246.40070767302646 246.36864607616118 246.30273399831154 246.2511579056585 246.2279397355189 246.22136897731664 246.22015970843077 246.22001260212875 246.22000036984915 246.22000701237843 246.22008888936594 246.22076194886162 246.2244191265609 246.2373419843862 246.26604840304603 246.30273399910735 246.3205789651599 246.30273399910735 246.26604840304603 246.2373419843862 246.2244191265609 246.22076194886162 246.22008888936594 246.22000701237843 246.22000013693898 246.22000263853843 246.22003347369446 246.22028695022308 246.22166425596447 246.22653104881454 246.23734198513938 246.25115790720747 246.25787838300067 246.25115790720747 246.23734198513938 246.22653104881454 246.22166425596447 246.22028695022308 246.22003347369446 246.22000263853843 246.22000003244636 246.22000066991055 246.22000852740646 246.220073118965 246.22042408765193 246.2216642566608 246.2244191280104 246.22793973776422 246.22965226715684 246.22793973776422 246.2244191280104 246.2216642566608 246.22042408765193 246.220073118965 246.22000852740646 246.22000066991055 246.2200000033031 246.22000011321572 246.22000146801793 246.22001260499934 246.22007311959027 246.2202869515447 246.2207619509364 246.22136898018724 246.22166425728608 246.22136898018724 246.2207619509364 246.2202869515447 246.22007311959027 246.22001260499934 246.22000146801793 246.22000011321572 246.2199999983788 246.22000001120188 246.22000016926165 246.22000146857215 246.22000852858596 246.2200334755703 246.22008889199495 246.2201597118556 246.22019416074411 246.2201597118556 246.22008889199495 246.2200334755703 246.22000852858596 246.22000146857215 246.22000016926165 246.22000001120188 246.2199999981813 246.21999999919353 246.22000001167083 246.2200001142389 246.220000671559 246.22000264088322 246.2200070154764 246.22001260602252 246.22001532543058 246.22001260602252 246.2200070154764 246.22000264088322 246.220000671559 246.2200001142389 246.22000001167083 246.21999999919353 246.21999998987962 246.21999999009182 246.2199999927072 246.22000001420662 246.22000013102726 246.22000054382005 246.2200014607846 246.22000263262672 246.22000320264561 246.22000263262672 246.2200014607846 246.22000054382005 246.22000013102726 246.22000001420662 246.2199999927072 246.21999999009182 246.2199999901771 246.21999999414948 246.2200000431141 246.22000044562174 246.22000263271198 246.2200103609272 246.22002752813472 246.2200494671041 246.22006013887193 246.2200494671041 246.22002752813472 246.2200103609272 246.22000263271198 246.22000044562174 246.2200000431141 246.21999999414948 246.21999999301983 246.22000004334149 246.22000066361514 246.22000576249678 246.22003346809538 246.22013136749794 246.2203488380663 246.2206267563089 246.22076194401572 246.2206267563089 246.2203488380663 246.22013136749794 246.22003346809538 246.22000576249678 246.22000066361514 246.22000004334149 246.22000001490295 246.2200004462328 246.22000576288048 246.22004946771517 246.2202869450077 246.22112608533405 246.22299012453098 246.22537228824956 246.22653104359915 246.22537228824956 246.22299012453098 246.22112608533405 246.2202869450077 246.22004946771517 246.22000576288048 246.2200004462328 246.22000013222097 246.22000263382043 246.22003346897645 246.22028694550508 246.22166425124647 246.22653104409653 246.23734198042138 246.25115790248947 246.25787837828267 246.25115790248947 246.23734198042138 246.22653104409653 246.22166425124647 246.22028694550508 246.22003346897645 246.22000263382043 246.22000054562483 246.22001036264672 246.22013136899008 246.2211260864425 246.2265310447076 246.24562979050438 246.288055127077 246.3422729234072 246.36864607358902 246.3422729234072 246.288055127077 246.24562979050438 246.2265310447076 246.2211260864425 246.22013136899008 246.22001036264672 246.2200014632715 246.22002753053636 246.22034884024055 246.22299012632155 246.23734198171456 246.28805512775912 246.40070767115063 246.54467288501814 246.61470185088734 246.54467288501814 246.40070767115063 246.28805512775912 246.23734198171456 246.22299012632155 246.22034884024055 246.22002753053636 246.22000263585258 246.2200494702447 246.2206267592221 246.2253722907791 246.25115790452162 246.34227292482828 246.5446728857571 246.80333152576273 246.929150788516 246.80333152576273 246.5446728857571 246.34227292482828 246.25115790452162 246.2253722907791 246.2206267592221 246.2200494702447 246.22000320663886 246.22006014277991 246.22076194769633 246.22653104689607 246.2578783810822 246.3686460757917 246.6147018523937 246.9291507892834 247.08210811330125 246.9291507892834 246.6147018523937 246.3686460757917 246.2578783810822 246.22653104689607 246.22076194769633 246.22006014277991 246.22000263738735 246.22004947177948 246.2206267607569 246.22537229231386 246.25115790604218 246.34227292634884 246.54467288729188 246.8033315272975 246.92915079003657 246.8033315272975 246.54467288729188 246.34227292634884 246.25115790604218 246.22537229231386 246.2206267607569 246.22004947177948 246.2200014662842 246.22002753354906 246.22034884325325 246.22299012933425 246.23734198472727 246.28805513077182 246.40070767416333 246.54467288803085 246.61470185390004 246.54467288803085 246.40070767416333 246.28805513077182 246.23734198472727 246.22299012933425 246.22034884325325 246.22002753354906 246.22000055001598 246.22001036703787 246.22013137338124 246.22112609083365 246.22653104909875 246.24562979489554 246.28805513146816 246.34227292779835 246.36864607799438 246.34227292779835 246.28805513146816 246.24562979489554 246.22653104909875 246.22112609083365 246.22013137338124 246.22001036703787 246.2200001378769 246.22000263947635 246.22003347463237 246.220286951161 246.2216642569024 246.22653104975245 246.2373419860773 246.2511579081454 246.2578783839386 246.2511579081454 246.2373419860773 246.22653104975245 246.2216642569024 246.220286951161 246.22003347463237 246.22000263947635 246.2200000216389 246.22000045296875 246.22000576961642 246.22004947445112 246.22028695174365 246.22112609207 246.22299013126693 246.2253722949855 246.2265310503351 246.2253722949855 246.22299013126693 246.22112609207 246.22028695174365 246.22004947445112 246.22000576961642 246.22000045296875 246.22000000065105 246.22000005097271 246.22000067124637 246.220005770128 246.2200334757266 246.22013137512917 246.22034884569752 246.22062676394012 246.22076195164695 246.22062676394012 246.22034884569752 246.22013137512917 246.2200334757266 246.220005770128 246.22000067124637 246.22000005097271 246.21999999847623 246.22000000244861 246.22000005141325 246.22000045392087 246.22000264101112 246.22001036922634 246.22002753643386 246.22004947540324 246.22006014717107 246.22004947540324 246.22002753643386 246.22001036922634 246.22000264101112 246.22000045392087 246.22000005141325 246.22000000244861 246.2199999907379 246.2199999913013 246.21999999824595 246.22000005533368 246.22000036552905 246.22000146162304 246.2200038964508 246.22000700805833 246.22000852163686 246.22000700805833 246.2200038964508 246.22000146162304 246.22000036552905 246.22000005533368 246.21999999824595 246.2199999913013 246.21999999137236 246.22000000192034 246.22000013193676 246.22000120072042 246.2200070081294 246.22002752895895 246.22007311326644 246.2201313680948 246.22015970497753 246.2201313680948 246.22007311326644 246.22002752895895 246.2200070081294 246.22000120072042 246.22000013193676 246.22000000192034 246.21999999853017 246.22000013214992 246.22000177917056 246.22001531829673 246.22008888533006 246.2203488388763 246.2209262912813 246.2216642511754 246.22202321683696 246.2216642511754 246.2209262912813 246.2203488388763 246.22008888533006 246.22001531829673 246.22000177917056 246.22000013214992 246.22000005595896 246.22000120127464 246.2200153186378 246.22013136864902 246.2207619451668 246.22299012529837 246.2279397326199 246.23426512266627 246.23734198069138 246.23426512266627 246.2279397326199 246.22299012529837 246.2207619451668 246.22013136864902 246.2200153186378 246.22000120127464 246.22000036662328 246.22000700915257 246.22008888614008 246.22076194563576 246.22441912333503 246.23734198116034 246.26604839982016 246.30273399588148 246.32057896193405 246.30273399588148 246.26604839982016 246.23734198116034 246.22441912333503 246.22076194563576 246.22008888614008 246.22000700915257 246.2200014632715 246.22002753053636 246.22034884024055 246.22299012632155 246.23734198171456 246.28805512775912 246.40070767115063 246.54467288501814 246.61470185088734 246.54467288501814 246.40070767115063 246.28805512775912 246.23734198171456 246.22299012632155 246.22034884024055 246.22002753053636 246.22000389872454 246.22007311546912 246.22092629327082 246.22793973426835 246.26604840099967 246.4007076717759 246.69983542319062 247.08210811243438 247.2680569287069 247.08210811243438 246.69983542319062 246.4007076717759 246.26604840099967 246.22793973426835 246.22092629327082 246.22007311546912 246.2200070110142 246.2201313709796 246.22166425384705 246.23426512499685 246.3027339977431 246.54467288632554 247.0821081131165 247.76892773600272 248.10301724717374 247.76892773600272 247.0821081131165 246.54467288632554 246.3027339977431 246.23426512499685 246.22166425384705 246.2201313709796 246.22000852528905 246.22015970855867 246.22202322020493 246.2373419837183 246.320578964492 246.61470185290528 247.26805693009956 248.10301724787007 248.50916680317374 248.10301724787007 247.26805693009956 246.61470185290528 246.320578964492 246.2373419837183 246.22202322020493 246.22015970855867 246.22000701242106 246.22013137238648 246.22166425525393 246.23426512640373 246.30273399914998 246.54467288773242 247.08210811450917 247.7689277374238 248.1030172485806 247.7689277374238 247.08210811450917 246.54467288773242 246.30273399914998 246.23426512640373 246.22166425525393 246.22013137238648 246.22000390149566 246.22007311824024 246.22092629604194 246.22793973703946 246.26604840377078 246.4007076745328 246.69983542596174 247.0821081152055 247.26805693147801 247.0821081152055 246.69983542596174 246.4007076745328 246.26604840377078 246.22793973703946 246.22092629604194 246.22007311824024 246.22000146730738 246.22002753457224 246.22034884427643 246.22299013035743 246.23734198575045 246.288055131795 246.4007076751865 246.54467288906824 246.61470185493744 246.54467288906824 246.4007076751865 246.288055131795 246.23734198575045 246.22299013035743 246.22034884427643 246.22002753457224 246.22000037181024 246.22000701433953 246.22008889132704 246.22076195082272 246.224419128522 246.2373419863473 246.26604840500713 246.30273400106844 246.320578967121 246.30273400106844 246.26604840500713 246.2373419863473 246.224419128522 246.22076195082272 246.22008889132704 246.22000701433953 246.22000006214068 246.22000120745636 246.2200153248195 246.22013137483074 246.22076195134852 246.2229901314801 246.2279397388016 246.234265128848 246.2373419868731 246.234265128848 246.2279397388016 246.2229901314801 246.22076195134852 246.22013137483074 246.2200153248195 246.22000120745636 246.22000000553612 246.22000013915587 246.2200017861765 246.22001532530268 246.220088892336 246.22034884588226 246.22092629828725 246.22166425818136 246.2220232238429 246.22166425818136 246.22092629828725 246.22034884588226 246.220088892336 246.22001532530268 246.2200017861765 246.22000013915587 246.21999999898938 246.22000000953736 246.22000013955378 246.22000120833744 246.2200070157464 246.22002753657597 246.22007312088346 246.22013137571182 246.22015971259455 246.22013137571182 246.22007312088346 246.22002753657597 246.2200070157464 246.22000120833744 246.22000013955378 246.22000000953736 246.2199999916585 246.21999999267075 246.22000000514805 246.22000010771612 246.22000066503622 246.22000263436044 246.22000700895362 246.22001259949974 246.2200153189078 246.22001259949974 246.22000700895362 246.22000263436044 246.22000066503622 246.22000010771612 246.22000000514805 246.21999999267075 246.2199999927418 246.22000001169312 246.22000024529032 246.22000216554673 246.2200125995708 246.22004946882362 246.22013136899008 246.22023603395925 246.22028694611615 246.22023603395925 246.22013136899008 246.22004946882362 246.2200125995708 246.22000216554673 246.22000024529032 246.22000001169312 246.22000000540385 246.22000024547506 246.22000320463513 246.22002753003898 246.22015970605756 246.22062675798577 246.22166425204227 246.22299012582417 246.2236350703029 246.22299012582417 246.22166425204227 246.22062675798577 246.22015970605756 246.22002753003898 246.22000320463513 246.22000024547506 246.22000010828455 246.2200021660441 246.22002753035162 246.22023603445663 246.22136897525607 246.2253722898554 246.2342651235047 246.24562979100176 246.2511579035979 246.24562979100176 246.2342651235047 246.2253722898554 246.22136897525607 246.22023603445663 246.22002753035162 246.2200021660441 246.22000066603098 246.2200126004945 246.22015970679652 246.2213689756824 246.22793973388465 246.25115790402424 246.30273399666308 246.36864607451272 246.400707671378 246.36864607451272 246.30273399666308 246.25115790402424 246.22793973388465 246.2213689756824 246.22015970679652 246.2200126004945 246.22000263585258 246.2200494702447 246.2206267592221 246.2253722907791 246.25115790452162 246.34227292482828 246.5446728857571 246.80333152576273 246.929150788516 246.80333152576273 246.5446728857571 246.34227292482828 246.25115790452162 246.2253722907791 246.2206267592221 246.2200494702447 246.2200070110142 246.2201313709796 246.22166425384705 246.23426512499685 246.3027339977431 246.54467288632554 247.0821081131165 247.76892773600272 248.10301724717374 247.76892773600272 247.0821081131165 246.54467288632554 246.3027339977431 246.23426512499685 246.22166425384705 246.2201313709796 246.22001260217138 246.22023603655984 246.22299012824 246.24562979310497 246.36864607620382 246.80333152694223 247.768927736628 249.00291909327692 249.60316922501062 249.00291909327692 247.768927736628 246.80333152694223 246.36864607620382 246.24562979310497 246.22299012824 246.22023603655984 246.22001532221893 246.22028694935622 246.22363507335822 246.2511579063406 246.40070767369437 246.929150790335 248.1030172484243 249.6031692256501 250.33288780682057 249.6031692256501 248.1030172484243 246.929150790335 246.40070767369437 246.2511579063406 246.22363507335822 246.22028694935622 246.22001260343615 246.2202360378246 246.22299012950478 246.24562979436973 246.36864607746858 246.8033315282212 247.76892773789277 249.0029190945559 249.6031692262896 249.0029190945559 247.76892773789277 246.8033315282212 246.36864607746858 246.24562979436973 246.22299012950478 246.2202360378246 246.2200070135153 246.2201313734807 246.22166425634816 246.23426512749796 246.30273400023 246.54467288882665 247.08210811561761 247.76892773851804 248.10301724967485 247.76892773851804 247.08210811561761 246.54467288882665 246.30273400023 246.23426512749796 246.22166425634816 246.2201313734807 246.22000263949056 246.22004947388268 246.2206267628601 246.22537229441707 246.2511579081596 246.34227292846626 246.5446728894093 246.80333152941492 246.9291507921682 246.80333152941492 246.5446728894093 246.34227292846626 246.2511579081596 246.22537229441707 246.2206267628601 246.22004947388268 246.22000067070636 246.22001260516987 246.2201597114719 246.22136898035777 246.22793973856002 246.2511579086996 246.30273400135266 246.3686460792023 246.40070767606758 246.3686460792023 246.30273400135266 246.2511579086996 246.22793973856002 246.22136898035777 246.2201597114719 246.22001260516987 246.22000011386942 246.22000217162898 246.22002753593648 246.2202360400415 246.22136898084094 246.22537229544025 246.23426512908958 246.24562979658663 246.25115790918278 246.24562979658663 246.23426512908958 246.22537229544025 246.22136898084094 246.2202360400415 246.22002753593648 246.22000217162898 246.22000001172768 246.2200002517989 246.22000321095896 246.2200275363628 246.2201597123814 246.2206267643096 246.2216642583661 246.222990132148 246.22363507662672 246.222990132148 246.2216642583661 246.2206267643096 246.2201597123814 246.2200275363628 246.22000321095896 246.2200002517989 246.21999999961986 246.22000001857117 246.22000025216838 246.22000217242478 246.22001260644885 246.22004947570167 246.22013137586814 246.2202360408373 246.2202869529942 246.2202360408373 246.22013137586814 246.22004947570167 246.22001260644885 246.22000217242478 246.22000025216838 246.22000001857117 246.21999999260873 246.21999999383934 246.22000000900786 246.2200001336989 246.22000081122786 246.22000320531725 246.22000852347006 246.22001531984571 246.22001862580515 246.22001531984571 246.22000852347006 246.22000320531725 246.22000081122786 246.2200001336989 246.22000000900786 246.21999999383934 246.21999999389618 246.2200000169351 246.2200003009171 246.2200026353552 246.22001531990256 246.22006014151515 246.22015970679652 246.22028694703985 246.22034884048213 246.22028694703985 246.22015970679652 246.22006014151515 246.22001531990256 246.2200026353552 246.2200003009171 246.2200000169351 246.22000000923524 246.22000030108762 246.22000389851138 246.22003347068176 246.22019415585558 246.2207619466021 246.22202321861332 246.22363507121239 246.22441912430136 246.22363507121239 246.22202321861332 246.2207619466021 246.22019415585558 246.22003347068176 246.22000389851138 246.22000030108762 246.22000013419628 246.22000263579574 246.22003347095176 246.2202869474804 246.22166425322177 246.22653104607184 246.23734198239669 246.25115790446478 246.25787838025798 246.25115790446478 246.23734198239669 246.22653104607184 246.22166425322177 246.2202869474804 246.22003347095176 246.22000263579574 246.22000081209472 246.22001532071258 246.22019415649507 246.22166425359126 246.2296522640873 246.25787838062746 246.32057896353987 246.40070767220223 246.4396846615232 246.40070767220223 246.32057896353987 246.25787838062746 246.2296522640873 246.22166425359126 246.22019415649507 246.22001532071258 246.22000320663886 246.22006014277991 246.22076194769633 246.22653104689607 246.2578783810822 246.3686460757917 246.6147018523937 246.9291507892834 247.08210811330125 246.9291507892834 246.6147018523937 246.3686460757917 246.2578783810822 246.22653104689607 246.22076194769633 246.22006014277991 246.22000852528905 246.22015970855867 246.22202322020493 246.2373419837183 246.320578964492 246.61470185290528 247.26805693009956 248.10301724787007 248.50916680317374 248.10301724787007 247.26805693009956 246.61470185290528 246.320578964492 246.2373419837183 246.22202322020493 246.22015970855867 246.22001532221893 246.22028694935622 246.22363507335822 246.2511579063406 246.40070767369437 246.929150790335 248.1030172484243 249.6031692256501 250.33288780682057 249.6031692256501 248.1030172484243 246.929150790335 246.40070767369437 246.2511579063406 246.22363507335822 246.22028694935622 246.2200186287326 246.22034884335272 246.22441912700143 246.25787838268803 246.43968466358376 247.08210811492128 248.5091668042822 250.332887807389 251.21999999538147 250.332887807389 248.5091668042822 247.08210811492128 246.43968466358376 246.25787838268803 246.22441912700143 246.22034884335272 246.22001532334158 246.22028695047888 246.22363507448088 246.25115790746327 246.40070767483124 246.92915079145766 248.10301724956116 249.60316922678697 250.33288780795743 249.60316922678697 248.10301724956116 246.92915079145766 246.40070767483124 246.25115790746327 246.22363507448088 246.22028695047888 246.22000852750594 246.22015971077556 246.22202322242183 246.2373419859352 246.3205789667089 246.61470185512218 247.26805693231645 248.10301725011539 248.50916680540485 248.10301725011539 247.26805693231645 246.61470185512218 246.3205789667089 246.2373419859352 246.22202322242183 246.22015971077556 246.22000320987894 246.22006014602 246.2207619509364 246.22653105013615 246.25787838432228 246.36864607903178 246.61470185564798 246.92915079252347 247.08210811655553 246.92915079252347 246.61470185564798 246.36864607903178 246.25787838432228 246.22653105013615 246.2207619509364 246.22006014602 246.2200008162585 246.22001532487636 246.22019416065885 246.22166425775504 246.22965226825107 246.25787838479124 246.32057896770365 246.400707676366 246.43968466568697 246.400707676366 246.32057896770365 246.25787838479124 246.22965226825107 246.22166425775504 246.22019416065885 246.22001532487636 246.22000013917008 246.22000264076954 246.22003347592556 246.2202869524542 246.22166425819557 246.22653105104564 246.23734198737048 246.25115790943858 246.25787838523178 246.25115790943858 246.23734198737048 246.22653105104564 246.22166425819557 246.2202869524542 246.22003347592556 246.22000264076954 246.22000001484852 246.2200003067009 246.22000390412467 246.22003347629504 246.22019416146887 246.22076195221538 246.2220232242266 246.22363507682567 246.22441912991465 246.22363507682567 246.2220232242266 246.22076195221538 246.22019416146887 246.22003347629504 246.22000390412467 246.2200003067009 246.22000000000685 246.22000002304577 246.22000030702776 246.22000264146587 246.22001532601323 246.22006014762582 246.2201597129072 246.22028695315052 246.2203488465928 246.22028695315052 246.2201597129072 246.22006014762582 246.22001532601323 246.22000264146587 246.22000030702776 246.22000002304577 246.21999999352013 246.21999999453237 246.22000000700967 246.22000010957774 246.22000066689785 246.22000263622206 246.22000701081524 246.22001260136136 246.22001532076942 246.22001260136136 246.22000701081524 246.22000263622206 246.22000066689785 246.22000010957774 246.22000000700967 246.21999999453237 246.219999994575 246.22000001352632 246.22000024712352 246.22000216737993 246.220012601404 246.22004947065682 246.22013137082328 246.22023603579245 246.22028694794935 246.22023603579245 246.22013137082328 246.22004947065682 246.220012601404 246.22000216737993 246.22000024712352 246.22000001352632 246.22000000720863 246.22000024727984 246.2200032064399 246.22002753184375 246.22015970786234 246.22062675979055 246.22166425384705 246.22299012762895 246.22363507210767 246.22299012762895 246.22166425384705 246.22062675979055 246.22015970786234 246.22002753184375 246.2200032064399 246.22000024727984 246.22000011001828 246.22000216777784 246.22002753208534 246.22023603619036 246.2213689769898 246.2253722915891 246.23426512523844 246.24562979273549 246.25115790533164 246.24562979273549 246.23426512523844 246.2253722915891 246.2213689769898 246.22023603619036 246.22002753208534 246.22000216777784 246.22000066766523 246.22001260212875 246.22015970843077 246.22136897731664 246.2279397355189 246.2511579056585 246.30273399831154 246.36864607616118 246.40070767302646 246.36864607616118 246.30273399831154 246.2511579056585 246.2279397355189 246.22136897731664 246.22015970843077 246.22001260212875 246.22000263738735 246.22004947177948 246.2206267607569 246.22537229231386 246.25115790604218 246.34227292634884 246.54467288729188 246.8033315272975 246.92915079003657 246.8033315272975 246.54467288729188 246.34227292634884 246.25115790604218 246.22537229231386 246.2206267607569 246.22004947177948 246.22000701242106 246.22013137238648 246.22166425525393 246.23426512640373 246.30273399914998 246.54467288773242 247.08210811450917 247.7689277374238 248.1030172485806 247.7689277374238 247.08210811450917 246.54467288773242 246.30273399914998 246.23426512640373 246.22166425525393 246.22013137238648 246.22001260343615 246.2202360378246 246.22299012950478 246.24562979436973 246.36864607746858 246.8033315282212 247.76892773789277 249.0029190945559 249.6031692262896 249.0029190945559 247.76892773789277 246.8033315282212 246.36864607746858 246.24562979436973 246.22299012950478 246.2202360378246 246.22001532334158 246.22028695047888 246.22363507448088 246.25115790746327 246.40070767483124 246.92915079145766 248.10301724956116 249.60316922678697 250.33288780795743 249.60316922678697 248.10301724956116 246.92915079145766 246.40070767483124 246.25115790746327 246.22363507448088 246.22028695047888 246.2200126044309 246.22023603881937 246.22299013049954 246.2456297953645 246.36864607844913 246.80333152920176 247.76892773888753 249.00291909555065 249.60316922728435 249.00291909555065 247.76892773888753 246.80333152920176 246.36864607844913 246.2456297953645 246.22299013049954 246.22023603881937 246.22000701435374 246.22013137431915 246.2216642571866 246.2342651283364 246.30273400108265 246.5446728896793 247.08210811647027 247.7689277393707 248.1030172505417 247.7689277393707 247.08210811647027 246.5446728896793 246.30273400108265 246.2342651283364 246.2216642571866 246.22013137431915 246.2200026402153 246.22004947460744 246.22062676358485 246.22537229514182 246.25115790888435 246.342272929191 246.54467289013405 246.80333153013967 246.92915079289295 246.80333153013967 246.54467289013405 246.342272929191 246.25115790888435 246.22537229514182 246.22062676358485 246.22004947460744 246.22000067131742 246.22001260578094 246.22015971208296 246.22136898096883 246.2279397391711 246.25115790931068 246.30273400196373 246.36864607981337 246.40070767667865 246.36864607981337 246.30273400196373 246.25115790931068 246.2279397391711 246.22136898096883 246.22015971208296 246.22001260578094 246.2200001143668 246.22000217212636 246.22002753643386 246.22023604053888 246.22136898133832 246.22537229593763 246.23426512958696 246.245629797084 246.25115790968016 246.245629797084 246.23426512958696 246.22537229593763 246.22136898133832 246.22023604053888 246.22002753643386 246.22000217212636 246.22000001212558 246.2200002521968 246.22000321135687 246.2200275367607 246.2201597127793 246.2206267647075 246.221664258764 246.2229901325459 246.22363507702462 246.2229901325459 246.221664258764 246.2206267647075 246.2201597127793 246.2200275367607 246.22000321135687 246.2200002521968 246.2199999999467 246.22000001889802 246.22000025249523 246.22000217275163 246.2200126067757 246.22004947602852 246.22013137619498 246.22023604116416 246.22028695332105 246.22023604116416 246.22013137619498 246.22004947602852 246.2200126067757 246.22000217275163 246.22000025249523 246.22000001889802 246.2199999943901 246.2199999949535 246.22000000189814 246.22000005898587 246.22000036918124 246.22000146527523 246.220003900103 246.22000701171052 246.22000852528905 246.22000701171052 246.220003900103 246.22000146527523 246.22000036918124 246.22000005898587 246.22000000189814 246.2199999949535 246.21999999499613 246.2200000055441 246.22000013556053 246.2200012043442 246.22000701175315 246.22002753258272 246.2200731168902 246.22013137171857 246.2201597086013 246.22013137171857 246.2200731168902 246.22002753258272 246.22000701175315 246.2200012043442 246.22000013556053 246.2200000055441 246.22000000208288 246.22000013570263 246.22000178272327 246.22001532184944 246.22008888888277 246.22034884242902 246.22092629483402 246.22166425472813 246.22202322038967 246.22166425472813 246.22092629483402 246.22034884242902 246.22008888888277 246.22001532184944 246.22000178272327 246.22000013570263 246.22000005936957 246.22000120468525 246.2200153220484 246.22013137205963 246.2207619485774 246.22299012870897 246.2279397360305 246.23426512607688 246.237341984102 246.23426512607688 246.2279397360305 246.22299012870897 246.2207619485774 246.22013137205963 246.2200153220484 246.22000120468525 246.22000036984915 246.22000701237843 246.22008888936594 246.22076194886162 246.2244191265609 246.2373419843862 246.26604840304603 246.30273399910735 246.3205789651599 246.30273399910735 246.26604840304603 246.2373419843862 246.2244191265609 246.22076194886162 246.22008888936594 246.22000701237843 246.2200014662842 246.22002753354906 246.22034884325325 246.22299012933425 246.23734198472727 246.28805513077182 246.40070767416333 246.54467288803085 246.61470185390004 246.54467288803085 246.40070767416333 246.28805513077182 246.23734198472727 246.22299012933425 246.22034884325325 246.22002753354906 246.22000390149566 246.22007311824024 246.22092629604194 246.22793973703946 246.26604840377078 246.4007076745328 246.69983542596174 247.0821081152055 247.26805693147801 247.0821081152055 246.69983542596174 246.4007076745328 246.26604840377078 246.22793973703946 246.22092629604194 246.22007311824024 246.2200070135153 246.2201313734807 246.22166425634816 246.23426512749796 246.30273400023 246.54467288882665 247.08210811561761 247.76892773851804 248.10301724967485 247.76892773851804 247.08210811561761 246.54467288882665 246.30273400023 246.23426512749796 246.22166425634816 246.2201313734807 246.22000852750594 246.22015971077556 246.22202322242183 246.2373419859352 246.3205789667089 246.61470185512218 247.26805693231645 248.10301725011539 248.50916680540485 248.10301725011539 247.26805693231645 246.61470185512218 246.3205789667089 246.2373419859352 246.22202322242183 246.22015971077556 246.22000701435374 246.22013137431915 246.2216642571866 246.2342651283364 246.30273400108265 246.5446728896793 247.08210811647027 247.7689277393707 248.1030172505417 247.7689277393707 247.08210811647027 246.5446728896793 246.30273400108265 246.2342651283364 246.2216642571866 246.22013137431915 246.22000390315833 246.2200731199029 246.2209262977046 246.22793973870213 246.26604840543345 246.4007076762097 246.69983542763862 247.08210811688238 247.2680569331691 247.08210811688238 246.69983542763862 246.4007076762097 246.26604840543345 246.22793973870213 246.2209262977046 246.2200731199029 246.22000146872847 246.22002753599332 246.22034884569752 246.22299013177852 246.23734198717153 246.2880551332161 246.4007076766076 246.54467289048932 246.61470185635852 246.54467289048932 246.4007076766076 246.2880551332161 246.23734198717153 246.22299013177852 246.22034884569752 246.22002753599332 246.22000037298974 246.22000701551903 246.22008889250654 246.22076195200222 246.2244191297015 246.2373419875268 246.26604840618663 246.30273400224794 246.3205789683005 246.30273400224794 246.26604840618663 246.2373419875268 246.2244191297015 246.22076195200222 246.22008889250654 246.22000701551903 246.22000006312123 246.2200012084369 246.22001532580006 246.2201313758113 246.22076195232907 246.22299013246064 246.22793973978216 246.23426512982854 246.23734198785365 246.23426512982854 246.22793973978216 246.22299013246064 246.22076195232907 246.2201313758113 246.22001532580006 246.2200012084369 246.22000000631772 246.22000013993747 246.2200017869581 246.22001532608428 246.2200888931176 246.22034884666385 246.22092629906885 246.22166425896296 246.2220232246245 246.22166425896296 246.22092629906885 246.22034884666385 246.2200888931176 246.22001532608428 246.2200017869581 246.22000013993747 246.21999999962887 246.22000001017685 246.22000014019326 246.22000120897692 246.2200070163859 246.22002753721546 246.22007312152294 246.2201313763513 246.22015971323404 246.2201313763513 246.22007312152294 246.22002753721546 246.2200070163859 246.22000120897692 246.22000014019326 246.22000001017685 246.2199999952229 246.2199999954351 246.21999999805047 246.2200000195499 246.22000013637054 246.22000054916333 246.22000146612788 246.22000263797 246.2200032079889 246.22000263797 246.22000146612788 246.22000054916333 246.22000013637054 246.2200000195499 246.21999999805047 246.2199999954351 246.21999999547774 246.21999999945012 246.22000004841476 246.22000045092238 246.22000263801263 246.22001036622785 246.22002753343537 246.22004947240475 246.22006014417258 246.22004947240475 246.22002753343537 246.22001036622785 246.22000263801263 246.22000045092238 246.22000004841476 246.21999999945012 246.2199999982068 246.22000004852845 246.2200006688021 246.22000576768374 246.22003347328234 246.2201313726849 246.22034884325325 246.22062676149585 246.22076194920268 246.22062676149585 246.22034884325325 246.2201313726849 246.22003347328234 246.22000576768374 246.2200006688021 246.22000004852845 246.22000001987675 246.2200004512066 246.22000576785427 246.22004947268897 246.2202869499815 246.22112609030785 246.22299012950478 246.22537229322336 246.22653104857295 246.22537229322336 246.22299012950478 246.22112609030785 246.2202869499815 246.22004947268897 246.22000576785427 246.2200004512066 246.22000013693898 246.22000263853843 246.22003347369446 246.22028695022308 246.22166425596447 246.22653104881454 246.23734198513938 246.25115790720747 246.25787838300067 246.25115790720747 246.23734198513938 246.22653104881454 246.22166425596447 246.22028695022308 246.22003347369446 246.22000263853843 246.22000055001598 246.22001036703787 246.22013137338124 246.22112609083365 246.22653104909875 246.24562979489554 246.28805513146816 246.34227292779835 246.36864607799438 246.34227292779835 246.28805513146816 246.24562979489554 246.22653104909875 246.22112609083365 246.22013137338124 246.22001036703787 246.22000146730738 246.22002753457224 246.22034884427643 246.22299013035743 246.23734198575045 246.288055131795 246.4007076751865 246.54467288906824 246.61470185493744 246.54467288906824 246.4007076751865 246.288055131795 246.23734198575045 246.22299013035743 246.22034884427643 246.22002753457224 246.22000263949056 246.22004947388268 246.2206267628601 246.22537229441707 246.2511579081596 246.34227292846626 246.5446728894093 246.80333152941492 246.9291507921682 246.80333152941492 246.5446728894093 246.34227292846626 246.2511579081596 246.22537229441707 246.2206267628601 246.22004947388268 246.22000320987894 246.22006014602 246.2207619509364 246.22653105013615 246.25787838432228 246.36864607903178 246.61470185564798 246.92915079252347 247.08210811655553 246.92915079252347 246.61470185564798 246.36864607903178 246.25787838432228 246.22653105013615 246.2207619509364 246.22006014602 246.2200026402153 246.22004947460744 246.22062676358485 246.22537229514182 246.25115790888435 246.342272929191 246.54467289013405 246.80333153013967 246.92915079289295 246.80333153013967 246.54467289013405 246.342272929191 246.25115790888435 246.22537229514182 246.22062676358485 246.22004947460744 246.22000146872847 246.22002753599332 246.22034884569752 246.22299013177852 246.23734198717153 246.2880551332161 246.4007076766076 246.54467289048932 246.61470185635852 246.54467289048932 246.4007076766076 246.2880551332161 246.23734198717153 246.22299013177852 246.22034884569752 246.22002753599332 246.22000055209077 246.22001036911266 246.22013137545602 246.22112609290843 246.22653105117354 246.24562979697032 246.28805513354294 246.34227292987313 246.36864608006917 246.34227292987313 246.28805513354294 246.24562979697032 246.22653105117354 246.22112609290843 246.22013137545602 246.22001036911266 246.22000013961062 246.22000264121007 246.2200334763661 246.22028695289472 246.2216642586361 246.22653105148618 246.23734198781102 246.2511579098791 246.2578783856723 246.2511579098791 246.23734198781102 246.22653105148618 246.2216642586361 246.22028695289472 246.2200334763661 246.22000264121007 246.22000002305998 246.22000045438983 246.2200057710375 246.2200494758722 246.22028695316473 246.22112609349108 246.222990132688 246.2253722964066 246.22653105175618 246.2253722964066 246.222990132688 246.22112609349108 246.22028695316473 246.2200494758722 246.2200057710375 246.22000045438983 246.22000000180213 246.2200000521238 246.22000067239745 246.2200057712791 246.2200334768777 246.22013137628025 246.2203488468486 246.2206267650912 246.22076195279803 246.2206267650912 246.2203488468486 246.22013137628025 246.2200334768777 246.2200057712791 246.22000067239745 246.2200000521238 246.21999999939993 246.22000000337232 246.22000005233696 246.22000045484458 246.22000264193483 246.22001037015005 246.22002753735757 246.22004947632695 246.22006014809477 246.22004947632695 246.22002753735757 246.22001037015005 246.22000264193483 246.22000045484458 246.22000005233696 246.22000000337232 246.2199999960098 246.21999999606388 246.21999999673034 246.22000000220888 246.2200000319774 246.22000013716635 246.2200003708297 246.2200006694416 246.2200008146953 246.2200006694416 246.2200003708297 246.22000013716635 246.2200000319774 246.22000000220888 246.21999999673034 246.21999999606388 246.2199999960923 246.21999999710454 246.22000000958184 246.2200001121499 246.22000066947 246.22000263879423 246.2200070133874 246.22001260393353 246.22001532334158 246.22001260393353 246.2200070133874 246.22000263879423 246.22000066947 246.2200001121499 246.22000000958184 246.21999999710454 246.21999999684402 246.2200000096671 246.22000016772688 246.22000146703738 246.2200085270512 246.22003347403552 246.22008889046018 246.22015971032081 246.22019415920934 246.22015971032081 246.22008889046018 246.22003347403552 246.2200085270512 246.22000146703738 246.22000016772688 246.2200000096671 246.22000000247888 246.2200001123915 246.2200014671937 246.2200126041751 246.22007311876604 246.22028695072046 246.22076195011218 246.221368979363 246.22166425646185 246.221368979363 246.22076195011218 246.22028695072046 246.22007311876604 246.2200126041751 246.2200014671937 246.2200001123915 246.22000003244636 246.22000066991055 246.22000852740646 246.220073118965 246.22042408765193 246.2216642566608 246.2244191280104 246.22793973776422 246.22965226715684 246.22793973776422 246.2244191280104 246.2216642566608 246.22042408765193 246.220073118965 246.22000852740646 246.22000066991055 246.2200001378769 246.22000263947635 246.22003347463237 246.220286951161 246.2216642569024 246.22653104975245 246.2373419860773 246.2511579081454 246.2578783839386 246.2511579081454 246.2373419860773 246.22653104975245 246.2216642569024 246.220286951161 246.22003347463237 246.22000263947635 246.22000037181024 246.22000701433953 246.22008889132704 246.22076195082272 246.224419128522 246.2373419863473 246.26604840500713 246.30273400106844 246.320578967121 246.30273400106844 246.26604840500713 246.2373419863473 246.224419128522 246.22076195082272 246.22008889132704 246.22000701433953 246.22000067070636 246.22001260516987 246.2201597114719 246.22136898035777 246.22793973856002 246.2511579086996 246.30273400135266 246.3686460792023 246.40070767606758 246.3686460792023 246.30273400135266 246.2511579086996 246.22793973856002 246.22136898035777 246.2201597114719 246.22001260516987 246.2200008162585 246.22001532487636 246.22019416065885 246.22166425775504 246.22965226825107 246.25787838479124 246.32057896770365 246.400707676366 246.43968466568697 246.400707676366 246.32057896770365 246.25787838479124 246.22965226825107 246.22166425775504 246.22019416065885 246.22001532487636 246.22000067131742 246.22001260578094 246.22015971208296 246.22136898096883 246.2279397391711 246.25115790931068 246.30273400196373 246.36864607981337 246.40070767667865 246.36864607981337 246.30273400196373 246.25115790931068 246.2279397391711 246.22136898096883 246.22015971208296 246.22001260578094 246.22000037298974 246.22000701551903 246.22008889250654 246.22076195200222 246.2244191297015 246.2373419875268 246.26604840618663 246.30273400224794 246.3205789683005 246.30273400224794 246.26604840618663 246.2373419875268 246.2244191297015 246.22076195200222 246.22008889250654 246.22000701551903 246.22000013961062 246.22000264121007 246.2200334763661 246.22028695289472 246.2216642586361 246.22653105148618 246.23734198781102 246.2511579098791 246.2578783856723 246.2511579098791 246.23734198781102 246.22653105148618 246.2216642586361 246.22028695289472 246.2200334763661 246.22000264121007 246.22000003467747 246.22000067214165 246.22000852963757 246.2200731211961 246.22042408988304 246.2216642588919 246.2244191302415 246.22793973999532 246.22965226938794 246.22793973999532 246.2244191302415 246.2216642588919 246.22042408988304 246.2200731211961 246.22000852963757 246.22000067214165 246.2200000051363 246.22000011504892 246.22000146985113 246.22001260683254 246.22007312142347 246.2202869533779 246.2207619527696 246.22136898202044 246.22166425911928 246.22136898202044 246.2207619527696 246.2202869533779 246.22007312142347 246.22001260683254 246.22000146985113 246.22000011504892 246.21999999985673 246.2200000126798 246.22000017073958 246.22000147005008 246.2200085300639 246.22003347704822 246.22008889347288 246.22015971333352 246.22019416222204 246.22015971333352 246.22008889347288 246.22003347704822 246.2200085300639 246.22000147005008 246.22000017073958 246.2200000126798 246.219999999375 246.22000000038724 246.22000001286455 246.2200001154326 246.22000067275272 246.22000264207693 246.2200070166701 246.22001260721623 246.2200153266243 246.22001260721623 246.2200070166701 246.22000264207693 246.22000067275272 246.2200001154326 246.22000001286455 246.22000000038724 246.21999999671783 246.21999999672715 246.21999999684206 246.21999999778666 246.22000000291942 246.22000002105625 246.22000006134488 246.22000011283203 246.2200001378769 246.22000011283203 246.22000006134488 246.22000002105625 246.22000000291942 246.21999999778666 246.21999999684206 246.21999999672715 246.21999999674136 246.21999999691587 246.21999999906726 246.22000001675218 246.22000011284624 246.2200004524003 246.22000120667477 246.2200021706058 246.22000263949056 246.2200021706058 246.22000120667477 246.2200004524003 246.22000011284624 246.22000001675218 246.21999999906726 246.21999999691587 246.21999999694154 246.21999999915252 246.22000002640542 246.22000025043465 246.2200014677337 246.22000576913325 246.22001532412318 246.22002753499856 246.22003347473185 246.22002753499856 246.22001532412318 246.22000576913325 246.2200014677337 246.22000025043465 246.22000002640542 246.21999999915252 246.21999999799982 246.22000001695113 246.22000025054834 246.22000217080475 246.2200126048288 246.22004947408163 246.2201313742481 246.22023603921727 246.22028695137416 246.22023603921727 246.2201313742481 246.22004947408163 246.2200126048288 246.22000217080475 246.22000025054834 246.22000001695113 246.2200000033031 246.22000011321572 246.22000146801793 246.22001260499934 246.22007311959027 246.2202869515447 246.2207619509364 246.22136898018724 246.22166425728608 246.22136898018724 246.2207619509364 246.2202869515447 246.22007311959027 246.22001260499934 246.22000146801793 246.22000011321572 246.2200000216389 246.22000045296875 246.22000576961642 246.22004947445112 246.22028695174365 246.22112609207 246.22299013126693 246.2253722949855 246.2265310503351 246.2253722949855 246.22299013126693 246.22112609207 246.22028695174365 246.22004947445112 246.22000576961642 246.22000045296875 246.22000006214068 246.22000120745636 246.2200153248195 246.22013137483074 246.22076195134852 246.2229901314801 246.2279397388016 246.234265128848 246.2373419868731 246.234265128848 246.2279397388016 246.2229901314801 246.22076195134852 246.22013137483074 246.2200153248195 246.22000120745636 246.22000011386942 246.22000217162898 246.22002753593648 246.2202360400415 246.22136898084094 246.22537229544025 246.23426512908958 246.24562979658663 246.25115790918278 246.24562979658663 246.23426512908958 246.22537229544025 246.22136898084094 246.2202360400415 246.22002753593648 246.22000217162898 246.22000013917008 246.22000264076954 246.22003347592556 246.2202869524542 246.22166425819557 246.22653105104564 246.23734198737048 246.25115790943858 246.25787838523178 246.25115790943858 246.23734198737048 246.22653105104564 246.22166425819557 246.2202869524542 246.22003347592556 246.22000264076954 246.2200001143668 246.22000217212636 246.22002753643386 246.22023604053888 246.22136898133832 246.22537229593763 246.23426512958696 246.245629797084 246.25115790968016 246.245629797084 246.23426512958696 246.22537229593763 246.22136898133832 246.22023604053888 246.22002753643386 246.22000217212636 246.22000006312123 246.2200012084369 246.22001532580006 246.2201313758113 246.22076195232907 246.22299013246064 246.22793973978216 246.23426512982854 246.23734198785365 246.23426512982854 246.22793973978216 246.22299013246064 246.22076195232907 246.2201313758113 246.22001532580006 246.2200012084369 246.22000002305998 246.22000045438983 246.2200057710375 246.2200494758722 246.22028695316473 246.22112609349108 246.222990132688 246.2253722964066 246.22653105175618 246.2253722964066 246.222990132688 246.22112609349108 246.22028695316473 246.2200494758722 246.2200057710375 246.22000045438983 246.2200000051363 246.22000011504892 246.22000146985113 246.22001260683254 246.22007312142347 246.2202869533779 246.2207619527696 246.22136898202044 246.22166425911928 246.22136898202044 246.2207619527696 246.2202869533779 246.22007312142347 246.22001260683254 246.22000146985113 246.22000011504892 246.2200000001883 246.2200000191396 246.2200002527368 246.22000217299322 246.22001260701728 246.2200494762701 246.22013137643657 246.22023604140574 246.22028695356263 246.22023604140574 246.22013137643657 246.2200494762701 246.22001260701728 246.22000217299322 246.2200002527368 246.2200000191396 246.21999999941423 246.2200000016252 246.2200000288781 246.22000025290734 246.2200014702064 246.22000577160594 246.22001532659587 246.22002753747125 246.22003347720454 246.22002753747125 246.22001532659587 246.22000577160594 246.2200014702064 246.22000025290734 246.2200000288781 246.2200000016252 246.21999999944143 246.21999999961594 246.22000000176732 246.22000001945224 246.2200001155463 246.22000045510038 246.22000120937483 246.22000217330586 246.22000264219062 246.22000217330586 246.22000120937483 246.22000045510038 246.2200001155463 246.22000001945224 246.22000000176732 246.21999999961594 246.21999999734263 246.2199999973437 246.21999999735712 246.21999999746734 246.21999999806616 246.2200000001821 246.22000000488242 246.22000001088924 246.22000001381113 246.22000001088924 246.22000000488242 246.2200000001821 246.21999999806616 246.21999999746734 246.21999999735712 246.2199999973437 246.21999999735792 246.2199999973783 246.2199999976293 246.21999999969253 246.22000001090345 246.22000005051797 246.22000013851638 246.22000025097466 246.22000030567773 246.22000025097466 246.22000013851638 246.22000005051797 246.22000001090345 246.21999999969253 246.2199999976293 246.2199999973783 246.21999999742818 246.21999999768613 246.2200000008656 246.22000002700227 246.22000016902007 246.22000067084846 246.22000178559387 246.22000321019158 246.22000390315833 246.22000321019158 246.22000178559387 246.22000067084846 246.22000016902007 246.22000002700227 246.2200000008656 246.21999999768613 246.21999999763787 246.21999999984885 246.22000002710175 246.22000025113098 246.22000146843004 246.22000576982958 246.2200153248195 246.2200275356949 246.22003347542818 246.2200275356949 246.2200153248195 246.22000576982958 246.22000146843004 246.22000025113098 246.22000002710175 246.21999999984885 246.2199999983788 246.22000001120188 246.22000016926165 246.22000146857215 246.22000852858596 246.2200334755703 246.22008889199495 246.2201597118556 246.22019416074411 246.2201597118556 246.22008889199495 246.2200334755703 246.22000852858596 246.22000146857215 246.22000016926165 246.22000001120188 246.22000000065105 246.22000005097271 246.22000067124637 246.220005770128 246.2200334757266 246.22013137512917 246.22034884569752 246.22062676394012 246.22076195164695 246.22062676394012 246.22034884569752 246.22013137512917 246.2200334757266 246.220005770128 246.22000067124637 246.22000005097271 246.22000000553612 246.22000013915587 246.2200017861765 246.22001532530268 246.220088892336 246.22034884588226 246.22092629828725 246.22166425818136 246.2220232238429 246.22166425818136 246.22092629828725 246.22034884588226 246.220088892336 246.22001532530268 246.2200017861765 246.22000013915587 246.22000001172768 246.2200002517989 246.22000321095896 246.2200275363628 246.2201597123814 246.2206267643096 246.2216642583661 246.222990132148 246.22363507662672 246.222990132148 246.2216642583661 246.2206267643096 246.2201597123814 246.2200275363628 246.22000321095896 246.2200002517989 246.22000001484852 246.2200003067009 246.22000390412467 246.22003347629504 246.22019416146887 246.22076195221538 246.2220232242266 246.22363507682567 246.22441912991465 246.22363507682567 246.2220232242266 246.22076195221538 246.22019416146887 246.22003347629504 246.22000390412467 246.2200003067009 246.22000001212558 246.2200002521968 246.22000321135687 246.2200275367607 246.2201597127793 246.2206267647075 246.221664258764 246.2229901325459 246.22363507702462 246.2229901325459 246.221664258764 246.2206267647075 246.2201597127793 246.2200275367607 246.22000321135687 246.2200002521968 246.22000000631772 246.22000013993747 246.2200017869581 246.22001532608428 246.2200888931176 246.22034884666385 246.22092629906885 246.22166425896296 246.2220232246245 246.22166425896296 246.22092629906885 246.22034884666385 246.2200888931176 246.22001532608428 246.2200017869581 246.22000013993747 246.22000000180213 246.2200000521238 246.22000067239745 246.2200057712791 246.2200334768777 246.22013137628025 246.2203488468486 246.2206267650912 246.22076195279803 246.2206267650912 246.2203488468486 246.22013137628025 246.2200334768777 246.2200057712791 246.22000067239745 246.2200000521238 246.21999999985673 246.2200000126798 246.22000017073958 246.22000147005008 246.2200085300639 246.22003347704822 246.22008889347288 246.22015971333352 246.22019416222204 246.22015971333352 246.22008889347288 246.22003347704822 246.2200085300639 246.22000147005008 246.22000017073958 246.2200000126798 246.21999999941423 246.2200000016252 246.2200000288781 246.22000025290734 246.2200014702064 246.22000577160594 246.22001532659587 246.22002753747125 246.22003347720454 246.22002753747125 246.22001532659587 246.22000577160594 246.2200014702064 246.22000025290734 246.2200000288781 246.2200000016252 246.2199999994319 246.21999999968986 246.22000000286934 246.220000029006 246.2200001710238 246.2200006728522 246.2200017875976 246.2200032121953 246.22000390516206 246.2200032121953 246.2200017875976 246.2200006728522 246.2200001710238 246.220000029006 246.22000000286934 246.21999999968986 246.2199999995464 246.21999999956677 246.21999999981776 246.220000001881 246.22000001309192 246.22000005270644 246.22000014070485 246.22000025316314 246.2200003078662 246.22000025316314 246.22000014070485 246.22000005270644 246.22000001309192 246.220000001881 246.21999999981776 246.21999999956677 246.21999999788258 246.21999999788267 246.21999999788372 246.21999999789244 246.2199999979397 246.21999999810674 246.2199999984778 246.21999999895195 246.21999999918262 246.21999999895195 246.2199999984778 246.21999999810674 246.2199999979397 246.21999999789244 246.21999999788372 246.21999999788267 246.21999999789688 246.2199999978985 246.2199999979183 246.21999999808116 246.21999999896616 246.22000000209334 246.22000000903998 246.22000001791747 246.22000002223575 246.22000001791747 246.22000000903998 246.22000000209334 246.21999999896616 246.21999999808116 246.2199999979183 246.2199999978985 246.21999999794056 246.21999999796094 246.21999999821193 246.22000000027518 246.2200000114861 246.2200000511006 246.22000013909903 246.2200002515573 246.22000030626037 246.2200002515573 246.22000013909903 246.2200000511006 246.2200000114861 246.22000000027518 246.21999999821193 246.21999999796094 246.21999999803455 246.21999999820906 246.22000000036044 246.22000001804537 246.22000011413942 246.2200004536935 246.22000120796795 246.22000217189898 246.22000264078375 246.22000217189898 246.22000120796795 246.2200004536935 246.22000011413942 246.22000001804537 246.22000000036044 246.21999999820906 246.2199999981813 246.21999999919353 246.22000001167083 246.2200001142389 246.220000671559 246.22000264088322 246.2200070154764 246.22001260602252 246.22001532543058 246.22001260602252 246.2200070154764 246.22000264088322 246.220000671559 246.2200001142389 246.22000001167083 246.21999999919353 246.21999999847623 246.22000000244861 246.22000005141325 246.22000045392087 246.22000264101112 246.22001036922634 246.22002753643386 246.22004947540324 246.22006014717107 246.22004947540324 246.22002753643386 246.22001036922634 246.22000264101112 246.22000045392087 246.22000005141325 246.22000000244861 246.21999999898938 246.22000000953736 246.22000013955378 246.22000120833744 246.2200070157464 246.22002753657597 246.22007312088346 246.22013137571182 246.22015971259455 246.22013137571182 246.22007312088346 246.22002753657597 246.2200070157464 246.22000120833744 246.22000013955378 246.22000000953736 246.21999999961986 246.22000001857117 246.22000025216838 246.22000217242478 246.22001260644885 246.22004947570167 246.22013137586814 246.2202360408373 246.2202869529942 246.2202360408373 246.22013137586814 246.22004947570167 246.22001260644885 246.22000217242478 246.22000025216838 246.22000001857117 246.22000000000685 246.22000002304577 246.22000030702776 246.22000264146587 246.22001532601323 246.22006014762582 246.2201597129072 246.22028695315052 246.2203488465928 246.22028695315052 246.2201597129072 246.22006014762582 246.22001532601323 246.22000264146587 246.22000030702776 246.22000002304577 246.2199999999467 246.22000001889802 246.22000025249523 246.22000217275163 246.2200126067757 246.22004947602852 246.22013137619498 246.22023604116416 246.22028695332105 246.22023604116416 246.22013137619498 246.22004947602852 246.2200126067757 246.22000217275163 246.22000025249523 246.22000001889802 246.21999999962887 246.22000001017685 246.22000014019326 246.22000120897692 246.2200070163859 246.22002753721546 246.22007312152294 246.2201313763513 246.22015971323404 246.2201313763513 246.22007312152294 246.22002753721546 246.2200070163859 246.22000120897692 246.22000014019326 246.22000001017685 246.21999999939993 246.22000000337232 246.22000005233696 246.22000045484458 246.22000264193483 246.22001037015005 246.22002753735757 246.22004947632695 246.22006014809477 246.22004947632695 246.22002753735757 246.22001037015005 246.22000264193483 246.22000045484458 246.22000005233696 246.22000000337232 246.219999999375 246.22000000038724 246.22000001286455 246.2200001154326 246.22000067275272 246.22000264207693 246.2200070166701 246.22001260721623 246.2200153266243 246.22001260721623 246.2200070166701 246.22000264207693 246.22000067275272 246.2200001154326 246.22000001286455 246.22000000038724 246.21999999944143 246.21999999961594 246.22000000176732 246.22000001945224 246.2200001155463 246.22000045510038 246.22000120937483 246.22000217330586 246.22000264219062 246.22000217330586 246.22000120937483 246.22000045510038 246.2200001155463 246.22000001945224 246.22000000176732 246.21999999961594 246.2199999995464 246.21999999956677 246.21999999981776 246.220000001881 246.22000001309192 246.22000005270644 246.22000014070485 246.22000025316314 246.2200003078662 246.22000025316314 246.22000014070485 246.22000005270644 246.22000001309192 246.220000001881 246.21999999981776 246.21999999956677 246.2199999996306 246.21999999963222 246.21999999965203 246.2199999998149 246.22000000069988 246.22000000382707 246.2200000107737 246.2200000196512 246.22000002396948 246.2200000196512 246.2200000107737 246.22000000382707 246.22000000069988 246.2199999998149 246.21999999965203 246.21999999963222

CELL_DATA 0

