# vtk DataFile Version 4.2
Higgs Field 2D Slice - phi
ASCII

DATASET STRUCTURED_POINTS
DIMENSIONS 64 64 1
ORIGIN 0 0 0
SPACING 3.125 3.125 3.125

POINT_DATA 4096

SCALARS phi double 1
LOOKUP_TABLE default
246.21999803266382 246.21999803931442 246.21999805662335 246.21999808725718 246.21999813635816 246.21999821315393 246.21999833403703 246.21999852692323 246.2199988380998 246.21999934149636 246.2200001516794 246.2200014399752 246.2200034537331 246.22000653707386 246.22001115035684 246.2200178838133 246.22002745939324 246.22004071405672 246.22005855762708 246.220081899724 246.2201115454077 246.22014806323878 246.22019163787735 246.22024192645173 246.2202979430878 246.22035799893786 246.22041972129594 246.22048016675663 246.2205360297398 246.22058392982044 246.22062074564522 246.22064395021047 246.2206518977379 246.22064401691622 246.2206208792841 246.22058413090403 246.22053629900708 246.22048050517392 246.22042012994328 246.22035847909422 246.22029849603214 246.22024255354833 246.22019234043358 246.22014884244837 246.22011240232223 246.22008283516772 246.22005957216842 246.2200418078662 246.22002863221508 246.2200191349938 246.22001247870227 246.2200079408221 246.22000493058198 246.22000298699726 246.22000176535036 246.2200010176951 246.22000057207987 246.22000031345505 246.22000016729413 246.22000008685512 246.2200000437675 246.2200000213261 246.22000000996218 246.2200000043914 246.21999803931442 246.2199980492224 246.2199980732154 246.21999811730586 246.2199981927582 246.21999831990613 246.21999853448634 246.21999889732038 246.21999950878038 246.2200005291651 246.22000220627584 246.2200049105073 246.2200091763504 246.22001574710427 246.22002561684323 246.2200400598334 246.22006063458312 246.2200891477254 246.22012756291718 246.22017784359286 246.22024172735766 246.22032044139874 246.2204143846747 246.2205228176435 246.22064361347006 246.22077312832928 246.22090624276436 246.22103660598154 246.2211570855057 246.22126038748263 246.2213397769345 246.22138980118925 246.22140690904732 246.2213898677529 246.22133991028917 246.22126058816832 246.22115735426138 246.2210369437167 246.2209066506159 246.22077360754773 246.2206441653344 246.22052344351798 246.22041508583828 246.22032121907355 246.22024258259532 246.22017877724602 246.22012857549743 246.22009023940325 246.22006180513122 246.22004130856962 246.2200269426023 246.22001714812401 246.22001065030025 246.22000645448824 246.22000381676358 246.22000220206692 246.22000123940668 246.22000068038474 246.2200003641623 246.22000018994092 246.2200000964443 246.22000004759468 246.22000002274572 246.22000001046246 246.21999805662335 246.2199980732154 246.2199981109557 246.21999818272118 246.21999831242258 246.21999854327822 246.21999895088916 246.2199996638561 246.22000089403434 246.2200029796155 246.22000644307622 246.2200120650615 246.22002097169036 246.2200347288806 246.22005543050892 246.22008576043783 246.2201290011354 246.2201889574192 246.22026976464858 246.22037555774565 246.22050999601882 246.22067566403814 246.22087340222333 246.22110165375597 246.22135594046765 246.2216285900103 246.22190882258946 246.22218326577593 246.22243690109724 246.22265437014573 246.22282149128884 246.222926783079 246.22296276765547 246.22292684924474 246.22282162387611 246.22265456966613 246.22243716828973 246.22218360155 246.22190922805356 246.221629066415 246.22135648912032 246.22110227596403 246.22087409929418 246.22067643716548 246.22051084628268 246.22037648594184 246.22027077128868 246.22019004270217 246.22013016483388 246.2200870018981 246.22005674850885 246.22003612168646 246.22002243702843 246.22001360003276 246.2200080441848 246.22000464274024 246.22000261454252 246.22000143646127 246.22000076987857 246.22000040237066 246.22000020499578 246.22000010172658 246.2200000490889 246.2200000229731 246.21999808725718 246.21999811730586 246.21999818272118 246.2199983101137 246.21999854891354 246.2199989881136 246.219999783571 246.22000120002238 246.22000367328656 246.22000789893133 246.22001495124042 246.22002643494253 246.22004466478907 246.22007285920606 246.22011532165234 246.22017756773175 246.22026634313423 246.22038946702932 246.22055543757344 246.2207727520827 246.22104893048524 246.22138928416993 246.2217955405121 246.22226450077474 246.22278696318153 246.22334716214198 246.22392294676808 246.2244868384827 246.22500797626904 246.22545480046634 246.2257981696542 246.22601449077902 246.22608839774273 246.22601455631948 246.2257983009625 246.22545499805406 246.22500824084673 246.22448717098828 246.22392334831 246.22334763391393 246.22278750649093 246.2222651169574 246.22179623081857 246.22139004979394 246.22104977247838 246.22077367124078 246.22055643443647 246.22039054176784 246.22026749554928 246.2201787971128 246.22011662683408 246.2200742384832 246.22004611588787 246.2200279549924 246.2200165367739 246.22000954591255 246.22000537708277 246.22000295543242 246.22000158491053 246.22000082915824 246.2200004230979 246.22000021047447 246.22000010203922 246.2200000481347 246.21999813635816 246.2199981927582 246.21999831242258 246.21999854891354 246.21999900144013 246.21999984888924 246.2200014041181 246.2200041984351 246.22000910639392 246.22001752328393 246.2200316040385 246.22005456730008 246.22009105547278 246.2201475232263 246.22023260091973 246.22035734984286 246.2205352977671 246.22078212521305 246.2211148741977 246.22155058508142 246.22210433808348 246.22278678472162 246.22360138921226 246.2245417374537 246.22558937719285 246.22671269369496 246.22786726769712 246.22899799596024 246.23004299261882 246.23093897066374 246.2316274922472 246.23206124588216 246.23220941762753 246.23206131054155 246.23162762179336 246.23093916557983 246.2300432536438 246.2289983239752 246.22786766378206 246.22671315907203 246.22558991314102 246.22454234525196 246.223602070168 246.22278753994328 246.2221051686511 246.22155149176237 246.221115857532 246.22078318537123 246.2205364345218 246.22035856254035 246.22023388839474 246.22014888377353 246.2200924868469 246.22005606671578 246.22003316805674 246.22001914789726 246.22001078705486 246.22000592999933 246.22000318098654 246.2200016649228 246.22000085018706 246.22000042346738 246.2200002056779 246.2200000973538 246.21999821315393 246.21999831990613 246.21999854327822 246.2199989881136 246.21999984888924 246.2200014758374 246.22000448172528 246.2200099065932 246.22001946241497 246.22003588024745 246.2200633777 246.22010825412042 246.22017959508307 246.2202900327025 246.22045645675118 246.22070051418234 246.221048678811 246.22153163713466 246.222182740088 246.2230353352799 246.22411893436814 246.22545438218404 246.22704845848898 246.22888861137162 246.2309387310119 246.23313694922678 246.23539633982804 246.23760906871456 246.23965402847546 246.2414073695663 246.2427547321728 246.24360352995376 246.24389346153924 246.24360359347628 246.24275485944523 246.24140756107178 246.23965428492454 246.23760939101675 246.23539672903493 246.23313740650366 246.23093925763774 246.228889208597 246.22704912756444 246.22545512427487 246.2241197504691 246.2230362261868 246.222183706284 246.22153267881873 246.22104979575576 246.2207017057341 246.22045772180147 246.22029136957445 246.22018100153136 246.22010972741657 246.22006491446183 246.22003747655276 246.22002111380155 246.22001160797356 246.22000622764247 246.22000326023758 246.22000166540596 246.2200008300109 246.22000040353595 246.22000019133358 246.21999833403703 246.21999853448634 246.21999895088916 246.219999783571 246.2200014041181 246.22000448172528 246.22001018688113 246.22002050619113 246.22003870961797 246.22007001321282 246.22012247220925 246.2202081172533 246.22034430012076 246.22055514562564 246.22087290956142 246.22133893278132 246.22200377423835 246.22292603811758 246.22416941674078 246.22579759624622 246.22786693692527 246.23041724768 246.2334614763915 246.2369756524066 246.24089081509905 246.24508881187873 246.24940363558943 246.25362935004108 246.25753467030944 246.26088307470718 246.26345616448486 246.26507712274187 246.2656307887976 246.26507718490015 246.26345628905722 246.26088326217678 246.2575349213584 246.25362966552206 246.2494040165256 246.2450892594638 246.24089133052675 246.2369762369559 246.23346213128454 246.23041797402522 246.227867735689 246.22579846819585 246.22417036241632 246.22292705766114 246.22200486745098 246.22134009900932 246.22087414772477 246.22055645404745 246.2203456766694 246.2202095592003 246.22012397631454 246.2200715755826 246.22004032590374 246.2200221714191 246.22001189565114 246.2200062282109 246.22000318203814 246.22000158633162 246.2200007716123 246.2200003661234 246.21999852692323 246.21999889732038 246.2199996638561 246.22000120002238 246.2200041984351 246.2200099065932 246.22002050619113 246.22003970001455 246.22007358281707 246.22013187598208 246.2202295925432 246.22038915441894 246.2206429005399 246.22103579258064 246.22162794591753 246.2224964076201 246.22373540449087 246.22545415702726 246.22777136848705 246.230805730506 246.23466228171895 246.23941521383136 246.2450886580036 246.25163794066245 246.25893454074506 246.26675825858246 246.27479970832994 246.2826750888477 246.28995335664487 246.29619370850145 246.3009891167459 246.304010049455 246.3050418826504 246.3040101100785 246.3009892382203 246.29619389128146 246.28995360141263 246.28267539645586 246.27480007977326 246.2667586949978 246.25893504329773 246.25163851057457 246.2450892964973 246.23941592195825 246.2346630604738 246.23080658062776 246.2277722904589 246.2254551510197 246.22373647030497 246.22249754463058 246.22162915304438 246.2210370682038 246.22064424261302 246.22039056024195 246.22023105893288 246.22013339918675 246.22007515854506 246.22004132351944 246.22002217212963 246.22001160928096 246.22000593176148 246.22000295756405 246.22000143890554 246.22000068305638 246.2199988380998 246.21999950878038 246.22000089403434 246.22000367328656 246.22000910639392 246.22001946241497 246.22003870961797 246.22007358281707 246.22013516700287 246.22024114346206 246.22041881742874 246.2207089690088 246.22117041488312 246.2218849291603 246.22296184673525 246.22454129671826 246.22679465375177 246.22992056205683 246.234134912672 246.2396535752913 246.24666758828934 246.25531188757734 246.26563036176142 246.27754176136625 246.2908123401201 246.30504161196205 246.31966688429551 246.33399012227875 246.34722736946702 246.35857691900048 246.36729849289264 246.37279275783737 246.37466936832504 246.37279281672716 246.36729861089958 246.3585770965509 246.34722760724304 246.33399042107618 246.3196672450807 246.305042035815 246.29081282823455 246.27754231487904 246.26563098186628 246.25531257529744 246.24666834461945 246.23965440088512 246.23413580804112 246.22992152737177 246.22679568881358 246.22454240090167 246.22296301901707 246.22188616797735 246.22117171818903 246.2207103342456 246.22042024147007 246.22024262269835 246.22013669725612 246.22007515942613 246.22004032746693 246.2200211159616 246.22001078969808 246.22000538009547 246.22000261783944 246.2200012429594 246.21999934149636 246.2200005291651 246.2200029796155 246.22000789893133 246.22001752328393 246.22003588024745 246.22007001321282 246.22013187598208 246.22024114346206 246.22042919804306 246.22074450362274 246.2212594402439 246.22207840067475 246.22334652430197 246.22525786747937 246.22806114234035 246.23206051817272 246.23760856414395 246.2450884604443 246.2548833494086 246.26733230076198 246.28267480917808 246.3009887719053 246.3221299813326 246.34568356710568 246.37093871624577 246.39689671944916 246.42231865155853 246.44581308729627 246.4659570965296 246.48143677772018 246.4911883886277 246.4945191143168 246.49118844561323 246.4814368919186 246.46595726833883 246.44581331739843 246.42231894069258 246.39689706855302 246.37093912637104 246.3456840393608 246.32213051688288 246.30098937183075 246.2826754745303 246.26733303242204 246.25488414808706 246.2450893266243 246.23760949796764 246.23206151944112 246.22806221048504 246.22525900147716 246.22334772267493 246.22207966143336 246.22126076088705 246.22074588116615 246.22043062896245 246.22024262374995 246.220133401091 246.22007157822583 246.22003747976441 246.2200191516205 246.22000955000527 246.2200046471456 246.22000220669966 246.2200001516794 246.22000220627584 246.22000644307622 246.22001495124042 246.2200316040385 246.2200633777 246.22012247220925 246.2202295925432 246.22041881742874 246.22074450362274 246.22129059432245 246.22218245712145 246.22360090797588 246.225797338575 246.22910786830542 246.23396328410462 246.24089042839327 246.2504999755939 246.2634556204365 246.2804209920053 246.3019833826871 246.32855761398065 246.36027860941374 246.39689659180726 246.43769297737228 246.48143658942635 246.52639759510225 246.57043009106525 246.6111240333574 246.64601480940152 246.67282665164424 246.68971708548884 246.6954861079318 246.68971714045642 246.67282676177837 246.6460149751001 246.61112425521728 246.5704303698538 246.52639793167214 246.48143698480075 246.4376934326028 246.39689710800235 246.36027918765342 246.32855825520284 246.3019840878013 246.28042176169362 246.26345645512527 246.25050087542522 246.24089139322504 246.2339643133684 246.22910896100646 246.22579849329222 246.223602122805 246.22218372967507 246.22129192167313 246.2207458824167 246.22042024377222 246.2202310621161 246.2201239802083 246.22006491895246 246.22003317305897 246.2200165421456 246.22000804986914 246.2200038226753 246.2200014399752 246.2200049105073 246.2200120650615 246.22002643494253 246.22005456730008 246.22010825412042 246.2202081172533 246.22038915441894 246.2207089690088 246.2212594402439 246.22218245712145 246.22368992816214 246.22608748574692 246.22980005616031 246.23539578020458 246.24360281486355 246.25531167887672 246.27155459187557 246.29345339319494 246.32212981128552 246.35857654309496 246.40349475905464 246.45711251985568 246.51900762873979 246.58796546824564 246.66190498825975 246.7379022630415 246.81233008570254 246.8811147739208 246.94009040837673 246.985410273452 247.01396004564597 247.0237113673919 247.01396009848193 246.98541037929445 246.94009056762357 246.88111498708363 246.8123303535203 246.73790258636686 246.66190536803063 246.5879659054568 246.51900812444282 246.45711307504536 246.4034953747257 246.35857722004323 246.3221305501647 246.29345419443135 246.27155545563974 246.25531260499812 246.24360380280217 246.2353968290225 246.2298011644933 246.22608865177597 246.22369114955669 246.222183731153 246.22126076361553 246.2207103380257 246.22039056493153 246.22020956462885 246.22010973344197 246.22005607325278 246.2200279619273 246.2200136072803 246.22000646196315 246.2200034537331 246.2200091763504 246.22002097169036 246.22004466478907 246.22009105547278 246.22017959508307 246.22034430012076 246.2206429005399 246.22117041488312 246.22207840067475 246.22360090797588 246.22608748574692 246.2300422831561 246.23616622765869 246.24539648299373 246.25893416370266 246.2782482044304 246.30504127914384 246.34116389188623 246.3884663637474 246.44858617487742 246.5226799247387 246.61112380569952 246.71322139322893 246.82696914369248 246.94893430990493 247.07429379895495 247.19706443696103 247.31052657699883 247.40780842474334 247.48256472078052 247.52965830586945 247.54574335043975 247.5296583564885 247.48256482216075 247.40780857728265 247.31052678115196 247.19706469343853 247.0742941084958 246.9489346734186 246.8269695621169 246.71322186753042 246.61112433684443 246.52268051363652 246.44858682229554 246.38846707033952 246.34116465807867 246.3050421050787 246.2782490899656 246.25893510829818 246.2453974857969 246.2361672873337 246.23004339796924 246.2260886535097 246.22360212604508 246.2220796659524 246.2211717237881 246.22064424909317 246.22034568394537 246.2201810094326 246.22009249525973 246.22004612467018 246.2200224461518 246.22001065967942 246.22000653707386 246.22001574710427 246.2200347288806 246.22007285920606 246.2201475232263 246.2202900327025 246.22055514562564 246.22103579258064 246.2218849291603 246.22334652430197 246.225797338575 246.22980005616031 246.23616622765869 246.2460241661423 246.26088246420886 246.28267460729867 246.3137652022288 246.35689511588097 246.41504318349158 246.49118794590274 246.58796532463074 246.70723714721544 246.84960898662194 247.01395977890823 247.19706433487025 247.39339681564002 247.5951932836462 247.79282236985355 247.97546717309802 248.1320658741265 248.2524042392214 248.3282127649766 248.35410552724292 248.32821281332193 248.25240433608258 248.13206601978777 247.97546736804253 247.79282261467816 247.59519357906146 247.39339716244172 247.19706473393947 247.01396023115447 246.8496094929547 246.70723770845893 246.5879659415808 246.49118861912777 246.4150439133895 246.3568959025939 246.31376604564304 246.28267550695946 246.26088341929199 246.24602517534035 246.23616728938006 246.2298011683018 246.2257984986355 246.2233477292972 246.22188617567963 246.22103707687242 246.22055646348346 246.22029137963574 246.22014889440325 246.22007424953924 246.22003613308357 246.2200171597485 246.22001115035684 246.22002561684323 246.22005543050892 246.22011532165234 246.22023260091973 246.22045645675118 246.22087290956142 246.22162794591753 246.22296184673525 246.22525786747937 246.22910786830542 246.23539578020458 246.24539648299373 246.26088246420886 246.28422359948047 246.31845723601424 246.36729797757863 246.4350515015414 246.52639731403997 246.64601445862078 246.7980437521012 246.9854099730061 247.20906442699203 247.4672460146852 247.75488822843735 248.06331042859082 248.38031610612714 248.6907751701084 248.97769515587487 249.22369885264808 249.41274053684174 249.53182949678913 249.57250488723966 249.53182954288914 249.41274062915545 249.2236989914597 248.97769534158232 248.69077540319483 248.38031638724627 248.0633107584816 247.75488860786717 247.4672464444783 247.20906490802946 246.98541050602685 246.7980443378442 246.6460150976545 246.5263980067623 246.43505224809445 246.36729877787712 246.31845808957502 246.28422450556457 246.260883421651 246.2453974902307 246.23539683524686 246.2291089687656 246.2252590105721 246.2229630292489 246.22162916424253 246.22087415974715 246.22045773450597 246.22023390166768 246.22011664056177 246.2200567625776 246.22002695692683 246.2200178838133 246.2200400598334 246.22008576043783 246.22017756773175 246.22035734984286 246.22070051418234 246.22133893278132 246.2224964076201 246.22454129671826 246.22806114234035 246.23396328410462 246.24360281486355 246.25893416370266 246.28267460729867 246.31845723601424 246.37093839419938 246.44581268072372 246.54968082784828 246.68971665853792 246.8730932866468 247.1061587082549 247.39339669641095 247.73626563128028 248.1320656950129 248.57302978006544 249.04585020653138 249.53182936161548 250.00777236383038 250.4476292571022 250.82476025791325 251.11456679253277 251.29713371169768 251.35949028677655 251.29713375555238 251.11456688035585 250.82476038990367 250.447629433601 250.00777258526392 249.53182962849533 249.04585051948283 248.5730301397706 248.13206610223915 247.736266086795 247.3933972009247 247.1061592624214 246.87309389103444 246.68971731354463 246.54968153361617 246.44581343716752 246.3709392009496 246.31845809233192 246.28267551207537 246.2589351155173 246.24360381184027 246.23396432399812 246.22806222250742 246.22454241408934 246.22249755886986 246.22134011410125 246.22070172156498 246.2203585789681 246.2201788140237 246.22008701915007 246.22004132610581 246.22002745939324 246.22006063458312 246.2201290011354 246.22026634313423 246.2205352977671 246.221048678811 246.22200377423835 246.22373540449087 246.22679465375177 246.23206051817272 246.24089042839327 246.25531167887672 246.2782482044304 246.3137652022288 246.36729797757863 246.44581268072372 246.5578287482052 246.71322124265072 246.92272260213406 247.19706420378932 247.54574300281382 247.9754669730092 248.48841793230065 249.0805568031994 249.74026356126635 250.44762917780562 251.17468098482001 251.88671815054707 252.5447684928585 253.10897741491658 253.5425440833173 253.81567432778033 253.90896321734613 253.81567436947498 253.54254416676343 253.10897754031316 252.54476866037606 251.88671836052666 251.17468123768796 250.44762947401668 249.7402639014458 249.08055718797252 248.48841836234953 247.97546744898756 247.54574352537537 247.19706477344565 246.92272321925464 246.71322190740608 246.5578294605385 246.4458134402939 246.367298783732 246.31376605394217 246.27824910039638 246.25531261733315 246.24089140720852 246.2320615348741 246.22679570549712 246.22373648809696 246.22200488618088 246.22104981525305 246.22053645467278 246.22026751621186 246.22013018589436 246.2200618264475 246.22004071405672 246.2200891477254 246.2201889574192 246.22038946702932 246.22078212521305 246.22153163713466 246.22292603811758 246.22545415702726 246.22992056205683 246.23760856414395 246.2504999755939 246.27155459187557 246.30504127914384 246.35689511588097 246.4350515015414 246.54968082784828 246.71322124265072 246.94009007129526 247.24595638427493 247.64648770296048 248.1555493260598 248.78293471459898 249.53182926404375 250.39633603025385 251.35949009089413 252.3922248009141 253.4537008193482 254.49325586731229 255.45399160971863 256.2777214098079 256.91071704283553 257.3094798236001 257.4456790761026 257.30947986321996 256.9107171221321 256.27772152878117 255.45399176859598 254.49325606623583 253.45370105857373 252.3922250808111 251.3594904118889 250.39633639291486 249.53182966893942 248.78293516232617 248.15554981721536 247.6464882380276 247.24595696362306 246.94009069512336 246.71322191093037 246.54968154029527 246.4350522575873 246.35689591458785 246.30504211926115 246.2715554718117 246.2505008933309 246.2376095174081 246.22992154817646 246.22545517298968 246.2229270806543 246.22153270266455 246.22078320989917 246.2203905668642 246.22019006822487 246.22009026521016 246.22005855762708 246.22012756291718 246.22026976464858 246.22055543757344 246.2211148741977 246.222182740088 246.22416941674078 246.22777136848705 246.234134912672 246.2450884604443 246.2634556204365 246.29345339319494 246.34116389188623 246.41504318349158 246.52639731403997 246.68971665853792 246.92272260213406 247.24595638427493 247.6817426817797 248.25240396424135 248.97769496533573 249.8715690239577 250.93856456673237 252.17027985911216 253.54254394569938 255.0139438114881 256.5262931663638 258.0074103837359 259.37622894902205 260.54984682582347 261.4517141482768 262.0198556969622 262.21390703655953 262.01985573470625 261.45171422365115 260.5498469388282 259.37622909971395 258.00741057211496 256.5262933924301 255.01394407561105 253.54254424810637 252.1702802002011 250.93856494701484 249.8715694439453 248.97769542554005 248.25240446517398 247.6817432237817 247.24595696763052 246.9227232268148 246.68971732431646 246.5263980204047 246.4150439296183 246.34116467660962 246.2934542150371 246.26345647757842 246.24508935075434 246.23413583362066 246.2277723173174 246.22417039038328 246.2221837352173 246.22111588720426 246.22055646473402 246.2202708020694 246.22012860656235 246.220081899724 246.22017784359286 246.22037555774565 246.2207727520827 246.22155058508142 246.2230353352799 246.22579759624622 246.230805730506 246.2396535752913 246.2548833494086 246.2804209920053 246.32212981128552 246.3884663637474 246.49118794590274 246.64601445862078 246.8730932866468 247.19706420378932 247.64648770296048 248.25240396424135 249.0458500989552 250.05429304395506 251.2971334902073 252.7806816557884 254.4932557881294 256.4012486457924 258.4470796666546 260.549846765001 262.60918877108867 264.51239098682726 266.1441866089769 267.3981408777985 268.1880835886856 268.4578921222919 268.18808362455377 267.3981409495349 266.14418671641096 264.51239112978845 262.6091889494065 260.5498469786186 258.4470799156856 256.4012489302937 254.49325610838522 252.7806820121398 251.29713388313743 250.05429347391868 249.0458505664639 248.2524044696362 247.64648824649726 247.1970647855533 246.873093906439 246.64601511604334 246.49118864021668 246.3884670939011 246.3221305759432 246.28042178946163 246.25488417767406 246.23965443206373 246.23080661322746 246.22579850201768 246.2230362610318 246.22155152748846 246.220773707649 246.22037652283322 246.22017881447846 246.2201115454077 246.22024172735766 246.22050999601882 246.22104893048524 246.22210433808348 246.22411893436814 246.22786693692527 246.23466228171895 246.24666758828934 246.26733230076198 246.3019833826871 246.35857654309496 246.44858617487742 246.58796532463074 246.7980437521012 247.1061587082549 247.54574300281382 248.1555493260598 248.97769496533573 250.05429304395506 251.42261244597015 253.10897726078565 255.12194959294567 257.44567889903533 260.0345647399164 262.8104781531455 265.66364605197606 268.45789202912556 271.04027762558735 273.2544015240667 274.9558462846654 276.0276907025714 276.3937840444141 276.02769073679116 274.9558463529912 273.25440162627115 271.04027776132943 268.4578921980642 265.66364625382704 262.8104783877951 260.03456500730783 257.4456791992254 255.12194992621863 253.10897762751097 251.42261284657414 250.0542934789209 248.97769543500448 248.15554983077251 247.5457435426842 247.1061592831408 246.79804436169002 246.58796596826878 246.44858685162674 246.35857725176186 246.3019841217084 246.26733306831866 246.24666838227822 246.23466309969575 246.2278677763036 246.2241197922206 246.22210521136893 246.2210498159636 246.22051089033633 246.22024262701845 246.22014806323878 246.22032044139874 246.22067566403814 246.22138928416993 246.22278678472162 246.22545438218404 246.23041724768 246.23941521383136 246.25531188757734 246.28267480917808 246.32855761398065 246.40349475905464 246.5226799247387 246.70723714721544 246.9854099730061 247.39339669641095 247.9754669730092 248.78293471459898 249.8715690239577 251.2971334902073 253.10897726078565 255.34195706412666 258.00741030881625 261.084348687069 264.51239092265104 268.18808348341156 271.9660716485959 275.6660390559922 279.0854740727881 282.0172797638854 284.27022750205197 285.68949747127095 286.1742555881723 285.68949750401276 284.27022756725137 282.01727986120136 279.0854742017658 275.6660392161201 271.9660718393624 268.1880837044188 264.5123911736716 261.08434896810286 258.0074106199203 255.3419574056135 253.1089776330532 251.2971338936819 249.87156945906565 248.78293518165293 247.97546747217967 247.39339722769796 246.98541053609702 246.70723774159865 246.5226805496184 246.4034954133224 246.32855829618694 246.28267551770287 246.25531262045953 246.2394159688825 246.2304180224558 246.22545517401286 246.22278759078972 246.22139010152145 246.22067648951827 246.22032127182425 246.22019163787735 246.2204143846747 246.22087340222333 246.2217955405121 246.22360138921226 246.22704845848898 246.2334614763915 246.2450886580036 246.26563036176142 246.3009887719053 246.36027860941374 246.45711251985568 246.61112380569952 246.84960898662194 247.20906442699203 247.73626563128028 248.48841793230065 249.53182926404375 250.93856456673237 252.7806816557884 255.12194959294567 258.00741030881625 261.4517140240739 265.4277396079224 269.85746226081204 274.6071991330155 279.4891225791536 284.2702274549856 288.68882784539824 292.47731269897315 295.3885760220149 297.22255935520576 297.8489647052446 297.2225593865265 295.3885760843153 292.47731279179845 288.68882796806633 284.2702276068144 279.4891227594041 274.6071993410624 269.8574624963143 265.4277398705958 261.4517143139185 258.00741062605937 255.1219499379568 252.78068202893704 250.93856496850165 249.53182969477476 248.48841839222075 247.73626612044632 247.20906494520506 246.84960953345563 246.61112438044333 246.45711312151485 246.36027923676613 246.30098942341615 246.26563103564015 246.2450893522607 246.23346218875324 246.2270491865395 246.22360213036518 246.2217962920105 246.22087416119666 246.2204151481955 246.22024192645173 246.2205228176435 246.22110165375597 246.22226450077474 246.2245417374537 246.22888861137162 246.2369756524066 246.25163794066245 246.27754176136625 246.3221299813326 246.39689659180726 246.51900762873979 246.71322139322893 247.01395977890823 247.4672460146852 248.1320656950129 249.0805568031994 250.39633603025385 252.17027985911216 254.4932557881294 257.44567889903533 261.084348687069 265.4277396079224 270.44165093958975 276.02769060218594 282.0172797114758 288.17356084775804 294.20270613913715 299.7747202299746 304.5521359543472 308.2233437618172 310.5360627362928 311.32598241911455 310.53606276619246 308.2233438213891 304.5521360428524 299.77472034667414 294.20270628300784 288.17356101794724 282.0172799071877 276.02769082279525 270.44165118469857 265.427739877417 261.08434898112 257.44567921787007 254.49325613223104 252.1702802288786 250.39633642611142 249.08055722543233 248.13206614373485 247.4672464897825 247.01396028006823 246.71322191982637 246.51900817995042 246.3968971664658 246.32213057807482 246.2775423785721 246.25163857651293 246.23697630482695 246.22888927817334 246.2245424162494 246.22226518906328 246.2211023488657 246.22052351693125 246.2202979430878 246.22064361347006 246.22135594046765 246.22278696318153 246.22558937719285 246.2309387310119 246.24089081509905 246.25893454074506 246.2908123401201 246.34568356710568 246.43769297737228 246.58796546824564 246.82696914369248 247.19706433487025 247.75488822843735 248.57302978006544 249.74026356126635 251.35949009089413 253.54254394569938 256.4012486457924 260.0345647399164 264.51239092265104 269.85746226081204 276.02769060218594 282.9019925129271 290.2729111511103 297.8489646239585 305.26856196084873 312.125603699099 318.0047954035618 322.52266358336254 325.36874585544024 326.3408381953225 325.3687458840325 322.52266364020596 318.0047954878606 312.1256038098868 305.2685620971024 297.8489647844275 290.27291133488507 282.90199271915503 276.02769083041227 269.8574625108094 264.5123911943626 260.03456503374 256.4012489620692 253.54254428485564 251.35949045341303 249.74026394746053 248.57303019013386 247.7548886623516 247.19706479243135 246.826969624332 246.58796597125306 246.43769350169597 246.34568411155195 246.29081290323944 246.25893512086057 246.2408914103065 246.23093933935016 246.22558999644505 246.22278759107394 246.22135657464125 246.22064425142375 246.22035799893786 246.22077312832928 246.2216285900103 246.22334716214198 246.22671269369496 246.23313694922678 246.24508881187873 246.26675825858246 246.30504161196205 246.37093871624577 246.48143658942635 246.66190498825975 246.94893430990493 247.39339681564002 248.06331042859082 249.04585020653138 250.44762917780562 252.3922248009141 255.0139438114881 258.4470796666546 262.8104781531455 268.18808348341156 274.6071991330155 282.0172797114758 290.2729111511103 299.12495001170936 308.2233437188436 317.13384282805333 325.36874581866255 332.4293085503398 337.85500196127396 341.27297902698 342.4404046315048 341.27297905426485 337.8550020153889 332.429308630489 325.36874592365234 317.13384295669 308.22334386976286 299.1249501837744 290.2729113434116 282.01727992338806 274.60719936414085 268.1880837338068 262.8104784229812 258.44707995632865 255.0139441214837 252.39222513171438 250.44762952975165 249.04585057990738 248.0633108234252 247.39339723173384 246.94893474691713 246.6619054454798 246.48143706600158 246.3709392110393 246.30504212369493 246.26675878574832 246.24508935277228 246.23313750202902 246.2267132564448 246.22334773273622 246.2216291662889 246.2207737080753 246.22041972129594 246.22090624276436 246.22190882258946 246.22392294676808 246.22786726769712 246.23539633982804 246.24940363558943 246.27479970832994 246.31966688429551 246.39689671944916 246.52639759510225 246.7379022630415 247.07429379895495 247.5951932836462 248.38031610612714 249.53182936161548 251.17468098482001 253.4537008193482 256.5262931663638 260.549846765001 265.66364605197606 271.9660716485959 279.4891225791536 288.17356084775804 297.8489646239585 308.2233437188436 318.8864448373664 329.32933795422616 338.98044848157764 347.25526014398645 353.6140438294276 357.61983168928884 358.9880267406131 357.6198317151526 353.61404388070036 347.2552602197019 338.98044858054203 329.32933807507527 318.886444978736 308.2233438793694 297.84896480256054 288.17356104375415 279.4891227921459 271.9660718784707 265.663646298847 260.5498470293229 256.5262934485914 253.45370112002146 251.17468130433687 249.53182970026015 248.38031646398488 247.59519366060334 247.07429419472726 246.7379026770321 246.52639802657222 246.39689716740372 246.31966734754096 246.27480018555886 246.24940412521022 246.23539684022066 246.22786777709942 246.2239234632758 246.2219093442415 246.2209067675428 246.22048016675663 246.22103660598154 246.22218326577593 246.2244868384827 246.22899799596024 246.23760906871456 246.25362935004108 246.2826750888477 246.33399012227875 246.42231865155853 246.57043009106525 246.81233008570254 247.19706443696103 247.79282236985355 248.6907751701084 250.00777236383038 251.88671815054707 254.49325586731229 258.0074103837359 262.60918877108867 268.45789202912556 275.6660390559922 284.2702274549856 294.20270613913715 305.26856196084873 317.13384282805333 329.32933795422616 341.27297899196446 352.31105038307714 361.77503503181555 369.04763936823565 373.6290989043181 375.19391723159936 373.6290989287039 369.04763941643887 361.7750351029835 352.3110504758456 341.27297910491234 329.3293380858187 317.1338429769831 305.268562125922 294.20270631955816 284.2702276502996 275.6660392660855 268.4578922541118 262.6091890113658 258.00741063975863 254.49325613953542 251.88671843945374 250.00777266973324 248.69077549314954 247.792822710033 247.19706479399454 246.81233045910696 246.57043048018687 246.42231905551628 246.3339905399926 246.28267551915238 246.25362979154391 246.2376095199092 246.22899845525507 246.2244873041724 246.2221837361268 246.22103707914616 246.2205360297398 246.2211570855057 246.22243690109724 246.22500797626904 246.23004299261882 246.23965402847546 246.25753467030944 246.28995335664487 246.34722736946702 246.44581308729627 246.6111240333574 246.8811147739208 247.31052657699883 247.97546717309802 248.97769515587487 250.4476292571022 252.5447684928585 255.45399160971863 259.37622894902205 264.51239098682726 271.04027762558735 279.0854740727881 288.68882784539824 299.7747202299746 312.125603699099 325.36874581866255 338.98044848157764 352.31105038307714 364.63092294187834 375.19391720385977 383.3110560962742 388.4245397479199 390.17107332841897 388.42453977065725 383.3110561412942 375.19391727008235 364.6309230281098 352.3110504877827 338.98044860322256 325.36874595588256 312.1256038507004 299.77472039510474 288.6888280235455 279.0854742638388 271.0402778295984 264.5123912041965 259.3762291801474 255.4539918551401 252.54476875300242 250.44762953233803 248.97769544637316 247.97546747883035 247.31052689779466 246.88111510938225 246.61112438291602 246.44581345012782 246.347227744662 246.28995374312328 246.25753506684913 246.2396544337122 246.23004340515993 246.22500839455134 246.22243732355753 246.22115751049552 246.22058392982044 246.22126038748263 246.22265437014573 246.22545480046634 246.23093897066374 246.2414073695663 246.26088307470718 246.29619370850145 246.35857691900048 246.4659570965296 246.64601480940152 246.94009040837673 247.40780842474334 248.1320658741265 249.22369885264808 250.82476025791325 253.10897741491658 256.2777214098079 260.54984682582347 266.1441866089769 273.2544015240667 282.0172797638854 292.47731269897315 304.5521359543472 318.0047954035618 332.4293085503398 347.25526014398645 361.77503503181555 375.19391720385977 386.69919655678353 395.5404349578788 401.1100733017464 403.0124085892869 401.1100733227785 395.54043499943134 386.6991966178902 375.1939172832132 361.7750351279946 347.25526025551324 332.4293086757932 318.00479554174814 304.5521361044138 292.4773128604653 282.01727993657573 273.2544017080688 266.14418680463194 260.5498470335293 256.27772163007614 253.10897764820197 250.8247605045 249.223699112792 248.13206614782757 247.40780871185945 246.94009070856683 246.646015122154 246.46595742116236 246.3585772546893 246.29619405425154 246.26088342946696 246.24140773211363 246.23093933971964 246.22545517469499 246.22265474809763 246.22126076767984 246.22062074564522 246.2213397769345 246.22282149128884 246.2257981696542 246.2316274922472 246.2427547321728 246.26345616448486 246.3009891167459 246.36729849289264 246.48143677772018 246.67282665164424 246.985410273452 247.48256472078052 248.2524042392214 249.41274053684174 251.11456679253277 253.5425440833173 256.91071704283553 261.4517141482768 267.3981408777985 274.9558462846654 284.27022750205197 295.3885760220149 308.2233437618172 322.52266358336254 337.85500196127396 353.6140438294276 369.04763936823565 383.3110560962742 395.5404349578788 404.93810803399936 410.85827870782526 412.8803399045762 410.85827872703834 404.9381080718571 395.54043501358535 383.31105616857906 369.0476394556608 353.61404393066573 337.85500207490395 322.52266370824753 308.2233438971614 295.38857616730667 284.27022765717766 274.95584644968187 267.3981410529899 261.45171433404107 256.91071723962744 253.54254429153474 251.11456701254522 249.41274076884815 248.2524044832502 247.482564976718 246.98541054101398 246.67282693040437 246.48143706702476 246.36729879205956 246.30098942489408 246.26345648061954 246.2427550552708 246.23162782114323 246.22579850315455 246.2228218280861 246.2213401157497 246.22064395021047 246.22138980118925 246.222926783079 246.22601449077902 246.23206124588216 246.24360352995376 246.26507712274187 246.304010049455 246.37279275783737 246.4911883886277 246.68971708548884 247.01396004564597 247.52965830586945 248.3282127649766 249.53182949678913 251.29713371169768 253.81567432778033 257.3094798236001 262.0198556969622 268.1880835886856 276.0276907025714 285.68949747127095 297.22255935520576 310.5360627362928 325.36874585544024 341.27297902698 357.61983168928884 373.6290989043181 388.4245397479199 401.1100733017464 410.85827870782526 416.9992711955806 419.0967550854874 416.999271212861 410.8582787419313 401.1100733518823 388.4245398128919 373.62909898293253 357.6198317801246 341.2729791288434 325.36874596725124 310.53606285731246 297.22255948503613 285.6894976096847 276.0276908495685 268.18808374460707 262.01985586220604 257.30947999856414 253.81567451283408 251.29713390712536 249.53182970284652 248.3282129816637 247.52965853312944 247.01396028319462 246.68971733292824 246.49118864544627 246.37279302340983 246.30401032298553 246.26507740337783 246.24360381675723 246.23206153785839 246.22601478681955 246.22292708204697 246.22139010194778 246.2206518977379 246.22140690904732 246.22296276765547 246.22608839774273 246.23220941762753 246.24389346153924 246.2656307887976 246.3050418826504 246.37466936832504 246.4945191143168 246.6954861079318 247.0237113673919 247.54574335043975 248.35410552724292 249.57250488723966 251.35949028677655 253.90896321734613 257.4456790761026 262.21390703655953 268.4578921222919 276.3937840444141 286.1742555881723 297.8489647052446 311.32598241911455 326.3408381953225 342.4404046315048 358.9880267406131 375.19391723159936 390.17107332841897 403.0124085892869 412.8803399045762 419.0967550854874 421.2199999382681 419.09675510083514 412.8803399349306 403.0124086337953 390.1710733861719 375.1939173014031 358.98802682127393 342.44040472188584 326.34083829451424 311.3259825264349 297.84896482023885 286.1742557107267 276.3937841745855 268.45789226030774 262.2139071827608 257.44567923083036 253.90896338105517 251.35949045963739 249.57250506945124 248.3541057188621 247.54574355138124 247.02371157742834 246.69548632672212 246.49451934140626 246.37466960311679 246.30504212451916 246.26563103694755 246.24389371514616 246.23220967578192 246.22608865947825 246.22296303203422 246.22140717498925 246.22064401691622 246.2213898677529 246.22292684924474 246.22601455631948 246.23206131054155 246.24360359347628 246.26507718490015 246.3040101100785 246.37279281672716 246.49118844561323 246.68971714045642 247.01396009848193 247.5296583564885 248.32821281332193 249.53182954288914 251.29713375555238 253.81567436947498 257.30947986321996 262.01985573470625 268.18808362455377 276.02769073679116 285.68949750401276 297.2225593865265 310.53606276619246 325.3687458840325 341.27297905426485 357.6198317151526 373.6290989287039 388.42453977065725 401.1100733227785 410.85827872703834 416.999271212861 419.09675510083514 416.9992712263329 410.8582787535842 401.1100733618299 388.42453982130473 373.6290989899243 357.61983178592266 341.2729791335614 325.3687459711166 310.5360628604957 297.2225594875941 285.6894976117879 276.0276908512738 268.18808374602816 262.01985586339975 257.30947999947364 253.81567451357304 251.29713390777906 249.5318297033581 248.32821298209004 247.5296585334705 247.01396028347884 246.6897173331556 246.49118864564522 246.37279302355194 246.30401032312764 246.2650774034631 246.2436038168425 246.23206153791523 246.22601478684797 246.2229270820754 246.2213901019762 246.2206208792841 246.22133991028917 246.22282162387611 246.2257983009625 246.23162762179336 246.24275485944523 246.26345628905722 246.3009892382203 246.36729861089958 246.4814368919186 246.67282676177837 246.98541037929445 247.48256482216075 248.25240433608258 249.41274062915545 251.11456688035585 253.54254416676343 256.9107171221321 261.45171422365115 267.3981409495349 274.9558463529912 284.27022756725137 295.3885760843153 308.2233438213891 322.52266364020596 337.8550020153889 353.61404388070036 369.04763941643887 383.3110561412942 395.54043499943134 404.9381080718571 410.8582787419313 412.8803399349306 410.8582787535842 404.93810809487866 395.54043503319633 383.3110561851205 369.0476394694738 353.61404394209126 337.8550020842831 322.5226637159214 308.223343903471 295.3885761724226 284.2702276613272 274.9558464530925 267.3981410557752 261.4517143363148 256.91071724144643 253.5425442930695 251.11456701379578 249.41274076987133 248.25240448410284 247.48256497740013 246.9854105415824 246.67282693085912 246.48143706739424 246.36729879234377 246.30098942512146 246.2634564808185 246.2427550554129 246.23162782128534 246.22579850323982 246.22282182817136 246.22134011580656 246.22058413090403 246.22126058816832 246.22265456966613 246.22545499805406 246.23093916557983 246.24140756107178 246.26088326217678 246.29619389128146 246.3585770965509 246.46595726833883 246.6460149751001 246.94009056762357 247.40780857728265 248.13206601978777 249.2236989914597 250.82476038990367 253.10897754031316 256.27772152878117 260.5498469388282 266.14418671641096 273.25440162627115 282.01727986120136 292.47731279179845 304.5521360428524 318.0047954878606 332.429308630489 347.2552602197019 361.7750351029835 375.19391727008235 386.6991966178902 395.54043501358535 401.1100733518823 403.0124086337953 401.1100733618299 395.54043503319633 386.6991966467098 375.193917307599 361.7750351484014 347.25526027239573 332.42930868971985 318.0047955531168 304.55213611373614 292.4773128680823 282.01727994277167 273.25440171318473 266.1441868087815 260.5498470369399 256.27772163286147 253.10897765050413 250.82476050640426 249.22369911432676 248.13206614907813 247.40780871291105 246.94009070941948 246.64601512283613 246.46595742170237 246.35857725511562 246.29619405462103 246.26088342975117 246.241407732341 246.23093933989017 246.2254551748371 246.2226547482113 246.2212607677651 246.22053629900708 246.22115735426138 246.22243716828973 246.22500824084673 246.2300432536438 246.23965428492454 246.2575349213584 246.28995360141263 246.34722760724304 246.44581331739843 246.61112425521728 246.88111498708363 247.31052678115196 247.97546736804253 248.97769534158232 250.447629433601 252.54476866037606 255.45399176859598 259.37622909971395 264.51239112978845 271.04027776132943 279.0854742017658 288.68882796806633 299.77472034667414 312.1256038098868 325.36874592365234 338.98044858054203 352.3110504758456 364.6309230281098 375.1939172832132 383.31105616857906 388.4245398128919 390.1710733861719 388.42453982130473 383.3110561851205 375.193917307599 364.63092305982843 352.31105051438544 338.98044862533465 325.3687459741293 312.1256038656502 299.7747204073829 288.6888280336068 279.0854742720811 271.04027783636275 264.5123912097103 259.37622918469486 255.45399185886333 252.54476875607196 250.44762953483914 248.97769544844795 247.97546748050723 247.31052689918732 246.8811151104907 246.6111243837971 246.44581345086678 246.34722774525886 246.28995374357802 246.2575350672186 246.23965443402483 246.2300434053873 246.22500839472187 246.22243732369964 246.2211575106092 246.22048050517392 246.2210369437167 246.22218360155 246.22448717098828 246.2289983239752 246.23760939101675 246.25362966552206 246.28267539645586 246.33399042107618 246.42231894069258 246.5704303698538 246.8123303535203 247.19706469343853 247.79282261467816 248.69077540319483 250.00777258526392 251.88671836052666 254.49325606623583 258.00741057211496 262.6091889494065 268.4578921980642 275.6660392161201 284.2702276068144 294.20270628300784 305.2685620971024 317.13384295669 329.32933807507527 341.27297910491234 352.3110504877827 361.7750351279946 369.0476394556608 373.62909898293253 375.1939173014031 373.6290989899243 369.0476394694738 361.7750351484014 352.31105051438544 341.27297913725624 329.32933811276246 317.13384299932255 305.2685621443961 294.20270633473535 284.2702276627483 275.6660392763173 268.45789226252464 262.60918901824385 258.007410645443 254.493256144225 251.8867184433191 250.00777267288805 248.69077549573592 247.7928227121362 247.19706479572827 246.81233046049962 246.57043048132374 246.42231905642578 246.33399054076 246.28267551974923 246.25362979199866 246.2376095203071 246.2289984555677 246.2244873044282 246.22218373629732 246.22103707928827 246.22042012994328 246.2209066506159 246.22190922805356 246.22392334831 246.22786766378206 246.23539672903493 246.2494040165256 246.27480007977326 246.3196672450807 246.39689706855302 246.52639793167214 246.73790258636686 247.0742941084958 247.59519357906146 248.38031638724627 249.53182962849533 251.17468123768796 253.45370105857373 256.5262933924301 260.5498469786186 265.66364625382704 271.9660718393624 279.4891227594041 288.17356101794724 297.8489647844275 308.22334386976286 318.886444978736 329.3293380858187 338.98044860322256 347.25526025551324 353.61404393066573 357.6198317801246 358.98802682127393 357.61983178592266 353.61404394209126 347.25526027239573 338.98044862533465 329.32933811276246 318.8864450102841 308.2233439055742 297.84896482427473 288.1735610616598 279.4891228069252 271.9660718906352 265.6636463089083 260.54984703762204 256.5262934554126 253.45370112564896 251.1746813089696 249.53182970406866 248.38031646708285 247.5951936631613 247.07429419680204 246.7379026787374 246.52639802793647 246.39689716851217 246.31966734845045 246.2748001862694 246.24940412577865 246.2353968406754 246.22786777744048 246.22392346356003 246.22190934446888 246.22090676771333 246.22035847909422 246.22077360754773 246.221629066415 246.22334763391393 246.22671315907203 246.23313740650366 246.2450892594638 246.2667586949978 246.305042035815 246.37093912637104 246.48143698480075 246.66190536803063 246.9489346734186 247.39339716244172 248.0633107584816 249.04585051948283 250.44762947401668 252.3922250808111 255.01394407561105 258.4470799156856 262.8104783877951 268.1880837044188 274.6071993410624 282.0172799071877 290.27291133488507 299.1249501837744 308.2233438793694 317.1338429769831 325.36874595588256 332.4293086757932 337.85500207490395 341.2729791288434 342.44040472188584 341.2729791335614 337.8550020842831 332.42930868971985 325.3687459741293 317.13384299932255 308.2233439055742 299.124950213674 290.272911368309 282.0172799440222 274.6071993812507 268.18808374796083 262.81047843469094 258.44707996599203 255.0139441294702 252.3922251382798 250.4476295351802 249.0458505843696 248.0633108270916 247.39339723474654 246.9489347493614 246.6619054474693 246.4814370676216 246.3709392123467 246.30504212474654 246.26675878660097 246.2450893534544 246.23313750256904 246.22671325687114 246.22334773307728 246.2216291665447 246.22077370827427 246.22029849603214 246.2206441653344 246.22135648912032 246.22278750649093 246.22558991314102 246.23093925763774 246.24089133052675 246.25893504329773 246.29081282823455 246.3456840393608 246.4376934326028 246.5879659054568 246.8269695621169 247.19706473393947 247.75488860786717 248.5730301397706 249.7402639014458 251.3594904118889 253.54254424810637 256.4012489302937 260.03456500730783 264.5123911736716 269.8574624963143 276.02769082279525 282.90199271915503 290.2729113434116 297.84896480256054 305.268562125922 312.1256038507004 318.00479554174814 322.52266370824753 325.36874596725124 326.34083829451424 325.3687459711166 322.5226637159214 318.0047955531168 312.1256038656502 305.2685621443961 297.84896482427473 290.272911368309 282.90199274706515 276.0276908536612 269.85746253013616 264.51239121044927 260.0345650470414 256.4012489730968 253.54254429400743 251.35949046094478 249.7402639537133 248.5730301952782 247.75488866658642 247.19706479587038 246.82696962714576 246.5879659735268 246.4376935035718 246.3456841130583 246.29081290443315 246.2589351218269 246.2408914111023 246.23093933997544 246.22558999692822 246.22278759147184 246.22135657492547 246.22064425167954 246.22024255354833 246.22052344351798 246.22110227596403 246.2222651169574 246.22454234525196 246.228889208597 246.2369762369559 246.25163851057457 246.27754231487904 246.32213051688288 246.39689710800235 246.51900812444282 246.71322186753042 247.01396023115447 247.4672464444783 248.13206610223915 249.08055718797252 250.39633639291486 252.1702802002011 254.49325610838522 257.4456791992254 261.08434896810286 265.4277398705958 270.44165118469857 276.02769083041227 282.01727992338806 288.17356104375415 294.20270631955816 299.77472039510474 304.5521361044138 308.2233438971614 310.53606285731246 311.3259825264349 310.5360628604957 308.223343903471 304.55213611373614 299.7747204073829 294.20270633473535 288.1735610616598 282.0172799440222 276.0276908536612 270.4416512105055 265.4277398989607 261.0843489990825 257.4456792328199 254.49325614465133 252.17028023916725 250.39633643463793 249.0805572324809 248.13206614953287 247.46724649455734 247.01396028399043 246.71322192303802 246.5190081825368 246.396897168569 246.32213057978012 246.27754237993634 246.25163857759296 246.23697630570803 246.22888927888388 246.22454241681783 246.2222651894896 246.2211023492352 246.22052351721547 246.22019234043358 246.22041508583828 246.22087409929418 246.22179623081857 246.223602070168 246.22704912756444 246.23346213128454 246.2450892964973 246.26563098186628 246.30098937183075 246.36027918765342 246.45711307504536 246.61112433684443 246.8496094929547 247.20906490802946 247.736266086795 248.48841836234953 249.53182966893942 250.93856494701484 252.7806820121398 255.12194992621863 258.0074106199203 261.4517143139185 265.427739877417 269.8574625108094 274.60719936414085 279.4891227921459 284.2702276502996 288.6888280235455 292.4773128604653 295.38857616730667 297.22255948503613 297.84896482023885 297.2225594875941 295.3885761724226 292.4773128680823 288.6888280336068 284.2702276627483 279.4891228069252 274.6071993812507 269.85746253013616 265.4277398989607 261.4517143377359 258.00741064595456 255.12194995455508 252.7806820427784 250.93856497998402 249.53182970429603 248.48841840009356 247.7362661269549 247.20906495054834 246.84960953783258 246.61112438402446 246.4571131244423 246.36027923915356 246.3009894253204 246.26563103717493 246.24508935348283 246.233462189748 246.2270491873353 246.22360213099046 246.22179629249368 246.22087416159457 246.22041514850815 246.22014884244837 246.22032121907355 246.22067643716548 246.22139004979394 246.22278753994328 246.22545512427487 246.23041797402522 246.23941592195825 246.25531257529744 246.2826754745303 246.32855825520284 246.4034953747257 246.52268051363652 246.70723770845893 246.98541050602685 247.3933972009247 247.97546744898756 248.78293516232617 249.8715694439453 251.29713388313743 253.10897762751097 255.3419574056135 258.00741062605937 261.08434898112 264.5123911943626 268.1880837338068 271.9660718784707 275.6660392660855 279.0854742638388 282.01727993657573 284.27022765717766 285.6894976096847 286.1742557107267 285.6894976117879 284.2702276613272 282.01727994277167 279.0854742720811 275.6660392763173 271.9660718906352 268.18808374796083 264.51239121044927 261.0843489990825 258.00741064595456 255.3419574274698 253.10897765129994 251.29713390891592 249.87156947177016 248.78293519219739 247.97546748090514 247.39339723488865 246.98541054203716 246.70723774645876 246.52268055356902 246.40349541653404 246.32855829883016 246.2826755198345 246.25531262216484 246.23941597024674 246.23041802353583 246.22545517489394 246.22278759147184 246.22139010206146 246.2206764899446 246.2203212721653 246.22011240232223 246.22024258259532 246.22051084628268 246.22104977247838 246.2221051686511 246.2241197504691 246.227867735689 246.2346630604738 246.24666834461945 246.26733303242204 246.3019840878013 246.35857722004323 246.44858682229554 246.5879659415808 246.7980443378442 247.1061592624214 247.54574352537537 248.15554981721536 248.97769542554005 250.05429347391868 251.42261284657414 253.1089776330532 255.1219499379568 257.44567921787007 260.03456503374 262.8104784229812 265.663646298847 268.4578922541118 271.0402778295984 273.2544017080688 274.95584644968187 276.0276908495685 276.3937841745855 276.0276908512738 274.9558464530925 273.25440171318473 271.04027783636275 268.45789226252464 265.6636463089083 262.81047843469094 260.0345650470414 257.4456792328199 255.12194995455508 253.10897765129994 251.42261286652618 250.05429349557602 248.9776954489027 248.15554984234015 247.5457435522339 247.10615929104205 246.7980443681986 246.58796597361206 246.4485868560037 246.35857725531457 246.3019841246074 246.26733307064924 246.24666838415405 246.2346631012021 246.22786777749732 246.2241197931585 246.2221052121363 246.22104981656045 246.22051089079108 246.22024262738793 246.22008283516772 246.22017877724602 246.22037648594184 246.22077367124078 246.22155149176237 246.2230362261868 246.22579846819585 246.23080658062776 246.23965440088512 246.25488414808706 246.28042176169362 246.3221305501647 246.38846707033952 246.49118861912777 246.6460150976545 246.87309389103444 247.19706477344565 247.6464882380276 248.25240446517398 249.0458505664639 250.0542934789209 251.2971338936819 252.78068202893704 254.49325613223104 256.4012489620692 258.44707995632865 260.5498470293229 262.6091890113658 264.5123912041965 266.14418680463194 267.3981410529899 268.18808374460707 268.45789226030774 268.18808374602816 267.3981410557752 266.1441868087815 264.5123912097103 262.60918901824385 260.54984703762204 258.44707996599203 256.4012489730968 254.49325614465133 252.7806820427784 251.29713390891592 250.05429349557602 249.04585058456854 248.25240448478496 247.64648825908807 247.19706479598406 246.8730939150792 246.64601512314877 246.49118864604313 246.38846709864754 246.32213057980854 246.28042179261644 246.2548841802036 246.2396544341101 246.23080661487592 246.22579850332508 246.2230362620834 246.2215515283127 246.2207737083027 246.2203765233448 246.22017881487636 246.22005957216842 246.22012857549743 246.22027077128868 246.22055643443647 246.221115857532 246.222183706284 246.22417036241632 246.2277722904589 246.23413580804112 246.2450893266243 246.26345645512527 246.29345419443135 246.34116465807867 246.4150439133895 246.5263980067623 246.68971731354463 246.92272321925464 247.24595696362306 247.6817432237817 248.2524044696362 248.97769543500448 249.87156945906565 250.93856496850165 252.1702802288786 253.54254428485564 255.0139441214837 256.5262934485914 258.00741063975863 259.3762291801474 260.5498470335293 261.45171433404107 262.01985586220604 262.2139071827608 262.01985586339975 261.4517143363148 260.5498470369399 259.37622918469486 258.007410645443 256.5262934554126 255.0139441294702 253.54254429400743 252.17028023916725 250.93856497998402 249.87156947177016 248.9776954489027 248.25240448478496 247.6817432401526 247.24595698124452 246.92272323812665 246.6897173336672 246.526398028107 246.4150439359279 246.34116468175395 246.2934542192435 246.26345648098902 246.24508935351125 246.23413583586597 246.22777231910797 246.22417039180436 246.22218373635417 246.22111588811376 246.22055646544456 246.2202708026094 246.2201286070171 246.2200418078662 246.22009023940325 246.22019004270217 246.22039054176784 246.22078318537123 246.22153267881873 246.22292705766114 246.2254551510197 246.22992152737177 246.23760949796764 246.25050087542522 246.27155545563974 246.3050421050787 246.3568959025939 246.43505224809445 246.54968153361617 246.71322190740608 246.94009069512336 247.24595696763052 247.64648824649726 248.15554983077251 248.78293518165293 249.53182969477476 250.39633642611142 251.35949045341303 252.39222513171438 253.45370112002146 254.49325613953542 255.4539918551401 256.27772163007614 256.91071723962744 257.30947999856414 257.44567923083036 257.30947999947364 256.91071724144643 256.27772163286147 255.45399185886333 254.493256144225 253.45370112564896 252.3922251382798 251.35949046094478 250.39633643463793 249.53182970429603 248.78293519219739 248.15554984234015 247.64648825908807 247.24595698124452 246.94009070981738 246.71322192312329 246.54968155035655 246.43505226588644 246.35689592138064 246.3050421248318 246.27155547633075 246.25050089702572 246.23760952036395 246.2299215505639 246.22545517489394 246.22292708218907 246.22153270388668 246.2207832108655 246.2203905676316 246.22019006882172 246.22009026569333 246.22002863221508 246.22006180513122 246.22013016483388 246.22026749554928 246.2205364345218 246.22104979575576 246.22200486745098 246.22373647030497 246.22679568881358 246.23206151944112 246.24089139322504 246.25531260499812 246.2782490899656 246.31376604564304 246.36729877787712 246.44581343716752 246.5578294605385 246.71322191093037 246.9227232268148 247.1970647855533 247.5457435426842 247.97546747217967 248.48841839222075 249.08055722543233 249.74026394746053 250.44762952975165 251.17468130433687 251.88671843945374 252.54476875300242 253.10897764820197 253.54254429153474 253.81567451283408 253.90896338105517 253.81567451357304 253.5425442930695 253.10897765050413 252.54476875607196 251.8867184433191 251.1746813089696 250.4476295351802 249.7402639537133 249.0805572324809 248.48841840009356 247.97546748090514 247.5457435522339 247.19706479598406 246.92272323812665 246.71322192312329 246.55782947358406 246.44581345109415 246.367298792628 246.31376606124655 246.27824910636494 246.25531262219326 246.24089141113072 246.23206153805734 246.22679570805508 246.22373649017175 246.22200488782934 246.22104981656045 246.22053645569596 246.22026751700767 246.22013018654806 246.2200618269591 246.2200191349938 246.22004130856962 246.2200870018981 246.2201787971128 246.22035856254035 246.2207017057341 246.22134009900932 246.22249754463058 246.22454240090167 246.22806221048504 246.2339643133684 246.24360380280217 246.25893510829818 246.28267550695946 246.31845808957502 246.3709392009496 246.4458134402939 246.54968154029527 246.68971732431646 246.873093906439 247.1061592831408 247.39339722769796 247.73626612044632 248.13206614373485 248.57303019013386 249.04585057990738 249.53182970026015 250.00777266973324 250.44762953233803 250.8247605045 251.11456701254522 251.29713390712536 251.35949045963739 251.29713390777906 251.11456701379578 250.82476050640426 250.44762953483914 250.00777267288805 249.53182970406866 249.0458505843696 248.5730301952782 248.13206614953287 247.7362661269549 247.39339723488865 247.10615929104205 246.8730939150792 246.6897173336672 246.54968155035655 246.44581345109415 246.3709392124604 246.31845810179635 246.28267551986292 246.25893512188375 246.24360381701302 246.23396432820454 246.2280622258896 246.22454241684625 246.22249756105833 246.2213401158634 246.22070172295764 246.22035858004813 246.22017881490478 246.2200870198606 246.22004132664583 246.22001247870227 246.2200269426023 246.22005674850885 246.22011662683408 246.22023388839474 246.22045772180147 246.22087414772477 246.22162915304438 246.22296301901707 246.22525900147716 246.22910896100646 246.2353968290225 246.2453974857969 246.26088341929199 246.28422450556457 246.31845809233192 246.367298783732 246.4350522575873 246.5263980204047 246.64601511604334 246.79804436169002 246.98541053609702 247.20906494520506 247.4672464897825 247.7548886623516 248.0633108234252 248.38031646398488 248.69077549314954 248.97769544637316 249.223699112792 249.41274076884815 249.53182970284652 249.57250506945124 249.5318297033581 249.41274076987133 249.22369911432676 248.97769544844795 248.69077549573592 248.38031646708285 248.0633108270916 247.75488866658642 247.46724649455734 247.20906495054834 246.98541054203716 246.7980443681986 246.64601512314877 246.526398028107 246.43505226588644 246.367298792628 246.31845810179635 246.28422451562585 246.2608834299217 246.24539749696663 246.23539684076067 246.2291089732278 246.22525901418166 246.2229630321479 246.2216291665731 246.22087416159457 246.2204577359839 246.2202339028614 246.2201166414997 246.22005676331656 246.22002695749526 246.2200079408221 246.22001714812401 246.22003612168646 246.2200742384832 246.22014888377353 246.22029136957445 246.22055645404745 246.2210370682038 246.22188616797735 246.22334772267493 246.22579849329222 246.2298011644933 246.2361672873337 246.24602517534035 246.260883421651 246.28267551207537 246.31376605394217 246.35689591458785 246.4150439296183 246.49118864021668 246.58796596826878 246.70723774159865 246.84960953345563 247.01396028006823 247.19706479243135 247.39339723173384 247.59519366060334 247.792822710033 247.97546747883035 248.13206614782757 248.2524044832502 248.3282129816637 248.3541057188621 248.32821298209004 248.25240448410284 248.13206614907813 247.97546748050723 247.7928227121362 247.5951936631613 247.39339723474654 247.19706479587038 247.01396028399043 246.84960953783258 246.70723774645876 246.58796597361206 246.49118864604313 246.4150439359279 246.35689592138064 246.31376606124655 246.28267551986292 246.2608834299217 246.24602518406581 246.2361672965139 246.22980117409983 246.2257985033535 246.2233477331057 246.22188617874917 246.2210370793167 246.22055646544456 246.22029138122736 246.2201488956538 246.220074250534 246.22003613385095 246.22001716034535 246.22000493058198 246.22001065030025 246.22002243702843 246.22004611588787 246.2200924868469 246.22018100153136 246.2203456766694 246.22064424261302 246.22117171818903 246.22207966143336 246.223602122805 246.22608865177597 246.23004339796924 246.23616728938006 246.2453974902307 246.2589351155173 246.27824910039638 246.30504211926115 246.34116467660962 246.3884670939011 246.44858685162674 246.5226805496184 246.61112438044333 246.71322191982637 246.826969624332 246.94893474691713 247.07429419472726 247.19706479399454 247.31052689779466 247.40780871185945 247.482564976718 247.52965853312944 247.54574355138124 247.5296585334705 247.48256497740013 247.40780871291105 247.31052689918732 247.19706479572827 247.07429419680204 246.9489347493614 246.82696962714576 246.71322192303802 246.61112438402446 246.52268055356902 246.4485868560037 246.38846709864754 246.34116468175395 246.3050421248318 246.27824910636494 246.25893512188375 246.24539749696663 246.2361672965139 246.23004340547257 246.22608865964878 246.22360213101888 246.22207966995987 246.22117172699976 246.22064425167954 246.22034568602015 246.22018101108105 246.22009249656713 246.22004612572178 246.22002244697603 246.2200106603047 246.22000298699726 246.22000645448824 246.22001360003276 246.2200279549924 246.22005606671578 246.22010972741657 246.2202095592003 246.22039056024195 246.2207103342456 246.22126076088705 246.22218372967507 246.22369114955669 246.2260886535097 246.2298011683018 246.23539683524686 246.24360381184027 246.25531261733315 246.2715554718117 246.2934542150371 246.3221305759432 246.35857725176186 246.4034954133224 246.45711312151485 246.51900817995042 246.58796597125306 246.6619054454798 246.7379026770321 246.81233045910696 246.88111510938225 246.94009070856683 246.98541054101398 247.01396028319462 247.02371157742834 247.01396028347884 246.9854105415824 246.94009070941948 246.8811151104907 246.81233046049962 246.7379026787374 246.6619054474693 246.5879659735268 246.5190081825368 246.4571131244423 246.40349541653404 246.35857725531457 246.32213057980854 246.2934542192435 246.27155547633075 246.25531262219326 246.24360381701302 246.23539684076067 246.22980117409983 246.22608865964878 246.22369115598 246.22218373635417 246.22126076782195 246.22071034140788 246.2203905676316 246.22020956681732 246.2201097351757 246.22005607461702 246.2200279630073 246.22001360813294 246.22000646264527 246.22000176535036 246.22000381676358 246.2200080441848 246.2200165367739 246.22003316805674 246.22006491446183 246.22012397631454 246.22023105893288 246.22042024147007 246.22074588116615 246.22129192167313 246.222183731153 246.22360212604508 246.2257984986355 246.2291089687656 246.23396432399812 246.24089140720852 246.2505008933309 246.26345647757842 246.28042178946163 246.3019841217084 246.32855829618694 246.36027923676613 246.3968971664658 246.43769350169597 246.48143706600158 246.52639802657222 246.57043048018687 246.61112438291602 246.646015122154 246.67282693040437 246.68971733292824 246.69548632672212 246.6897173331556 246.67282693085912 246.64601512283613 246.6111243837971 246.57043048132374 246.52639802793647 246.4814370676216 246.4376935035718 246.396897168569 246.36027923915356 246.32855829883016 246.3019841246074 246.28042179261644 246.26345648098902 246.25050089702572 246.24089141113072 246.23396432820454 246.2291089732278 246.2257985033535 246.22360213101888 246.22218373635417 246.22129192710167 246.22074588679365 246.22042024729652 246.22023106495828 246.22012398248205 246.22006492077145 246.22003317448005 246.22001654328247 246.2200080507502 246.22000382338584 246.2200010176951 246.22000220206692 246.22000464274024 246.22000954591255 246.22001914789726 246.22003747655276 246.2200715755826 246.22013339918675 246.22024262269835 246.22043062896245 246.2207458824167 246.22126076361553 246.2220796659524 246.2233477292972 246.2252590105721 246.22806222250742 246.2320615348741 246.2376095174081 246.24508935075434 246.25488417767406 246.26733306831866 246.28267551770287 246.30098942341615 246.32213057807482 246.34568411155195 246.3709392110393 246.39689716740372 246.42231905551628 246.44581345012782 246.46595742116236 246.48143706702476 246.49118864544627 246.49451934140626 246.49118864564522 246.48143706739424 246.46595742170237 246.44581345086678 246.42231905642578 246.39689716851217 246.3709392123467 246.3456841130583 246.32213057978012 246.3009894253204 246.2826755198345 246.26733307064924 246.2548841802036 246.24508935351125 246.23760952036395 246.23206153805734 246.2280622258896 246.22525901418166 246.2233477331057 246.22207966995987 246.22126076782195 246.22074588679365 246.22043063350992 246.22024262741635 246.22013340404686 246.22007158058483 246.22003748164025 246.22001915309843 246.22000955117056 246.2200046480551 246.2200022074102 246.22000057207987 246.22000123940668 246.22000261454252 246.22000537708277 246.22001078705486 246.22002111380155 246.22004032590374 246.22007515854506 246.22013669725612 246.22024262374995 246.22042024377222 246.2207103380257 246.2211717237881 246.22188617567963 246.2229630292489 246.22454241408934 246.22679570549712 246.22992154817646 246.23413583362066 246.23965443206373 246.24666838227822 246.25531262045953 246.26563103564015 246.2775423785721 246.29081290323944 246.30504212369493 246.31966734754096 246.3339905399926 246.347227744662 246.3585772546893 246.36729879205956 246.37279302340983 246.37466960311679 246.37279302355194 246.36729879234377 246.35857725511562 246.34722774525886 246.33399054076 246.31966734845045 246.30504212474654 246.29081290443315 246.27754237993634 246.26563103717493 246.25531262216484 246.24666838415405 246.2396544341101 246.23413583586597 246.2299215505639 246.22679570805508 246.22454241684625 246.2229630321479 246.22188617874917 246.22117172699976 246.22071034140788 246.22042024729652 246.22024262741635 246.22013670106463 246.22007516246725 246.2200403299112 246.22002111789428 246.22001079123285 246.2200053813176 246.22000261880578 246.22000124369836 246.22000031345505 246.22000068038474 246.22000143646127 246.22000295543242 246.22000592999933 246.22001160797356 246.2200221714191 246.22004132351944 246.22007515942613 246.220133401091 246.2202310621161 246.22039056493153 246.22064424909317 246.22103707687242 246.22162916424253 246.22249755886986 246.22373648809696 246.22545517298968 246.2277723173174 246.23080661322746 246.23466309969575 246.2394159688825 246.2450893522607 246.25163857651293 246.25893512086057 246.26675878574832 246.27480018555886 246.28267551915238 246.28995374312328 246.29619405425154 246.30098942489408 246.30401032298553 246.30504212451916 246.30401032312764 246.30098942512146 246.29619405462103 246.28995374357802 246.28267551974923 246.2748001862694 246.26675878660097 246.2589351218269 246.25163857759296 246.24508935348283 246.23941597024674 246.2346631012021 246.23080661487592 246.22777231910797 246.22545517489394 246.22373649017175 246.22249756105833 246.2216291665731 246.2210370793167 246.22064425167954 246.2203905676316 246.22023106495828 246.22013340404686 246.22007516246725 246.22004132664583 246.22002217463074 246.22001161127048 246.2200059333531 246.2200029588146 246.2200014399003 246.22000068382377 246.22000016729413 246.2200003641623 246.22000076987857 246.22000158491053 246.22000318098654 246.22000622764247 246.22001189565114 246.22002217212963 246.22004032746693 246.22007157822583 246.2201239802083 246.22020956462885 246.22034568394537 246.22055646348346 246.22087415974715 246.22134011410125 246.22200488618088 246.2229270806543 246.22417039038328 246.22579850201768 246.2278677763036 246.2304180224558 246.23346218875324 246.23697630482695 246.2408914103065 246.24508935277228 246.24940412521022 246.25362979154391 246.25753506684913 246.26088342946696 246.26345648061954 246.26507740337783 246.26563103694755 246.2650774034631 246.2634564808185 246.26088342975117 246.2575350672186 246.25362979199866 246.24940412577865 246.2450893534544 246.2408914111023 246.23697630570803 246.233462189748 246.23041802353583 246.22786777749732 246.22579850332508 246.22417039180436 246.22292708218907 246.22200488782934 246.2213401158634 246.22087416159457 246.22055646544456 246.22034568602015 246.22020956681732 246.22012398248205 246.22007158058483 246.2200403299112 246.22002217463074 246.22001189823752 246.22000623025727 246.22000318365818 246.2200015876106 246.22000077260705 246.2200003669192 246.22000008685512 246.22000018994092 246.22000040237066 246.22000082915824 246.2200016649228 246.22000326023758 246.2200062282109 246.22001160928096 246.2200211159616 246.22003747976441 246.22006491895246 246.22010973344197 246.2201810094326 246.22029137963574 246.22045773450597 246.22070172156498 246.22104981525305 246.22153270266455 246.2221837352173 246.2230362610318 246.2241197922206 246.22545517401286 246.2270491865395 246.22888927817334 246.23093933935016 246.23313750202902 246.23539684022066 246.2376095199092 246.2396544337122 246.24140773211363 246.2427550552708 246.24360381675723 246.24389371514616 246.2436038168425 246.2427550554129 246.241407732341 246.23965443402483 246.2376095203071 246.2353968406754 246.23313750256904 246.23093933997544 246.22888927888388 246.2270491873353 246.22545517489394 246.2241197931585 246.2230362620834 246.22218373635417 246.22153270388668 246.22104981656045 246.22070172295764 246.2204577359839 246.22029138122736 246.22018101108105 246.2201097351757 246.22006492077145 246.22003748164025 246.22002111789428 246.22001161127048 246.22000623025727 246.22000326234078 246.22000166705442 246.2200008313183 246.22000040455913 246.2200001921294 246.2200000437675 246.2200000964443 246.22000020499578 246.2200004230979 246.22000085018706 246.22000166540596 246.22000318203814 246.22000593176148 246.22001078969808 246.2200191516205 246.22003317305897 246.22005607325278 246.22009249525973 246.22014889440325 246.22023390166768 246.2203585789681 246.22053645467278 246.22078320989917 246.22111588720426 246.22155152748846 246.22210521136893 246.22278759078972 246.22360213036518 246.2245424162494 246.22558999644505 246.2267132564448 246.22786777709942 246.22899845525507 246.23004340515993 246.23093933971964 246.23162782114323 246.23206153785839 246.23220967578192 246.23206153791523 246.23162782128534 246.23093933989017 246.2300434053873 246.2289984555677 246.22786777744048 246.22671325687114 246.22558999692822 246.22454241681783 246.22360213099046 246.22278759147184 246.2221052121363 246.2215515283127 246.22111588811376 246.2207832108655 246.22053645569596 246.22035858004813 246.2202339028614 246.2201488956538 246.22009249656713 246.22005607461702 246.22003317448005 246.22001915309843 246.22001079123285 246.2200059333531 246.22000318365818 246.22000166705442 246.22000085186394 246.2200004248032 246.2200002067295 246.22000009817802 246.2200000213261 246.22000004759468 246.22000010172658 246.22000021047447 246.22000042346738 246.2200008300109 246.22000158633162 246.22000295756405 246.22000538009547 246.22000955000527 246.2200165421456 246.2200279619273 246.22004612467018 246.22007424953924 246.22011664056177 246.2201788140237 246.22026751621186 246.2203905668642 246.22055646473402 246.220773707649 246.2210498159636 246.22139010152145 246.2217962920105 246.22226518906328 246.22278759107394 246.22334773273622 246.2239234632758 246.2244873041724 246.22500839455134 246.22545517469499 246.22579850315455 246.22601478681955 246.22608865947825 246.22601478684797 246.22579850323982 246.2254551748371 246.22500839472187 246.2244873044282 246.22392346356003 246.22334773307728 246.22278759147184 246.2222651894896 246.22179629249368 246.22139010206146 246.22104981656045 246.2207737083027 246.22055646544456 246.2203905676316 246.22026751700767 246.22017881490478 246.2201166414997 246.220074250534 246.22004612572178 246.2200279630073 246.22001654328247 246.22000955117056 246.2200053813176 246.2200029588146 246.2200015876106 246.2200008313183 246.2200004248032 246.2200002118387 246.22000010309083 246.22000004895892 246.22000000996218 246.22000002274572 246.2200000490889 246.22000010203922 246.2200002056779 246.22000040353595 246.2200007716123 246.22000143890554 246.22000261783944 246.2200046471456 246.22000804986914 246.2200136072803 246.2200224461518 246.22003613308357 246.2200567625776 246.22008701915007 246.22013018589436 246.22019006822487 246.2202708020694 246.22037652283322 246.22051089033633 246.22067648951827 246.22087416119666 246.2211023488657 246.22135657464125 246.2216291662889 246.2219093442415 246.2221837361268 246.22243732355753 246.22265474809763 246.2228218280861 246.22292708204697 246.22296303203422 246.2229270820754 246.22282182817136 246.2226547482113 246.22243732369964 246.22218373629732 246.22190934446888 246.2216291665447 246.22135657492547 246.2211023492352 246.22087416159457 246.2206764899446 246.22051089079108 246.2203765233448 246.2202708026094 246.22019006882172 246.22013018654806 246.2200870198606 246.22005676331656 246.22003613385095 246.22002244697603 246.22001360813294 246.2200080507502 246.2200046480551 246.22000261880578 246.2200014399003 246.22000077260705 246.22000040455913 246.2200002067295 246.22000010309083 246.22000005016892 246.22000002382575 246.2200000043914 246.22000001046246 246.2200000229731 246.2200000481347 246.2200000973538 246.22000019133358 246.2200003661234 246.22000068305638 246.2200012429594 246.22000220669966 246.2200038226753 246.22000646196315 246.22001065967942 246.2200171597485 246.22002695692683 246.22004132610581 246.2200618264475 246.22009026521016 246.22012860656235 246.22017881447846 246.22024262701845 246.22032127182425 246.2204151481955 246.22052351693125 246.22064425142375 246.2207737080753 246.2209067675428 246.22103707914616 246.22115751049552 246.22126076767984 246.2213401157497 246.22139010194778 246.22140717498925 246.2213901019762 246.22134011580656 246.2212607677651 246.2211575106092 246.22103707928827 246.22090676771333 246.22077370827427 246.22064425167954 246.22052351721547 246.22041514850815 246.2203212721653 246.22024262738793 246.22017881487636 246.2201286070171 246.22009026569333 246.2200618269591 246.22004132664583 246.22002695749526 246.22001716034535 246.2200106603047 246.22000646264527 246.22000382338584 246.2200022074102 246.22000124369836 246.22000068382377 246.2200003669192 246.2200001921294 246.22000009817802 246.22000004895892 246.22000002382575 246.2200000113151

CELL_DATA 0

