# vtk DataFile Version 4.2
Higgs Field 2D Slice - phi
ASCII

DATASET STRUCTURED_POINTS
DIMENSIONS 64 64 1
ORIGIN 0 0 0
SPACING 1.5625 1.5625 1.5625

POINT_DATA 4096

SCALARS phi double 1
LOOKUP_TABLE default
246.21999997545623 246.21999997553664 246.2199999757307 246.21999997612036 246.21999997685737 246.21999997821513 246.21999998067173 246.21999998501016 246.21999999259432 246.2200000055544 246.22000002717988 246.2200000623553 246.22000011822328 246.2200002045501 246.22000033459278 246.22000052517615 246.22000079694595 246.2200011738901 246.22000168193208 246.22000234716333 246.22000319251327 246.22000423432317 246.22000547779513 246.22000691319778 246.22000851234296 246.22001022701198 246.2200119893597 246.2200137153497 246.22001531050918 246.22001667825543 246.22001772943455 246.22001839178708 246.22001861834445 246.220018392725 246.22001773128196 246.22001668106918 246.22001531423243 246.22001371998243 246.22001199490194 246.2200102334353 246.22000851964734 246.22000692138323 246.22000548683323 246.2200042441855 246.22000320319984 246.2200023586457 246.22000169421025 246.22000118687882 246.22000081070206 246.22000053961438 246.2200003496847 246.22000022032415 246.2200001345942 246.22000007932306 246.22000004468765 246.22000002360218 246.2200000111537 246.22000000402429 246.22000000008376 246.21999999805348 246.2199999970652 246.21999999664084 246.2199999965354 246.21999999659712 246.21999997553664 246.21999997573852 246.21999997612437 246.21999997689932 246.21999997839083 246.21999998118883 246.21999998629653 246.21999999552148 246.22000001168843 246.220000039422 246.2200000857917 246.2200001614549 246.22000028164382 246.22000046764347 246.22000074784626 246.22000115870605 246.22000174477037 246.2200025576467 246.22000365348256 246.2200050883631 246.22000691197564 246.22000915936718 246.2200118419463 246.2200149386214 246.22001838860385 246.22002208781927 246.22002588997228 246.22002961358646 246.22003305496452 246.2200360056245 246.22003827316615 246.220039701798 246.22004019008153 246.2200397027359 246.220038275042 246.22003600840983 246.22003305865934 246.2200296182192 246.2200258954861 246.22002209424258 246.22001839593665 246.22001494680686 246.2200118509844 246.2200091692295 246.2200069226622 246.22000509984548 246.22000366573232 246.22000257066384 246.22000175849806 246.22000117314428 246.2200007629666 246.2200004833891 246.22000029801472 246.22000017839423 246.2200001033279 246.22000005744135 246.22000003021938 246.22000001450718 246.22000000570856 246.22000000099877 246.21999999857024 246.21999999739137 246.21999999690064 246.21999999677058 246.2199999757307 246.21999997612437 246.21999997690546 246.21999997847436 246.21999998152074 246.21999998728668 246.21999999791603 246.22000001715207 246.22000005100563 246.22000010918313 246.22000020663037 246.22000036564012 246.22000061843428 246.22000100977206 246.22000159946958 246.22000246425492 246.22000369792988 246.22000540919387 246.220007716243 246.22001073720492 246.22001457667272 246.220019308475 246.22002495663435 246.22003147670753 246.22003874072584 246.22004652951256 246.22005453502243 246.2200623752445 246.22006962105363 246.2200758336657 246.2200806078344 246.22008361554435 246.2200846431692 246.22008361648227 246.22008060968182 246.22007583645103 246.22006962477687 246.22006237987725 246.22005454056466 246.22004653593586 246.22003874803022 246.22003148486456 246.22002496567245 246.2200193183089 246.22001458733087 246.22001074865886 246.22000772846434 246.2200054221826 246.22000371162915 246.22000247866472 246.2200016145615 246.22000102548927 246.22000063477677 246.22000038257946 246.22000022410973 246.2200001272025 246.22000006950816 246.22000003610935 246.22000001732806 246.2200000070682 246.22000000167174 246.219999998938 246.21999999768173 246.21999999715644 246.21999997612036 246.21999997689932 246.21999997847436 246.2199999816383 246.21999998780825 246.21999999953664 246.22000002128712 246.22000006060648 246.22000012999138 246.220000249329 246.220000449331 246.2200007758362 246.22000129502672 246.220002098877 246.22000331033166 246.2200050870273 246.22000762171496 246.22001113778813 246.22001587809513 246.22002208540343 246.22002997460868 246.22003969744947 246.22005130328913 246.22006470077247 246.22007962696972 246.22009563144192 246.22011208133983 246.22012819153366 246.22014308028332 246.22015584588422 246.22016565572272 246.22017183573837 246.2201739468405 246.22017183664786 246.22016565759856 246.22015584866955 246.22014308397814 246.22012819613798 246.22011208685365 246.22009563786523 246.22007963424568 246.22006470890108 246.2200513122988 246.22003970725495 246.2200299852384 246.22002209682896 246.22001589028804 246.22001115074843 246.2200076353858 246.22000510140867 246.22000332539517 246.22000211456577 246.22000131134078 246.2200007927187 246.2200004667535 246.2200002672915 246.22000014843707 246.22000007950692 246.22000004061388 246.2200000192613 246.2200000079024 246.2200000020735 246.2199999991938 246.21999999787454 246.21999997685737 246.21999997839083 246.21999998152074 246.21999998780825 246.22000000009524 246.2200000235001 246.22000006694532 246.22000014567857 246.22000028464566 246.22000052375506 246.2200009245649 246.22000157911032 246.22000261999327 246.22000423167995 246.22000666074155 246.22001022326032 246.22001530573434 246.22002235625152 246.22003186165682 246.22004430888913 246.22006012882485 246.220079625776 246.22010289873157 246.22012976446726 246.2201596957547 246.22019178935068 246.2202247760798 246.22025708162388 246.2202869377886 246.22031253637277 246.22033220772454 246.22034460008382 246.22034883307828 246.22034460102174 246.22033220957195 246.22031253912968 246.220286941455 246.22025708619978 246.22022478156518 246.22019179571714 246.22015970300222 246.22012977259587 246.22010290771283 246.2200796355815 246.22006013942615 246.22004432028623 246.2200318738213 246.22002236915498 246.22001531937676 246.22001023758486 246.2200066757198 246.2200042473119 246.22000263622206 246.22000159593597 246.220000941959 246.22000054166074 246.2200003030345 246.22000016452216 246.22000008624366 246.22000004316791 246.22000002013255 246.2200000081582 246.2200000021549 246.2199999992808 246.21999997821513 246.21999998118883 246.21999998728668 246.21999999953664 246.2200000235001 246.2200000691934 246.2200001541047 246.22000030799003 246.22000057980682 246.22000104751294 246.22000183171548 246.22000311235442 246.22000514906466 246.22000830278162 246.22001305605968 246.22002002742872 246.22002997330128 246.2200437704231 246.2200623716918 246.22008672996768 246.2201176883687 246.22015584253046 246.22020138614099 246.22025396061235 246.22031253421272 246.2203753392854 246.2204398922583 246.2205031121311 246.22056153866444 246.2206116333576 246.2206501287865 246.22067437956864 246.22068266283284 246.22067438047813 246.2206501306055 246.2206116361145 246.22056154233084 246.22050311667857 246.22043989771527 246.22037534565186 246.22031254143184 246.22025396868412 246.2202013950654 246.2201558522791 246.22011769891316 246.22008674130794 246.22006238379944 246.22004378326972 246.22002998685844 246.22002004169642 246.2200130710095 246.22000831835672 246.2200051652366 246.22000312912323 246.2200018490243 246.22000106536177 246.2200005981104 246.22000032677678 246.22000017328935 246.22000008877595 246.2200000434237 246.22000001980132 246.22000000783558 246.22000000199353 246.21999998067173 246.21999998629653 246.21999999791603 246.22000002128712 246.22000006694532 246.2200001541047 246.2200003161891 246.22000060994245 246.22000112883526 246.2200020219106 246.22000351930663 246.22000596482914 246.22000985420502 246.22001587673088 246.22002495404797 246.2200382673397 246.22005726116552 246.22008360991686 246.2201191333906 246.2201656512321 246.2202247737492 246.22029763832046 246.22038461489583 246.22048501863614 246.22059687918815 246.22071682085377 246.22084010049016 246.2209608342663 246.22107241401386 246.22116808194193 246.22124159814229 246.2212879107026 246.22130372925773 246.2212879116121 246.2212415999897 246.22116808469883 246.22107241765184 246.22096083881377 246.2208401059187 246.2207168271634 246.22059688637884 246.22048502665106 246.2203846237634 246.22029764801226 246.22022478423682 246.2201656625155 246.2201191454414 246.22008362270662 246.22005727466583 246.22003828152214 246.22002496891253 246.22001589222072 246.2200098702917 246.22000598148426 246.22000353653019 246.22000203964575 246.22000114705358 246.2200006286155 246.22000033526007 246.22000017357357 246.22000008678367 246.2200000414381 246.22000001837966 246.22000000698753 246.21999998501016 246.21999999552148 246.22000001715207 246.22000006060648 246.22000014567857 246.22000030799003 246.22000060994245 246.22000115728497 246.22000212419326 246.22000378843734 246.22000657894804 246.2200111364239 246.22001838479534 246.22002960869793 246.2200465257609 246.22007133734454 246.22010673566027 246.22015584125148 246.22022204574137 246.22030874027567 246.22041892596957 246.22055472262588 246.22071681968848 246.22090394080448 246.2211124139232 246.2213359476296 246.22156570233298 246.2217907122881 246.22199866199674 246.22217695705353 246.22231396809562 246.2224002799228 246.22242976041892 246.2224002808323 246.2223139699146 246.22217695978202 246.22199866563471 246.22179071683559 246.2215657077331 246.2213359539108 246.22111242105706 246.22090394879098 246.22071682852763 246.22055473226084 246.22041893640034 246.22030875147382 246.2202220577069 246.220155853956 246.2201067490469 246.2200713514417 246.22004654051176 246.22002962407407 246.22001840076834 246.22001115296533 246.2200065960579 246.2200038060588 246.2200021422979 246.22000117584435 246.22000062889973 246.22000032734522 246.2200001653748 246.22000008064379 246.2200000374736 246.22000001607037 246.21999999259432 246.22000001168843 246.22000005100563 246.22000012999138 246.22000028464566 246.22000057980682 246.22000112883526 246.22000212419326 246.22000388260943 246.22000690927558 246.22001198432906 246.22002027298802 246.22003345566088 246.22005386885223 246.2200846363764 246.22012976196615 246.22019414202842 246.22028345215546 246.220403860648 246.22056153525384 246.22076193419602 246.2210089128236 246.22130372507974 246.22164404955737 246.22202320782728 246.22242975740622 246.22284762136775 246.2232568558893 246.22363506216007 246.22395933432662 246.22420852156097 246.22436550005185 246.22441911706804 246.22436550096134 246.22420852337996 246.22395933702668 246.22363506576963 246.22325686037993 246.22284762673945 246.22242976363057 246.2220232149327 246.22164405748703 246.22130373383362 246.22100892240172 246.22076194456994 246.22056154639515 246.22040387252827 246.22028346474627 246.22019415532978 246.22012977594963 246.2200846510136 246.2200538841147 246.22003347154862 246.22002028941577 246.22001200132524 246.22000692675493 246.22000390057195 246.22000214261053 246.22000114767886 246.2200005990199 246.2200003041998 246.22000014988657 246.22000007115662 246.22000003209521 246.2200000055544 246.220000039422 246.22000010918313 246.220000249329 246.22000052375506 246.22000104751294 246.2200020219106 246.22000378843734 246.22000690927558 246.220012281078 246.22002128851364 246.22003599962753 246.22005939708728 246.22009562771868 246.22015023603362 246.22023032811015 246.22034459448474 246.2205031086068 246.22071681846634 246.22099667102785 246.2213523539815 246.22179071007122 246.2223139649124 246.22291799829566 246.22359095678806 246.2243125314814 246.22505418779897 246.22578052791002 246.22645179675055 246.2270273392308 246.22746961525075 246.22774823222858 246.2278433954226 246.22774823313807 246.22746961704132 246.22702734190244 246.2264518003317 246.2257805323438 246.22505419314226 246.22431253767732 246.22359096383664 246.22291800616847 246.222313973581 246.22179071953565 246.22135236424174 246.22099668205547 246.22071683026135 246.22050312111236 246.22034460770084 246.22023034197994 246.2201502505571 246.22009564286745 246.2200594128329 246.2200360159416 246.2200213053393 246.22001229841524 246.220006927096 246.2200038067125 246.22000204058367 246.2200010665839 246.22000054313867 246.22000026905366 246.22000012919202 246.22000005965825 246.22000002717988 246.2200000857917 246.22000020663037 246.220000449331 246.2200009245649 246.22000183171548 246.22000351930663 246.22000657894804 246.22001198432906 246.22002128851364 246.22003688986425 246.22006237035598 246.22010289617361 246.2201656499247 246.22026023506328 246.22039895980382 246.2205968767723 246.22087143385323 246.22124159373692 246.22172631726733 246.22234238426594 246.2231016467853 246.2240079597647 246.22505418671895 246.22621979668915 246.2274696132328 246.2287542125269 246.23001228305165 246.23117496640822 246.23217184512285 246.2329378972094 246.23342048059015 246.23358530943577 246.23342048147123 246.23293789899998 246.23217184776607 246.23117496996093 246.23001228745701 246.2287542177849 246.22746961934348 246.22621980365247 246.2250541945065 246.22400796834805 246.22310165619288 246.22234239444091 246.22172632820968 246.22124160538982 246.22087144621668 246.2205968898463 246.22039897355992 246.22026024947309 246.22016566493136 246.22010291177713 246.22006238652793 246.2200369065478 246.22002130570877 246.22001200200737 246.22000659705267 246.22000353780916 246.2200018505875 246.2200009438064 246.2200004688567 246.2200002264403 246.22000010585742 246.2200000623553 246.2200001614549 246.22000036564012 246.2200007758362 246.22000157911032 246.22000311235442 246.22000596482914 246.2200111364239 246.22002027298802 246.22003599962753 246.22006237035598 246.22010543971552 246.22017394007614 246.22028001217421 246.22043988864874 246.22067437396956 246.22100891157305 246.2214729934617 246.2220986721725 246.22291799710194 246.22395933105813 246.2252427074917 246.22677464237367 246.22854307300446 246.23051329603211 246.23262585283 246.23479720272275 246.23692371120188 246.23888898734467 246.24057400488567 246.24186885769117 246.24268456503208 246.24296317388945 246.24268456591315 246.24186885945332 246.2405740075289 246.23888899084054 246.2369237155504 246.23479720795234 246.23262585888384 246.23051330291017 246.22854308073516 246.22677465090018 246.2252427167856 246.22395934114783 246.22291800793062 246.22209868371172 246.22147300571146 246.22100892453335 246.22067438758356 246.22043990288802 246.22028002703877 246.22017395550913 246.22010545571695 246.220062386869 246.22003601665213 246.22002029043895 246.22001115432957 246.22000598313272 246.2200031310559 246.22000159812444 246.22000079516297 246.2200003852511 246.22000018129324 246.22000011822328 246.22000028164382 246.22000061843428 246.22000129502672 246.22000261999327 246.22000514906466 246.22000985420502 246.22001838479534 246.22003345566088 246.22005939708728 246.22010289617361 246.22017394007614 246.22028693304216 246.22046190161342 246.22072562191138 246.22111241150736 246.22166423992041 246.22242975507564 246.22346182847244 246.22481332643983 246.22653103416314 246.22864799732184 246.2311749642766 246.23409203721934 246.23734197202276 246.24082669022832 246.24440838912696 246.24791612095362 246.25115789576773 246.25393737658942 246.25607327031932 246.25741880092315 246.25787837329466 246.2574188017758 246.25607327205304 246.25393737920422 246.25115789923518 246.24791612527372 246.2444083942997 246.2408266962253 246.23734197884397 246.23409204486478 246.23117497271784 246.22864800653048 246.22653104411074 246.2248133371548 246.22346183989796 246.22242976718329 246.2216642527386 246.22111242495083 246.22072563600855 246.22046191630744 246.22028694830462 246.2201739558786 246.2201029125161 246.22005941391294 246.22003347294128 246.22001840250206 246.22000987230965 246.22000516753877 246.22000263880844 246.22000131415453 246.2200006378179 246.22000030128322 246.2200002045501 246.22000046764347 246.22000100977206 246.220002098877 246.22000423167995 246.22000830278162 246.22001587673088 246.22002960869793 246.22005386885223 246.22009562771868 246.2201656499247 246.22028001217421 246.22046190161342 246.22074355580008 246.22116807739445 246.22179070882066 246.2226790103165 246.22391129234808 246.22557266453416 246.22774822802216 246.23051329489525 246.23392106020484 246.23798882604376 246.2426845620478 246.24791611993044 246.25352561858438 246.25929123122594 246.26493777591193 246.27015619829578 246.27463044639964 246.2780686849736 246.28023464249094 246.28097443540216 246.2802346433436 246.2780686866789 246.2746304489576 246.27015620170638 246.2649377801752 246.25929123634185 246.2535256244961 246.24791612666638 246.24268456957955 246.23798883437132 246.23392106929978 246.23051330472916 246.22774823859504 246.22557267581757 246.22391130434204 246.22267902296417 246.22179072212202 246.2211680913211 246.22074357032358 246.22046191670535 246.22028002780615 246.22016566606823 246.22009564434538 246.22005388590526 246.2200296262057 246.22001589463656 246.22000832102836 246.22000425023933 246.220002117749 246.2200010289283 246.22000048702708 246.22000033459278 246.22000074784626 246.22000159946958 246.22000331033166 246.22000666074155 246.22001305605968 246.22002495404797 246.2200465257609 246.2200846363764 246.22015023603362 246.22026023506328 246.22043988864874 246.22072562191138 246.22116807739445 246.22183496584248 246.22281306858952 246.22420851718402 246.22614433101913 246.22875421028158 246.2321718419112 246.23651553496958 246.2418688545932 246.2482589809226 246.25563559686606 246.26385394503865 246.2726660071685 246.28172331157023 246.29059356993372 246.29879128329873 246.3058199598987 246.31122115048913 246.31462369184948 246.31578584560006 246.31462369270213 246.311221152166 246.30581996242825 246.2987912866809 246.29059357414013 246.28172331660087 246.27266601299496 246.26385395168933 246.25563560428412 246.24825898913647 246.24186886357447 246.2365155446898 246.23217185234196 246.2287542214229 246.22614434284256 246.22420852966115 246.22281308169192 246.22183497957016 246.221168091719 246.22072563680436 246.2204399040533 246.22026025097944 246.22015025243294 246.2200846532305 246.2200465430413 246.22002497172627 246.22001307407905 246.22000667907355 246.2200033289763 246.22000161839844 246.2200007670025 246.22000052517615 246.22000115870605 246.22000246425492 246.2200050870273 246.22001022326032 246.22002002742872 246.2200382673397 246.22007133734454 246.22012976196615 246.22023032811015 246.22039895980382 246.22067437396956 246.22111241150736 246.22179070882066 246.22281306858952 246.22431252917923 246.2264517934252 246.2294194537184 246.23342047641216 246.23865980765234 246.24531881873762 246.25352561750435 246.2633218719353 246.2746304443817 246.28722941751843 246.3007385718944 246.31462369000207 246.32822206094338 246.34078940025984 246.351564571308 246.3598447576671 246.36506095504328 246.3668425712459 246.36506095589593 246.35984475931556 246.3515645738091 246.3407894036136 246.32822206509294 246.31462369494744 246.30073857766402 246.28722942408385 246.2746304517145 246.26332188003548 246.2535256263435 246.24531882831573 246.238659817941 246.23342048741137 246.2294194653713 246.2264518057318 246.2243125421111 246.22281308211825 246.22179072294625 246.22111242617297 246.22067438917517 246.2203989754926 246.2202303442821 246.22012977856443 246.22007135436914 246.2200382847622 246.22002004519229 246.22001024133652 246.22000510541613 246.22000248289956 246.22000117757807 246.22000079694595 246.22000174477037 246.22000369792988 246.22000762171496 246.22001530573434 246.22002997330128 246.22005726116552 246.22010673566027 246.22019414202842 246.22034459448474 246.2205968767723 246.22100891157305 246.22166423992041 246.2226790103165 246.22420851718402 246.2264517934252 246.22965225149647 246.23409203608247 246.24007778825398 246.247916118822 246.25787836934404 246.270156196221 246.28481193714197 246.30173018986864 246.32057895373438 246.3407893992935 246.36156230751965 246.3819062260475 246.40070766395993 246.4168279185202 246.42921553728604 246.43701925827952 246.43968465492935 246.43701925910375 246.4292155389345 246.41682792096447 246.40070766725685 246.38190623014023 246.36156231240818 246.34078940497784 246.3205789601861 246.30173019708775 246.28481194512847 246.27015620494646 246.25787837878005 246.24791612896854 246.24007779908266 246.23409204756484 246.22965226363254 246.22645180615814 246.2242085305138 246.22267902421473 246.22166425438706 246.2210089265513 246.22059689223371 246.2203446104009 246.22019415839932 246.22010675242907 246.2200572783038 246.22002999078063 246.22001532355475 246.22000763981958 246.2200037162903 246.22000176335817 246.2200011738901 246.2200025576467 246.22000540919387 246.22001113778813 246.22002235625152 246.2200437704231 246.22008360991686 246.22015584125148 246.22028345215546 246.2205031086068 246.22087143385323 246.2214729934617 246.22242975507564 246.22391129234808 246.22614433101913 246.2294194537184 246.23409203608247 246.24057400173086 246.24931303837243 246.26075678948303 246.27530140649088 246.29322670254538 246.31462368897888 246.3393238816479 246.366842568489 246.39634927393087 246.4266771596887 246.45637873205322 246.48382832427845 246.50736346108522 246.52544905033963 246.53684227240683 246.54073367942792 246.53684227320264 246.52544905195967 246.5073634635295 246.48382832751852 246.45637873606069 246.42667716449196 246.39634927952994 246.36684257482705 246.33932388875334 246.31462369682328 246.29322671112874 246.27530141578478 246.26075679945905 246.24931304900215 246.24057401301428 246.2340920480196 246.22941946625238 246.22614434414996 246.22391130604734 246.2224297692865 246.22147300818415 246.22087144905885 246.22050312426717 246.22028346824214 246.2201558577645 246.22008362677093 246.22004378764666 246.2200223737593 246.22001115560855 246.22000542727008 246.22000257595028 246.22000168193208 246.22000365348256 246.220007716243 246.22001587809513 246.22003186165682 246.2200623716918 246.2201191333906 246.22022204574137 246.220403860648 246.22071681846634 246.22124159373692 246.2220986721725 246.22346182847244 246.22557266453416 246.22875421028158 246.23342047641216 246.24007778825398 246.24931303837243 246.2617640746563 246.2780686819609 246.29879128125236 246.3243305393929 246.3548161257162 246.39000799061105 246.4292155354102 246.47125553108594 246.51446551223398 246.55678314661247 246.59589224814323 246.62942418718808 246.65519182472397 246.67142444019441 246.67696876401888 246.67142444099022 246.6551918263156 246.6294241895755 246.59589225132646 246.5567831505631 246.514465516952 246.47125553659976 246.42921554166298 246.3900079976028 246.3548161334185 246.32433054783414 246.29879129040415 246.27806869176638 246.2617640851155 246.2493130494569 246.24007779999215 246.23342048874719 246.22875422318504 246.22557267797762 246.2234618424275 246.22209868663916 246.22124160868674 246.2207168338709 246.22040387647888 246.22022206197016 246.22011914998888 246.22006238863113 246.22003187888038 246.2200158956029 246.22000773400657 246.2200036714735 246.22000234716333 246.2200050883631 246.22001073720492 246.22002208540343 246.22004430888913 246.22008672996768 246.2201656512321 246.22030874027567 246.22056153525384 246.22099667102785 246.22172631726733 246.22291799710194 246.22481332643983 246.22774822802216 246.2321718419112 246.23865980765234 246.247916118822 246.26075678948303 246.2780686819609 246.3007385708428 246.32955122575973 246.3650609522011 246.40744804208595 246.45637873105846 246.51089281224796 246.56934512670992 246.62942418627858 246.6882625289629 246.74263973484426 246.7892624666304 246.82508973124274 246.84765952280858 246.85536833789126 246.84765952357597 246.82508973280594 246.7892624689894 246.74263973794223 246.68826253285667 246.62942419093974 246.56934513211004 246.51089281838705 246.45637873793652 246.40744804967454 246.36506096047182 246.329551234741 246.30073858047777 246.27806869222113 246.26075680039696 246.24791613033278 246.23865981976 246.23217185458728 246.22774824123826 246.22481334016751 246.22291801134122 246.22172633196135 246.2209966861482 246.2205615508005 246.22030875619183 246.22016566751773 246.22008674656595 246.22004432582847 246.22002210259856 246.22001075465585 246.220005106013 246.22000319251327 246.22000691197564 246.22001457667272 246.22002997460868 246.22006012882485 246.2201176883687 246.2202247737492 246.22041892596957 246.22076193419602 246.2213523539815 246.22234238426594 246.22395933105813 246.22653103416314 246.23051329489525 246.23651553496958 246.24531881873762 246.25787836934404 246.27530140649088 246.29879128125236 246.32955122575973 246.36864606524725 246.41682791658752 246.47434141131382 246.54073367675628 246.6147018432277 246.6940136546826 246.77553273718559 246.8553683362428 246.92915078159533 246.9924114641776 247.04102417142107 247.07164829750405 247.08210810713373 247.07164829827144 247.04102417295584 246.99241146647975 246.92915078463645 246.8553683400513 246.77553274173306 246.69401365996904 246.6147018492531 246.54073368349222 246.4743414187603 246.41682792471613 246.36864607405798 246.32955123522416 246.29879129134207 246.27530141720587 246.25787838065588 246.2453188306179 246.2365155474183 246.23051330785555 246.22653104763504 246.22395934501318 246.22234239867575 246.22135236881763 246.22076194945848 246.2204189416015 246.2202247897222 246.22011770468276 246.22006014542313 246.22002999146275 246.2200145937826 246.22000692928447 246.22000423432317 246.22000915936718 246.220019308475 246.22003969744947 246.220079625776 246.22015584253046 246.22029763832046 246.22055472262588 246.2210089128236 246.22179071007122 246.2231016467853 246.2252427074917 246.22864799732184 246.23392106020484 246.2418688545932 246.25352561750435 246.270156196221 246.29322670254538 246.3243305393929 246.3650609522011 246.41682791658752 246.48062733908296 246.55678314567456 246.64469567040044 246.74263973393477 246.84765952107486 246.9556020397943 247.06131539405666 247.15901353718172 247.2427794138794 247.30714934908912 247.34769991949776 247.36155015129472 247.34769992026514 247.30714935059547 247.2427794161247 247.15901354019442 247.06131539780833 246.95560204428492 246.84765952627603 246.74263973984648 246.64469567699427 246.55678315295052 246.48062734706946 246.4168279251993 246.36506096146658 246.32433054928364 246.293226713033 246.27015620730546 246.25352562915725 246.24186886678612 246.23392107290934 246.22864801050952 246.22524272116254 246.22310166091088 246.22179072462313 246.22100892777343 246.22055473794518 246.22029765398082 246.22015585850346 246.22007964206165 246.22003971396248 246.2200193252438 246.22000917633494 246.22000547779513 246.2200118419463 246.22002495663435 246.22005130328913 246.22010289873157 246.22020138614099 246.22038461489583 246.22071681968848 246.22130372507974 246.2223139649124 246.2240079597647 246.22677464237367 246.2311749642766 246.23798882604376 246.2482589809226 246.2633218719353 246.28481193714197 246.31462368897888 246.3548161257162 246.40744804208595 246.47434141131382 246.55678314567456 246.65519182290498 246.76879255357974 246.89535605765323 247.03106282518524 247.17054635199364 247.3071493482649 247.43339507351197 247.54163749775122 247.62481644970416 247.67721597339673 247.69511326902037 247.6772159741357 247.62481645118208 247.54163749996812 247.43339507646783 247.3071493519313 247.170546356399 247.03106283027273 246.89535606345126 246.76879256003147 246.65519183003883 246.5567831534621 246.47434141975506 246.40744805115247 246.3548161353796 246.31462369923912 246.28481194799906 246.2633218833324 246.24825899285972 246.23798883849247 246.23117497720847 246.2267746557603 246.22400797357764 246.22231397915166 246.22130373971692 246.22071683469514 246.22038463024356 246.22020140180135 246.22010291467615 246.2200513194895 246.2200249730621 246.22001185860142 246.22000691319778 246.2200149386214 246.22003147670753 246.22006470077247 246.22012976446726 246.22025396061235 246.22048501863614 246.22090394080448 246.22164404955737 246.22291799829566 246.22505418671895 246.22854307300446 246.23409203721934 246.2426845620478 246.25563559686606 246.2746304443817 246.30173018986864 246.3393238816479 246.39000799061105 246.45637873105846 246.54073367675628 246.64469567040044 246.76879255357974 246.91204716280828 247.07164829579875 247.24277941302674 247.4186731596104 247.59093445349387 247.75013485594144 247.8866324479267 247.99152409946882 248.0576017843369 248.08017091806278 248.05760178507586 247.99152410091833 247.88663245011517 247.75013485881203 247.590934457075 247.41867316390207 247.24277941800054 247.0716483014831 246.91204716914632 246.76879256057148 246.64469567801746 246.540733685027 246.45637873995446 246.3900080001039 246.33932389168078 246.30173020049835 246.27463045555143 246.25563560854738 246.2426845742123 246.234092049867 246.22854308610687 246.22505420024768 246.2229180122223 246.2216440638819 246.22090395547008 246.2204850336428 246.22025397593166 246.22012978007078 246.22006471660336 246.22003149279422 246.22001495490704 246.22000851234296 246.22001838860385 246.22003874072584 246.22007962696972 246.2201596957547 246.22031253421272 246.22059687918815 246.2211124139232 246.22202320782728 246.22359095678806 246.22621979668915 246.23051329603211 246.23734197202276 246.24791611993044 246.26385394503865 246.28722941751843 246.32057895373438 246.366842568489 246.4292155354102 246.51089281224796 246.6147018432277 246.74263973393477 246.89535605765323 247.07164829579875 247.2680569216583 247.4786545969164 247.69511326742875 247.9071017626629 248.10301724079306 248.27099414653253 248.40007609442938 248.48139273068352 248.5091667974894 248.48139273139407 248.40007609585047 248.27099414863574 248.1030172436068 247.9071017661872 247.69511327163517 247.47865460177653 247.26805692720055 247.07164830199468 246.89535606450286 246.74263974138125 246.61470185132788 246.51089282091658 246.42921554467569 246.3668425782945 246.3205789641083 246.28722942840395 246.26385395643575 246.2479161318107 246.2373419843862 246.23051330882188 246.22621980993367 246.22359097043048 246.22202322183918 246.22111242824775 246.22059689385375 246.22031254919096 246.22015971098872 246.22007964245955 246.22003875644305 246.22001840452 246.22001022701198 246.22002208781927 246.22004652951256 246.22009563144192 246.22019178935068 246.2203753392854 246.22071682085377 246.2213359476296 246.22242975740622 246.2243125314814 246.2274696132328 246.23262585283 246.24082669022832 246.25352561858438 246.2726660071685 246.3007385718944 246.3407893992935 246.39634927393087 246.47125553108594 246.56934512670992 246.6940136546826 246.84765952107486 247.03106282518524 247.24277941302674 247.4786545969164 247.73156999284177 247.991524098673 248.24610978741907 248.48139272994456 248.68312309361175 248.8381429052845 248.93579939281116 248.96915441002645 248.9357993935217 248.83814290667718 248.68312309568654 248.48139273270147 248.2461097908581 247.99152410276574 247.7315699975882 247.47865460231654 247.24277941908056 247.03106283186435 246.84765952835082 246.69401366255542 246.5693451351796 246.47125554015247 246.3963492835374 246.34078940944005 246.30073858252413 246.27266601830982 246.25352563020886 246.24082670227912 246.23262586533556 246.22746962613627 246.22431254478275 246.22242977107706 246.22133596161308 246.2207168351499 246.22037535389416 246.22019180421523 246.22009564656227 246.22004654483186 246.22002210333753 246.2200119893597 246.22002588997228 246.22005453502243 246.22011208133983 246.2202247760798 246.2204398922583 246.22084010049016 246.22156570233298 246.22284762136775 246.22505418779897 246.2287542125269 246.23479720272275 246.24440838912696 246.25929123122594 246.28172331157023 246.31462369000207 246.36156230751965 246.4266771596887 246.51446551223398 246.62942418627858 246.77553273718559 246.9556020397943 247.17054635199364 247.4186731596104 247.69511326742875 247.991524098673 248.296184130591 248.59455250531215 248.87029852032654 249.10672171062018 249.2884012444526 249.40285232609386 249.44194361324045 249.40285232677599 249.2884012457884 249.10672171266654 248.8702985230266 248.5945525086659 248.29618413459846 247.99152410333417 247.6951132727152 247.4186731655221 247.17054635853063 246.95560204692813 246.77553274485945 246.6294241945493 246.5144655210447 246.42667716903944 246.3615623174104 246.314623700376 246.28172332242733 246.2592912425662 246.24440840092197 246.23479721491566 246.2287542251177 246.2250542007877 246.22284763469753 246.22156571600382 246.22084011447365 246.22043990649757 246.22022479060328 246.2201120960907 246.22005455000067 246.22002590509263 246.2200137153497 246.22002961358646 246.2200623752445 246.22012819153366 246.22025708162388 246.2205031121311 246.2209608342663 246.2217907122881 246.2232568558893 246.22578052791002 246.23001228305165 246.23692371120188 246.24791612095362 246.26493777591193 246.29059356993372 246.32822206094338 246.3819062260475 246.45637873205322 246.55678314661247 246.6882625289629 246.8553683362428 247.06131539405666 247.3071493482649 247.59093445349387 247.9071017626629 248.24610978741907 248.59455250531215 248.9357993920722 249.25117286037263 249.52157242173675 249.72936111702487 249.86025996089995 249.90496905592533 249.86025996155365 249.72936111836069 249.52157242372627 249.25117286301585 248.93579939536912 248.59455250920593 248.24610979196655 247.90710176780723 247.59093445923506 247.30714935460293 247.06131540099156 246.85536834374614 246.68826253703466 246.55678315522425 246.45637874114817 246.38190623568246 246.3282220710615 246.29059358053502 246.26493778696798 246.247916132436 246.23692372308216 246.23001229532983 246.22578054052926 246.22325686887802 246.2217907256179 246.2209608478803 246.2205031260009 246.22025709574947 246.22012820588662 246.22006238982485 246.22002962836575 246.22001531050918 246.22003305496452 246.22006962105363 246.22014308028332 246.2202869377886 246.22056153866444 246.22107241401386 246.22199866199674 246.22363506216007 246.22645179675055 246.23117496640822 246.23888898734467 246.25115789576773 246.27015619829578 246.29879128329873 246.34078940025984 246.40070766395993 246.48382832427845 246.59589224814323 246.74263973484426 246.92915078159533 247.15901353718172 247.43339507351197 247.75013485594144 248.10301724079306 248.48139272994456 248.87029852032654 249.25117286037263 249.6031692192126 249.9049690552432 250.13688730930488 250.282986842192 250.33288780164781 250.2829868428457 250.13688731061228 249.9049690571759 249.60316922177054 249.2511728635843 248.87029852413505 248.48139273434992 248.1030172457953 247.75013486154052 247.4333950797079 247.1590135439461 246.9291507888997 246.74263974268865 246.5958922564992 246.48382833317444 246.4007076733391 246.34078941012217 246.2987912936158 246.2701562090392 246.25115790693746 246.2388889989123 246.23117497837376 246.22645180905715 246.22363507480773 246.22199867495704 246.22107242725838 246.22056155219317 246.2202869515447 246.2201430942668 246.22006963526448 246.22003306931748 246.22001667825543 246.2200360056245 246.2200758336657 246.22015584588422 246.22031253637277 246.2206116333576 246.22116808194193 246.22217695705353 246.22395933432662 246.2270273392308 246.23217184512285 246.24057400488567 246.25393737658942 246.27463044639964 246.3058199598987 246.351564571308 246.4168279185202 246.50736346108522 246.62942418718808 246.7892624666304 246.9924114641776 247.2427794138794 247.54163749775122 247.8866324479267 248.27099414653253 248.68312309361175 249.10672171062018 249.52157242173675 249.9049690552432 250.2336913225029 250.48629813395465 250.64543065807732 250.69978309487314 250.6454306587026 250.48629813523362 250.23369132437873 249.90496905774432 249.52157242486314 249.10672171434342 248.68312309793185 248.27099415142106 247.88663245338367 247.54163750377663 247.2427794204448 246.99241147128302 246.78926247427583 246.6294241953167 246.50736346972542 246.41682792761515 246.3515645808861 246.30581996990315 246.27463045685883 246.25393738747493 246.24057401614067 246.23217185674733 246.22702735119634 246.22395934663322 246.22217696964435 246.22116809484538 246.22061164651686 246.2203125497594 246.22015585949822 246.22007584745023 246.22003601957957 246.22001772943455 246.22003827316615 246.2200806078344 246.22016565572272 246.22033220772454 246.2206501287865 246.22124159814229 246.22231396809562 246.22420852156097 246.22746961525075 246.2329378972094 246.24186885769117 246.25607327031932 246.2780686849736 246.31122115048913 246.3598447576671 246.42921553728604 246.52544905033963 246.65519182472397 246.82508973124274 247.04102417142107 247.30714934908912 247.62481644970416 247.99152409946882 248.40007609442938 248.8381429052845 249.2884012444526 249.72936111702487 250.13688730930488 250.48629813395465 250.75480307903456 250.92395081258383 250.9817239896704 250.9239508132091 250.7548030802567 250.48629813580206 250.13688731174915 249.729361120066 249.28840124806214 248.83814290949093 248.4000760991758 247.99152410478368 247.62481645555903 247.307149355484 247.04102417832755 246.8250897386608 246.6551918326252 246.52544905872404 246.4292155461536 246.359844766961 246.31122116020936 246.27806869512014 246.25607328086377 246.2418688686051 246.23293790852125 246.22746962690366 246.22420853349809 246.22231398034538 246.22124161067626 246.22065014154785 246.22033222074168 246.22016566893882 246.22008062124945 246.22003828675173 246.22001839178708 246.220039701798 246.22008361554435 246.22017183573837 246.22034460008382 246.22067437956864 246.2212879107026 246.2224002799228 246.22436550005185 246.22774823222858 246.23342048059015 246.24268456503208 246.25741880092315 246.28023464249094 246.31462369184948 246.36506095504328 246.43701925827952 246.53684227240683 246.67142444019441 246.84765952280858 247.07164829750405 247.34769991949776 247.67721597339673 248.0576017843369 248.48139273068352 248.93579939281116 249.40285232609386 249.86025996089995 250.282986842192 250.64543065807732 250.92395081258383 251.09940774084438 251.15933585204874 251.09940774144124 250.92395081377754 250.64543065986788 250.282986844551 249.8602599638274 249.40285232961816 248.93579939687547 248.48139273531626 248.05760178950965 247.67721597908107 247.3476999256937 247.07164830421158 246.84765952999928 246.67142444786828 246.53684228053544 246.4370192668913 246.36506096408138 246.3146237013139 246.28023465235327 246.25741881115496 246.2426845756618 246.23342049156093 246.227748243512 246.2243655116479 246.22240029180307 246.22128792283868 246.2206743919605 246.22034461273148 246.22017184855656 246.2200836285615 246.22003971498566 246.22001861834445 246.22004019008153 246.2200846431692 246.2201739468405 246.22034883307828 246.22068266283284 246.22130372925773 246.22242976041892 246.22441911706804 246.2278433954226 246.23358530943577 246.24296317388945 246.25787837329466 246.28097443540216 246.31578584560006 246.3668425712459 246.43968465492935 246.54073367942792 246.67696876401888 246.85536833789126 247.08210810713373 247.36155015129472 247.69511326902037 248.08017091806278 248.5091667974894 248.96915441002645 249.44194361324045 249.90496905592533 250.33288780164781 250.69978309487314 250.9817239896704 251.15933585204874 251.21999999076294 251.15933585261718 250.98172399080727 250.69978309660686 250.33288780392155 249.90496905879593 249.44194361665106 248.96915441397707 248.5091668019516 248.080170923065 247.69511327453418 247.36155015732012 247.0821081136423 246.855368344883 246.67696877146537 246.54073368732915 246.4396846632569 246.3668425799998 246.31578585478027 246.28097444495185 246.25787838324226 246.2429631841781 246.23358532003707 246.22784340636497 246.2244191282946 246.2224297719297 246.22130374102431 246.22068267485523 246.2203488452996 246.2201739592892 246.22008465578844 246.22004020284288 246.220018392725 246.2200397027359 246.22008361648227 246.22017183664786 246.22034460102174 246.22067438047813 246.2212879116121 246.2224002808323 246.22436550096134 246.22774823313807 246.23342048147123 246.24268456591315 246.2574188017758 246.2802346433436 246.31462369270213 246.36506095589593 246.43701925910375 246.53684227320264 246.67142444099022 246.84765952357597 247.07164829827144 247.34769992026514 247.6772159741357 248.05760178507586 248.48139273139407 248.9357993935217 249.40285232677599 249.86025996155365 250.2829868428457 250.6454306587026 250.9239508132091 251.09940774144124 251.15933585261718 251.09940774200967 250.92395081431755 250.64543066037947 250.2829868450626 249.86025996431056 249.4028523300729 248.93579939733021 248.4813927357426 248.05760178990755 247.67721597947897 247.3476999260916 247.07164830458106 246.84765953034034 246.67142444820934 246.5368422808765 246.43701926720394 246.3650609643656 246.31462370159812 246.28023465260907 246.25741881141076 246.24268457588917 246.2334204917599 246.22774824373937 246.22436551184686 246.22240029200202 246.22128792303764 246.22067439213103 246.2203446128736 246.22017184869867 246.2200836287036 246.22003971512777 246.22001773128196 246.220038275042 246.22008060968182 246.22016565759856 246.22033220957195 246.2206501306055 246.2212415999897 246.2223139699146 246.22420852337996 246.22746961704132 246.23293789899998 246.24186885945332 246.25607327205304 246.2780686866789 246.311221152166 246.35984475931556 246.4292155389345 246.52544905195967 246.6551918263156 246.82508973280594 247.04102417295584 247.30714935059547 247.62481645118208 247.99152410091833 248.40007609585047 248.83814290667718 249.2884012457884 249.72936111836069 250.13688731061228 250.48629813523362 250.7548030802567 250.92395081377754 250.98172399080727 250.92395081431755 250.75480308133672 250.48629813682524 250.1368873127439 249.72936112103233 249.28840124900006 248.838142910372 248.40007610002846 247.9915241056079 247.62481645635484 247.30714935622296 247.0410241790665 246.82508973934293 246.6551918332789 246.5254490593493 246.42921554675047 246.35984476752944 246.3112211607778 246.27806869566015 246.25607328134694 246.24186886908828 246.23293790894758 246.22746962732998 246.224208533896 246.22231398071486 246.22124161104574 246.2206501418889 246.22033222105432 246.22016566925146 246.22008062153367 246.22003828700753 246.22001668106918 246.22003600840983 246.22007583645103 246.22015584866955 246.22031253912968 246.2206116361145 246.22116808469883 246.22217695978202 246.22395933702668 246.22702734190244 246.23217184776607 246.2405740075289 246.25393737920422 246.2746304489576 246.30581996242825 246.3515645738091 246.41682792096447 246.5073634635295 246.6294241895755 246.7892624689894 246.99241146647975 247.2427794161247 247.54163749996812 247.88663245011517 248.27099414863574 248.68312309568654 249.10672171266654 249.52157242372627 249.9049690571759 250.23369132437873 250.48629813580206 250.64543065986788 250.69978309660686 250.64543066037947 250.48629813682524 250.23369132594192 249.90496905925067 249.52157242631264 249.1067217157361 248.68312309926768 248.27099415270004 247.88663245463422 247.54163750497034 247.24277942158167 246.99241147236305 246.789262475299 246.62942419631145 246.50736347069176 246.41682792852464 246.35156458173876 246.30581997072738 246.27463045762622 246.2539373882139 246.2405740168512 246.23217185740103 246.22702735182162 246.22395934723008 246.2221769702412 246.2211680953854 246.22061164702845 246.22031255024257 246.22015585995297 246.22007584787656 246.22003601997747 246.22001531423243 246.22003305865934 246.22006962477687 246.22014308397814 246.220286941455 246.22056154233084 246.22107241765184 246.22199866563471 246.22363506576963 246.2264518003317 246.23117496996093 246.23888899084054 246.25115789923518 246.27015620170638 246.2987912866809 246.3407894036136 246.40070766725685 246.48382832751852 246.59589225132646 246.74263973794223 246.92915078463645 247.15901354019442 247.43339507646783 247.75013485881203 248.1030172436068 248.48139273270147 248.8702985230266 249.25117286301585 249.60316922177054 249.90496905774432 250.13688731174915 250.282986844551 250.33288780392155 250.2829868450626 250.1368873127439 249.90496905925067 249.60316922376006 249.25117286548854 248.87029852598246 248.4813927361405 248.103017247529 247.75013486318898 247.43339508129952 247.15901354545244 246.9291507903492 246.7426397440529 246.59589225783503 246.483828334425 246.40070767456123 246.34078941125904 246.29879129469583 246.2701562100908 246.25115790793222 246.23888899985022 246.23117497925483 246.2264518099098 246.22363507560354 246.22199867572442 246.22107242796892 246.2205615528753 246.2202869521984 246.22014309486366 246.2200696358329 246.2200330698575 246.22001371998243 246.2200296182192 246.22006237987725 246.22012819613798 246.22025708619978 246.22050311667857 246.22096083881377 246.22179071683559 246.22325686037993 246.2257805323438 246.23001228745701 246.2369237155504 246.24791612527372 246.2649377801752 246.29059357414013 246.32822206509294 246.38190623014023 246.45637873606069 246.5567831505631 246.68826253285667 246.8553683400513 247.06131539780833 247.3071493519313 247.590934457075 247.9071017661872 248.2461097908581 248.5945525086659 248.93579939536912 249.2511728635843 249.52157242486314 249.729361120066 249.8602599638274 249.90496905879593 249.86025996431056 249.72936112103233 249.52157242631264 249.25117286548854 248.93579939775654 248.5945525115365 248.24610979418344 247.90710176993886 247.59093446130984 247.30714935659245 247.0613154028674 246.8553683455367 246.68826253876838 246.5567831568727 246.4563787427398 246.38190623718882 246.3282220724826 246.29059358189926 246.26493778824695 246.24791613365812 246.23692372424745 246.23001229643828 246.22578054160928 246.22325686987278 246.2217907265558 246.22096084876137 246.22050312685354 246.22025709654528 246.220128206654 246.2200623905354 246.22002962901945 246.22001199490194 246.2200258954861 246.22005454056466 246.22011208685365 246.22022478156518 246.22043989771527 246.2208401059187 246.2215657077331 246.22284762673945 246.22505419314226 246.2287542177849 246.23479720795234 246.2444083942997 246.25929123634185 246.28172331660087 246.31462369494744 246.36156231240818 246.42667716449196 246.514465516952 246.62942419093974 246.77553274173306 246.95560204428492 247.170546356399 247.41867316390207 247.69511327163517 247.99152410276574 248.29618413459846 248.59455250920593 248.87029852413505 249.10672171434342 249.28840124806214 249.40285232961816 249.44194361665106 249.4028523300729 249.28840124900006 249.1067217157361 248.87029852598246 248.5945525115365 248.29618413735537 247.9915241059774 247.69511327527314 247.41867316796638 247.1705463608612 246.95560204917345 246.7755327470195 246.62942419659566 246.51446552303423 246.42667717091527 246.36156231920097 246.3146237020813 246.28172332407578 246.2592912441294 246.2444084023999 246.23479721630832 246.22875422645353 246.22505420203825 246.22284763589124 246.22156571711227 246.22084011552525 246.22043990752076 246.2202247915412 246.22011209697177 246.2200545508249 246.22002590588843 246.2200102334353 246.22002209424258 246.22004653593586 246.22009563786523 246.22019179571714 246.22037534565186 246.2207168271634 246.2213359539108 246.22242976363057 246.22431253767732 246.22746961934348 246.23262585888384 246.2408266962253 246.2535256244961 246.27266601299496 246.30073857766402 246.34078940497784 246.39634927952994 246.47125553659976 246.56934513211004 246.69401365996904 246.84765952627603 247.03106283027273 247.24277941800054 247.47865460177653 247.7315699975882 247.99152410333417 248.24610979196655 248.48139273434992 248.68312309793185 248.83814290949093 248.93579939687547 248.96915441397707 248.93579939733021 248.838142910372 248.68312309926768 248.4813927361405 248.24610979418344 247.9915241059774 247.73157000068616 247.4786546052724 247.24277942192273 247.03106283459283 246.84765953096561 246.69401366508495 246.569345137567 246.4712555424262 246.39634928572588 246.34078941151483 246.30073858451365 246.27266602018565 246.25352563199942 246.24082670401285 246.2326258669556 246.22746962769946 246.22431254626068 246.22242977246972 246.2213359629489 246.22071683640044 246.22037535508787 246.22019180532368 246.22009564761387 246.22004654582662 246.22002210427544 246.22000851964734 246.22001839593665 246.22003874803022 246.22007963424568 246.22015970300222 246.22031254143184 246.22059688637884 246.22111242105706 246.2220232149327 246.22359096383664 246.22621980365247 246.23051330291017 246.23734197884397 246.24791612666638 246.26385395168933 246.28722942408385 246.3205789601861 246.36684257482705 246.42921554166298 246.51089281838705 246.6147018492531 246.74263973984648 246.89535606345126 247.0716483014831 247.26805692720055 247.47865460231654 247.6951132727152 247.90710176780723 248.1030172457953 248.27099415142106 248.4000760991758 248.48139273531626 248.5091668019516 248.4813927357426 248.40007610002846 248.27099415270004 248.103017247529 247.90710176993886 247.69511327527314 247.4786546052724 247.26805693058273 247.07164830523476 246.89535606760083 246.74263974436553 246.61470185417005 246.51089282364507 246.42921554729048 246.3668425807956 246.3205789664673 246.28722943067768 246.2638539585958 246.2479161338855 246.2373419863473 246.2305133106693 246.2262198116674 246.22359097207894 246.22202322340237 246.2211124297541 246.22059689527484 246.22031255052678 246.2201597122677 246.22007964365326 246.2200387575515 246.2200184055716 246.22000692138323 246.22001494680686 246.22003148486456 246.22006470890108 246.22012977259587 246.22025396868412 246.22048502665106 246.22090394879098 246.22164405748703 246.22291800616847 246.2250541945065 246.22854308073516 246.23409204486478 246.24268456957955 246.25563560428412 246.2746304517145 246.30173019708775 246.33932388875334 246.3900079976028 246.45637873793652 246.54073368349222 246.64469567699427 246.76879256003147 246.91204716914632 247.07164830199468 247.24277941908056 247.4186731655221 247.59093445923506 247.75013486154052 247.88663245338367 247.99152410478368 248.05760178950965 248.080170923065 248.05760178990755 247.9915241056079 247.88663245463422 247.75013486318898 247.59093446130984 247.41867316796638 247.24277942192273 247.07164830523476 246.91204717275588 246.76879256403893 246.6446956813428 246.54073368821022 246.45637874299558 246.39000800300292 246.3393238944661 246.30173020314157 246.27463045808096 246.25563561096322 246.24268457651445 246.23409205205547 246.22854308818165 246.22505420220878 246.22291801409813 246.22164406567248 246.22090395714696 246.220485035206 246.22025397740958 246.22012978146344 246.22006471793918 246.22003149404478 246.22001495607233 246.22000548683323 246.2200118509844 246.22002496567245 246.2200513122988 246.22010290771283 246.2202013950654 246.2203846237634 246.22071682852763 246.22130373383362 246.222313973581 246.22400796834805 246.22677465090018 246.23117497271784 246.23798883437132 246.24825898913647 246.26332188003548 246.28481194512847 246.31462369682328 246.3548161334185 246.40744804967454 246.4743414187603 246.55678315295052 246.65519183003883 246.76879256057148 246.89535606450286 247.03106283186435 247.17054635853063 247.30714935460293 247.4333950797079 247.54163750377663 247.62481645555903 247.67721597908107 247.69511327453418 247.67721597947897 247.62481645635484 247.54163750497034 247.43339508129952 247.30714935659245 247.1705463608612 247.03106283459283 246.89535606760083 246.76879256403893 246.65519183387576 246.5567831571285 246.47434142327936 246.40744805453465 246.35481613861967 246.31462370230867 246.2848119509265 246.26332188614614 246.24825899553136 246.237988841022 246.2311749796243 246.22677465806245 246.2240079757661 246.22231398119803 246.221303741678 246.22071683654255 246.22038463197728 246.2202014034498 246.22010291623934 246.220051320939 246.22002497445476 246.2200118598804 246.2200042441855 246.2200091692295 246.2200193183089 246.22003970725495 246.2200796355815 246.2201558522791 246.22029764801226 246.22055473226084 246.22100892240172 246.22179071953565 246.22310165619288 246.2252427167856 246.22864800653048 246.23392106929978 246.24186886357447 246.2535256263435 246.27015620494646 246.29322671112874 246.32433054783414 246.36506096047182 246.41682792471613 246.48062734706946 246.5567831534621 246.64469567801746 246.74263974138125 246.84765952835082 246.95560204692813 247.06131540099156 247.1590135439461 247.2427794204448 247.307149355484 247.3476999256937 247.36155015732012 247.3476999260916 247.30714935622296 247.24277942158167 247.15901354545244 247.0613154028674 246.95560204917345 246.84765953096561 246.74263974436553 246.6446956813428 246.5567831571285 246.4806273510485 246.41682792903623 246.36506096513298 246.32433055280794 246.29322671641518 246.27015621051711 246.25352563219838 246.24186886968513 246.23392107566625 246.22864801315274 246.22524272366365 246.2231016632699 246.22179072686845 246.22100892990505 246.22055473996312 246.22029765588508 246.22015586032245 246.22007964373853 246.22003971558252 246.22001932675016 246.22000917775603 246.22000320319984 246.2200069226622 246.22001458733087 246.2200299852384 246.22006013942615 246.22011769891316 246.22022478423682 246.22041893640034 246.22076194456994 246.22135236424174 246.22234239444091 246.22395934114783 246.22653104411074 246.23051330472916 246.2365155446898 246.24531882831573 246.25787837878005 246.27530141578478 246.29879129040415 246.329551234741 246.36864607405798 246.4168279251993 246.47434141975506 246.540733685027 246.61470185132788 246.69401366255542 246.77553274485945 246.85536834374614 246.9291507888997 246.99241147128302 247.04102417832755 247.07164830421158 247.0821081136423 247.07164830458106 247.0410241790665 246.99241147236305 246.9291507903492 246.8553683455367 246.7755327470195 246.69401366508495 246.61470185417005 246.54073368821022 246.47434142327936 246.41682792903623 246.36864607820755 246.3295512392032 246.29879129515058 246.27530142084385 246.25787838412333 246.24531883394323 246.2365155505731 246.23051331083983 246.2265310504772 246.22395934774167 246.22234240126213 246.2213523712619 246.22076195176064 246.22041894378998 246.220224791797 246.22011770661544 246.22006014727054 246.22002999319648 246.22001459540263 246.22000693084766 246.2200023586457 246.22000509984548 246.22001074865886 246.22002209682896 246.22004432028623 246.22008674130794 246.2201656625155 246.22030875147382 246.22056154639515 246.22099668205547 246.22172632820968 246.22291800793062 246.2248133371548 246.22774823859504 246.23217185234196 246.238659817941 246.24791612896854 246.26075679945905 246.27806869176638 246.30073858047777 246.32955123522416 246.36506096146658 246.40744805115247 246.45637873995446 246.51089282091658 246.5693451351796 246.6294241945493 246.68826253703466 246.74263974268865 246.78926247427583 246.8250897386608 246.84765952999928 246.855368344883 246.84765953034034 246.82508973934293 246.789262475299 246.7426397440529 246.68826253876838 246.62942419659566 246.569345137567 246.51089282364507 246.45637874299558 246.40744805453465 246.36506096513298 246.3295512392032 246.30073858474103 246.27806869631385 246.26075680429074 246.24791613405603 246.2386598233127 246.23217185796946 246.2277482444499 246.22481334323706 246.22291801424024 246.22172633471826 246.220996688763 246.2205615532732 246.22030875855083 246.22016566976305 246.22008674866916 246.22004432778957 246.2200221044744 246.220010756418 246.22000510768987 246.22000169421025 246.22000366573232 246.22000772846434 246.22001589028804 246.2200318738213 246.22006238379944 246.2201191454414 246.2202220577069 246.22040387252827 246.22071683026135 246.22124160538982 246.22209868371172 246.22346183989796 246.22557267581757 246.2287542214229 246.23342048741137 246.24007779908266 246.24931304900215 246.2617640851155 246.27806869222113 246.29879129134207 246.32433054928364 246.3548161353796 246.3900080001039 246.42921554467569 246.47125554015247 246.5144655210447 246.55678315522425 246.5958922564992 246.6294241953167 246.6551918326252 246.67142444786828 246.67696877146537 246.67142444820934 246.6551918332789 246.62942419631145 246.59589225783503 246.5567831568727 246.51446552303423 246.4712555424262 246.42921554729048 246.39000800300292 246.35481613861967 246.32433055280794 246.29879129515058 246.27806869631385 246.261764089464 246.2493130536349 246.2400778039712 246.2334204925557 246.2287542267946 246.22557268141665 246.22346184572442 246.22209868976555 246.2212416116426 246.22071683668466 246.2204038791221 246.22022206447127 246.22011915234788 246.22006239087645 246.220031881012 246.22001589759242 246.2200077358824 246.22000367323565 246.22000118687882 246.22000257066384 246.2200054221826 246.22001115074843 246.22002236915498 246.22004378326972 246.22008362270662 246.220155853956 246.22028346474627 246.22050312111236 246.22087144621668 246.22147300571146 246.22242976718329 246.22391130434204 246.22614434284256 246.2294194653713 246.23409204756484 246.24057401301428 246.2493130494569 246.26075680039696 246.27530141720587 246.293226713033 246.31462369923912 246.33932389168078 246.3668425782945 246.3963492835374 246.42667716903944 246.45637874114817 246.48382833317444 246.50736346972542 246.52544905872404 246.53684228053544 246.54073368732915 246.5368422808765 246.5254490593493 246.50736347069176 246.483828334425 246.4563787427398 246.42667717091527 246.39634928572588 246.3668425807956 246.3393238944661 246.31462370230867 246.29322671641518 246.27530142084385 246.26075680429074 246.2493130536349 246.24057401744807 246.234092052226 246.22941947028826 246.2261443479869 246.22391130968532 246.22242977275394 246.22147301148107 246.22087145218524 246.22050312725145 246.2202834710559 246.22015586043614 246.22008362930046 246.22004379000566 246.2200223760046 246.22001115771175 246.2200054292596 246.2200025778261 246.22000081070206 246.22000175849806 246.22000371162915 246.2200076353858 246.22001531937676 246.22002998685844 246.22005727466583 246.2201067490469 246.22019415532978 246.22034460770084 246.2205968898463 246.22100892453335 246.2216642527386 246.22267902296417 246.22420852966115 246.2264518057318 246.22965226363254 246.2340920480196 246.24007779999215 246.24791613033278 246.25787838065588 246.27015620730546 246.28481194799906 246.30173020049835 246.3205789641083 246.34078940944005 246.3615623174104 246.38190623568246 246.4007076733391 246.41682792761515 246.4292155461536 246.4370192668913 246.4396846632569 246.43701926720394 246.42921554675047 246.41682792852464 246.40070767456123 246.38190623718882 246.36156231920097 246.34078941151483 246.3205789664673 246.30173020314157 246.2848119509265 246.27015621051711 246.25787838412333 246.24791613405603 246.2400778039712 246.234092052226 246.22965226809475 246.2264518104214 246.2242085345781 246.22267902808008 246.22166425805347 246.22100893004716 246.22059689553063 246.2203446135557 246.22019416135518 246.2201067552144 246.22005728097545 246.22002999331016 246.22001532594217 246.22000764203648 246.2200037183935 246.2200017653477 246.22000053961438 246.22000117314428 246.22000247866472 246.22000510140867 246.22001023758486 246.22002004169642 246.22003828152214 246.2200713514417 246.22012977594963 246.22023034197994 246.22039897355992 246.22067438758356 246.22111242495083 246.22179072212202 246.22281308169192 246.2243125421111 246.22645180615814 246.22941946625238 246.23342048874719 246.23865981976 246.2453188306179 246.25352562915725 246.2633218833324 246.27463045555143 246.28722942840395 246.30073858252413 246.314623700376 246.3282220710615 246.34078941012217 246.3515645808861 246.359844766961 246.36506096408138 246.3668425799998 246.3650609643656 246.35984476752944 246.35156458173876 246.34078941125904 246.3282220724826 246.3146237020813 246.30073858451365 246.28722943067768 246.27463045808096 246.26332188614614 246.25352563219838 246.24531883394323 246.2386598233127 246.2334204925557 246.22941947028826 246.2264518104214 246.22431254657332 246.2228130863815 246.22179072701056 246.2211124300099 246.22067439284157 246.22039897896005 246.22023034757902 246.22012978169082 246.220071357325 246.22003828754754 246.2200200478355 246.22001024383763 246.22000510774672 246.22000248511645 246.22000117965285 246.2200003496847 246.2200007629666 246.2200016145615 246.22000332539517 246.2200066757198 246.2200130710095 246.22002496891253 246.22004654051176 246.2200846510136 246.2201502505571 246.22026024947309 246.22043990288802 246.22072563600855 246.2211680913211 246.22183497957016 246.22281308211825 246.2242085305138 246.22614434414996 246.22875422318504 246.23217185458728 246.2365155474183 246.24186886678612 246.24825899285972 246.25563560854738 246.26385395643575 246.27266601830982 246.28172332242733 246.29059358053502 246.2987912936158 246.30581996990315 246.31122116020936 246.3146237013139 246.31578585478027 246.31462370159812 246.3112211607778 246.30581997072738 246.29879129469583 246.29059358189926 246.28172332407578 246.27266602018565 246.2638539585958 246.25563561096322 246.24825899553136 246.24186886968513 246.2365155505731 246.23217185796946 246.2287542267946 246.2261443479869 246.2242085345781 246.2228130863815 246.22183498403237 246.22116809595383 246.22072564084024 246.22043990789024 246.22026025461741 246.2201502559004 246.22008465649898 246.22004654613926 246.2200249746537 246.22001307683595 246.22000668168835 246.22000333142057 246.2200016207006 246.22000076916254 246.22000022032415 246.2200004833891 246.22000102548927 246.22000211456577 246.2200042473119 246.22000831835672 246.22001589222072 246.22002962407407 246.2200538841147 246.22009564286745 246.22016566493136 246.22028002703877 246.22046191630744 246.22074357032358 246.221168091719 246.22179072294625 246.22267902421473 246.22391130604734 246.22557267797762 246.22774824123826 246.23051330785555 246.23392107290934 246.23798883849247 246.2426845742123 246.2479161318107 246.25352563020886 246.2592912425662 246.26493778696798 246.2701562090392 246.27463045685883 246.27806869512014 246.28023465235327 246.28097444495185 246.28023465260907 246.27806869566015 246.27463045762622 246.2701562100908 246.26493778824695 246.2592912441294 246.25352563199942 246.2479161338855 246.24268457651445 246.237988841022 246.23392107566625 246.23051331083983 246.2277482444499 246.22557268141665 246.22391130968532 246.22267902808008 246.22179072701056 246.22116809595383 246.22074357475736 246.22046192091176 246.2202800317852 246.2201656698483 246.2200956479265 246.22005388931586 246.22002962941735 246.22001589767768 246.22000832392737 246.2200042529678 246.22000212030696 246.22000103134414 246.22000048930082 246.2200001345942 246.22000029801472 246.22000063477677 246.22000131134078 246.22000263622206 246.2200051652366 246.2200098702917 246.22001840076834 246.22003347154862 246.2200594128329 246.22010291177713 246.22017395550913 246.22028694830462 246.22046191670535 246.22072563680436 246.22111242617297 246.22166425438706 246.2224297692865 246.2234618424275 246.22481334016751 246.22653104763504 246.22864801050952 246.23117497720847 246.234092049867 246.2373419843862 246.24082670227912 246.24440840092197 246.247916132436 246.25115790693746 246.25393738747493 246.25607328086377 246.25741881115496 246.25787838324226 246.25741881141076 246.25607328134694 246.2539373882139 246.25115790793222 246.24791613365812 246.2444084023999 246.24082670401285 246.2373419863473 246.23409205205547 246.2311749796243 246.22864801315274 246.2265310504772 246.22481334323706 246.22346184572442 246.22242977275394 246.22166425805347 246.2211124300099 246.22072564084024 246.22046192091176 246.22028695268156 246.22017396002818 246.2201029164383 246.22005941763618 246.220033476494 246.22001840585582 246.22000987546446 246.22000517055147 246.2200026416222 246.22000131679775 246.22000064034742 246.22000030364222 246.22000007932306 246.22000017839423 246.22000038257946 246.2200007927187 246.22000159593597 246.22000312912323 246.22000598148426 246.22001115296533 246.22002028941577 246.2200360159416 246.22006238652793 246.22010545571695 246.2201739558786 246.22028002780615 246.2204399040533 246.22067438917517 246.2210089265513 246.22147300818415 246.22209868663916 246.22291801134122 246.22395934501318 246.22524272116254 246.2267746557603 246.22854308610687 246.23051330882188 246.23262586533556 246.23479721491566 246.23692372308216 246.2388889989123 246.24057401614067 246.2418688686051 246.2426845756618 246.2429631841781 246.24268457588917 246.24186886908828 246.2405740168512 246.23888899985022 246.23692372424745 246.23479721630832 246.2326258669556 246.2305133106693 246.22854308818165 246.22677465806245 246.22524272366365 246.22395934774167 246.22291801424024 246.22209868976555 246.22147301148107 246.22100893004716 246.22067439284157 246.22043990789024 246.2202800317852 246.22017396002818 246.22010546000863 246.22006239096171 246.22003602051748 246.22002029410535 246.22001115779702 246.22000598640122 246.22000313415387 246.22000160105188 246.22000079791988 246.22000038783747 246.2200001837375 246.22000004468765 246.2200001033279 246.22000022410973 246.2200004667535 246.220000941959 246.2200018490243 246.22000353653019 246.2200065960579 246.22001200132524 246.2200213053393 246.2200369065478 246.220062386869 246.2201029125161 246.22016566606823 246.22026025097944 246.2203989754926 246.22059689223371 246.22087144905885 246.22124160868674 246.22172633196135 246.22234239867575 246.22310166091088 246.22400797357764 246.22505420024768 246.22621980993367 246.22746962613627 246.2287542251177 246.23001229532983 246.23117497837376 246.23217185674733 246.23293790852125 246.23342049156093 246.23358532003707 246.2334204917599 246.23293790894758 246.23217185740103 246.23117497925483 246.23001229643828 246.22875422645353 246.22746962769946 246.2262198116674 246.22505420220878 246.2240079757661 246.2231016632699 246.22234240126213 246.22172633471826 246.2212416116426 246.22087145218524 246.22059689553063 246.22039897896005 246.22026025461741 246.2201656698483 246.2201029164383 246.22006239096171 246.22003691078262 246.2200213096878 246.22001200578745 246.2200066006338 246.22000354121977 246.22000185379915 246.2200009468191 246.22000047169888 246.22000022911195 246.22000010838696 246.22000002360218 246.22000005744135 246.2200001272025 246.2200002672915 246.22000054166074 246.22000106536177 246.22000203964575 246.2200038060588 246.22000692675493 246.22001229841524 246.22002130570877 246.22003601665213 246.22005941391294 246.22009564434538 246.22015025243294 246.2202303442821 246.2203446104009 246.22050312426717 246.2207168338709 246.2209966861482 246.22135236881763 246.22179072462313 246.22231397915166 246.2229180122223 246.22359097043048 246.22431254478275 246.2250542007877 246.22578054052926 246.22645180905715 246.22702735119634 246.22746962690366 246.227748243512 246.22784340636497 246.22774824373937 246.22746962732998 246.22702735182162 246.2264518099098 246.22578054160928 246.22505420203825 246.22431254626068 246.22359097207894 246.22291801409813 246.22231398119803 246.22179072686845 246.2213523712619 246.220996688763 246.22071683668466 246.22050312725145 246.2203446135557 246.22023034757902 246.2201502559004 246.2200956479265 246.22005941763618 246.22003602051748 246.2200213096878 246.2200123025364 246.22000693098977 246.22000381040732 246.22000204407954 246.22000106988082 246.22000054626506 246.2200002719811 246.22000013194892 246.22000006227304 246.2200000111537 246.22000003021938 246.22000006950816 246.22000014843707 246.2200003030345 246.2200005981104 246.22000114705358 246.2200021422979 246.22000390057195 246.220006927096 246.22001200200737 246.22002029043895 246.22003347294128 246.22005388590526 246.2200846532305 246.22012977856443 246.22019415839932 246.22028346824214 246.22040387647888 246.2205615508005 246.22076194945848 246.22100892777343 246.22130373971692 246.2216440638819 246.22202322183918 246.22242977107706 246.22284763469753 246.22325686887802 246.22363507480773 246.22395934663322 246.22420853349809 246.2243655116479 246.2244191282946 246.22436551184686 246.224208533896 246.22395934723008 246.22363507560354 246.22325686987278 246.22284763589124 246.22242977246972 246.22202322340237 246.22164406567248 246.221303741678 246.22100892990505 246.22076195176064 246.2205615532732 246.2204038791221 246.2202834710559 246.22019416135518 246.22012978169082 246.22008465649898 246.22005388931586 246.220033476494 246.22002029410535 246.22001200578745 246.22000693098977 246.22000390457941 246.22000214641903 246.22000115126 246.22000060240208 246.22000030741145 246.22000015289927 246.2200000739988 246.22000003476685 246.22000000402429 246.22000001450718 246.22000003610935 246.22000007950692 246.22000016452216 246.22000032677678 246.2200006286155 246.22000117584435 246.22000214261053 246.2200038067125 246.22000659705267 246.22001115432957 246.22001840250206 246.2200296262057 246.2200465430413 246.22007135436914 246.22010675242907 246.2201558577645 246.22022206197016 246.22030875619183 246.2204189416015 246.22055473794518 246.22071683469514 246.22090395547008 246.22111242824775 246.22133596161308 246.22156571600382 246.2217907256179 246.22199867495704 246.22217696964435 246.22231398034538 246.22240029180307 246.2224297719297 246.22240029200202 246.22231398071486 246.2221769702412 246.22199867572442 246.2217907265558 246.22156571711227 246.2213359629489 246.2211124297541 246.22090395714696 246.22071683654255 246.22055473996312 246.22041894378998 246.22030875855083 246.22022206447127 246.22015586043614 246.2201067552144 246.220071357325 246.22004654613926 246.22002962941735 246.22001840585582 246.22001115779702 246.2200066006338 246.22000381040732 246.22000214641903 246.22000117973812 246.22000063259455 246.2200003308411 246.2200001686433 246.22000008371333 246.2200000403726 246.22000001879886 246.22000000008376 246.22000000570856 246.22000001732806 246.22000004061388 246.22000008624366 246.22000017328935 246.22000033526007 246.22000062889973 246.22000114767886 246.22000204058367 246.22000353780916 246.22000598313272 246.22000987230965 246.22001589463656 246.22002497172627 246.2200382847622 246.2200572783038 246.22008362677093 246.22011914998888 246.22016566751773 246.2202247897222 246.22029765398082 246.22038463024356 246.2204850336428 246.22059689385375 246.2207168351499 246.22084011447365 246.2209608478803 246.22107242725838 246.22116809484538 246.22124161067626 246.22128792283868 246.22130374102431 246.22128792303764 246.22124161104574 246.2211680953854 246.22107242796892 246.22096084876137 246.22084011552525 246.22071683640044 246.22059689527484 246.220485035206 246.22038463197728 246.22029765588508 246.220224791797 246.22016566976305 246.22011915234788 246.22008362930046 246.22005728097545 246.22003828754754 246.2200249746537 246.22001589767768 246.22000987546446 246.22000598640122 246.22000354121977 246.22000204407954 246.22000115126 246.22000063259455 246.22000033904015 246.22000017712628 246.22000009013743 246.22000004459292 246.22000002133552 246.22000000980128 246.21999999805348 246.22000000099877 246.2200000070682 246.2200000192613 246.22000004316791 246.22000008877595 246.22000017357357 246.22000032734522 246.2200005990199 246.2200010665839 246.2200018505875 246.2200031310559 246.22000516753877 246.22000832102836 246.22001307407905 246.22002004519229 246.22002999078063 246.22004378764666 246.22006238863113 246.22008674656595 246.22011770468276 246.22015585850346 246.22020140180135 246.22025397593166 246.22031254919096 246.22037535389416 246.22043990649757 246.2205031260009 246.22056155219317 246.22061164651686 246.22065014154785 246.2206743919605 246.22068267485523 246.22067439213103 246.2206501418889 246.22061164702845 246.2205615528753 246.22050312685354 246.22043990752076 246.22037535508787 246.22031255052678 246.22025397740958 246.2202014034498 246.22015586032245 246.22011770661544 246.22008674866916 246.22006239087645 246.22004379000566 246.22002999331016 246.2200200478355 246.22001307683595 246.22000832392737 246.22000517055147 246.22000313415387 246.22000185379915 246.22000106988082 246.22000060240208 246.2200003308411 246.22000017712628 246.2200000923855 246.22000004686274 246.22000002301297 246.2200000108767 246.2200000048357 246.2199999970652 246.21999999857024 246.22000000167174 246.2200000079024 246.22000002013255 246.2200000434237 246.22000008678367 246.2200001653748 246.2200003041998 246.22000054313867 246.2200009438064 246.22000159812444 246.22000263880844 246.22000425023933 246.22000667907355 246.22001024133652 246.22001532355475 246.2200223737593 246.22003187888038 246.22004432582847 246.22006014542313 246.22007964206165 246.22010291467615 246.22012978007078 246.22015971098872 246.22019180421523 246.22022479060328 246.22025709574947 246.2202869515447 246.2203125497594 246.22033222074168 246.22034461273148 246.2203488452996 246.2203446128736 246.22033222105432 246.22031255024257 246.2202869521984 246.22025709654528 246.2202247915412 246.22019180532368 246.2201597122677 246.22012978146344 246.22010291623934 246.22007964373853 246.22006014727054 246.22004432778957 246.220031881012 246.2200223760046 246.22001532594217 246.22001024383763 246.22000668168835 246.2200042529678 246.2200026416222 246.22000160105188 246.2200009468191 246.22000054626506 246.22000030741145 246.2200001686433 246.22000009013743 246.22000004686274 246.2200000236 246.2200000114551 246.22000000525287 246.2200000021798 246.21999999664084 246.21999999739137 246.219999998938 246.2200000020735 246.2200000081582 246.22000001980132 246.2200000414381 246.22000008064379 246.22000014988657 246.22000026905366 246.2200004688567 246.22000079516297 246.22000131415453 246.220002117749 246.2200033289763 246.22000510541613 246.22000763981958 246.22001115560855 246.2200158956029 246.22002210259856 246.22002999146275 246.22003971396248 246.2200513194895 246.22006471660336 246.22007964245955 246.22009564656227 246.2201120960907 246.22012820588662 246.2201430942668 246.22015585949822 246.22016566893882 246.22017184855656 246.2201739592892 246.22017184869867 246.22016566925146 246.22015585995297 246.22014309486366 246.220128206654 246.22011209697177 246.22009564761387 246.22007964365326 246.22006471793918 246.220051320939 246.22003971558252 246.22002999319648 246.2200221044744 246.22001589759242 246.22001115771175 246.22000764203648 246.22000510774672 246.22000333142057 246.22000212030696 246.22000131679775 246.22000079791988 246.22000047169888 246.2200002719811 246.22000015289927 246.22000008371333 246.22000004459292 246.22000002301297 246.2200000114551 246.22000000539884 246.22000000232018 246.2200000008304 246.2199999965354 246.21999999690064 246.21999999768173 246.2199999991938 246.2200000021549 246.22000000783558 246.22000001837966 246.2200000374736 246.22000007115662 246.22000012919202 246.2200002264403 246.2200003852511 246.2200006378179 246.2200010289283 246.22000161839844 246.22000248289956 246.2200037162903 246.22000542727008 246.22000773400657 246.22001075465585 246.2200145937826 246.2200193252438 246.2200249730621 246.22003149279422 246.22003875644305 246.22004654483186 246.22005455000067 246.22006238982485 246.22006963526448 246.22007584745023 246.22008062124945 246.2200836285615 246.22008465578844 246.2200836287036 246.22008062153367 246.22007584787656 246.2200696358329 246.2200623905354 246.2200545508249 246.22004654582662 246.2200387575515 246.22003149404478 246.22002497445476 246.22001932675016 246.22001459540263 246.220010756418 246.2200077358824 246.2200054292596 246.2200037183935 246.22000248511645 246.2200016207006 246.22000103134414 246.22000064034742 246.22000038783747 246.22000022911195 246.22000013194892 246.2200000739988 246.2200000403726 246.22000002133552 246.2200000108767 246.22000000525287 246.22000000232018 246.22000000086496 246.22000000014071 246.21999999659712 246.21999999677058 246.21999999715644 246.21999999787454 246.2199999992808 246.22000000199353 246.22000000698753 246.22000001607037 246.22000003209521 246.22000005965825 246.22000010585742 246.22000018129324 246.22000030128322 246.22000048702708 246.2200007670025 246.22000117757807 246.22000176335817 246.22000257595028 246.2200036714735 246.220005106013 246.22000692928447 246.22000917633494 246.22001185860142 246.22001495490704 246.22001840452 246.22002210333753 246.22002590509263 246.22002962836575 246.22003306931748 246.22003601957957 246.22003828675173 246.22003971498566 246.22004020284288 246.22003971512777 246.22003828700753 246.22003601997747 246.2200330698575 246.22002962901945 246.22002590588843 246.22002210427544 246.2200184055716 246.22001495607233 246.2200118598804 246.22000917775603 246.22000693084766 246.22000510768987 246.22000367323565 246.2200025778261 246.2200017653477 246.22000117965285 246.22000076916254 246.22000048930082 246.22000030364222 246.2200001837375 246.22000010838696 246.22000006227304 246.22000003476685 246.22000001879886 246.22000000980128 246.2200000048357 246.2200000021798 246.2200000008304 246.22000000014071 246.2199999998117

CELL_DATA 0

