# vtk DataFile Version 4.2
Higgs Field 2D Slice - phi
ASCII

DATASET STRUCTURED_POINTS
DIMENSIONS 64 64 1
ORIGIN 0 0 0
SPACING 3.125 3.125 3.125

POINT_DATA 4096

SCALARS phi double 1
LOOKUP_TABLE default
246.2199975377989 246.21999754260216 246.21999755695512 246.21999758071567 246.21999761354274 246.2199976551237 246.2199977049754 246.21999776252943 246.21999782710367 246.21999789807305 246.2199979746421 246.21999805604423 246.21999814145707 246.21999823003173 246.21999832098 246.21999841349196 246.21999850682556 246.2199986002275 246.21999869313933 246.21999878492014 246.2199988751632 246.2199989635228 246.2199990496717 246.21999913341529 246.21999921456344 246.21999929287927 246.21999936802953 246.21999943958187 246.21999950697906 246.2199995695571 246.21999962666285 246.21999967779857 246.21999972262466 246.21999976115944 246.21999979369724 246.21999982089028 246.21999984357737 246.2199998626106 246.21999987885292 246.2199998930605 246.219999905751 246.21999991728603 246.2199999278457 246.2199999375348 246.2199999463206 246.2199999542461 246.219999961316 246.21999996748227 246.21999997287418 246.2199999774818 246.2199999814047 246.2199999847028 246.21999998747552 246.2199999898005 246.21999999173082 246.21999999332147 246.21999999460007 246.21999999567998 246.219999996561 246.2199999972431 246.21999999781153 246.2199999982947 246.21999999863576 246.2199999989484 246.21999754260216 246.21999754740543 246.21999756172997 246.21999758543367 246.2199976182039 246.21999765969963 246.2199977094661 246.21999776687815 246.21999783136755 246.21999790216748 246.2199979785972 246.21999805983572 246.21999814509437 246.21999823353542 246.21999832439283 246.21999841689842 246.21999851035588 246.2199986042215 246.21999869799006 246.219998791478 246.2199988845548 246.21999897735952 246.2199990701896 246.21999916327619 246.21999925684463 246.21999935068467 246.21999944407045 246.2199995356662 246.21999962339444 246.21999970478947 246.21999977720506 246.21999983832708 246.21999988657348 246.21999992151743 246.2199999439268 246.2199999556679 246.21999995933905 246.21999995784228 246.21999995389908 246.2199999496722 246.21999994666794 246.21999994561216 246.21999994662986 246.21999994946725 246.21999995360898 246.21999995853022 246.21999996369405 246.21999996880461 246.2199999735339 246.2199999778187 246.21999998157744 246.2199999847959 246.21999998753168 246.21999998984032 246.2199999917353 246.21999999332317 246.21999999462912 246.21999999568018 246.21999999656106 246.21999999727154 246.21999999783995 246.2199999982947 246.21999999866418 246.2199999989484 246.21999755695512 246.21999756172997 246.21999757596924 246.21999759953084 246.21999763213057 246.21999767337056 246.21999772282456 246.21999777992448 246.21999784401746 246.21999791445188 246.2199979904372 246.21999807121813 246.21999815602567 246.21999824409178 246.21999833473242 246.21999842727698 246.2199985214175 246.21999861695645 246.2199987142254 246.21999881398824 246.21999891767098 246.2199990271786 246.21999914474736 246.21999927258523 246.2199994121875 246.21999956357624 246.21999972457272 246.21999989036425 246.2200000535432 246.2200002046524 246.2200003337267 246.22000043183547 246.2200004927988 246.22000051454265 246.2200004994821 246.2200004540529 246.2200003874983 246.22000031009605 246.22000023141706 246.2200001590679 246.22000009797492 246.2200000503453 246.2200000160717 246.219999993602 246.2199999805008 246.21999997421926 246.21999997251132 246.21999997355306 246.21999997604058 246.2199999791023 246.21999998222523 246.21999998512044 246.21999998771958 246.2199999899393 246.21999999180872 246.21999999335782 246.2199999946598 246.21999999570937 246.21999999658973 246.21999999727163 246.21999999783998 246.2199999982947 246.21999999866418 246.2199999989484 246.21999758071567 246.21999758543367 246.21999759953084 246.2199976228651 246.21999765512382 246.21999769599452 246.21999774496598 246.21999780149932 246.21999786500064 246.21999793473867 246.2199980100216 246.21999809012573 246.21999817432314 246.21999826202028 246.21999835279513 246.2199984466374 246.21999854406914 246.21999864666324 246.21999875722562 246.21999888036223 246.2199990225498 246.21999919204583 246.21999939817982 246.21999964988436 246.21999995332362 246.22000030924139 246.22000071034387 246.22000113961036 246.22000157037664 246.22000196897926 246.22000229922847 246.22000252882685 246.22000263528903 246.22000261073822 246.22000246336384 246.2200022159355 246.22000190112007 246.22000155524944 246.22000121227126 246.22000089896343 246.22000063246037 246.22000042008426 246.22000026106292 246.22000014906163 246.22000007503414 246.22000002930983 246.22000000331863 246.2199999901006 246.21999998456664 246.2199999833708 246.21999998428652 246.21999998613802 246.21999998819663 246.21999999017385 246.21999999195268 246.2199999934652 246.2199999947246 246.21999999576897 246.21999999661907 246.21999999730033 246.21999999786848 246.21999999832315 246.21999999866418 246.2199999989484 246.21999761354274 246.2199976182039 246.21999763213057 246.21999765512382 246.21999768698487 246.2199977272878 246.21999777557926 246.21999783137986 246.21999789401778 246.21999796286576 246.21999803724947 246.21999811655175 246.2199982003374 246.2199982885072 246.21999838159422 246.2199984814963 246.21999859199897 246.2199987202174 246.21999887765395 246.21999908160788 246.21999935588087 246.21999973024163 246.22000023797267 246.22000091068236 246.22000177038467 246.22000282035265 246.2200040358464 246.22000535847596 246.22000669671283 246.2200079343842 246.22000894696413 246.2200096227209 246.2200098841058 246.2200097034954 246.22000910885419 246.2200081780151 246.22000702296563 246.22000576845912 246.22000453095256 246.22000340205977 246.22000244031278 246.22000167042307 246.22000108914602 246.22000067429713 246.22000039406907 246.22000021495197 246.22000010680762 246.22000004540803 246.22000001294234 246.21999999733976 246.2199999909451 246.21999998920546 246.21999998959768 246.21999999082138 246.21999999226517 246.21999999362532 246.21999999480843 246.21999999583514 246.21999999665059 246.21999999732972 246.21999999789722 246.21999999832323 246.21999999869263 246.21999999897682 246.2199976551237 246.21999765969963 246.21999767337056 246.21999769599452 246.2199977272878 246.21999776688241 246.21999781435645 246.2199978691825 246.21999793079766 246.21999799860697 246.21999807208468 246.21999815101594 246.21999823572898 246.21999832769785 246.21999843069776 246.21999855259455 246.2199987079499 246.21999892162492 246.21999923328275 246.21999970142883 246.2200004058883 246.22000144610507 246.2200029329106 246.22000497127507 246.2200076348478 246.22001093476146 246.22001478985985 246.22001900784954 246.22002328697852 246.22002724392388 246.22003046781836 246.22003259000954 246.2200333543854 246.22003266939137 246.22003062689467 246.22002748331994 246.22002360751856 246.22001941069885 246.22001527632582 246.22001150632204 246.2200082930946 246.2200057177997 246.22000376924782 246.2200023737044 246.22000142597187 246.22000081501983 246.22000044103487 246.22000022373712 246.22000010410954 246.22000004206265 246.2200000119964 246.21999999875226 246.21999999378224 246.21999999262903 246.21999999305118 246.2199999939815 246.21999999500957 246.21999999592217 246.2199999967174 246.21999999738975 246.21999999792658 246.21999999835194 246.21999999872114 246.21999999900527 246.2199977049754 246.2199977094661 246.21999772282456 246.21999774496598 246.21999777557926 246.21999781435645 246.21999786085686 246.21999791458023 246.21999797503693 246.21999804190548 246.21999811509184 246.21999819545147 246.21999828570597 246.21999839229088 246.21999852893418 246.21999872202068 246.21999901917044 246.21999950062659 246.22000029302475 246.22000158246138 246.22000362239578 246.22000672813977 246.2200112505219 246.22001752209306 246.22002577610593 246.2200360481597 246.2200480824177 246.2200612717532 246.22007466300954 246.22008704558144 246.22009712131472 246.22010372575568 246.22010604972883 246.22010380346063 246.22009727700885 246.2200872798616 246.2200749767568 246.22006166604757 246.22004855853817 246.2200366075842 246.22002642034082 246.22001825272994 246.22001206909556 246.22000763601443 246.220004620822 246.2200026724055 246.22000147508365 246.22000077505604 246.22000038568623 246.220000179827 246.22000007660995 246.22000002784657 246.22000000638468 246.21999999789944 246.21999999521634 246.21999999487483 246.21999999536573 246.21999999610097 246.2199999968336 246.21999999745637 246.2199999979864 246.21999999840963 246.21999999874978 246.21999999900532 246.21999776252943 246.21999776687815 246.21999777992448 246.21999780149932 246.21999783137986 246.2199978691825 246.21999791458023 246.21999796712487 246.219998026629 246.21999809324353 246.219998168323 246.21999825589316 246.21999836571035 246.2199985189364 246.2199987585029 246.2199991658805 246.21999988653837 246.2200011646733 246.22000338451343 246.22000711041622 246.22001310988153 246.22002233771485 246.2200358558584 246.22005467091395 246.22007948891894 246.2201104181781 246.22014668509587 246.2201864537734 246.22022684123098 246.22026418604472 246.22029456184833 246.22031444637628 246.22032139204345 246.22031452212013 246.22029471364868 246.22026441447 246.22022714710542 246.22018683817703 246.22014714930765 246.2201109635907 246.2200801170103 246.22005538321883 246.22003665388317 246.22002322282373 246.22001408329666 246.22000817301867 246.22000453692849 246.22000240712833 246.22000121877758 246.22000058710807 246.22000026738303 246.22000011345114 246.22000004327333 246.22000001317903 246.2200000012959 246.21999999724227 246.21999999631032 246.21999999649177 246.21999999701046 246.2199999975422 246.2199999980236 246.2199999984406 246.21999999877892 246.21999999903394 246.21999782710367 246.21999783136755 246.21999784401746 246.21999786500064 246.21999789401778 246.21999793079766 246.21999797503693 246.219998026629 246.2199980859161 246.2199981546853 246.21999823820974 246.21999834946737 246.2199985180608 246.2199988068712 246.2199993416627 246.22000035972752 246.22000228382123 246.22000582231834 246.22001208939253 246.22002272053385 246.22003993961158 246.22006651265482 246.22010551602597 246.22015986565688 246.2202316068731 246.22032105379668 246.22042596625144 246.22054102751872 246.220657888337 246.22076594490662 246.22085382582497 246.2209113301483 246.2209313692136 246.2209114037037 246.22085397324838 246.22076616673806 246.2206581854007 246.22054140083787 246.22042641704817 246.22032158346366 246.22023221683142 246.22016055738445 246.22010629102914 246.22006737221258 246.22004088488922 246.22002375244085 246.22001320855418 246.2200070289336 246.22000357760587 246.22000173994257 246.22000080697237 246.2200003553996 246.2200001471932 246.22000005599207 246.2200000182614 246.22000000371645 246.21999999872557 246.21999999739035 246.21999999735525 246.21999999770964 246.21999999810535 246.21999999850468 246.21999999880936 246.2199999990629 246.21999789807305 246.21999790216748 246.21999791445188 246.21999793473867 246.21999796286576 246.21999799860697 246.21999804190548 246.21999809324353 246.2199981546853 246.21999823235205 246.21999834189015 246.21999852074106 246.21999885222718 246.219999511984 246.22000085005632 246.22000352597493 246.2200087130841 246.2200183771718 246.2200356089306 246.22006494482235 246.2201125528699 246.22018610427165 246.22029413091838 246.22044471948013 246.22064354247928 246.22089147138823 246.2211822942235 246.22150126738026 246.22182523771374 246.22212479981482 246.2223684196139 246.22252780876673 246.2225833095834 246.2225278799347 246.22236856223404 246.22212501439873 246.22182552505723 246.2215016285065 246.22118273029778 246.22089198374638 246.2206441325424 246.22044538864085 246.2202948805978 246.22018693574876 246.22011346728155 246.22006594304963 246.22003669154194 246.22001954436615 246.22000996460565 246.22000486111315 246.22000226753224 246.2200010099218 246.22000042815412 246.2200001715592 246.2200000638194 246.22000002098707 246.22000000502385 246.2199999996297 246.21999999814332 246.21999999801739 246.21999999825806 246.21999999855268 246.2199999988432 246.21999999909278 246.2199979746421 246.2199979785972 246.2199979904372 246.2199980100216 246.21999803724947 246.21999807208468 246.21999811509184 246.219998168323 246.21999823820974 246.21999834189015 246.21999852225682 246.21999887957458 246.2199996364556 246.220001260415 246.2200046820886 246.22001165397018 246.22002529273792 246.22005081928452 246.22009644138217 246.2201742056976 246.22030049108943 246.22049566777108 246.2207823913162 246.22118213480613 246.22170996110864 246.22236818450952 246.22314031071048 246.22398719089324 246.22484734625104 246.22564269635404 246.22628950830523 246.226712667454 246.2268599765212 246.22671273600716 246.22628964569577 246.22564290312198 246.22484762313533 246.22398753886023 246.22314073092545 246.22236867822303 246.22171052965652 246.22118277958103 246.22078311368236 246.22049646897906 246.22030137221927 246.2201751675735 246.22009748454417 246.22005194396 246.22002649867105 246.22001294047885 246.22000604792225 246.22000270378308 246.2200011549707 246.2200004702524 246.22000018143095 246.2200000653826 246.220000021132 246.22000000527493 246.22000000007645 246.21999999867867 246.21999999848953 246.2199999986602 246.21999999891415 246.21999999912495 246.21999805604423 246.21999805983572 246.21999807121813 246.21999809012573 246.21999811655175 246.21999815101594 246.21999819545147 246.21999825589316 246.21999834946737 246.21999852074106 246.21999887957458 246.21999968214774 246.2200014953227 246.22000550902402 246.22001409037316 246.22003169623204 246.2200662518288 246.22013103249068 246.2202469075745 246.22044450702785 246.2207654752947 246.22126160494352 246.2219904990966 246.22300675416523 246.22434866841235 246.22602212634303 246.2279851908683 246.23013832506757 246.23232521745075 246.23434734605198 246.23599181742418 246.23706765027 246.23744213119923 246.23706771609469 246.23599194932933 246.23434754452077 246.23232548322216 246.23013865905108 246.22798559417237 246.22602260018976 246.2243492141376 246.22300737304795 246.22199119241577 246.2212623739497 246.2207663210111 246.22044543025024 246.22024790881449 246.2201321119472 246.2200674093029 246.2200329310132 246.2200154013245 246.2200068943834 246.22000295281637 246.22000120890513 246.2200004720998 246.2200001749698 246.2200000607385 246.2200000190339 246.22000000469222 246.2200000001892 246.21999999900683 246.21999999884247 246.2199999989774 246.21999999919106 246.21999814145707 246.21999814509437 246.21999815602567 246.21999817432314 246.2199982003374 246.21999823572898 246.21999828570597 246.21999836571035 246.2199985180608 246.21999885222718 246.2199996364556 246.2200014953227 246.22000580989865 246.22001547796856 246.22003626351207 246.220079017687 246.22016303579642 246.22032063793023 246.22060263221212 246.22108358917112 246.22186489446332 246.22307263959928 246.2248470621192 246.22732107957046 246.23058793094773 246.2346619424483 246.2394410169272 246.24468282819103 246.25000682999703 246.25492971309245 246.25893318039144 246.261552280505 246.2624639175798 246.26155234343065 246.25893330649856 246.2549299028642 246.25000708411554 246.24468314750894 246.23944140255296 246.23466239549035 246.23058845271348 246.22732167128203 246.22484772499874 246.22307337481206 246.2218657030041 246.22108447183572 246.22060358948372 246.22032166997934 246.22016414245252 246.22008019823954 246.22003751688104 246.22001680247706 246.22000720335822 246.22000295500484 246.22000115900659 246.22000043378162 246.22000015418493 246.22000005137352 246.2200000154512 246.22000000364457 246.2200000000853 246.21999999919584 246.21999999911668 246.21999999924142 246.21999823003173 246.21999823353542 246.21999824409178 246.21999826202028 246.2199982885072 246.21999832769785 246.21999839229088 246.2199985189364 246.2199988068712 246.219999511984 246.220001260415 246.22000550902402 246.22001547796856 246.22003792338162 246.22008628257223 246.22018585197213 246.22038161234872 246.22074890673548 246.22140617646707 246.22252725596448 246.22434848915663 246.22716381270436 246.23130013933815 246.23706731790654 246.24468270106073 246.2541796853854 246.26532026920913 246.27753955802945 246.28995044843697 246.30142628243124 246.31075884087224 246.31686426041838 246.31898936171856 246.31686432035977 246.3107589610108 246.3014264631649 246.28995069047625 246.27753986219858 246.26532063647446 246.2541801168838 246.2446831979859 246.23706788142377 246.23130077066958 246.22716451293002 246.224349259186 246.22252809656496 246.22140708812182 246.22074988961504 246.2203826662257 246.22018697627811 246.22008747619876 246.2200391847655 246.22001680503502 246.22000689912983 246.22000271043376 246.2200010181925 246.22000036503456 246.2200001242798 246.22000003964158 246.2200000113715 246.2200000024784 246.21999999995097 246.21999999935971 246.21999999931938 246.21999832098 246.21999832439283 246.21999833473242 246.21999835279513 246.21999838159422 246.21999843069776 246.21999852893418 246.2199987585029 246.2199993416627 246.22000085005632 246.2200046820886 246.22001409037316 246.22003626351207 246.22008628257223 246.2201941422098 246.2204163076176 246.22085318207326 246.22167294089877 246.22313995984447 246.2256422586313 246.22970738566679 246.23599144299658 246.24522413920846 246.25809709414716 246.27509546521037 246.2962937976697 246.32116084375173 246.34843569165082 246.3761382210871 246.4017535971697 246.42258493100323 246.43621291035913 246.44095634930324 246.4362129672594 246.42258504503113 246.40175376872313 246.37613845076294 246.34843598027328 246.3211611922303 246.29629420708443 246.2750959366697 246.25809762878794 246.24522473813914 246.23599210726877 246.22970811616156 246.2256430560592 246.22314082468867 246.22167387330137 246.2208541818353 246.22041737417067 246.2201952745023 246.22008747918304 246.22003752242327 246.22001540908363 246.22000605761406 246.2200022788725 246.22000081976213 246.2200002813665 246.22000009164503 246.22000002788414 246.22000000754338 246.22000000145323 246.21999999981827 246.21999999948312 246.21999841349196 246.21999841689842 246.21999842727698 246.2199984466374 246.2199984814963 246.21999855259455 246.21999872202068 246.2199991658805 246.22000035972752 246.22000352597493 246.22001165397018 246.22003169623204 246.220079017687 246.22018585197213 246.2204163076176 246.22089106910735 246.2218247299599 246.22357673394214 246.22671213477432 246.23206025200378 246.2407486211979 246.25417953702407 246.2739126142643 246.3014260602019 246.33775680730676 246.38306418233773 246.43621274349528 246.4945075300462 246.5537164085624 246.60846439430802 246.65298739619752 246.68211459090833 246.6922527608037 246.68211464471062 246.65298750402948 246.60846455653913 246.5537166257611 246.49450780295146 246.43621307295973 246.38306456932773 246.33775725290232 246.30142656545462 246.27391318028265 246.25418016477437 246.24074931147595 246.23206100554856 246.22671295201215 246.2235776149867 246.2218256746691 246.22089207691275 246.22041737758127 246.220186982673 246.22008020724923 246.22003294232505 246.2200129537518 246.22000487611982 246.2200017564556 246.22000060490006 246.220000198699 246.22000006184416 246.22000001788865 246.22000000448813 246.2200000006744 246.21999999973184 246.21999850682556 246.21999851035588 246.2199985214175 246.21999854406914 246.21999859199897 246.2199987079499 246.21999901917044 246.21999988653837 246.22000228382123 246.2200087130841 246.22002529273792 246.2200662518288 246.22016303579642 246.22038161234872 246.22085318207326 246.2218247299599 246.2237354288313 246.22732089173138 246.23373751870807 246.24468253783485 246.2624634852856 246.28995020003123 246.33033448125295 246.38664152527426 246.46099344613285 246.55371631096224 246.66248640392487 246.78178840616656 246.9029611283581 247.01500450131584 247.10612213776682 247.16573179096213 247.1864798319656 247.1657318417233 247.10612223943127 247.01500465425306 246.90296133307967 246.78178866332618 246.66248671428994 246.5537166754991 246.46099386575096 246.38664200102525 246.33033501413158 246.2899507909754 246.26246413509114 246.24468324712703 246.23373828794163 246.22732172102002 246.2237363180329 246.22182567856288 246.2208541891681 246.22038267659963 246.22016415549808 246.22006742470748 246.2200265161504 246.220009983904 246.2200035984674 246.22000124103178 246.2200004090773 246.22000012849537 246.2200000381524 246.22000001040198 246.2200000023591 246.22000000019347 246.2199986002275 246.2199986042215 246.21999861695645 246.21999864666324 246.2199987202174 246.21999892162492 246.21999950062659 246.2200011646733 246.22000582231834 246.2200183771718 246.22005081928452 246.22013103249068 246.22032063793023 246.22074890673548 246.22167294089877 246.22357673394214 246.22732089173138 246.23434692589385 246.24692092456905 246.2683687850896 246.30321236797616 246.35707542504747 246.43621262304407 246.54655215281554 246.69225252046974 246.87395268904183 247.0870990927489 247.32088388397045 247.5583345504446 247.77789529878342 247.95644986639772 248.073261226857 248.1139191700995 248.07326127460547 247.9564499620652 247.7778954426257 247.558334742888 247.3208841255834 247.08709938427037 246.87395303126763 246.69225291428094 246.54655259917848 246.43621312286825 246.35707597924238 246.3032129773376 246.26836945018601 246.24692164582677 246.23434770345497 246.2273217254538 246.2235776233427 246.22167388515322 246.22074990459328 246.2203216877145 246.22013213215504 246.22005196632787 246.22001956866671 246.22000705491104 246.22000243461213 246.22000080379038 246.22000025352307 246.22000007607505 246.22000002147817 246.22000000547064 246.22000000106326 246.21999869313933 246.21999869799006 246.2199987142254 246.21999875722562 246.21999887765395 246.21999923328275 246.22000029302475 246.22000338451343 246.22001208939253 246.2200356089306 246.22009644138217 246.2202469075745 246.22060263221212 246.22140617646707 246.22313995984447 246.22671213477432 246.23373751870807 246.24692092456905 246.2705143776362 246.31075849986857 246.37613798535745 246.47720508640973 246.62569588663527 246.8327338792801 247.10612197010715 247.44705909177551 247.8470010597458 248.28566832826777 248.7312141458919 249.14319181918816 249.47822663367364 249.69740820762803 249.7736976221443 249.6974082525059 249.4782267235715 249.14319195427655 248.73121432648344 248.28566855481722 247.84700133282158 247.44705941208818 247.10612233850935 246.8327342966245 246.6256963538029 246.47720560425327 246.37613855461586 246.3107591211103 246.27051505128756 246.24692165080057 246.23373829737764 246.2267129654272 246.22314084168485 246.2214071083865 246.2206036126474 246.22024793456455 246.22009751262482 246.22003672169737 246.2200132405286 246.22000457052295 246.22000151007077 246.22000047718728 246.22000014392637 246.22000004120477 246.2200000109943 246.22000000254653 246.21999878492014 246.219998791478 246.21999881398824 246.21999888036223 246.21999908160788 246.21999970142883 246.22000158246138 246.22000711041622 246.22002272053385 246.22006494482235 246.2201742056976 246.22044450702785 246.22108358917112 246.22252725596448 246.2256422586313 246.23206025200378 246.24468253783485 246.2683687850896 246.31075849986857 246.3830640492957 246.50052966783073 246.68211431913994 246.94890392656 247.32088378776297 247.8120731853661 248.42462621126768 249.14319174648543 249.9313340466729 250.73183486311908 251.4720246499438 252.07397316025822 252.46777110032494 252.60483833193527 252.4677711425596 252.07397324472754 251.47202477678988 250.73183503245562 249.93133425884096 249.1431920018545 248.424626510463 247.81207352906983 247.3208841767709 246.9489043617248 246.6821148012574 246.50053019763982 246.38306462739328 246.31075912665253 246.26836946073047 246.24468326221896 246.23206102476163 246.22564307902394 246.22252812291188 246.2210845012522 246.22044546245203 246.2201752022764 246.22006598002628 246.22002379140702 246.22000821374698 246.2200027146686 246.2200008585903 246.22000025960247 246.220000074813 246.22000002037612 246.22000000508498 246.2199988751632 246.2199988845548 246.21999891767098 246.2199990225498 246.21999935588087 246.2200004058883 246.22000362239578 246.22001310988153 246.22003993961158 246.2201125528699 246.22030049108943 246.2207654752947 246.22186489446332 246.22434848915663 246.22970738566679 246.2407486211979 246.2624634852856 246.30321236797616 246.37613798535745 246.50052966783073 246.70261301695234 247.0150043132494 247.47397897771697 248.113918956823 248.95894249142387 250.01275539944118 251.2489481995034 252.60483822236958 253.98198936835712 255.2553837136805 256.29095302446024 256.9684280096389 257.20423324646293 256.96842804948614 256.290953104041 255.25538383299482 253.98198952731974 252.60483842106575 251.24894843813206 250.0127556784571 248.95894281139547 248.11391931846083 247.47397938184525 247.01500476063552 246.70261350830685 246.5005302037789 246.37613856635403 246.30321299416326 246.26246415660637 246.24074933728286 246.2297081459191 246.22434929252466 246.2218657396397 246.22076636065938 246.22030141459604 246.220113512131 246.22004093195557 246.2200141322957 246.22000467155476 246.22000147818255 246.22000044747347 246.22000012937644 246.22000003555365 246.220000009145 246.2199989635228 246.21999897735952 246.2199990271786 246.21999919204583 246.21999973024163 246.22000144610507 246.22000672813977 246.22002233771485 246.22006651265482 246.22018610427165 246.22049566777108 246.22126160494352 246.22307263959928 246.22716381270436 246.23599144299658 246.25417953702407 246.28995020003123 246.35707542504747 246.47720508640973 246.68211431913994 247.0150043132494 247.529603564887 248.2856682380857 249.33983539406907 250.73183478703416 252.46777097646313 254.5041398690743 256.7376848862606 259.0062531554376 261.10390381212886 262.8097875001373 263.9257857336953 264.314225495163 263.92578577143934 262.8097875755117 261.1039039247925 259.0062533050495 256.73768507265015 254.50414009221313 252.46777123652177 250.73183508446735 249.33983572950208 248.28566861234276 247.5296039787071 247.0150047673999 246.6821148142177 246.4772056228979 246.35707600317346 246.2899508197666 246.2541801980562 246.235992144757 246.22716455425518 246.22307341974678 246.22126242215293 246.22049652019498 246.22018698972158 246.22006742862968 246.2200232814577 246.2200076965811 246.2200024358911 246.22000073784807 246.2200002136926 246.22000005902876 246.22000001540562 246.2199990496717 246.2199990701896 246.21999914474736 246.21999939817982 246.22000023797267 246.2200029329106 246.2200112505219 246.2200358558584 246.22010551602597 246.22029413091838 246.2207823913162 246.2219904990966 246.2248470621192 246.23130013933815 246.24522413920846 246.2739126142643 246.33033448125295 246.43621262304407 246.62569588663527 246.94890392656 247.47397897771697 248.2856682380857 249.47822648548285 251.14098866460333 253.33662143450607 256.07475365790543 259.2867653237099 262.80978744573815 266.3880525531634 269.69672536421695 272.38745508870164 274.14774486336523 274.76043985792575 274.14774489940396 272.3874551604949 269.69672547119626 266.38805269464666 262.8097876212138 259.28676553272317 256.0747539004563 253.33662171082193 251.1409889752526 249.47822683120452 248.2856686197324 247.4739793960561 246.94890438224527 246.62569638020668 246.4362131547574 246.33033505116506 246.2739132221194 246.2452247844381 246.23130082117495 246.2248477794263 246.22199125048132 246.22078317507325 246.22029494505824 246.22010635821806 246.2200367235732 246.22001214094564 246.22000384294532 246.2200011644067 246.22000033757416 246.22000009349244 246.22000002461903 246.21999913341529 246.21999916327619 246.21999927258523 246.21999964988436 246.22000091068236 246.22000497127507 246.22001752209306 246.22005467091395 246.22015986565688 246.22044471948013 246.22118213480613 246.22300675416523 246.22732107957046 246.23706731790654 246.25809709414716 246.3014260602019 246.38664152527426 246.54655215281554 246.8327338792801 247.32088378776297 248.113918956823 249.33983539406907 251.14098866460333 253.65230377531753 256.9684278928257 261.10390375147693 265.9550926746236 271.2760091844064 276.6803606845524 281.6775395778859 285.7414221524451 288.40003586141773 289.325405834115 288.40003589614906 285.7414222213962 281.67753968020406 276.6803608191576 271.27600935021866 265.95509287096075 261.10390397799796 256.96842814953055 253.65230406268944 251.1409889833528 249.33983574507718 248.1139193409424 247.32088420576105 246.83273433169688 246.54655264002048 246.38664204732422 246.30142661695476 246.25809768511976 246.23706794235991 246.22732173653827 246.22300744231165 246.2211828525964 246.22044546509525 246.22016063699365 246.22005546561337 246.22001833759717 246.22000580477012 246.22000175915565 246.2200005102095 246.22000014149373 246.22000003741428 246.21999921456344 246.21999925684463 246.2199994121875 246.21999995332362 246.22000177038467 246.2200076348478 246.22002577610593 246.22007948891894 246.2202316068731 246.22064354247928 246.22170996110864 246.22434866841235 246.23058793094773 246.24468270106073 246.27509546521037 246.33775680730676 246.46099344613285 246.69225252046974 247.10612197010715 247.8120731853661 248.95894249142387 250.73183478703416 253.33662143450607 256.9684278928257 261.7641307296111 267.7447613147136 274.76043976419095 282.45542750656534 290.2710770243399 297.49788283184347 303.37497685042064 307.21980317821624 308.5580520587525 307.21980321198123 303.3749769172685 297.49788293040996 290.2710771531471 282.45542766407846 274.7604399492731 267.74476152656905 261.76413096818294 256.96842815845497 253.33662172784653 250.7318351090237 248.95894284305726 247.81207356746756 247.10612238330197 246.69225296521265 246.46099392253754 246.33775731528797 246.27509600439862 246.2446832707739 246.23058853030474 246.2243492962195 246.22171061594483 246.22064422272447 246.2202323105378 246.22008021392833 246.2200265200726 246.22000839524222 246.22000254444993 246.22000073818913 246.2200002048974 246.22000005430095 246.21999929287927 246.21999935068467 246.21999956357624 246.22000030924139 246.22000282035265 246.22001093476146 246.2200360481597 246.2201104181781 246.22032105379668 246.22089147138823 246.22236818450952 246.22602212634303 246.2346619424483 246.2541796853854 246.2962937976697 246.38306418233773 246.55371631096224 246.87395268904183 247.44705909177551 248.42462621126768 250.01275539944118 252.46777097646313 256.07475365790543 261.10390375147693 267.7447613147136 276.02644957215546 285.7414221026503 296.3970693201797 307.21980313490155 317.22713463120425 325.36545045679 330.68958017758905 332.5427225600722 330.6895802106151 325.36545052193253 317.22713472675804 307.21980325876336 296.39706947041685 285.74142227750065 276.0264497707095 267.74476153640296 261.1039039967563 256.07475392734324 252.467771271111 250.01275572032228 248.42462655934835 247.4470594677663 246.87395309348275 246.55371674408067 246.3830646440484 246.2962942876884 246.25418020311525 246.23466248709352 246.226022696852 246.22236877960327 246.220892089532 246.22032169325672 246.22011107702176 246.2200367242269 246.22001162575006 246.22000352376153 246.22000102248418 246.22000028392446 246.220000075353 246.21999936802953 246.21999944407045 246.21999972457272 246.22000071034387 246.2200040358464 246.22001478985985 246.2200480824177 246.22014668509587 246.22042596625144 246.2211822942235 246.22314031071048 246.2279851908683 246.2394410169272 246.26532026920913 246.32116084375173 246.43621274349528 246.66248640392487 247.0870990927489 247.8470010597458 249.14319174648543 251.2489481995034 254.5041398690743 259.2867653237099 265.9550926746236 274.76043976419095 285.7414221026503 298.62284657478216 312.7515447689172 327.10178897153935 340.37086250184655 351.1617422815565 358.22119351989767 360.6783403125616 358.2211935522984 351.1617423452211 340.37086259467185 327.10178909091053 312.75154491239 298.62284674025335 285.74142228864196 274.7604399701915 265.95509290068986 259.2867655706377 254.50414013794366 251.24894849139434 249.143192062478 247.8470014006642 247.08709945919 246.66248679614446 246.43621316152178 246.32116128735777 246.26532073788312 246.2394415099586 246.22798570729077 246.22314084938714 246.2211828537617 246.22042654508797 246.2201472814686 246.22004869439394 246.22001541530798 246.22000467257794 246.22000135597142 246.22000037662357 246.2200001000435 246.21999943958187 246.2199995356662 246.21999989036425 246.22000113961036 246.22000535847596 246.22001900784954 246.2200612717532 246.2201864537734 246.22054102751872 246.22150126738026 246.22398719089324 246.23013832506757 246.24468282819103 246.27753955802945 246.34843569165082 246.4945075300462 246.78178840616656 247.32088388397045 248.28566832826777 249.9313340466729 252.60483822236958 256.7376848862606 262.80978744573815 271.2760091844064 282.45542750656534 296.3970693201797 312.7515447689172 330.68958013518386 348.9088940796799 365.7555353621906 379.45581973742674 388.41861901369236 391.53825434074014 388.41861904535415 379.45581979938606 365.7555354521169 348.9088941945036 330.68958027200597 312.75154492517976 296.39706949412056 282.45542769744554 271.27600939233963 262.80978767146337 256.73768513080097 252.6048384869757 249.9313343324816 248.285668636217 247.32088421465704 246.78178875998842 246.49450790706018 246.34843609168638 246.27753998063184 246.244683272735 246.23013879072886 246.22398767659183 246.22150177189403 246.22054154942657 246.22018699148373 246.22006182356068 246.22001957182152 246.2200059325945 246.2200017217154 246.22000047832415 246.22000012712198 246.21999950697906 246.21999962339444 246.2200000535432 246.22000157037664 246.22000669671283 246.22002328697852 246.22007466300954 246.22022684123098 246.220657888337 246.22182523771374 246.22484734625104 246.23232521745075 246.25000682999703 246.28995044843697 246.3761382210871 246.5537164085624 246.9029611283581 247.5583345504446 248.7312141458919 250.73183486311908 253.98198936835712 259.0062531554376 266.3880525531634 276.6803606845524 290.2710770243399 307.21980313490155 327.10178897153935 348.9088940796799 371.05794697627607 391.5382543045309 408.19356439093883 419.08955728293654 422.8820693406809 419.08955731357514 408.1935644508518 391.5382543909897 371.05794708598387 348.9088942092829 327.1017891182522 307.21980329684845 290.2710772005545 276.6803608750347 266.38805275865235 259.00625337701325 253.98198960729843 250.73183512064819 248.73121442294672 247.5583348477357 246.90296144628334 246.5537167472639 246.37613858039435 246.2899508280089 246.25000722929363 246.2323256356762 246.22484778249586 246.22182569084106 246.22065835709626 246.22022732417267 246.2200751585989 246.2200237934818 246.22000721233948 246.2200020932224 246.22000058159014 246.2200001546246 246.2199995695571 246.21999970478947 246.2200002046524 246.22000196897926 246.2200079343842 246.22002724392388 246.22008704558144 246.22026418604472 246.22076594490662 246.22212479981482 246.22564269635404 246.23434734605198 246.25492971309245 246.30142628243124 246.4017535971697 246.60846439430802 247.01500450131584 247.77789529878342 249.14319181918816 251.4720246499438 255.2553837136805 261.10390381212886 269.69672536421695 281.6775395778859 297.49788283184347 317.22713463120425 340.37086250184655 365.7555353621906 391.5382543045309 415.37846138490863 434.7661607524888 447.4496973174305 451.86439048137504 447.4496973467617 434.7661608095596 415.37846146699053 391.5382544080996 365.75553548377866 340.3708626384981 317.22713478081613 297.49788299339247 281.677539751372 269.6967255503223 261.1039040119903 255.2553839285486 251.4720248810123 249.14319206748021 247.77789556498115 247.015004785874 246.60846469739712 246.40175391867606 246.30142662204224 246.25493007032492 246.23434772022378 246.22564308664096 246.22212520519366 246.22076636426894 246.22026461813996 246.2200874889601 246.22002769707962 246.22000839569696 246.22000243671533 246.22000067707805 246.2200001800573 246.21999962666285 246.21999977720506 246.2200003337267 246.22000229922847 246.22000894696413 246.22003046781836 246.22009712131472 246.22029456184833 246.22085382582497 246.2223684196139 246.22628950830523 246.23599181742418 246.25893318039144 246.31075884087224 246.42258493100323 246.65298739619752 247.10612213776682 247.95644986639772 249.47822663367364 252.07397316025822 256.29095302446024 262.8097875001373 272.38745508870164 285.7414221524451 303.37497685042064 325.36545045679 351.1617422815565 379.45581973742674 408.19356439093883 434.7661607524888 456.3759356979411 470.51316598325707 475.43383882204887 470.51316601071244 456.37593575131706 434.7661608290569 408.19356448717474 379.4558198498062 351.16174240718044 325.36545059355524 303.37497699730403 285.7414223092761 272.38745525616235 262.80978767942145 256.2909532167047 252.07397336665667 249.47822685522087 247.95645010380426 247.10612239143057 246.65298766631744 246.4225852175509 246.31075914353502 246.258933498743 246.23599215086767 246.2262898561017 246.22236878088225 246.22085419954203 246.22029494690565 246.22009751643333 246.220030871634 246.22000935805573 246.22000271608968 246.22000075473747 246.22000020074537 246.21999967779857 246.21999983832708 246.22000043183547 246.22000252882685 246.2200096227209 246.22003259000954 246.22010372575568 246.22031444637628 246.2209113301483 246.22252780876673 246.226712667454 246.23706765027 246.261552280505 246.31686426041838 246.43621291035913 246.68211459090833 247.16573179096213 248.073261226857 249.69740820762803 252.46777110032494 256.9684280096389 263.9257857336953 274.14774486336523 288.40003586141773 307.21980317821624 330.68958017758905 358.22119351989767 388.41861901369236 419.08955728293654 447.4496973174305 470.51316598325707 485.6014104703946 490.85309791661405 485.6014104955194 470.51316603208556 447.4496973873479 419.0895573705891 388.41861911578314 358.22119363364135 330.6895803009961 307.2198033102635 288.40003600193467 274.14774501303395 263.92578589348216 256.9684281807376 252.46777128384392 249.69740840444837 248.07326143768924 247.16573201620417 246.6821148307307 246.436213164705 246.3168645290888 246.26155256310204 246.2370679462537 246.2267129761706 246.22252812944888 246.2209116618865 246.22031478817576 246.22010407647957 246.22003294846414 246.22000998762724 246.2200028988491 246.22000080555253 246.22000021426103 246.21999972262466 246.21999988657348 246.2200004927988 246.22000263528903 246.2200098841058 246.2200333543854 246.22010604972883 246.22032139204345 246.2209313692136 246.2225833095834 246.2268599765212 246.23744213119923 246.2624639175798 246.31898936171856 246.44095634930324 246.6922527608037 247.1864798319656 248.1139191700995 249.7736976221443 252.60483833193527 257.20423324646293 264.314225495163 274.76043985792575 289.325405834115 308.5580520587525 332.5427225600722 360.6783403125616 391.53825434074014 422.8820693406809 451.86439048137504 475.43383882204887 490.85309791661405 496.2199999091074 490.85309793912404 475.4338388657046 451.8643905437891 422.88206941889746 391.5382544318033 360.67834041379973 332.54272266978 308.5580521759636 289.3254059587726 274.76043999054144 264.31422563664626 257.2042333978938 252.6048384943085 249.7736977962557 248.11391935657434 247.18648003114495 246.69225297285809 246.44095657420422 246.31898959929563 246.26246416743504 246.23744239290633 246.22686024951173 246.2225835931468 246.22093166255405 246.22032169425148 246.22010635986652 246.22003367137273 246.22001020680588 246.22000296247975 246.220000823258 246.2200002189938 246.21999976115944 246.21999992151743 246.22000051454265 246.22000261073822 246.2200097034954 246.22003266939137 246.22010380346063 246.22031452212013 246.2209114037037 246.2225278799347 246.22671273600716 246.23706771609469 246.26155234343065 246.31686432035977 246.4362129672594 246.68211464471062 247.1657318417233 248.07326127460547 249.6974082525059 252.4677711425596 256.96842804948614 263.92578577143934 274.14774489940396 288.40003589614906 307.21980321198123 330.6895802106151 358.2211935522984 388.41861904535415 419.08955731357514 447.4496973467617 470.51316601071244 485.6014104955194 490.85309793912404 485.6014105151304 470.5131660487407 447.44969740116085 419.08955738190093 388.4186191248781 358.22119364086046 330.68958030668045 307.219803314811 288.40003600557264 274.1477450159898 263.9257858958696 256.9684281827271 252.46777128546395 249.6974084058126 248.0732614388261 247.1657320171421 246.6821148314981 246.4362131653587 246.3168645296004 246.26155256349995 246.23706794659475 246.22671297645482 246.22252812967625 246.22091166205703 246.22031478831786 246.22010407662168 246.2200329485494 246.2200099877125 246.22000289890593 246.22000080558095 246.22000021431788 246.21999979369724 246.2199999439268 246.2200004994821 246.22000246336384 246.22000910885419 246.22003062689467 246.22009727700885 246.22029471364868 246.22085397324838 246.22236856223404 246.22628964569577 246.23599194932933 246.25893330649856 246.3107589610108 246.42258504503113 246.65298750402948 247.10612223943127 247.9564499620652 249.4782267235715 252.07397324472754 256.290953104041 262.8097875755117 272.3874551604949 285.7414222213962 303.3749769172685 325.36545052193253 351.1617423452211 379.45581979938606 408.1935644508518 434.7661608095596 456.37593575131706 470.51316603208556 475.4338388657046 470.5131660487407 456.3759357837178 434.7661608560007 408.19356450923 379.4558198675413 351.1617424213913 325.3654506048671 303.37497700634214 285.7414223165521 272.38745526207407 262.8097876841963 256.2909532206837 252.07397336992517 249.47822685794935 247.95645010604957 247.1061223933064 246.65298766788064 246.42258521880146 246.31075914458663 246.25893349959566 246.2359921515498 246.22628985667012 246.222368781337 246.2208541999115 246.22029494718987 246.2200975166607 246.22003087183296 246.22000935819784 246.22000271620337 246.22000075482273 246.22000020080222 246.21999982089028 246.2199999556679 246.2200004540529 246.2200022159355 246.2200081780151 246.22002748331994 246.2200872798616 246.22026441447 246.22076616673806 246.22212501439873 246.22564290312198 246.23434754452077 246.2549299028642 246.3014264631649 246.40175376872313 246.60846455653913 247.01500465425306 247.7778954426257 249.14319195427655 251.47202477678988 255.25538383299482 261.1039039247925 269.69672547119626 281.67753968020406 297.49788293040996 317.22713472675804 340.37086259467185 365.7555354521169 391.5382543909897 415.37846146699053 434.7661608290569 447.4496973873479 451.8643905437891 447.44969740116085 434.7661608560007 415.37846150575774 391.53825443987506 365.7555355095287 340.37086265918913 317.22713479747125 297.49788300675067 281.6775397621723 269.69672555913303 261.10390401920944 255.25538393448875 251.47202488592924 249.14319207157294 247.77789556836333 247.01500478868775 246.60846469969928 246.40175392058032 246.30142662360544 246.2549300716039 246.23434772124696 246.2256430874652 246.22212520587578 246.22076636483737 246.2202646185663 246.22008748930116 246.22002769736383 246.22000839592434 246.22000243688586 246.22000067722016 246.22000018017098 246.21999984357737 246.21999995933905 246.2200003874983 246.22000190112007 246.22000702296563 246.22002360751856 246.2200749767568 246.22022714710542 246.2206581854007 246.22182552505723 246.22484762313533 246.23232548322216 246.25000708411554 246.28995069047625 246.37613845076294 246.5537166257611 246.90296133307967 247.558334742888 248.73121432648344 250.73183503245562 253.98198952731974 259.0062533050495 266.38805269464666 276.6803608191576 290.2710771531471 307.21980325876336 327.10178909091053 348.9088941945036 371.05794708598387 391.5382544080996 408.19356448717474 419.0895573705891 422.88206941889746 419.08955738190093 408.19356450923 391.53825443987506 371.0579471263427 348.90889424219523 327.1017891449118 307.2198033183921 290.2710772179486 276.68036088924555 266.3880527702484 259.00625338656295 253.9819896152281 250.7318351272136 248.7312144284037 247.55833485225475 246.902961450035 246.55371675036187 246.3761385829523 246.2899508301121 246.25000723099893 246.23232563706887 246.22484778363273 246.22182569175055 246.22065835783522 246.22022732476952 246.22007515905364 246.22002379385128 246.22000721265212 246.22000209344978 246.22000058176067 246.22000015476672 246.2199998626106 246.21999995784228 246.22000031009605 246.22000155524944 246.22000576845912 246.22001941069885 246.22006166604757 246.22018683817703 246.22054140083787 246.2215016285065 246.22398753886023 246.23013865905108 246.24468314750894 246.27753986219858 246.34843598027328 246.49450780295146 246.78178866332618 247.3208841255834 248.28566855481722 249.93133425884096 252.60483842106575 256.73768507265015 262.8097876212138 271.27600935021866 282.45542766407846 296.39706947041685 312.75154491239 330.68958027200597 348.9088942092829 365.75553548377866 379.4558198498062 388.41861911578314 391.5382544318033 388.4186191248781 379.4558198675413 365.7555355095287 348.90889424219523 330.6895803111711 312.7515449571826 296.39706952026853 282.4554277187618 271.2760094098474 262.80978768584475 256.7376851427381 252.60483849686645 249.9313343407239 248.2856686430382 247.32088422034138 246.781788764678 246.49450791095396 246.34843609489803 246.27753998327506 246.24468327489504 246.23013879246258 246.22398767801292 246.22150177305932 246.2205415503645 246.22018699225112 246.22006182415754 246.22001957227627 246.22000593296397 246.22000172202803 246.22000047855153 246.2200001272925 246.21999987885292 246.21999995389908 246.22000023141706 246.22000121227126 246.22000453095256 246.22001527632582 246.22004855853817 246.22014714930765 246.22042641704817 246.22118273029778 246.22314073092545 246.22798559417237 246.23944140255296 246.26532063647446 246.3211611922303 246.43621307295973 246.66248671428994 247.08709938427037 247.84700133282158 249.1431920018545 251.24894843813206 254.50414009221313 259.28676553272317 265.95509287096075 274.7604399492731 285.74142227750065 298.62284674025335 312.75154492517976 327.1017891182522 340.3708626384981 351.16174240718044 358.22119363364135 360.67834041379973 358.22119364086046 351.1617424213913 340.37086265918913 327.1017891449118 312.7515449571826 298.62284677714473 285.74142231899634 274.7604399952026 265.95509292138087 259.28676558780444 254.50414015221136 251.24894850327462 249.14319207236875 247.8470014089065 247.08709946603963 246.6624868018288 246.43621316623978 246.32116129122312 246.26532074106635 246.2394415125734 246.2279857094224 246.22314085112086 246.22118285515435 246.22042654622484 246.2201472823781 246.22004869510448 246.22001541587642 246.22000467300427 246.22000135631248 246.2200003769078 246.22000010027088 246.2199998930605 246.2199999496722 246.2200001590679 246.22000089896343 246.22000340205977 246.22001150632204 246.2200366075842 246.2201109635907 246.22032158346366 246.22089198374638 246.22236867822303 246.22602260018976 246.23466239549035 246.2541801168838 246.29629420708443 246.38306456932773 246.5537166754991 246.87395303126763 247.44705941208818 248.424626510463 250.0127556784571 252.46777123652177 256.0747539004563 261.10390397799796 267.74476152656905 276.0264497707095 285.74142228864196 296.39706949412056 307.21980329684845 317.22713478081613 325.36545059355524 330.6895803009961 332.54272266978 330.68958030668045 325.3654506048671 317.22713479747125 307.2198033183921 296.39706952026853 285.74142231899634 276.02644980515663 267.7447615651089 261.1039040206305 256.07475394723843 252.4677712877377 250.0127557342205 248.4246265709444 247.4470594774297 246.8739531015261 246.55371675075978 246.38306464956221 246.29629429223587 246.2541802068385 246.23466249013464 246.2260226993531 246.2223687816212 246.22089209115202 246.22032169456412 246.22011107807336 246.22003672507955 246.22001162640376 246.22000352430155 246.2200010229105 246.22000028426552 246.2200000756088 246.219999905751 246.21999994666794 246.22000009797492 246.22000063246037 246.22000244031278 246.2200082930946 246.22002642034082 246.2200801170103 246.22023221683142 246.2206441325424 246.22171052965652 246.2243492141376 246.23058845271348 246.2446831979859 246.2750959366697 246.33775725290232 246.46099386575096 246.69225291428094 247.10612233850935 247.81207352906983 248.95894281139547 250.73183508446735 253.33662171082193 256.96842814953055 261.76413096818294 267.74476153640296 274.7604399701915 282.45542769744554 290.2710772005545 297.49788299339247 303.37497699730403 307.2198033102635 308.5580521759636 307.219803314811 303.37497700634214 297.49788300675067 290.2710772179486 282.4554277187618 274.7604399952026 267.7447615651089 261.76413100047 256.96842818551244 253.33662175052706 250.73183512803783 248.95894285897342 247.81207358079735 247.10612239444328 246.69225297447812 246.46099393023982 246.33775732165444 246.27509600962821 246.24468327506557 246.23058853382904 246.22434929909008 246.2217106182754 246.2206442246003 246.22023231207257 246.22008021512204 246.22002652103893 246.2200083960096 246.2200025450752 246.2200007386723 246.22000020526687 246.22000005458517 246.21999991728603 246.21999994561216 246.2200000503453 246.22000042008426 246.22000167042307 246.2200057177997 246.22001825272994 246.22005538321883 246.22016055738445 246.22044538864085 246.22118277958103 246.22300737304795 246.22732167128203 246.23706788142377 246.25809762878794 246.30142656545462 246.38664200102525 246.54655259917848 246.8327342966245 247.3208841767709 248.11391931846083 249.33983572950208 251.1409889752526 253.65230406268944 256.96842815845497 261.1039039967563 265.95509290068986 271.27600939233963 276.6803608750347 281.677539751372 285.7414223092761 288.40003600193467 289.3254059587726 288.40003600557264 285.7414223165521 281.6775397621723 276.68036088924555 271.2760094098474 265.95509292138087 261.1039040206305 256.96842818551244 253.65230409295856 251.14098900884707 249.33983576650715 248.11391935893334 247.32088422082455 246.83273434431612 246.5465526505081 246.38664205604968 246.30142662414545 246.2580976910599 246.23706794724845 246.2273217405173 246.22300744558015 246.22118285523962 246.22044546722688 246.22016063869896 246.2200554669776 246.2200183386772 246.22000580562278 246.22000175983777 246.22000051077794 246.22000014192005 246.22000003775534 246.2199999278457 246.21999994662986 246.2200000160717 246.22000026106292 246.22000108914602 246.22000376924782 246.22001206909556 246.22003665388317 246.22010629102914 246.2202948805978 246.22078311368236 246.22199119241577 246.22484772499874 246.23130077066958 246.24522473813914 246.27391318028265 246.33033501413158 246.43621312286825 246.6256963538029 246.9489043617248 247.47397938184525 248.28566861234276 249.47822683120452 251.1409889833528 253.33662172784653 256.07475392734324 259.2867655706377 262.80978767146337 266.38805275865235 269.6967255503223 272.38745525616235 274.14774501303395 274.76043999054144 274.1477450159898 272.38745526207407 269.69672555913303 266.3880527702484 262.80978768584475 259.28676558780444 256.07475394723843 253.33662175052706 251.14098900884707 249.4782268595978 248.28566864366348 247.47397941617868 246.94890439912777 246.62569639433227 246.436213166524 246.3303350609137 246.27391323019117 246.2452247910888 246.23130082663192 246.22484778388852 246.2219912541193 246.2207831780291 246.22029494741724 246.22010636015074 246.22003672510797 246.22001214216777 246.22000384394008 246.22000116520252 246.22000033817102 246.2200000939472 246.2200000249885 246.2199999375348 246.21999994946725 246.219999993602 246.22000014906163 246.22000067429713 246.2200023737044 246.22000763601443 246.22002322282373 246.22006737221258 246.22018693574876 246.22049646897906 246.2212623739497 246.22307337481206 246.22716451293002 246.23599210726877 246.25418016477437 246.2899507909754 246.35707597924238 246.47720560425327 246.6821148012574 247.01500476063552 247.5296039787071 248.2856686197324 249.33983574507718 250.7318351090237 252.467771271111 254.50414013794366 256.73768513080097 259.00625337701325 261.1039040119903 262.80978767942145 263.92578589348216 264.31422563664626 263.9257858958696 262.8097876841963 261.10390401920944 259.00625338656295 256.7376851427381 254.50414015221136 252.4677712877377 250.73183512803783 249.33983576650715 248.28566864366348 247.52960400513928 247.01500478965409 246.68211483291918 246.47720563852985 246.35707601621903 246.28995083059527 246.25418020700903 246.23599215211823 246.227164560309 246.22307342469216 246.22126242618882 246.22049652346348 246.2201869923648 246.2200674307613 246.22002328316302 246.22000769794533 246.22000243697113 246.22000073870072 246.22000021437472 246.22000005956878 246.22000001583194 246.2199999463206 246.21999995360898 246.2199999805008 246.22000007503414 246.22000039406907 246.22000142597187 246.220004620822 246.22001408329666 246.22004088488922 246.22011346728155 246.22030137221927 246.2207663210111 246.2218657030041 246.224349259186 246.22970811616156 246.24074931147595 246.26246413509114 246.3032129773376 246.37613855461586 246.50053019763982 246.70261350830685 247.0150047673999 247.4739793960561 248.1139193409424 248.95894284305726 250.01275572032228 251.24894849139434 252.6048384869757 253.98198960729843 255.2553839285486 256.2909532167047 256.9684281807376 257.2042333978938 256.9684281827271 256.2909532206837 255.25538393448875 253.9819896152281 252.60483849686645 251.24894850327462 250.0127557342205 248.95894285897342 248.11391935893334 247.47397941617868 247.01500478965409 246.70261353277795 246.5005302243278 246.37613858352074 246.30321300851622 246.26246416851507 246.2407493471452 246.22970815401928 246.22434929920377 246.22186574509666 246.22076636509317 246.22030141817717 246.22011351505844 246.22004093431457 246.22001413419994 246.2200046730611 246.22000147937626 246.22000044841138 246.22000013014383 246.2200000361505 246.22000000959974 246.2199999542461 246.21999995853022 246.21999997421926 246.22000002930983 246.22000021495197 246.22000081501983 246.2200026724055 246.22000817301867 246.22002375244085 246.22006594304963 246.2201751675735 246.22044543025024 246.22108447183572 246.22252809656496 246.2256430560592 246.23206100554856 246.24468324712703 246.26836945018601 246.3107591211103 246.38306462739328 246.5005302037789 246.6821148142177 246.94890438224527 247.32088420576105 247.81207356746756 248.42462655934835 249.143192062478 249.9313343324816 250.73183512064819 251.4720248810123 252.07397336665667 252.46777128384392 252.6048384943085 252.46777128546395 252.07397336992517 251.47202488592924 250.7318351272136 249.9313343407239 249.14319207236875 248.4246265709444 247.81207358079735 247.32088422082455 246.94890439912777 246.68211483291918 246.5005302243278 246.383064649818 246.31075914541086 246.26836947639083 246.2446832752361 246.23206103550504 246.2256430878631 246.22252813018784 246.22108450722075 246.22044546728372 246.2201752061986 246.2200659831811 246.22002379396497 246.22000821579334 246.22000271631705 246.2200008598977 246.22000026065407 246.22000007563722 246.2200000210014 246.22000000556815 246.219999961316 246.21999996369405 246.21999997251132 246.22000000331863 246.22000010680762 246.22000044103487 246.22000147508365 246.22000453692849 246.22001320855418 246.22003669154194 246.22009748454417 246.22024790881449 246.22060358948372 246.22140708812182 246.22314082468867 246.22671295201215 246.23373828794163 246.24692164582677 246.27051505128756 246.31075912665253 246.37613856635403 246.4772056228979 246.62569638020668 246.83273433169688 247.10612238330197 247.4470594677663 247.8470014006642 248.285668636217 248.73121442294672 249.14319206748021 249.47822685522087 249.69740840444837 249.7736977962557 249.6974084058126 249.47822685794935 249.14319207157294 248.7312144284037 248.2856686430382 247.8470014089065 247.4470594774297 247.10612239444328 246.83273434431612 246.62569639433227 246.47720563852985 246.37613858352074 246.31075914541086 246.2705150716375 246.2469216677399 246.2337383114748 246.2267129770801 246.2231408512914 246.22140711625931 246.22060361909914 246.22024793982257 246.22009751688807 246.2200367251364 246.22001324331393 246.22000457276826 246.22000151183292 246.22000047857995 246.22000014506324 246.22000004208584 246.22000001167643 246.22000000308654 246.21999996748227 246.21999996880461 246.21999997355306 246.2199999901006 246.22000004540803 246.22000022373712 246.22000077505604 246.22000240712833 246.2200070289336 246.22001954436615 246.22005194396 246.2201321119472 246.22032166997934 246.22074988961504 246.22167387330137 246.2235776149867 246.22732172102002 246.23434770345497 246.24692165080057 246.26836946073047 246.30321299416326 246.35707600317346 246.4362131547574 246.54655264002048 246.69225296521265 246.87395309348275 247.08709945919 247.32088421465704 247.5583348477357 247.77789556498115 247.95645010380426 248.07326143768924 248.11391935657434 248.0732614388261 247.95645010604957 247.77789556836333 247.55833485225475 247.32088422034138 247.08709946603963 246.8739531015261 246.69225297447812 246.5465526505081 246.436213166524 246.35707601621903 246.30321300851622 246.26836947639083 246.2469216677399 246.23434772175855 246.227321740631 246.2235776359051 246.22167389549872 246.22074991309137 246.2203216946778 246.22013213781096 246.2200519709322 246.22001957238996 246.22000705789532 246.22000243699955 246.22000080569464 246.22000025505784 246.2200000772972 246.2200000224161 246.2200000062096 246.2200000016601 246.21999997287418 246.2199999735339 246.21999997604058 246.21999998456664 246.22000001294234 246.22000010410954 246.22000038568623 246.22000121877758 246.22000357760587 246.22000996460565 246.22002649867105 246.2200674093029 246.22016414245252 246.2203826662257 246.2208541818353 246.2218256746691 246.2237363180329 246.2273217254538 246.23373829737764 246.24468326221896 246.26246415660637 246.2899508197666 246.33033505116506 246.38664204732422 246.46099392253754 246.55371674408067 246.66248679614446 246.78178875998842 246.90296144628334 247.015004785874 247.10612239143057 247.16573201620417 247.18648003114495 247.1657320171421 247.1061223933064 247.01500478868775 246.902961450035 246.781788764678 246.6624868018288 246.55371675075978 246.46099393023982 246.38664205604968 246.3303350609137 246.28995083059527 246.26246416851507 246.2446832752361 246.2337383114748 246.227321740631 246.22373633431855 246.22182569203477 246.220854200281 246.220382685723 246.22016416294457 246.22006743078973 246.22002652109578 246.22000998788303 246.22000360167905 246.22000124358973 246.22000041115209 246.22000013014383 246.22000003943137 246.22000001142516 246.2200000031549 246.22000000084716 246.2199999774818 246.2199999778187 246.2199999791023 246.2199999833708 246.21999999733976 246.22000004206265 246.220000179827 246.22000058710807 246.22000173994257 246.22000486111315 246.22001294047885 246.2200329310132 246.22008019823954 246.22018697627811 246.22041737417067 246.22089207691275 246.22182567856288 246.2235776233427 246.2267129654272 246.23206102476163 246.24074933728286 246.2541801980562 246.2739132221194 246.30142661695476 246.33775731528797 246.3830646440484 246.43621316152178 246.49450790706018 246.5537167472639 246.60846469739712 246.65298766631744 246.6821148307307 246.69225297285809 246.6821148314981 246.65298766788064 246.60846469969928 246.55371675036187 246.49450791095396 246.43621316623978 246.38306464956221 246.33775732165444 246.30142662414545 246.27391323019117 246.25418020700903 246.2407493471452 246.23206103550504 246.2267129770801 246.2235776359051 246.22182569203477 246.22089209129413 246.22041738943312 246.22018699239322 246.2200802152073 246.2200329488052 246.2200129590098 246.22000488038307 246.2200017598662 246.22000060765697 246.22000020088748 246.22000006357788 246.2200000192529 246.22000000556815 246.22000000155546 246.22000000041396 246.2199999814047 246.21999998157744 246.21999998222523 246.21999998428652 246.2199999909451 246.2200000119964 246.22000007660995 246.22000026738303 246.22000080697237 246.22000226753224 246.22000604792225 246.2200154013245 246.22003751688104 246.22008747619876 246.2201952745023 246.22041737758127 246.2208541891681 246.22167388515322 246.22314084168485 246.22564307902394 246.2297081459191 246.235992144757 246.2452247844381 246.25809768511976 246.27509600439862 246.2962942876884 246.32116128735777 246.34843609168638 246.37613858039435 246.40175391867606 246.4225852175509 246.436213164705 246.44095657420422 246.4362131653587 246.42258521880146 246.40175392058032 246.3761385829523 246.34843609489803 246.32116129122312 246.29629429223587 246.27509600962821 246.2580976910599 246.2452247910888 246.23599215211823 246.22970815401928 246.2256430878631 246.2231408512914 246.22167389549872 246.220854200281 246.22041738943312 246.2201952870931 246.22008748950012 246.22003753086452 246.22001541596168 246.22000606321313 246.22000228339155 246.2200008234001 246.22000028429395 246.2200000939756 246.22000002973155 246.22000000899288 246.22000000261852 246.22000000072777 246.22000000019366 246.2199999847028 246.2199999847959 246.21999998512044 246.21999998613802 246.21999998920546 246.21999999875226 246.22000002784657 246.22000011345114 246.2200003553996 246.2200010099218 246.22000270378308 246.2200068943834 246.22001680247706 246.2200391847655 246.22008747918304 246.220186982673 246.22038267659963 246.22074990459328 246.2214071083865 246.22252812291188 246.22434929252466 246.22716455425518 246.23130082117495 246.23706794235991 246.2446832707739 246.25418020311525 246.26532073788312 246.27753998063184 246.2899508280089 246.30142662204224 246.31075914353502 246.3168645290888 246.31898959929563 246.3168645296004 246.31075914458663 246.30142662360544 246.2899508301121 246.27753998327506 246.26532074106635 246.2541802068385 246.24468327506557 246.23706794724845 246.23130082663192 246.227164560309 246.22434929920377 246.22252813018784 246.22140711625931 246.22074991309137 246.220382685723 246.22018699239322 246.22008748950012 246.22003919567945 246.22001681395943 246.22000690640579 246.22000271631705 246.22000102296735 246.2200003688715 246.22000012734935 246.22000004208584 246.22000001330417 246.2200000040416 246.2200000011731 246.22000000032605 246.22000000008677 246.21999998747552 246.21999998753168 246.21999998771958 246.21999998819663 246.21999998959768 246.21999999378224 246.22000000638468 246.22000004327333 246.2200001471932 246.22000042815412 246.2200011549707 246.22000295281637 246.22000720335822 246.22001680503502 246.22003752242327 246.22008020724923 246.22016415549808 246.2203216877145 246.2206036126474 246.2210845012522 246.2218657396397 246.22307341974678 246.2248477794263 246.22732173653827 246.23058853030474 246.23466248709352 246.2394415099586 246.244683272735 246.25000722929363 246.25493007032492 246.258933498743 246.26155256310204 246.26246416743504 246.26155256349995 246.25893349959566 246.2549300716039 246.25000723099893 246.24468327489504 246.2394415125734 246.23466249013464 246.23058853382904 246.2273217405173 246.22484778388852 246.22307342469216 246.22186574509666 246.22108450722075 246.22060361909914 246.2203216946778 246.22016416294457 246.2200802152073 246.22003753086452 246.22001681395943 246.2200072127658 246.22000296265028 246.22000116523094 246.22000043881226 246.2200001582208 246.2200000546136 246.22000001803758 246.22000000571936 246.22000000173375 246.22000000050323 246.22000000013986 246.22000000003723 246.2199999898005 246.21999998984032 246.2199999899393 246.21999999017385 246.21999999082138 246.21999999262903 246.21999999789944 246.22000001317903 246.22000005599207 246.2200001715592 246.2200004702524 246.22000120890513 246.22000295500484 246.22000689912983 246.22001540908363 246.22003294232505 246.22006742470748 246.22013213215504 246.22024793456455 246.22044546245203 246.22076636065938 246.22126242215293 246.22199125048132 246.22300744231165 246.2243492962195 246.226022696852 246.22798570729077 246.23013879072886 246.2323256356762 246.23434772022378 246.23599215086767 246.2370679462537 246.23744239290633 246.23706794659475 246.2359921515498 246.23434772124696 246.23232563706887 246.23013879246258 246.2279857094224 246.2260226993531 246.22434929909008 246.22300744558015 246.2219912541193 246.22126242618882 246.22076636509317 246.22044546728372 246.22024793982257 246.22013213781096 246.22006743078973 246.2200329488052 246.22001541596168 246.22000690640579 246.22000296265028 246.22000121692005 246.22000047860837 246.22000018022783 246.22000006497333 246.2200000224161 246.2200000073923 246.22000000234925 246.22000000071213 246.2200000002067 246.22000000005744 246.2200000000153 246.21999999173082 246.2199999917353 246.21999999180872 246.21999999195268 246.21999999226517 246.21999999305118 246.21999999521634 246.2200000012959 246.2200000182614 246.2200000638194 246.22000018143095 246.2200004720998 246.22000115900659 246.22000271043376 246.22000605761406 246.2200129537518 246.2200265161504 246.22005196632787 246.22009751262482 246.2201752022764 246.22030141459604 246.22049652019498 246.22078317507325 246.2211828525964 246.22171061594483 246.22236877960327 246.22314084938714 246.22398767659183 246.22484778249586 246.22564308664096 246.2262898561017 246.2267129761706 246.22686024951173 246.22671297645482 246.22628985667012 246.2256430874652 246.22484778363273 246.22398767801292 246.22314085112086 246.2223687816212 246.2217106182754 246.22118285523962 246.2207831780291 246.22049652346348 246.22030141817717 246.2201752061986 246.22009751688807 246.2200519709322 246.22002652109578 246.2200129590098 246.22000606321313 246.22000271631705 246.22000116523094 246.22000047860837 246.22000018822374 246.220000070868 246.22000002553736 246.22000000879922 246.22000000291862 246.220000000924 246.2200000002801 246.22000000008128 246.2200000000226 246.22000000000602 246.21999999332147 246.21999999332317 246.21999999335782 246.2199999934652 246.21999999362532 246.2199999939815 246.21999999487483 246.21999999724227 246.22000000371645 246.22000002098707 246.2200000653826 246.2200001749698 246.22000043378162 246.2200010181925 246.2200022788725 246.22000487611982 246.220009983904 246.22001956866671 246.22003672169737 246.22006598002628 246.220113512131 246.22018698972158 246.22029494505824 246.22044546509525 246.22064422272447 246.220892089532 246.2211828537617 246.22150177189403 246.22182569084106 246.22212520519366 246.22236878088225 246.22252812944888 246.2225835931468 246.22252812967625 246.222368781337 246.22212520587578 246.22182569175055 246.22150177305932 246.22118285515435 246.22089209115202 246.2206442246003 246.22044546722688 246.22029494741724 246.2201869923648 246.22011351505844 246.2200659831811 246.2200367251364 246.22001957238996 246.22000998788303 246.22000488038307 246.22000228339155 246.22000102296735 246.22000043881226 246.22000018022783 246.220000070868 246.2200000266714 246.22000000959974 246.22000000332451 246.22000000109918 246.22000000034797 246.22000000010547 246.2200000000306 246.2200000000085 246.22000000000227 246.21999999460007 246.21999999462912 246.2199999946598 246.2199999947246 246.21999999480843 246.21999999500957 246.21999999536573 246.21999999631032 246.21999999872557 246.22000000502385 246.220000021132 246.2200000607385 246.22000015418493 246.22000036503456 246.22000081976213 246.2200017564556 246.2200035984674 246.22000705491104 246.2200132405286 246.22002379140702 246.22004093195557 246.22006742862968 246.22010635821806 246.22016063699365 246.2202323105378 246.22032169325672 246.22042654508797 246.22054154942657 246.22065835709626 246.22076636426894 246.22085419954203 246.2209116618865 246.22093166255405 246.22091166205703 246.2208541999115 246.22076636483737 246.22065835783522 246.2205415503645 246.22042654622484 246.22032169456412 246.22023231207257 246.22016063869896 246.22010636015074 246.2200674307613 246.22004093431457 246.22002379396497 246.22001324331393 246.22000705789532 246.22000360167905 246.2200017598662 246.2200008234001 246.2200003688715 246.2200001582208 246.22000006497333 246.22000002553736 246.22000000959974 246.220000003472 246.22000000119885 246.22000000039637 246.22000000012548 246.22000000003803 246.22000000001103 246.22000000000307 246.22000000000082 246.21999999567998 246.21999999568018 246.21999999570937 246.21999999576897 246.21999999583514 246.21999999592217 246.21999999610097 246.21999999649177 246.21999999739035 246.2199999996297 246.22000000527493 246.2200000190339 246.22000005137352 246.2200001242798 246.2200002813665 246.22000060490006 246.22000124103178 246.22000243461213 246.22000457052295 246.22000821374698 246.2200141322957 246.2200232814577 246.2200367235732 246.22005546561337 246.22008021392833 246.22011107702176 246.2201472814686 246.22018699148373 246.22022732417267 246.22026461813996 246.22029494690565 246.22031478817576 246.22032169425148 246.22031478831786 246.22029494718987 246.2202646185663 246.22022732476952 246.22018699225112 246.2201472823781 246.22011107807336 246.22008021512204 246.2200554669776 246.22003672510797 246.22002328316302 246.22001413419994 246.22000821579334 246.22000457276826 246.22000243699955 246.22000124358973 246.22000060765697 246.22000028429395 246.22000012734935 246.2200000546136 246.2200000224161 246.22000000879922 246.22000000332451 246.22000000119885 246.22000000041396 246.22000000013685 246.2200000000433 246.22000000001313 246.2200000000038 246.22000000000105 246.22000000000028 246.219999996561 246.21999999656106 246.21999999658973 246.21999999661907 246.21999999665059 246.2199999967174 246.2199999968336 246.21999999701046 246.21999999735525 246.21999999814332 246.22000000007645 246.22000000469222 246.2200000154512 246.22000003964158 246.22000009164503 246.220000198699 246.2200004090773 246.22000080379038 246.22000151007077 246.2200027146686 246.22000467155476 246.2200076965811 246.22001214094564 246.22001833759717 246.2200265200726 246.2200367242269 246.22004869439394 246.22006182356068 246.2200751585989 246.2200874889601 246.22009751643333 246.22010407647957 246.22010635986652 246.22010407662168 246.2200975166607 246.22008748930116 246.22007515905364 246.22006182415754 246.22004869510448 246.22003672507955 246.22002652103893 246.2200183386772 246.22001214216777 246.22000769794533 246.2200046730611 246.22000271631705 246.22000151183292 246.22000080569464 246.22000041115209 246.22000020088748 246.2200000939756 246.22000004208584 246.22000001803758 246.2200000073923 246.22000000291862 246.22000000109918 246.22000000039637 246.22000000013685 246.22000000004525 246.22000000001432 246.22000000000435 246.22000000000125 246.22000000000034 246.22000000000008 246.2199999972431 246.21999999727154 246.21999999727163 246.21999999730033 246.21999999732972 246.21999999738975 246.21999999745637 246.2199999975422 246.21999999770964 246.21999999801739 246.21999999867867 246.2200000001892 246.22000000364457 246.2200000113715 246.22000002788414 246.22000006184416 246.22000012849537 246.22000025352307 246.22000047718728 246.2200008585903 246.22000147818255 246.2200024358911 246.22000384294532 246.22000580477012 246.22000839524222 246.22001162575006 246.22001541530798 246.22001957182152 246.2200237934818 246.22002769707962 246.220030871634 246.22003294846414 246.22003367137273 246.2200329485494 246.22003087183296 246.22002769736383 246.22002379385128 246.22001957227627 246.22001541587642 246.22001162640376 246.2200083960096 246.22000580562278 246.22000384394008 246.22000243697113 246.22000147937626 246.2200008598977 246.22000047857995 246.22000025505784 246.22000013014383 246.22000006357788 246.22000002973155 246.22000001330417 246.22000000571936 246.22000000234925 246.220000000924 246.22000000034797 246.22000000012548 246.2200000000433 246.22000000001432 246.22000000000455 246.22000000000136 246.2200000000004 246.2200000000001 246.22000000000003 246.21999999781153 246.21999999783995 246.21999999783998 246.21999999786848 246.21999999789722 246.21999999792658 246.2199999979864 246.2199999980236 246.21999999810535 246.21999999825806 246.21999999848953 246.21999999900683 246.2200000000853 246.2200000024784 246.22000000754338 246.22000001788865 246.2200000381524 246.22000007607505 246.22000014392637 246.22000025960247 246.22000044747347 246.22000073784807 246.2200011644067 246.22000175915565 246.22000254444993 246.22000352376153 246.22000467257794 246.2200059325945 246.22000721233948 246.22000839569696 246.22000935805573 246.22000998762724 246.22001020680588 246.2200099877125 246.22000935819784 246.22000839592434 246.22000721265212 246.22000593296397 246.22000467300427 246.22000352430155 246.2200025450752 246.22000175983777 246.22000116520252 246.22000073870072 246.22000044841138 246.22000026065407 246.22000014506324 246.2200000772972 246.22000003943137 246.2200000192529 246.22000000899288 246.2200000040416 246.22000000173375 246.22000000071213 246.2200000002801 246.22000000010547 246.22000000003803 246.22000000001313 246.22000000000435 246.22000000000136 246.22000000000043 246.2200000000001 246.22000000000003 246.22 246.2199999982947 246.2199999982947 246.2199999982947 246.21999999832315 246.21999999832323 246.21999999835194 246.21999999840963 246.2199999984406 246.21999999850468 246.21999999855268 246.2199999986602 246.21999999884247 246.21999999919584 246.21999999995097 246.22000000145323 246.22000000448813 246.22000001040198 246.22000002147817 246.22000004120477 246.220000074813 246.22000012937644 246.2200002136926 246.22000033757416 246.2200005102095 246.22000073818913 246.22000102248418 246.22000135597142 246.2200017217154 246.2200020932224 246.22000243671533 246.22000271608968 246.2200028988491 246.22000296247975 246.22000289890593 246.22000271620337 246.22000243688586 246.22000209344978 246.22000172202803 246.22000135631248 246.2200010229105 246.2200007386723 246.22000051077794 246.22000033817102 246.22000021437472 246.22000013014383 246.22000007563722 246.22000004208584 246.2200000224161 246.22000001142516 246.22000000556815 246.22000000261852 246.2200000011731 246.22000000050323 246.2200000002067 246.22000000008128 246.2200000000306 246.22000000001103 246.2200000000038 246.22000000000125 246.2200000000004 246.2200000000001 246.22000000000003 246.22 246.22 246.21999999863576 246.21999999866418 246.21999999866418 246.21999999866418 246.21999999869263 246.21999999872114 246.21999999874978 246.21999999877892 246.21999999880936 246.2199999988432 246.21999999891415 246.2199999989774 246.21999999911668 246.21999999935971 246.21999999981827 246.2200000006744 246.2200000023591 246.22000000547064 246.2200000109943 246.22000002037612 246.22000003555365 246.22000005902876 246.22000009349244 246.22000014149373 246.2200002048974 246.22000028392446 246.22000037662357 246.22000047832415 246.22000058159014 246.22000067707805 246.22000075473747 246.22000080555253 246.220000823258 246.22000080558095 246.22000075482273 246.22000067722016 246.22000058176067 246.22000047855153 246.2200003769078 246.22000028426552 246.22000020526687 246.22000014192005 246.2200000939472 246.22000005956878 246.2200000361505 246.2200000210014 246.22000001167643 246.2200000062096 246.2200000031549 246.22000000155546 246.22000000072777 246.22000000032605 246.22000000013986 246.22000000005744 246.2200000000226 246.2200000000085 246.22000000000307 246.22000000000105 246.22000000000034 246.2200000000001 246.22000000000003 246.22 246.22 246.22 246.2199999989484 246.2199999989484 246.2199999989484 246.2199999989484 246.21999999897682 246.21999999900527 246.21999999900532 246.21999999903394 246.2199999990629 246.21999999909278 246.21999999912495 246.21999999919106 246.21999999924142 246.21999999931938 246.21999999948312 246.21999999973184 246.22000000019347 246.22000000106326 246.22000000254653 246.22000000508498 246.220000009145 246.22000001540562 246.22000002461903 246.22000003741428 246.22000005430095 246.220000075353 246.2200001000435 246.22000012712198 246.2200001546246 246.2200001800573 246.22000020074537 246.22000021426103 246.2200002189938 246.22000021431788 246.22000020080222 246.22000018017098 246.22000015476672 246.2200001272925 246.22000010027088 246.2200000756088 246.22000005458517 246.22000003775534 246.2200000249885 246.22000001583194 246.22000000959974 246.22000000556815 246.22000000308654 246.2200000016601 246.22000000084716 246.22000000041396 246.22000000019366 246.22000000008677 246.22000000003723 246.2200000000153 246.22000000000602 246.22000000000227 246.22000000000082 246.22000000000028 246.22000000000008 246.22000000000003 246.22 246.22 246.22 246.22

CELL_DATA 0

